%TF.GenerationSoftware,KiCad,Pcbnew,8.0.5*%
%TF.CreationDate,2024-10-10T19:03:06-04:00*%
%TF.ProjectId,receiver,72656365-6976-4657-922e-6b696361645f,rev?*%
%TF.SameCoordinates,Original*%
%TF.FileFunction,Legend,Top*%
%TF.FilePolarity,Positive*%
%FSLAX46Y46*%
G04 Gerber Fmt 4.6, Leading zero omitted, Abs format (unit mm)*
G04 Created by KiCad (PCBNEW 8.0.5) date 2024-10-10 19:03:06*
%MOMM*%
%LPD*%
G01*
G04 APERTURE LIST*
%ADD10C,0.100000*%
%ADD11C,0.150000*%
%ADD12C,0.000000*%
%ADD13C,0.120000*%
G04 APERTURE END LIST*
D10*
X126627580Y-130803884D02*
X127627580Y-130803884D01*
X127532342Y-131232455D02*
X127579961Y-131280074D01*
X127579961Y-131280074D02*
X127627580Y-131375312D01*
X127627580Y-131375312D02*
X127627580Y-131613407D01*
X127627580Y-131613407D02*
X127579961Y-131708645D01*
X127579961Y-131708645D02*
X127532342Y-131756264D01*
X127532342Y-131756264D02*
X127437104Y-131803883D01*
X127437104Y-131803883D02*
X127341866Y-131803883D01*
X127341866Y-131803883D02*
X127199009Y-131756264D01*
X127199009Y-131756264D02*
X126627580Y-131184836D01*
X126627580Y-131184836D02*
X126627580Y-131803883D01*
X126722819Y-132803883D02*
X126675200Y-132756264D01*
X126675200Y-132756264D02*
X126627580Y-132613407D01*
X126627580Y-132613407D02*
X126627580Y-132518169D01*
X126627580Y-132518169D02*
X126675200Y-132375312D01*
X126675200Y-132375312D02*
X126770438Y-132280074D01*
X126770438Y-132280074D02*
X126865676Y-132232455D01*
X126865676Y-132232455D02*
X127056152Y-132184836D01*
X127056152Y-132184836D02*
X127199009Y-132184836D01*
X127199009Y-132184836D02*
X127389485Y-132232455D01*
X127389485Y-132232455D02*
X127484723Y-132280074D01*
X127484723Y-132280074D02*
X127579961Y-132375312D01*
X127579961Y-132375312D02*
X127627580Y-132518169D01*
X127627580Y-132518169D02*
X127627580Y-132613407D01*
X127627580Y-132613407D02*
X127579961Y-132756264D01*
X127579961Y-132756264D02*
X127532342Y-132803883D01*
X127627580Y-133422931D02*
X127627580Y-133518169D01*
X127627580Y-133518169D02*
X127579961Y-133613407D01*
X127579961Y-133613407D02*
X127532342Y-133661026D01*
X127532342Y-133661026D02*
X127437104Y-133708645D01*
X127437104Y-133708645D02*
X127246628Y-133756264D01*
X127246628Y-133756264D02*
X127008533Y-133756264D01*
X127008533Y-133756264D02*
X126818057Y-133708645D01*
X126818057Y-133708645D02*
X126722819Y-133661026D01*
X126722819Y-133661026D02*
X126675200Y-133613407D01*
X126675200Y-133613407D02*
X126627580Y-133518169D01*
X126627580Y-133518169D02*
X126627580Y-133422931D01*
X126627580Y-133422931D02*
X126675200Y-133327693D01*
X126675200Y-133327693D02*
X126722819Y-133280074D01*
X126722819Y-133280074D02*
X126818057Y-133232455D01*
X126818057Y-133232455D02*
X127008533Y-133184836D01*
X127008533Y-133184836D02*
X127246628Y-133184836D01*
X127246628Y-133184836D02*
X127437104Y-133232455D01*
X127437104Y-133232455D02*
X127532342Y-133280074D01*
X127532342Y-133280074D02*
X127579961Y-133327693D01*
X127579961Y-133327693D02*
X127627580Y-133422931D01*
X126675200Y-134899122D02*
X126627580Y-135041979D01*
X126627580Y-135041979D02*
X126627580Y-135280074D01*
X126627580Y-135280074D02*
X126675200Y-135375312D01*
X126675200Y-135375312D02*
X126722819Y-135422931D01*
X126722819Y-135422931D02*
X126818057Y-135470550D01*
X126818057Y-135470550D02*
X126913295Y-135470550D01*
X126913295Y-135470550D02*
X127008533Y-135422931D01*
X127008533Y-135422931D02*
X127056152Y-135375312D01*
X127056152Y-135375312D02*
X127103771Y-135280074D01*
X127103771Y-135280074D02*
X127151390Y-135089598D01*
X127151390Y-135089598D02*
X127199009Y-134994360D01*
X127199009Y-134994360D02*
X127246628Y-134946741D01*
X127246628Y-134946741D02*
X127341866Y-134899122D01*
X127341866Y-134899122D02*
X127437104Y-134899122D01*
X127437104Y-134899122D02*
X127532342Y-134946741D01*
X127532342Y-134946741D02*
X127579961Y-134994360D01*
X127579961Y-134994360D02*
X127627580Y-135089598D01*
X127627580Y-135089598D02*
X127627580Y-135327693D01*
X127627580Y-135327693D02*
X127579961Y-135470550D01*
X126627580Y-135899122D02*
X127627580Y-135899122D01*
X127627580Y-135899122D02*
X127627580Y-136137217D01*
X127627580Y-136137217D02*
X127579961Y-136280074D01*
X127579961Y-136280074D02*
X127484723Y-136375312D01*
X127484723Y-136375312D02*
X127389485Y-136422931D01*
X127389485Y-136422931D02*
X127199009Y-136470550D01*
X127199009Y-136470550D02*
X127056152Y-136470550D01*
X127056152Y-136470550D02*
X126865676Y-136422931D01*
X126865676Y-136422931D02*
X126770438Y-136375312D01*
X126770438Y-136375312D02*
X126675200Y-136280074D01*
X126675200Y-136280074D02*
X126627580Y-136137217D01*
X126627580Y-136137217D02*
X126627580Y-135899122D01*
X126913295Y-136851503D02*
X126913295Y-137327693D01*
X126627580Y-136756265D02*
X127627580Y-137089598D01*
X127627580Y-137089598D02*
X126627580Y-137422931D01*
X146079961Y-131327693D02*
X146127580Y-131232455D01*
X146127580Y-131232455D02*
X146127580Y-131089598D01*
X146127580Y-131089598D02*
X146079961Y-130946741D01*
X146079961Y-130946741D02*
X145984723Y-130851503D01*
X145984723Y-130851503D02*
X145889485Y-130803884D01*
X145889485Y-130803884D02*
X145699009Y-130756265D01*
X145699009Y-130756265D02*
X145556152Y-130756265D01*
X145556152Y-130756265D02*
X145365676Y-130803884D01*
X145365676Y-130803884D02*
X145270438Y-130851503D01*
X145270438Y-130851503D02*
X145175200Y-130946741D01*
X145175200Y-130946741D02*
X145127580Y-131089598D01*
X145127580Y-131089598D02*
X145127580Y-131184836D01*
X145127580Y-131184836D02*
X145175200Y-131327693D01*
X145175200Y-131327693D02*
X145222819Y-131375312D01*
X145222819Y-131375312D02*
X145556152Y-131375312D01*
X145556152Y-131375312D02*
X145556152Y-131184836D01*
X145127580Y-131803884D02*
X146127580Y-131803884D01*
X146127580Y-131803884D02*
X145127580Y-132375312D01*
X145127580Y-132375312D02*
X146127580Y-132375312D01*
X145127580Y-132851503D02*
X146127580Y-132851503D01*
X146127580Y-132851503D02*
X146127580Y-133089598D01*
X146127580Y-133089598D02*
X146079961Y-133232455D01*
X146079961Y-133232455D02*
X145984723Y-133327693D01*
X145984723Y-133327693D02*
X145889485Y-133375312D01*
X145889485Y-133375312D02*
X145699009Y-133422931D01*
X145699009Y-133422931D02*
X145556152Y-133422931D01*
X145556152Y-133422931D02*
X145365676Y-133375312D01*
X145365676Y-133375312D02*
X145270438Y-133327693D01*
X145270438Y-133327693D02*
X145175200Y-133232455D01*
X145175200Y-133232455D02*
X145127580Y-133089598D01*
X145127580Y-133089598D02*
X145127580Y-132851503D01*
X124627580Y-130803884D02*
X125627580Y-130803884D01*
X125532342Y-131232455D02*
X125579961Y-131280074D01*
X125579961Y-131280074D02*
X125627580Y-131375312D01*
X125627580Y-131375312D02*
X125627580Y-131613407D01*
X125627580Y-131613407D02*
X125579961Y-131708645D01*
X125579961Y-131708645D02*
X125532342Y-131756264D01*
X125532342Y-131756264D02*
X125437104Y-131803883D01*
X125437104Y-131803883D02*
X125341866Y-131803883D01*
X125341866Y-131803883D02*
X125199009Y-131756264D01*
X125199009Y-131756264D02*
X124627580Y-131184836D01*
X124627580Y-131184836D02*
X124627580Y-131803883D01*
X124722819Y-132803883D02*
X124675200Y-132756264D01*
X124675200Y-132756264D02*
X124627580Y-132613407D01*
X124627580Y-132613407D02*
X124627580Y-132518169D01*
X124627580Y-132518169D02*
X124675200Y-132375312D01*
X124675200Y-132375312D02*
X124770438Y-132280074D01*
X124770438Y-132280074D02*
X124865676Y-132232455D01*
X124865676Y-132232455D02*
X125056152Y-132184836D01*
X125056152Y-132184836D02*
X125199009Y-132184836D01*
X125199009Y-132184836D02*
X125389485Y-132232455D01*
X125389485Y-132232455D02*
X125484723Y-132280074D01*
X125484723Y-132280074D02*
X125579961Y-132375312D01*
X125579961Y-132375312D02*
X125627580Y-132518169D01*
X125627580Y-132518169D02*
X125627580Y-132613407D01*
X125627580Y-132613407D02*
X125579961Y-132756264D01*
X125579961Y-132756264D02*
X125532342Y-132803883D01*
X124627580Y-133756264D02*
X124627580Y-133184836D01*
X124627580Y-133470550D02*
X125627580Y-133470550D01*
X125627580Y-133470550D02*
X125484723Y-133375312D01*
X125484723Y-133375312D02*
X125389485Y-133280074D01*
X125389485Y-133280074D02*
X125341866Y-133184836D01*
X124675200Y-134899122D02*
X124627580Y-135041979D01*
X124627580Y-135041979D02*
X124627580Y-135280074D01*
X124627580Y-135280074D02*
X124675200Y-135375312D01*
X124675200Y-135375312D02*
X124722819Y-135422931D01*
X124722819Y-135422931D02*
X124818057Y-135470550D01*
X124818057Y-135470550D02*
X124913295Y-135470550D01*
X124913295Y-135470550D02*
X125008533Y-135422931D01*
X125008533Y-135422931D02*
X125056152Y-135375312D01*
X125056152Y-135375312D02*
X125103771Y-135280074D01*
X125103771Y-135280074D02*
X125151390Y-135089598D01*
X125151390Y-135089598D02*
X125199009Y-134994360D01*
X125199009Y-134994360D02*
X125246628Y-134946741D01*
X125246628Y-134946741D02*
X125341866Y-134899122D01*
X125341866Y-134899122D02*
X125437104Y-134899122D01*
X125437104Y-134899122D02*
X125532342Y-134946741D01*
X125532342Y-134946741D02*
X125579961Y-134994360D01*
X125579961Y-134994360D02*
X125627580Y-135089598D01*
X125627580Y-135089598D02*
X125627580Y-135327693D01*
X125627580Y-135327693D02*
X125579961Y-135470550D01*
X124722819Y-136470550D02*
X124675200Y-136422931D01*
X124675200Y-136422931D02*
X124627580Y-136280074D01*
X124627580Y-136280074D02*
X124627580Y-136184836D01*
X124627580Y-136184836D02*
X124675200Y-136041979D01*
X124675200Y-136041979D02*
X124770438Y-135946741D01*
X124770438Y-135946741D02*
X124865676Y-135899122D01*
X124865676Y-135899122D02*
X125056152Y-135851503D01*
X125056152Y-135851503D02*
X125199009Y-135851503D01*
X125199009Y-135851503D02*
X125389485Y-135899122D01*
X125389485Y-135899122D02*
X125484723Y-135946741D01*
X125484723Y-135946741D02*
X125579961Y-136041979D01*
X125579961Y-136041979D02*
X125627580Y-136184836D01*
X125627580Y-136184836D02*
X125627580Y-136280074D01*
X125627580Y-136280074D02*
X125579961Y-136422931D01*
X125579961Y-136422931D02*
X125532342Y-136470550D01*
X124627580Y-137375312D02*
X124627580Y-136899122D01*
X124627580Y-136899122D02*
X125627580Y-136899122D01*
X128627580Y-130803884D02*
X129627580Y-130803884D01*
X129532342Y-131232455D02*
X129579961Y-131280074D01*
X129579961Y-131280074D02*
X129627580Y-131375312D01*
X129627580Y-131375312D02*
X129627580Y-131613407D01*
X129627580Y-131613407D02*
X129579961Y-131708645D01*
X129579961Y-131708645D02*
X129532342Y-131756264D01*
X129532342Y-131756264D02*
X129437104Y-131803883D01*
X129437104Y-131803883D02*
X129341866Y-131803883D01*
X129341866Y-131803883D02*
X129199009Y-131756264D01*
X129199009Y-131756264D02*
X128627580Y-131184836D01*
X128627580Y-131184836D02*
X128627580Y-131803883D01*
X128722819Y-132803883D02*
X128675200Y-132756264D01*
X128675200Y-132756264D02*
X128627580Y-132613407D01*
X128627580Y-132613407D02*
X128627580Y-132518169D01*
X128627580Y-132518169D02*
X128675200Y-132375312D01*
X128675200Y-132375312D02*
X128770438Y-132280074D01*
X128770438Y-132280074D02*
X128865676Y-132232455D01*
X128865676Y-132232455D02*
X129056152Y-132184836D01*
X129056152Y-132184836D02*
X129199009Y-132184836D01*
X129199009Y-132184836D02*
X129389485Y-132232455D01*
X129389485Y-132232455D02*
X129484723Y-132280074D01*
X129484723Y-132280074D02*
X129579961Y-132375312D01*
X129579961Y-132375312D02*
X129627580Y-132518169D01*
X129627580Y-132518169D02*
X129627580Y-132613407D01*
X129627580Y-132613407D02*
X129579961Y-132756264D01*
X129579961Y-132756264D02*
X129532342Y-132803883D01*
X129627580Y-133422931D02*
X129627580Y-133518169D01*
X129627580Y-133518169D02*
X129579961Y-133613407D01*
X129579961Y-133613407D02*
X129532342Y-133661026D01*
X129532342Y-133661026D02*
X129437104Y-133708645D01*
X129437104Y-133708645D02*
X129246628Y-133756264D01*
X129246628Y-133756264D02*
X129008533Y-133756264D01*
X129008533Y-133756264D02*
X128818057Y-133708645D01*
X128818057Y-133708645D02*
X128722819Y-133661026D01*
X128722819Y-133661026D02*
X128675200Y-133613407D01*
X128675200Y-133613407D02*
X128627580Y-133518169D01*
X128627580Y-133518169D02*
X128627580Y-133422931D01*
X128627580Y-133422931D02*
X128675200Y-133327693D01*
X128675200Y-133327693D02*
X128722819Y-133280074D01*
X128722819Y-133280074D02*
X128818057Y-133232455D01*
X128818057Y-133232455D02*
X129008533Y-133184836D01*
X129008533Y-133184836D02*
X129246628Y-133184836D01*
X129246628Y-133184836D02*
X129437104Y-133232455D01*
X129437104Y-133232455D02*
X129532342Y-133280074D01*
X129532342Y-133280074D02*
X129579961Y-133327693D01*
X129579961Y-133327693D02*
X129627580Y-133422931D01*
X128675200Y-134899122D02*
X128627580Y-135041979D01*
X128627580Y-135041979D02*
X128627580Y-135280074D01*
X128627580Y-135280074D02*
X128675200Y-135375312D01*
X128675200Y-135375312D02*
X128722819Y-135422931D01*
X128722819Y-135422931D02*
X128818057Y-135470550D01*
X128818057Y-135470550D02*
X128913295Y-135470550D01*
X128913295Y-135470550D02*
X129008533Y-135422931D01*
X129008533Y-135422931D02*
X129056152Y-135375312D01*
X129056152Y-135375312D02*
X129103771Y-135280074D01*
X129103771Y-135280074D02*
X129151390Y-135089598D01*
X129151390Y-135089598D02*
X129199009Y-134994360D01*
X129199009Y-134994360D02*
X129246628Y-134946741D01*
X129246628Y-134946741D02*
X129341866Y-134899122D01*
X129341866Y-134899122D02*
X129437104Y-134899122D01*
X129437104Y-134899122D02*
X129532342Y-134946741D01*
X129532342Y-134946741D02*
X129579961Y-134994360D01*
X129579961Y-134994360D02*
X129627580Y-135089598D01*
X129627580Y-135089598D02*
X129627580Y-135327693D01*
X129627580Y-135327693D02*
X129579961Y-135470550D01*
X128722819Y-136470550D02*
X128675200Y-136422931D01*
X128675200Y-136422931D02*
X128627580Y-136280074D01*
X128627580Y-136280074D02*
X128627580Y-136184836D01*
X128627580Y-136184836D02*
X128675200Y-136041979D01*
X128675200Y-136041979D02*
X128770438Y-135946741D01*
X128770438Y-135946741D02*
X128865676Y-135899122D01*
X128865676Y-135899122D02*
X129056152Y-135851503D01*
X129056152Y-135851503D02*
X129199009Y-135851503D01*
X129199009Y-135851503D02*
X129389485Y-135899122D01*
X129389485Y-135899122D02*
X129484723Y-135946741D01*
X129484723Y-135946741D02*
X129579961Y-136041979D01*
X129579961Y-136041979D02*
X129627580Y-136184836D01*
X129627580Y-136184836D02*
X129627580Y-136280074D01*
X129627580Y-136280074D02*
X129579961Y-136422931D01*
X129579961Y-136422931D02*
X129532342Y-136470550D01*
X128627580Y-137375312D02*
X128627580Y-136899122D01*
X128627580Y-136899122D02*
X129627580Y-136899122D01*
X131008533Y-130803884D02*
X131008533Y-131565789D01*
X130627580Y-131184836D02*
X131389485Y-131184836D01*
X131627580Y-131946741D02*
X131627580Y-132565788D01*
X131627580Y-132565788D02*
X131246628Y-132232455D01*
X131246628Y-132232455D02*
X131246628Y-132375312D01*
X131246628Y-132375312D02*
X131199009Y-132470550D01*
X131199009Y-132470550D02*
X131151390Y-132518169D01*
X131151390Y-132518169D02*
X131056152Y-132565788D01*
X131056152Y-132565788D02*
X130818057Y-132565788D01*
X130818057Y-132565788D02*
X130722819Y-132518169D01*
X130722819Y-132518169D02*
X130675200Y-132470550D01*
X130675200Y-132470550D02*
X130627580Y-132375312D01*
X130627580Y-132375312D02*
X130627580Y-132089598D01*
X130627580Y-132089598D02*
X130675200Y-131994360D01*
X130675200Y-131994360D02*
X130722819Y-131946741D01*
X131627580Y-132851503D02*
X130627580Y-133184836D01*
X130627580Y-133184836D02*
X131627580Y-133518169D01*
X131627580Y-133756265D02*
X131627580Y-134375312D01*
X131627580Y-134375312D02*
X131246628Y-134041979D01*
X131246628Y-134041979D02*
X131246628Y-134184836D01*
X131246628Y-134184836D02*
X131199009Y-134280074D01*
X131199009Y-134280074D02*
X131151390Y-134327693D01*
X131151390Y-134327693D02*
X131056152Y-134375312D01*
X131056152Y-134375312D02*
X130818057Y-134375312D01*
X130818057Y-134375312D02*
X130722819Y-134327693D01*
X130722819Y-134327693D02*
X130675200Y-134280074D01*
X130675200Y-134280074D02*
X130627580Y-134184836D01*
X130627580Y-134184836D02*
X130627580Y-133899122D01*
X130627580Y-133899122D02*
X130675200Y-133803884D01*
X130675200Y-133803884D02*
X130722819Y-133756265D01*
X133008533Y-130803884D02*
X133008533Y-131565789D01*
X132627580Y-131184836D02*
X133389485Y-131184836D01*
X133627580Y-132518169D02*
X133627580Y-132041979D01*
X133627580Y-132041979D02*
X133151390Y-131994360D01*
X133151390Y-131994360D02*
X133199009Y-132041979D01*
X133199009Y-132041979D02*
X133246628Y-132137217D01*
X133246628Y-132137217D02*
X133246628Y-132375312D01*
X133246628Y-132375312D02*
X133199009Y-132470550D01*
X133199009Y-132470550D02*
X133151390Y-132518169D01*
X133151390Y-132518169D02*
X133056152Y-132565788D01*
X133056152Y-132565788D02*
X132818057Y-132565788D01*
X132818057Y-132565788D02*
X132722819Y-132518169D01*
X132722819Y-132518169D02*
X132675200Y-132470550D01*
X132675200Y-132470550D02*
X132627580Y-132375312D01*
X132627580Y-132375312D02*
X132627580Y-132137217D01*
X132627580Y-132137217D02*
X132675200Y-132041979D01*
X132675200Y-132041979D02*
X132722819Y-131994360D01*
X133627580Y-132851503D02*
X132627580Y-133184836D01*
X132627580Y-133184836D02*
X133627580Y-133518169D01*
X147508533Y-130803884D02*
X147508533Y-131565789D01*
X147127580Y-131184836D02*
X147889485Y-131184836D01*
X148127580Y-132518169D02*
X148127580Y-132041979D01*
X148127580Y-132041979D02*
X147651390Y-131994360D01*
X147651390Y-131994360D02*
X147699009Y-132041979D01*
X147699009Y-132041979D02*
X147746628Y-132137217D01*
X147746628Y-132137217D02*
X147746628Y-132375312D01*
X147746628Y-132375312D02*
X147699009Y-132470550D01*
X147699009Y-132470550D02*
X147651390Y-132518169D01*
X147651390Y-132518169D02*
X147556152Y-132565788D01*
X147556152Y-132565788D02*
X147318057Y-132565788D01*
X147318057Y-132565788D02*
X147222819Y-132518169D01*
X147222819Y-132518169D02*
X147175200Y-132470550D01*
X147175200Y-132470550D02*
X147127580Y-132375312D01*
X147127580Y-132375312D02*
X147127580Y-132137217D01*
X147127580Y-132137217D02*
X147175200Y-132041979D01*
X147175200Y-132041979D02*
X147222819Y-131994360D01*
X148127580Y-132851503D02*
X147127580Y-133184836D01*
X147127580Y-133184836D02*
X148127580Y-133518169D01*
X121079961Y-131327693D02*
X121127580Y-131232455D01*
X121127580Y-131232455D02*
X121127580Y-131089598D01*
X121127580Y-131089598D02*
X121079961Y-130946741D01*
X121079961Y-130946741D02*
X120984723Y-130851503D01*
X120984723Y-130851503D02*
X120889485Y-130803884D01*
X120889485Y-130803884D02*
X120699009Y-130756265D01*
X120699009Y-130756265D02*
X120556152Y-130756265D01*
X120556152Y-130756265D02*
X120365676Y-130803884D01*
X120365676Y-130803884D02*
X120270438Y-130851503D01*
X120270438Y-130851503D02*
X120175200Y-130946741D01*
X120175200Y-130946741D02*
X120127580Y-131089598D01*
X120127580Y-131089598D02*
X120127580Y-131184836D01*
X120127580Y-131184836D02*
X120175200Y-131327693D01*
X120175200Y-131327693D02*
X120222819Y-131375312D01*
X120222819Y-131375312D02*
X120556152Y-131375312D01*
X120556152Y-131375312D02*
X120556152Y-131184836D01*
X120127580Y-131803884D02*
X121127580Y-131803884D01*
X121127580Y-131803884D02*
X120127580Y-132375312D01*
X120127580Y-132375312D02*
X121127580Y-132375312D01*
X120127580Y-132851503D02*
X121127580Y-132851503D01*
X121127580Y-132851503D02*
X121127580Y-133089598D01*
X121127580Y-133089598D02*
X121079961Y-133232455D01*
X121079961Y-133232455D02*
X120984723Y-133327693D01*
X120984723Y-133327693D02*
X120889485Y-133375312D01*
X120889485Y-133375312D02*
X120699009Y-133422931D01*
X120699009Y-133422931D02*
X120556152Y-133422931D01*
X120556152Y-133422931D02*
X120365676Y-133375312D01*
X120365676Y-133375312D02*
X120270438Y-133327693D01*
X120270438Y-133327693D02*
X120175200Y-133232455D01*
X120175200Y-133232455D02*
X120127580Y-133089598D01*
X120127580Y-133089598D02*
X120127580Y-132851503D01*
X115280074Y-89432643D02*
X114803884Y-89432643D01*
X114803884Y-89432643D02*
X114803884Y-88432643D01*
X115756265Y-89432643D02*
X115661027Y-89385024D01*
X115661027Y-89385024D02*
X115613408Y-89337404D01*
X115613408Y-89337404D02*
X115565789Y-89242166D01*
X115565789Y-89242166D02*
X115565789Y-88956452D01*
X115565789Y-88956452D02*
X115613408Y-88861214D01*
X115613408Y-88861214D02*
X115661027Y-88813595D01*
X115661027Y-88813595D02*
X115756265Y-88765976D01*
X115756265Y-88765976D02*
X115899122Y-88765976D01*
X115899122Y-88765976D02*
X115994360Y-88813595D01*
X115994360Y-88813595D02*
X116041979Y-88861214D01*
X116041979Y-88861214D02*
X116089598Y-88956452D01*
X116089598Y-88956452D02*
X116089598Y-89242166D01*
X116089598Y-89242166D02*
X116041979Y-89337404D01*
X116041979Y-89337404D02*
X115994360Y-89385024D01*
X115994360Y-89385024D02*
X115899122Y-89432643D01*
X115899122Y-89432643D02*
X115756265Y-89432643D01*
X116422932Y-88765976D02*
X116613408Y-89432643D01*
X116613408Y-89432643D02*
X116803884Y-88956452D01*
X116803884Y-88956452D02*
X116994360Y-89432643D01*
X116994360Y-89432643D02*
X117184836Y-88765976D01*
X117565789Y-89051690D02*
X118327694Y-89051690D01*
X119375312Y-89337404D02*
X119327693Y-89385024D01*
X119327693Y-89385024D02*
X119184836Y-89432643D01*
X119184836Y-89432643D02*
X119089598Y-89432643D01*
X119089598Y-89432643D02*
X118946741Y-89385024D01*
X118946741Y-89385024D02*
X118851503Y-89289785D01*
X118851503Y-89289785D02*
X118803884Y-89194547D01*
X118803884Y-89194547D02*
X118756265Y-89004071D01*
X118756265Y-89004071D02*
X118756265Y-88861214D01*
X118756265Y-88861214D02*
X118803884Y-88670738D01*
X118803884Y-88670738D02*
X118851503Y-88575500D01*
X118851503Y-88575500D02*
X118946741Y-88480262D01*
X118946741Y-88480262D02*
X119089598Y-88432643D01*
X119089598Y-88432643D02*
X119184836Y-88432643D01*
X119184836Y-88432643D02*
X119327693Y-88480262D01*
X119327693Y-88480262D02*
X119375312Y-88527881D01*
X119946741Y-89432643D02*
X119851503Y-89385024D01*
X119851503Y-89385024D02*
X119803884Y-89337404D01*
X119803884Y-89337404D02*
X119756265Y-89242166D01*
X119756265Y-89242166D02*
X119756265Y-88956452D01*
X119756265Y-88956452D02*
X119803884Y-88861214D01*
X119803884Y-88861214D02*
X119851503Y-88813595D01*
X119851503Y-88813595D02*
X119946741Y-88765976D01*
X119946741Y-88765976D02*
X120089598Y-88765976D01*
X120089598Y-88765976D02*
X120184836Y-88813595D01*
X120184836Y-88813595D02*
X120232455Y-88861214D01*
X120232455Y-88861214D02*
X120280074Y-88956452D01*
X120280074Y-88956452D02*
X120280074Y-89242166D01*
X120280074Y-89242166D02*
X120232455Y-89337404D01*
X120232455Y-89337404D02*
X120184836Y-89385024D01*
X120184836Y-89385024D02*
X120089598Y-89432643D01*
X120089598Y-89432643D02*
X119946741Y-89432643D01*
X120661027Y-89385024D02*
X120756265Y-89432643D01*
X120756265Y-89432643D02*
X120946741Y-89432643D01*
X120946741Y-89432643D02*
X121041979Y-89385024D01*
X121041979Y-89385024D02*
X121089598Y-89289785D01*
X121089598Y-89289785D02*
X121089598Y-89242166D01*
X121089598Y-89242166D02*
X121041979Y-89146928D01*
X121041979Y-89146928D02*
X120946741Y-89099309D01*
X120946741Y-89099309D02*
X120803884Y-89099309D01*
X120803884Y-89099309D02*
X120708646Y-89051690D01*
X120708646Y-89051690D02*
X120661027Y-88956452D01*
X120661027Y-88956452D02*
X120661027Y-88908833D01*
X120661027Y-88908833D02*
X120708646Y-88813595D01*
X120708646Y-88813595D02*
X120803884Y-88765976D01*
X120803884Y-88765976D02*
X120946741Y-88765976D01*
X120946741Y-88765976D02*
X121041979Y-88813595D01*
X121375313Y-88765976D02*
X121756265Y-88765976D01*
X121518170Y-88432643D02*
X121518170Y-89289785D01*
X121518170Y-89289785D02*
X121565789Y-89385024D01*
X121565789Y-89385024D02*
X121661027Y-89432643D01*
X121661027Y-89432643D02*
X121756265Y-89432643D01*
X114661027Y-90042587D02*
X115232455Y-90042587D01*
X114946741Y-91042587D02*
X114946741Y-90042587D01*
X115565789Y-91042587D02*
X115565789Y-90042587D01*
X115994360Y-91042587D02*
X115994360Y-90518777D01*
X115994360Y-90518777D02*
X115946741Y-90423539D01*
X115946741Y-90423539D02*
X115851503Y-90375920D01*
X115851503Y-90375920D02*
X115708646Y-90375920D01*
X115708646Y-90375920D02*
X115613408Y-90423539D01*
X115613408Y-90423539D02*
X115565789Y-90471158D01*
X116470551Y-91042587D02*
X116470551Y-90375920D01*
X116470551Y-90566396D02*
X116518170Y-90471158D01*
X116518170Y-90471158D02*
X116565789Y-90423539D01*
X116565789Y-90423539D02*
X116661027Y-90375920D01*
X116661027Y-90375920D02*
X116756265Y-90375920D01*
X117518170Y-90375920D02*
X117518170Y-91042587D01*
X117089599Y-90375920D02*
X117089599Y-90899729D01*
X117089599Y-90899729D02*
X117137218Y-90994968D01*
X117137218Y-90994968D02*
X117232456Y-91042587D01*
X117232456Y-91042587D02*
X117375313Y-91042587D01*
X117375313Y-91042587D02*
X117470551Y-90994968D01*
X117470551Y-90994968D02*
X117518170Y-90947348D01*
X117946742Y-90994968D02*
X118041980Y-91042587D01*
X118041980Y-91042587D02*
X118232456Y-91042587D01*
X118232456Y-91042587D02*
X118327694Y-90994968D01*
X118327694Y-90994968D02*
X118375313Y-90899729D01*
X118375313Y-90899729D02*
X118375313Y-90852110D01*
X118375313Y-90852110D02*
X118327694Y-90756872D01*
X118327694Y-90756872D02*
X118232456Y-90709253D01*
X118232456Y-90709253D02*
X118089599Y-90709253D01*
X118089599Y-90709253D02*
X117994361Y-90661634D01*
X117994361Y-90661634D02*
X117946742Y-90566396D01*
X117946742Y-90566396D02*
X117946742Y-90518777D01*
X117946742Y-90518777D02*
X117994361Y-90423539D01*
X117994361Y-90423539D02*
X118089599Y-90375920D01*
X118089599Y-90375920D02*
X118232456Y-90375920D01*
X118232456Y-90375920D02*
X118327694Y-90423539D01*
X118661028Y-90375920D02*
X119041980Y-90375920D01*
X118803885Y-90042587D02*
X118803885Y-90899729D01*
X118803885Y-90899729D02*
X118851504Y-90994968D01*
X118851504Y-90994968D02*
X118946742Y-91042587D01*
X118946742Y-91042587D02*
X119041980Y-91042587D01*
X120089600Y-90994968D02*
X120232457Y-91042587D01*
X120232457Y-91042587D02*
X120470552Y-91042587D01*
X120470552Y-91042587D02*
X120565790Y-90994968D01*
X120565790Y-90994968D02*
X120613409Y-90947348D01*
X120613409Y-90947348D02*
X120661028Y-90852110D01*
X120661028Y-90852110D02*
X120661028Y-90756872D01*
X120661028Y-90756872D02*
X120613409Y-90661634D01*
X120613409Y-90661634D02*
X120565790Y-90614015D01*
X120565790Y-90614015D02*
X120470552Y-90566396D01*
X120470552Y-90566396D02*
X120280076Y-90518777D01*
X120280076Y-90518777D02*
X120184838Y-90471158D01*
X120184838Y-90471158D02*
X120137219Y-90423539D01*
X120137219Y-90423539D02*
X120089600Y-90328301D01*
X120089600Y-90328301D02*
X120089600Y-90233063D01*
X120089600Y-90233063D02*
X120137219Y-90137825D01*
X120137219Y-90137825D02*
X120184838Y-90090206D01*
X120184838Y-90090206D02*
X120280076Y-90042587D01*
X120280076Y-90042587D02*
X120518171Y-90042587D01*
X120518171Y-90042587D02*
X120661028Y-90090206D01*
X120946743Y-90375920D02*
X121327695Y-90375920D01*
X121089600Y-90042587D02*
X121089600Y-90899729D01*
X121089600Y-90899729D02*
X121137219Y-90994968D01*
X121137219Y-90994968D02*
X121232457Y-91042587D01*
X121232457Y-91042587D02*
X121327695Y-91042587D01*
X122089600Y-91042587D02*
X122089600Y-90518777D01*
X122089600Y-90518777D02*
X122041981Y-90423539D01*
X122041981Y-90423539D02*
X121946743Y-90375920D01*
X121946743Y-90375920D02*
X121756267Y-90375920D01*
X121756267Y-90375920D02*
X121661029Y-90423539D01*
X122089600Y-90994968D02*
X121994362Y-91042587D01*
X121994362Y-91042587D02*
X121756267Y-91042587D01*
X121756267Y-91042587D02*
X121661029Y-90994968D01*
X121661029Y-90994968D02*
X121613410Y-90899729D01*
X121613410Y-90899729D02*
X121613410Y-90804491D01*
X121613410Y-90804491D02*
X121661029Y-90709253D01*
X121661029Y-90709253D02*
X121756267Y-90661634D01*
X121756267Y-90661634D02*
X121994362Y-90661634D01*
X121994362Y-90661634D02*
X122089600Y-90614015D01*
X122565791Y-90375920D02*
X122565791Y-91042587D01*
X122565791Y-90471158D02*
X122613410Y-90423539D01*
X122613410Y-90423539D02*
X122708648Y-90375920D01*
X122708648Y-90375920D02*
X122851505Y-90375920D01*
X122851505Y-90375920D02*
X122946743Y-90423539D01*
X122946743Y-90423539D02*
X122994362Y-90518777D01*
X122994362Y-90518777D02*
X122994362Y-91042587D01*
X123899124Y-91042587D02*
X123899124Y-90042587D01*
X123899124Y-90994968D02*
X123803886Y-91042587D01*
X123803886Y-91042587D02*
X123613410Y-91042587D01*
X123613410Y-91042587D02*
X123518172Y-90994968D01*
X123518172Y-90994968D02*
X123470553Y-90947348D01*
X123470553Y-90947348D02*
X123422934Y-90852110D01*
X123422934Y-90852110D02*
X123422934Y-90566396D01*
X123422934Y-90566396D02*
X123470553Y-90471158D01*
X123470553Y-90471158D02*
X123518172Y-90423539D01*
X123518172Y-90423539D02*
X123613410Y-90375920D01*
X123613410Y-90375920D02*
X123803886Y-90375920D01*
X123803886Y-90375920D02*
X123899124Y-90423539D01*
X114756265Y-92604912D02*
X114899122Y-92652531D01*
X114899122Y-92652531D02*
X115137217Y-92652531D01*
X115137217Y-92652531D02*
X115232455Y-92604912D01*
X115232455Y-92604912D02*
X115280074Y-92557292D01*
X115280074Y-92557292D02*
X115327693Y-92462054D01*
X115327693Y-92462054D02*
X115327693Y-92366816D01*
X115327693Y-92366816D02*
X115280074Y-92271578D01*
X115280074Y-92271578D02*
X115232455Y-92223959D01*
X115232455Y-92223959D02*
X115137217Y-92176340D01*
X115137217Y-92176340D02*
X114946741Y-92128721D01*
X114946741Y-92128721D02*
X114851503Y-92081102D01*
X114851503Y-92081102D02*
X114803884Y-92033483D01*
X114803884Y-92033483D02*
X114756265Y-91938245D01*
X114756265Y-91938245D02*
X114756265Y-91843007D01*
X114756265Y-91843007D02*
X114803884Y-91747769D01*
X114803884Y-91747769D02*
X114851503Y-91700150D01*
X114851503Y-91700150D02*
X114946741Y-91652531D01*
X114946741Y-91652531D02*
X115184836Y-91652531D01*
X115184836Y-91652531D02*
X115327693Y-91700150D01*
X116137217Y-92604912D02*
X116041979Y-92652531D01*
X116041979Y-92652531D02*
X115851503Y-92652531D01*
X115851503Y-92652531D02*
X115756265Y-92604912D01*
X115756265Y-92604912D02*
X115708646Y-92509673D01*
X115708646Y-92509673D02*
X115708646Y-92128721D01*
X115708646Y-92128721D02*
X115756265Y-92033483D01*
X115756265Y-92033483D02*
X115851503Y-91985864D01*
X115851503Y-91985864D02*
X116041979Y-91985864D01*
X116041979Y-91985864D02*
X116137217Y-92033483D01*
X116137217Y-92033483D02*
X116184836Y-92128721D01*
X116184836Y-92128721D02*
X116184836Y-92223959D01*
X116184836Y-92223959D02*
X115708646Y-92319197D01*
X116613408Y-91985864D02*
X116613408Y-92652531D01*
X116613408Y-92081102D02*
X116661027Y-92033483D01*
X116661027Y-92033483D02*
X116756265Y-91985864D01*
X116756265Y-91985864D02*
X116899122Y-91985864D01*
X116899122Y-91985864D02*
X116994360Y-92033483D01*
X116994360Y-92033483D02*
X117041979Y-92128721D01*
X117041979Y-92128721D02*
X117041979Y-92652531D01*
X117470551Y-92604912D02*
X117565789Y-92652531D01*
X117565789Y-92652531D02*
X117756265Y-92652531D01*
X117756265Y-92652531D02*
X117851503Y-92604912D01*
X117851503Y-92604912D02*
X117899122Y-92509673D01*
X117899122Y-92509673D02*
X117899122Y-92462054D01*
X117899122Y-92462054D02*
X117851503Y-92366816D01*
X117851503Y-92366816D02*
X117756265Y-92319197D01*
X117756265Y-92319197D02*
X117613408Y-92319197D01*
X117613408Y-92319197D02*
X117518170Y-92271578D01*
X117518170Y-92271578D02*
X117470551Y-92176340D01*
X117470551Y-92176340D02*
X117470551Y-92128721D01*
X117470551Y-92128721D02*
X117518170Y-92033483D01*
X117518170Y-92033483D02*
X117613408Y-91985864D01*
X117613408Y-91985864D02*
X117756265Y-91985864D01*
X117756265Y-91985864D02*
X117851503Y-92033483D01*
X118327694Y-92652531D02*
X118327694Y-91985864D01*
X118327694Y-91652531D02*
X118280075Y-91700150D01*
X118280075Y-91700150D02*
X118327694Y-91747769D01*
X118327694Y-91747769D02*
X118375313Y-91700150D01*
X118375313Y-91700150D02*
X118327694Y-91652531D01*
X118327694Y-91652531D02*
X118327694Y-91747769D01*
X118803884Y-91985864D02*
X118803884Y-92652531D01*
X118803884Y-92081102D02*
X118851503Y-92033483D01*
X118851503Y-92033483D02*
X118946741Y-91985864D01*
X118946741Y-91985864D02*
X119089598Y-91985864D01*
X119089598Y-91985864D02*
X119184836Y-92033483D01*
X119184836Y-92033483D02*
X119232455Y-92128721D01*
X119232455Y-92128721D02*
X119232455Y-92652531D01*
X120137217Y-91985864D02*
X120137217Y-92795388D01*
X120137217Y-92795388D02*
X120089598Y-92890626D01*
X120089598Y-92890626D02*
X120041979Y-92938245D01*
X120041979Y-92938245D02*
X119946741Y-92985864D01*
X119946741Y-92985864D02*
X119803884Y-92985864D01*
X119803884Y-92985864D02*
X119708646Y-92938245D01*
X120137217Y-92604912D02*
X120041979Y-92652531D01*
X120041979Y-92652531D02*
X119851503Y-92652531D01*
X119851503Y-92652531D02*
X119756265Y-92604912D01*
X119756265Y-92604912D02*
X119708646Y-92557292D01*
X119708646Y-92557292D02*
X119661027Y-92462054D01*
X119661027Y-92462054D02*
X119661027Y-92176340D01*
X119661027Y-92176340D02*
X119708646Y-92081102D01*
X119708646Y-92081102D02*
X119756265Y-92033483D01*
X119756265Y-92033483D02*
X119851503Y-91985864D01*
X119851503Y-91985864D02*
X120041979Y-91985864D01*
X120041979Y-91985864D02*
X120137217Y-92033483D01*
X115375312Y-94262475D02*
X115041979Y-93786284D01*
X114803884Y-94262475D02*
X114803884Y-93262475D01*
X114803884Y-93262475D02*
X115184836Y-93262475D01*
X115184836Y-93262475D02*
X115280074Y-93310094D01*
X115280074Y-93310094D02*
X115327693Y-93357713D01*
X115327693Y-93357713D02*
X115375312Y-93452951D01*
X115375312Y-93452951D02*
X115375312Y-93595808D01*
X115375312Y-93595808D02*
X115327693Y-93691046D01*
X115327693Y-93691046D02*
X115280074Y-93738665D01*
X115280074Y-93738665D02*
X115184836Y-93786284D01*
X115184836Y-93786284D02*
X114803884Y-93786284D01*
X116184836Y-94214856D02*
X116089598Y-94262475D01*
X116089598Y-94262475D02*
X115899122Y-94262475D01*
X115899122Y-94262475D02*
X115803884Y-94214856D01*
X115803884Y-94214856D02*
X115756265Y-94119617D01*
X115756265Y-94119617D02*
X115756265Y-93738665D01*
X115756265Y-93738665D02*
X115803884Y-93643427D01*
X115803884Y-93643427D02*
X115899122Y-93595808D01*
X115899122Y-93595808D02*
X116089598Y-93595808D01*
X116089598Y-93595808D02*
X116184836Y-93643427D01*
X116184836Y-93643427D02*
X116232455Y-93738665D01*
X116232455Y-93738665D02*
X116232455Y-93833903D01*
X116232455Y-93833903D02*
X115756265Y-93929141D01*
X117089598Y-94214856D02*
X116994360Y-94262475D01*
X116994360Y-94262475D02*
X116803884Y-94262475D01*
X116803884Y-94262475D02*
X116708646Y-94214856D01*
X116708646Y-94214856D02*
X116661027Y-94167236D01*
X116661027Y-94167236D02*
X116613408Y-94071998D01*
X116613408Y-94071998D02*
X116613408Y-93786284D01*
X116613408Y-93786284D02*
X116661027Y-93691046D01*
X116661027Y-93691046D02*
X116708646Y-93643427D01*
X116708646Y-93643427D02*
X116803884Y-93595808D01*
X116803884Y-93595808D02*
X116994360Y-93595808D01*
X116994360Y-93595808D02*
X117089598Y-93643427D01*
X117899122Y-94214856D02*
X117803884Y-94262475D01*
X117803884Y-94262475D02*
X117613408Y-94262475D01*
X117613408Y-94262475D02*
X117518170Y-94214856D01*
X117518170Y-94214856D02*
X117470551Y-94119617D01*
X117470551Y-94119617D02*
X117470551Y-93738665D01*
X117470551Y-93738665D02*
X117518170Y-93643427D01*
X117518170Y-93643427D02*
X117613408Y-93595808D01*
X117613408Y-93595808D02*
X117803884Y-93595808D01*
X117803884Y-93595808D02*
X117899122Y-93643427D01*
X117899122Y-93643427D02*
X117946741Y-93738665D01*
X117946741Y-93738665D02*
X117946741Y-93833903D01*
X117946741Y-93833903D02*
X117470551Y-93929141D01*
X118375313Y-94262475D02*
X118375313Y-93595808D01*
X118375313Y-93262475D02*
X118327694Y-93310094D01*
X118327694Y-93310094D02*
X118375313Y-93357713D01*
X118375313Y-93357713D02*
X118422932Y-93310094D01*
X118422932Y-93310094D02*
X118375313Y-93262475D01*
X118375313Y-93262475D02*
X118375313Y-93357713D01*
X118756265Y-93595808D02*
X118994360Y-94262475D01*
X118994360Y-94262475D02*
X119232455Y-93595808D01*
X119994360Y-94214856D02*
X119899122Y-94262475D01*
X119899122Y-94262475D02*
X119708646Y-94262475D01*
X119708646Y-94262475D02*
X119613408Y-94214856D01*
X119613408Y-94214856D02*
X119565789Y-94119617D01*
X119565789Y-94119617D02*
X119565789Y-93738665D01*
X119565789Y-93738665D02*
X119613408Y-93643427D01*
X119613408Y-93643427D02*
X119708646Y-93595808D01*
X119708646Y-93595808D02*
X119899122Y-93595808D01*
X119899122Y-93595808D02*
X119994360Y-93643427D01*
X119994360Y-93643427D02*
X120041979Y-93738665D01*
X120041979Y-93738665D02*
X120041979Y-93833903D01*
X120041979Y-93833903D02*
X119565789Y-93929141D01*
X120470551Y-94262475D02*
X120470551Y-93595808D01*
X120470551Y-93786284D02*
X120518170Y-93691046D01*
X120518170Y-93691046D02*
X120565789Y-93643427D01*
X120565789Y-93643427D02*
X120661027Y-93595808D01*
X120661027Y-93595808D02*
X120756265Y-93595808D01*
X115375312Y-95872419D02*
X115041979Y-95396228D01*
X114803884Y-95872419D02*
X114803884Y-94872419D01*
X114803884Y-94872419D02*
X115184836Y-94872419D01*
X115184836Y-94872419D02*
X115280074Y-94920038D01*
X115280074Y-94920038D02*
X115327693Y-94967657D01*
X115327693Y-94967657D02*
X115375312Y-95062895D01*
X115375312Y-95062895D02*
X115375312Y-95205752D01*
X115375312Y-95205752D02*
X115327693Y-95300990D01*
X115327693Y-95300990D02*
X115280074Y-95348609D01*
X115280074Y-95348609D02*
X115184836Y-95396228D01*
X115184836Y-95396228D02*
X114803884Y-95396228D01*
X116184836Y-95824800D02*
X116089598Y-95872419D01*
X116089598Y-95872419D02*
X115899122Y-95872419D01*
X115899122Y-95872419D02*
X115803884Y-95824800D01*
X115803884Y-95824800D02*
X115756265Y-95729561D01*
X115756265Y-95729561D02*
X115756265Y-95348609D01*
X115756265Y-95348609D02*
X115803884Y-95253371D01*
X115803884Y-95253371D02*
X115899122Y-95205752D01*
X115899122Y-95205752D02*
X116089598Y-95205752D01*
X116089598Y-95205752D02*
X116184836Y-95253371D01*
X116184836Y-95253371D02*
X116232455Y-95348609D01*
X116232455Y-95348609D02*
X116232455Y-95443847D01*
X116232455Y-95443847D02*
X115756265Y-95539085D01*
X116565789Y-95205752D02*
X116803884Y-95872419D01*
X116803884Y-95872419D02*
X117041979Y-95205752D01*
X118708646Y-95872419D02*
X118137218Y-95872419D01*
X118422932Y-95872419D02*
X118422932Y-94872419D01*
X118422932Y-94872419D02*
X118327694Y-95015276D01*
X118327694Y-95015276D02*
X118232456Y-95110514D01*
X118232456Y-95110514D02*
X118137218Y-95158133D01*
X119137218Y-95777180D02*
X119184837Y-95824800D01*
X119184837Y-95824800D02*
X119137218Y-95872419D01*
X119137218Y-95872419D02*
X119089599Y-95824800D01*
X119089599Y-95824800D02*
X119137218Y-95777180D01*
X119137218Y-95777180D02*
X119137218Y-95872419D01*
X119803884Y-94872419D02*
X119899122Y-94872419D01*
X119899122Y-94872419D02*
X119994360Y-94920038D01*
X119994360Y-94920038D02*
X120041979Y-94967657D01*
X120041979Y-94967657D02*
X120089598Y-95062895D01*
X120089598Y-95062895D02*
X120137217Y-95253371D01*
X120137217Y-95253371D02*
X120137217Y-95491466D01*
X120137217Y-95491466D02*
X120089598Y-95681942D01*
X120089598Y-95681942D02*
X120041979Y-95777180D01*
X120041979Y-95777180D02*
X119994360Y-95824800D01*
X119994360Y-95824800D02*
X119899122Y-95872419D01*
X119899122Y-95872419D02*
X119803884Y-95872419D01*
X119803884Y-95872419D02*
X119708646Y-95824800D01*
X119708646Y-95824800D02*
X119661027Y-95777180D01*
X119661027Y-95777180D02*
X119613408Y-95681942D01*
X119613408Y-95681942D02*
X119565789Y-95491466D01*
X119565789Y-95491466D02*
X119565789Y-95253371D01*
X119565789Y-95253371D02*
X119613408Y-95062895D01*
X119613408Y-95062895D02*
X119661027Y-94967657D01*
X119661027Y-94967657D02*
X119708646Y-94920038D01*
X119708646Y-94920038D02*
X119803884Y-94872419D01*
X122627580Y-130803884D02*
X123627580Y-130803884D01*
X123532342Y-131232455D02*
X123579961Y-131280074D01*
X123579961Y-131280074D02*
X123627580Y-131375312D01*
X123627580Y-131375312D02*
X123627580Y-131613407D01*
X123627580Y-131613407D02*
X123579961Y-131708645D01*
X123579961Y-131708645D02*
X123532342Y-131756264D01*
X123532342Y-131756264D02*
X123437104Y-131803883D01*
X123437104Y-131803883D02*
X123341866Y-131803883D01*
X123341866Y-131803883D02*
X123199009Y-131756264D01*
X123199009Y-131756264D02*
X122627580Y-131184836D01*
X122627580Y-131184836D02*
X122627580Y-131803883D01*
X122722819Y-132803883D02*
X122675200Y-132756264D01*
X122675200Y-132756264D02*
X122627580Y-132613407D01*
X122627580Y-132613407D02*
X122627580Y-132518169D01*
X122627580Y-132518169D02*
X122675200Y-132375312D01*
X122675200Y-132375312D02*
X122770438Y-132280074D01*
X122770438Y-132280074D02*
X122865676Y-132232455D01*
X122865676Y-132232455D02*
X123056152Y-132184836D01*
X123056152Y-132184836D02*
X123199009Y-132184836D01*
X123199009Y-132184836D02*
X123389485Y-132232455D01*
X123389485Y-132232455D02*
X123484723Y-132280074D01*
X123484723Y-132280074D02*
X123579961Y-132375312D01*
X123579961Y-132375312D02*
X123627580Y-132518169D01*
X123627580Y-132518169D02*
X123627580Y-132613407D01*
X123627580Y-132613407D02*
X123579961Y-132756264D01*
X123579961Y-132756264D02*
X123532342Y-132803883D01*
X122627580Y-133756264D02*
X122627580Y-133184836D01*
X122627580Y-133470550D02*
X123627580Y-133470550D01*
X123627580Y-133470550D02*
X123484723Y-133375312D01*
X123484723Y-133375312D02*
X123389485Y-133280074D01*
X123389485Y-133280074D02*
X123341866Y-133184836D01*
X122675200Y-134899122D02*
X122627580Y-135041979D01*
X122627580Y-135041979D02*
X122627580Y-135280074D01*
X122627580Y-135280074D02*
X122675200Y-135375312D01*
X122675200Y-135375312D02*
X122722819Y-135422931D01*
X122722819Y-135422931D02*
X122818057Y-135470550D01*
X122818057Y-135470550D02*
X122913295Y-135470550D01*
X122913295Y-135470550D02*
X123008533Y-135422931D01*
X123008533Y-135422931D02*
X123056152Y-135375312D01*
X123056152Y-135375312D02*
X123103771Y-135280074D01*
X123103771Y-135280074D02*
X123151390Y-135089598D01*
X123151390Y-135089598D02*
X123199009Y-134994360D01*
X123199009Y-134994360D02*
X123246628Y-134946741D01*
X123246628Y-134946741D02*
X123341866Y-134899122D01*
X123341866Y-134899122D02*
X123437104Y-134899122D01*
X123437104Y-134899122D02*
X123532342Y-134946741D01*
X123532342Y-134946741D02*
X123579961Y-134994360D01*
X123579961Y-134994360D02*
X123627580Y-135089598D01*
X123627580Y-135089598D02*
X123627580Y-135327693D01*
X123627580Y-135327693D02*
X123579961Y-135470550D01*
X122627580Y-135899122D02*
X123627580Y-135899122D01*
X123627580Y-135899122D02*
X123627580Y-136137217D01*
X123627580Y-136137217D02*
X123579961Y-136280074D01*
X123579961Y-136280074D02*
X123484723Y-136375312D01*
X123484723Y-136375312D02*
X123389485Y-136422931D01*
X123389485Y-136422931D02*
X123199009Y-136470550D01*
X123199009Y-136470550D02*
X123056152Y-136470550D01*
X123056152Y-136470550D02*
X122865676Y-136422931D01*
X122865676Y-136422931D02*
X122770438Y-136375312D01*
X122770438Y-136375312D02*
X122675200Y-136280074D01*
X122675200Y-136280074D02*
X122627580Y-136137217D01*
X122627580Y-136137217D02*
X122627580Y-135899122D01*
X122913295Y-136851503D02*
X122913295Y-137327693D01*
X122627580Y-136756265D02*
X123627580Y-137089598D01*
X123627580Y-137089598D02*
X122627580Y-137422931D01*
D11*
X156738095Y-131254819D02*
X156738095Y-130254819D01*
X156738095Y-130731009D02*
X157309523Y-130731009D01*
X157309523Y-131254819D02*
X157309523Y-130254819D01*
X158214285Y-130588152D02*
X158214285Y-131254819D01*
X157976190Y-130207200D02*
X157738095Y-130921485D01*
X157738095Y-130921485D02*
X158357142Y-130921485D01*
X112738095Y-131254819D02*
X112738095Y-130254819D01*
X112738095Y-130731009D02*
X113309523Y-130731009D01*
X113309523Y-131254819D02*
X113309523Y-130254819D01*
X113690476Y-130254819D02*
X114309523Y-130254819D01*
X114309523Y-130254819D02*
X113976190Y-130635771D01*
X113976190Y-130635771D02*
X114119047Y-130635771D01*
X114119047Y-130635771D02*
X114214285Y-130683390D01*
X114214285Y-130683390D02*
X114261904Y-130731009D01*
X114261904Y-130731009D02*
X114309523Y-130826247D01*
X114309523Y-130826247D02*
X114309523Y-131064342D01*
X114309523Y-131064342D02*
X114261904Y-131159580D01*
X114261904Y-131159580D02*
X114214285Y-131207200D01*
X114214285Y-131207200D02*
X114119047Y-131254819D01*
X114119047Y-131254819D02*
X113833333Y-131254819D01*
X113833333Y-131254819D02*
X113738095Y-131207200D01*
X113738095Y-131207200D02*
X113690476Y-131159580D01*
X156738095Y-65754819D02*
X156738095Y-64754819D01*
X156738095Y-65231009D02*
X157309523Y-65231009D01*
X157309523Y-65754819D02*
X157309523Y-64754819D01*
X157738095Y-64850057D02*
X157785714Y-64802438D01*
X157785714Y-64802438D02*
X157880952Y-64754819D01*
X157880952Y-64754819D02*
X158119047Y-64754819D01*
X158119047Y-64754819D02*
X158214285Y-64802438D01*
X158214285Y-64802438D02*
X158261904Y-64850057D01*
X158261904Y-64850057D02*
X158309523Y-64945295D01*
X158309523Y-64945295D02*
X158309523Y-65040533D01*
X158309523Y-65040533D02*
X158261904Y-65183390D01*
X158261904Y-65183390D02*
X157690476Y-65754819D01*
X157690476Y-65754819D02*
X158309523Y-65754819D01*
X112738095Y-65754819D02*
X112738095Y-64754819D01*
X112738095Y-65231009D02*
X113309523Y-65231009D01*
X113309523Y-65754819D02*
X113309523Y-64754819D01*
X114309523Y-65754819D02*
X113738095Y-65754819D01*
X114023809Y-65754819D02*
X114023809Y-64754819D01*
X114023809Y-64754819D02*
X113928571Y-64897676D01*
X113928571Y-64897676D02*
X113833333Y-64992914D01*
X113833333Y-64992914D02*
X113738095Y-65040533D01*
X151694279Y-118089819D02*
X151694279Y-118899342D01*
X151694279Y-118899342D02*
X151741898Y-118994580D01*
X151741898Y-118994580D02*
X151789517Y-119042200D01*
X151789517Y-119042200D02*
X151884755Y-119089819D01*
X151884755Y-119089819D02*
X152075231Y-119089819D01*
X152075231Y-119089819D02*
X152170469Y-119042200D01*
X152170469Y-119042200D02*
X152218088Y-118994580D01*
X152218088Y-118994580D02*
X152265707Y-118899342D01*
X152265707Y-118899342D02*
X152265707Y-118089819D01*
X153265707Y-119089819D02*
X152694279Y-119089819D01*
X152979993Y-119089819D02*
X152979993Y-118089819D01*
X152979993Y-118089819D02*
X152884755Y-118232676D01*
X152884755Y-118232676D02*
X152789517Y-118327914D01*
X152789517Y-118327914D02*
X152694279Y-118375533D01*
X126666666Y-123554819D02*
X126666666Y-124269104D01*
X126666666Y-124269104D02*
X126619047Y-124411961D01*
X126619047Y-124411961D02*
X126523809Y-124507200D01*
X126523809Y-124507200D02*
X126380952Y-124554819D01*
X126380952Y-124554819D02*
X126285714Y-124554819D01*
X127666666Y-124554819D02*
X127095238Y-124554819D01*
X127380952Y-124554819D02*
X127380952Y-123554819D01*
X127380952Y-123554819D02*
X127285714Y-123697676D01*
X127285714Y-123697676D02*
X127190476Y-123792914D01*
X127190476Y-123792914D02*
X127095238Y-123840533D01*
X146166666Y-123554819D02*
X146166666Y-124269104D01*
X146166666Y-124269104D02*
X146119047Y-124411961D01*
X146119047Y-124411961D02*
X146023809Y-124507200D01*
X146023809Y-124507200D02*
X145880952Y-124554819D01*
X145880952Y-124554819D02*
X145785714Y-124554819D01*
X146595238Y-123650057D02*
X146642857Y-123602438D01*
X146642857Y-123602438D02*
X146738095Y-123554819D01*
X146738095Y-123554819D02*
X146976190Y-123554819D01*
X146976190Y-123554819D02*
X147071428Y-123602438D01*
X147071428Y-123602438D02*
X147119047Y-123650057D01*
X147119047Y-123650057D02*
X147166666Y-123745295D01*
X147166666Y-123745295D02*
X147166666Y-123840533D01*
X147166666Y-123840533D02*
X147119047Y-123983390D01*
X147119047Y-123983390D02*
X146547619Y-124554819D01*
X146547619Y-124554819D02*
X147166666Y-124554819D01*
D12*
%TO.C,G\u002A\u002A\u002A*%
G36*
X115952103Y-84466406D02*
G01*
X116128131Y-84500295D01*
X116286412Y-84564207D01*
X116425160Y-84656867D01*
X116542590Y-84777000D01*
X116636919Y-84923331D01*
X116706360Y-85094587D01*
X116722091Y-85150705D01*
X116734298Y-85220462D01*
X116743799Y-85318194D01*
X116750596Y-85436863D01*
X116754690Y-85569432D01*
X116756081Y-85708861D01*
X116754772Y-85848112D01*
X116750762Y-85980149D01*
X116744055Y-86097932D01*
X116734649Y-86194424D01*
X116722547Y-86262587D01*
X116721912Y-86264975D01*
X116657371Y-86447412D01*
X116570443Y-86603029D01*
X116461780Y-86731084D01*
X116332035Y-86830835D01*
X116181859Y-86901541D01*
X116154500Y-86910570D01*
X116089308Y-86926127D01*
X116005361Y-86939623D01*
X115913431Y-86950057D01*
X115824289Y-86956430D01*
X115748705Y-86957742D01*
X115697463Y-86952996D01*
X115660077Y-86944914D01*
X115602940Y-86933033D01*
X115563213Y-86924941D01*
X115408948Y-86876028D01*
X115269822Y-86795960D01*
X115149171Y-86687377D01*
X115050327Y-86552922D01*
X115017804Y-86492815D01*
X114983098Y-86417741D01*
X114955720Y-86345789D01*
X114934948Y-86271524D01*
X114920058Y-86189511D01*
X114910326Y-86094316D01*
X114905030Y-85980502D01*
X114903445Y-85842635D01*
X114904848Y-85675280D01*
X114905270Y-85647428D01*
X114906764Y-85562083D01*
X115403431Y-85562083D01*
X115404296Y-85691786D01*
X115405184Y-85762620D01*
X115411064Y-86188176D01*
X115473714Y-86311600D01*
X115509622Y-86378008D01*
X115541310Y-86421745D01*
X115578369Y-86453171D01*
X115630389Y-86482645D01*
X115633548Y-86484250D01*
X115750181Y-86525372D01*
X115870664Y-86531551D01*
X115961976Y-86514498D01*
X116054825Y-86470589D01*
X116131311Y-86395586D01*
X116190661Y-86290623D01*
X116232106Y-86156832D01*
X116242353Y-86102702D01*
X116250668Y-86027354D01*
X116256443Y-85925756D01*
X116259681Y-85807367D01*
X116260379Y-85681646D01*
X116258538Y-85558053D01*
X116254159Y-85446048D01*
X116247241Y-85355089D01*
X116242353Y-85317453D01*
X116207465Y-85171609D01*
X116154804Y-85056624D01*
X116083787Y-84971952D01*
X115993828Y-84917048D01*
X115884344Y-84891369D01*
X115785491Y-84891237D01*
X115671712Y-84913056D01*
X115580378Y-84959798D01*
X115509102Y-85033687D01*
X115455495Y-85136945D01*
X115428253Y-85223747D01*
X115418631Y-85268061D01*
X115411569Y-85318650D01*
X115406836Y-85380916D01*
X115404200Y-85460260D01*
X115403431Y-85562083D01*
X114906764Y-85562083D01*
X114907745Y-85506050D01*
X114910476Y-85395017D01*
X114913920Y-85308876D01*
X114918531Y-85242174D01*
X114924767Y-85189455D01*
X114933083Y-85145267D01*
X114943935Y-85104156D01*
X114953174Y-85074630D01*
X115023635Y-84903959D01*
X115114831Y-84762048D01*
X115227645Y-84648228D01*
X115362962Y-84561828D01*
X115521666Y-84502179D01*
X115704642Y-84468613D01*
X115760113Y-84463813D01*
X115952103Y-84466406D01*
G37*
G36*
X117849929Y-84493193D02*
G01*
X118027801Y-84493938D01*
X118174655Y-84496295D01*
X118295260Y-84500801D01*
X118394380Y-84507993D01*
X118476784Y-84518408D01*
X118547238Y-84532583D01*
X118610509Y-84551054D01*
X118671362Y-84574359D01*
X118705909Y-84589605D01*
X118817313Y-84649325D01*
X118904013Y-84717828D01*
X118977103Y-84804182D01*
X118988457Y-84820529D01*
X119044786Y-84918231D01*
X119081539Y-85020274D01*
X119100794Y-85135575D01*
X119104626Y-85273049D01*
X119103333Y-85313989D01*
X119091425Y-85455907D01*
X119066747Y-85571881D01*
X119026272Y-85670412D01*
X118966978Y-85760004D01*
X118928736Y-85804752D01*
X118837433Y-85890566D01*
X118735357Y-85957646D01*
X118617940Y-86007462D01*
X118480614Y-86041485D01*
X118318811Y-86061187D01*
X118127963Y-86068039D01*
X118111090Y-86068076D01*
X117836504Y-86068076D01*
X117836504Y-86497675D01*
X117836504Y-86927273D01*
X117585905Y-86927273D01*
X117335306Y-86927273D01*
X117335306Y-85710078D01*
X117335306Y-85661899D01*
X117836504Y-85661899D01*
X118073678Y-85650917D01*
X118191124Y-85643200D01*
X118291701Y-85632098D01*
X118367898Y-85618545D01*
X118395339Y-85610858D01*
X118478903Y-85567272D01*
X118546464Y-85503448D01*
X118589776Y-85428083D01*
X118598476Y-85396599D01*
X118603934Y-85341798D01*
X118604827Y-85271301D01*
X118602930Y-85229471D01*
X118584242Y-85130045D01*
X118541602Y-85053980D01*
X118470551Y-84994611D01*
X118431552Y-84973242D01*
X118393028Y-84956165D01*
X118353273Y-84944066D01*
X118304642Y-84935865D01*
X118239485Y-84930483D01*
X118150156Y-84926842D01*
X118091578Y-84925277D01*
X117836504Y-84919124D01*
X117836504Y-85290511D01*
X117836504Y-85661899D01*
X117335306Y-85661899D01*
X117335306Y-85290511D01*
X117335306Y-84492882D01*
X117849929Y-84493193D01*
G37*
G36*
X121094292Y-84707682D02*
G01*
X121094292Y-84922481D01*
X120583665Y-84922481D01*
X120073039Y-84922481D01*
X120077992Y-85186505D01*
X120082946Y-85450529D01*
X120534919Y-85455311D01*
X120986892Y-85460093D01*
X120986892Y-85665328D01*
X120986892Y-85870562D01*
X120534919Y-85875345D01*
X120082946Y-85880127D01*
X120078048Y-86188901D01*
X120073150Y-86497675D01*
X120583721Y-86497675D01*
X121094292Y-86497675D01*
X121094292Y-86712474D01*
X121094292Y-86927273D01*
X120333545Y-86927273D01*
X119572798Y-86927273D01*
X119572798Y-85710078D01*
X119572798Y-84492882D01*
X120333545Y-84492882D01*
X121094292Y-84492882D01*
X121094292Y-84707682D01*
G37*
G36*
X122114588Y-85495278D02*
G01*
X122114588Y-86497675D01*
X122624736Y-86497675D01*
X123134884Y-86497675D01*
X123134884Y-86712474D01*
X123134884Y-86927273D01*
X122374137Y-86927273D01*
X121613390Y-86927273D01*
X121613390Y-85710078D01*
X121613390Y-84492882D01*
X121863989Y-84492882D01*
X122114588Y-84492882D01*
X122114588Y-85495278D01*
G37*
G36*
X124011980Y-78031008D02*
G01*
X124011980Y-83025088D01*
X119017900Y-83025088D01*
X114023819Y-83025088D01*
X114023819Y-82738689D01*
X114310218Y-82738689D01*
X116511910Y-82738689D01*
X116789488Y-82738601D01*
X117056951Y-82738345D01*
X117312136Y-82737931D01*
X117552884Y-82737370D01*
X117777032Y-82736673D01*
X117982421Y-82735851D01*
X118166890Y-82734915D01*
X118328277Y-82733875D01*
X118464423Y-82732742D01*
X118573165Y-82731528D01*
X118652344Y-82730242D01*
X118699799Y-82728896D01*
X118713601Y-82727662D01*
X118705773Y-82707112D01*
X118683762Y-82659135D01*
X118649774Y-82588132D01*
X118606015Y-82498502D01*
X118554693Y-82394645D01*
X118498015Y-82280963D01*
X118438187Y-82161854D01*
X118377417Y-82041720D01*
X118317910Y-81924961D01*
X118261875Y-81815976D01*
X118211517Y-81719167D01*
X118169045Y-81638932D01*
X118149067Y-81602044D01*
X117920224Y-81198333D01*
X117693869Y-80826504D01*
X117470364Y-80487021D01*
X117250071Y-80180351D01*
X117033352Y-79906960D01*
X116820567Y-79667314D01*
X116612078Y-79461878D01*
X116408247Y-79291118D01*
X116291027Y-79207298D01*
X116050275Y-79062379D01*
X115798791Y-78943168D01*
X115532856Y-78848559D01*
X115248750Y-78777448D01*
X114942754Y-78728730D01*
X114611149Y-78701300D01*
X114583192Y-78699983D01*
X114310218Y-78687801D01*
X114310218Y-80713245D01*
X114310218Y-82738689D01*
X114023819Y-82738689D01*
X114023819Y-80713245D01*
X114023819Y-78156307D01*
X114310218Y-78156307D01*
X114502643Y-78156322D01*
X114884099Y-78172330D01*
X115249699Y-78220234D01*
X115599219Y-78299944D01*
X115932435Y-78411370D01*
X116249122Y-78554423D01*
X116549056Y-78729012D01*
X116832014Y-78935049D01*
X117097770Y-79172443D01*
X117135610Y-79210218D01*
X117370038Y-79463865D01*
X117606966Y-79752473D01*
X117845944Y-80075324D01*
X118086524Y-80431702D01*
X118328258Y-80820889D01*
X118570695Y-81242167D01*
X118813386Y-81694819D01*
X119055884Y-82178129D01*
X119251591Y-82591015D01*
X119319886Y-82738689D01*
X121513783Y-82738689D01*
X123707681Y-82738689D01*
X123707681Y-81942142D01*
X123707681Y-81145596D01*
X123574116Y-81145596D01*
X123507325Y-81143199D01*
X123415663Y-81136620D01*
X123309696Y-81126773D01*
X123199987Y-81114572D01*
X123164208Y-81110113D01*
X122769567Y-81047701D01*
X122394533Y-80963446D01*
X122033979Y-80855374D01*
X121682774Y-80721513D01*
X121335789Y-80559888D01*
X120987898Y-80368525D01*
X120633969Y-80145450D01*
X120602044Y-80124019D01*
X120451512Y-80018349D01*
X120280684Y-79891149D01*
X120094427Y-79746356D01*
X119897606Y-79587907D01*
X119695085Y-79419739D01*
X119491732Y-79245789D01*
X119292411Y-79069993D01*
X119231189Y-79014820D01*
X118982061Y-78792281D01*
X118736252Y-78578943D01*
X118497169Y-78377573D01*
X118268215Y-78190937D01*
X118052797Y-78021804D01*
X117854319Y-77872942D01*
X117676186Y-77747118D01*
X117648555Y-77728475D01*
X117372311Y-77551179D01*
X117111721Y-77400703D01*
X116861425Y-77274884D01*
X116616066Y-77171558D01*
X116370284Y-77088560D01*
X116118719Y-77023728D01*
X115856014Y-76974898D01*
X115742213Y-76958788D01*
X115542221Y-76934385D01*
X115333718Y-76911727D01*
X115125678Y-76891634D01*
X114927080Y-76874924D01*
X114746899Y-76862415D01*
X114610042Y-76855509D01*
X114310218Y-76844025D01*
X114310218Y-77500166D01*
X114310218Y-78156307D01*
X114023819Y-78156307D01*
X114023819Y-78031008D01*
X114023819Y-77500166D01*
X114023819Y-76291270D01*
X114310218Y-76291270D01*
X114502643Y-76302507D01*
X114762043Y-76319309D01*
X115018512Y-76339085D01*
X115267095Y-76361306D01*
X115502842Y-76385444D01*
X115720798Y-76410969D01*
X115916013Y-76437352D01*
X116083533Y-76464065D01*
X116173385Y-76480980D01*
X116406688Y-76535252D01*
X116637887Y-76603388D01*
X116868937Y-76686610D01*
X117101793Y-76786141D01*
X117338411Y-76903203D01*
X117580747Y-77039019D01*
X117830755Y-77194811D01*
X118090391Y-77371804D01*
X118361609Y-77571219D01*
X118646367Y-77794279D01*
X118946619Y-78042207D01*
X119264319Y-78316225D01*
X119601425Y-78617557D01*
X119626497Y-78640340D01*
X119719325Y-78723093D01*
X119832723Y-78821513D01*
X119960445Y-78930402D01*
X120096248Y-79044564D01*
X120233887Y-79158802D01*
X120367117Y-79267919D01*
X120489693Y-79366720D01*
X120595370Y-79450006D01*
X120646793Y-79489408D01*
X120951738Y-79705512D01*
X121266827Y-79901951D01*
X121586734Y-80075972D01*
X121906134Y-80224819D01*
X122219699Y-80345739D01*
X122429888Y-80411456D01*
X122591912Y-80453313D01*
X122769254Y-80492818D01*
X122953655Y-80528589D01*
X123136855Y-80559243D01*
X123310592Y-80583396D01*
X123466607Y-80599667D01*
X123595807Y-80606656D01*
X123707681Y-80608598D01*
X123707681Y-79838901D01*
X123707642Y-79652939D01*
X123707427Y-79499627D01*
X123706891Y-79375814D01*
X123705887Y-79278349D01*
X123704271Y-79204082D01*
X123701897Y-79149863D01*
X123698619Y-79112541D01*
X123694291Y-79088965D01*
X123688768Y-79075986D01*
X123681904Y-79070452D01*
X123673553Y-79069214D01*
X123672095Y-79069204D01*
X123615072Y-79061250D01*
X123531688Y-79038839D01*
X123427283Y-79004147D01*
X123307198Y-78959348D01*
X123176773Y-78906620D01*
X123041348Y-78848137D01*
X122906264Y-78786075D01*
X122776861Y-78722610D01*
X122658479Y-78659918D01*
X122634588Y-78646526D01*
X122375363Y-78487636D01*
X122148438Y-78323452D01*
X121954275Y-78154577D01*
X121793337Y-77981614D01*
X121666086Y-77805166D01*
X121572984Y-77625835D01*
X121514495Y-77444224D01*
X121491080Y-77260936D01*
X121491224Y-77254490D01*
X122030167Y-77254490D01*
X122043173Y-77333680D01*
X122086768Y-77448735D01*
X122162355Y-77569955D01*
X122267152Y-77694982D01*
X122398379Y-77821462D01*
X122553255Y-77947039D01*
X122729001Y-78069356D01*
X122922835Y-78186058D01*
X123131978Y-78294789D01*
X123232585Y-78341492D01*
X123338593Y-78387572D01*
X123441238Y-78429808D01*
X123534190Y-78465801D01*
X123611118Y-78493153D01*
X123665689Y-78509467D01*
X123685306Y-78512974D01*
X123690704Y-78506225D01*
X123695220Y-78483622D01*
X123698920Y-78442675D01*
X123701870Y-78380892D01*
X123704135Y-78295786D01*
X123705783Y-78184864D01*
X123706880Y-78045639D01*
X123707490Y-77875619D01*
X123707681Y-77672315D01*
X123707681Y-77670193D01*
X123707681Y-76826080D01*
X123389958Y-76837182D01*
X123113266Y-76851524D01*
X122864610Y-76874110D01*
X122645521Y-76904699D01*
X122457530Y-76943051D01*
X122302169Y-76988927D01*
X122225090Y-77020036D01*
X122131024Y-77070128D01*
X122069340Y-77122181D01*
X122036799Y-77181775D01*
X122030167Y-77254490D01*
X121491224Y-77254490D01*
X121493342Y-77159341D01*
X121521541Y-77006246D01*
X121581892Y-76868336D01*
X121674490Y-76745517D01*
X121799430Y-76637691D01*
X121956808Y-76544762D01*
X122146719Y-76466634D01*
X122195137Y-76450708D01*
X122345407Y-76410557D01*
X122524053Y-76374960D01*
X122723841Y-76344797D01*
X122937538Y-76320948D01*
X123157910Y-76304292D01*
X123377721Y-76295709D01*
X123477582Y-76294715D01*
X123707681Y-76294715D01*
X123707681Y-75730867D01*
X123707681Y-75167019D01*
X119008950Y-75167019D01*
X114310218Y-75167019D01*
X114310218Y-75729144D01*
X114310218Y-76291270D01*
X114023819Y-76291270D01*
X114023819Y-75729144D01*
X114023819Y-74612121D01*
X114310218Y-74612121D01*
X119008950Y-74612121D01*
X123707681Y-74612121D01*
X123707681Y-73967724D01*
X123707681Y-73323326D01*
X119008950Y-73323326D01*
X114310218Y-73323326D01*
X114310218Y-73967724D01*
X114310218Y-74612121D01*
X114023819Y-74612121D01*
X114023819Y-73967724D01*
X114023819Y-73036928D01*
X119017900Y-73036928D01*
X124011980Y-73036928D01*
X124011980Y-78031008D01*
G37*
D13*
%TO.C,U1*%
X128680000Y-70540000D02*
X128680000Y-68940000D01*
X129000000Y-68870000D02*
X129000000Y-118870000D01*
X129340000Y-68323000D02*
X129340000Y-119417000D01*
X129610000Y-68260000D02*
X132100000Y-68260000D01*
X129610000Y-119480000D02*
X136010000Y-119480000D01*
X132100000Y-68260000D02*
X132100000Y-69173520D01*
X132100000Y-68260000D02*
X135375000Y-68260000D01*
X132100000Y-69173520D02*
X132100000Y-71566480D01*
X132100000Y-71566480D02*
X132100000Y-116173520D01*
X132100000Y-116173520D02*
X132100000Y-118566480D01*
X132100000Y-118566480D02*
X132100000Y-119480000D01*
X135375000Y-68260000D02*
X143845000Y-68260000D01*
X135500000Y-66860000D02*
X135500000Y-67780000D01*
X135500000Y-66860000D02*
X143720000Y-66860000D01*
X135500000Y-67780000D02*
X135710000Y-67780000D01*
X135710000Y-67780000D02*
X135710000Y-69176000D01*
X135710000Y-69176000D02*
X135710000Y-71564000D01*
X135710000Y-71564000D02*
X135710000Y-72780000D01*
X143210000Y-119480000D02*
X136010000Y-119480000D01*
X143210000Y-119480000D02*
X149610000Y-119480000D01*
X143510000Y-67780000D02*
X143510000Y-69176000D01*
X143510000Y-69176000D02*
X143510000Y-71564000D01*
X143510000Y-71564000D02*
X143510000Y-72780000D01*
X143510000Y-72780000D02*
X135710000Y-72780000D01*
X143720000Y-66860000D02*
X143720000Y-67780000D01*
X143720000Y-67780000D02*
X143510000Y-67780000D01*
X143845000Y-68260000D02*
X147120000Y-68260000D01*
X147120000Y-68260000D02*
X147120000Y-69173520D01*
X147120000Y-69173520D02*
X147120000Y-71566480D01*
X147120000Y-71566480D02*
X147120000Y-116173520D01*
X147120000Y-116173520D02*
X147120000Y-118566480D01*
X147120000Y-118566480D02*
X147120000Y-119480000D01*
X149610000Y-68260000D02*
X147120000Y-68260000D01*
X149880000Y-119417000D02*
X149880000Y-68323000D01*
X150220000Y-68870000D02*
X150220000Y-118870000D01*
X129000000Y-68870000D02*
G75*
G02*
X129610000Y-68260000I610000J0D01*
G01*
X129610000Y-119480000D02*
G75*
G02*
X129000000Y-118870000I-99J609901D01*
G01*
X149610000Y-68260000D02*
G75*
G02*
X150220000Y-68870000I0J-610000D01*
G01*
X150220000Y-118870000D02*
G75*
G02*
X149610000Y-119480000I-610000J0D01*
G01*
X134850000Y-70370000D02*
G75*
G02*
X132970000Y-70370000I-940000J0D01*
G01*
X132970000Y-70370000D02*
G75*
G02*
X134850000Y-70370000I940000J0D01*
G01*
X134850000Y-117370000D02*
G75*
G02*
X132970000Y-117370000I-940000J0D01*
G01*
X132970000Y-117370000D02*
G75*
G02*
X134850000Y-117370000I940000J0D01*
G01*
X146250000Y-70370000D02*
G75*
G02*
X144370000Y-70370000I-940000J0D01*
G01*
X144370000Y-70370000D02*
G75*
G02*
X146250000Y-70370000I940000J0D01*
G01*
X146250000Y-117370000D02*
G75*
G02*
X144370000Y-117370000I-940000J0D01*
G01*
X144370000Y-117370000D02*
G75*
G02*
X146250000Y-117370000I940000J0D01*
G01*
%TO.C,J1*%
X118640000Y-124890000D02*
X118640000Y-126140000D01*
X118940000Y-125190000D02*
X118940000Y-129910000D01*
X118940000Y-126500000D02*
X119550000Y-126500000D01*
X118940000Y-127800000D02*
X119550000Y-127800000D01*
X118940000Y-129910000D02*
X135060000Y-129910000D01*
X119550000Y-125800000D02*
X119550000Y-129300000D01*
X119550000Y-129300000D02*
X134450000Y-129300000D01*
X119890000Y-124890000D02*
X118640000Y-124890000D01*
X120400000Y-124990000D02*
X120400000Y-125190000D01*
X120700000Y-124990000D02*
X120400000Y-124990000D01*
X120700000Y-125090000D02*
X120400000Y-125090000D01*
X120700000Y-125190000D02*
X120700000Y-124990000D01*
X121500000Y-125190000D02*
X121500000Y-125800000D01*
X121500000Y-125800000D02*
X119550000Y-125800000D01*
X121900000Y-128800000D02*
X122100000Y-128800000D01*
X121900000Y-129300000D02*
X121900000Y-128800000D01*
X122000000Y-129300000D02*
X122000000Y-128800000D01*
X122100000Y-128800000D02*
X122100000Y-129300000D01*
X123900000Y-128800000D02*
X124100000Y-128800000D01*
X123900000Y-129300000D02*
X123900000Y-128800000D01*
X124000000Y-129300000D02*
X124000000Y-128800000D01*
X124100000Y-128800000D02*
X124100000Y-129300000D01*
X125900000Y-128800000D02*
X126100000Y-128800000D01*
X125900000Y-129300000D02*
X125900000Y-128800000D01*
X126000000Y-129300000D02*
X126000000Y-128800000D01*
X126100000Y-128800000D02*
X126100000Y-129300000D01*
X127900000Y-128800000D02*
X128100000Y-128800000D01*
X127900000Y-129300000D02*
X127900000Y-128800000D01*
X128000000Y-129300000D02*
X128000000Y-128800000D01*
X128100000Y-128800000D02*
X128100000Y-129300000D01*
X129900000Y-128800000D02*
X130100000Y-128800000D01*
X129900000Y-129300000D02*
X129900000Y-128800000D01*
X130000000Y-129300000D02*
X130000000Y-128800000D01*
X130100000Y-128800000D02*
X130100000Y-129300000D01*
X131900000Y-128800000D02*
X132100000Y-128800000D01*
X131900000Y-129300000D02*
X131900000Y-128800000D01*
X132000000Y-129300000D02*
X132000000Y-128800000D01*
X132100000Y-128800000D02*
X132100000Y-129300000D01*
X132500000Y-125800000D02*
X132500000Y-125190000D01*
X134450000Y-125800000D02*
X132500000Y-125800000D01*
X134450000Y-129300000D02*
X134450000Y-125800000D01*
X135060000Y-125190000D02*
X118940000Y-125190000D01*
X135060000Y-126500000D02*
X134450000Y-126500000D01*
X135060000Y-127800000D02*
X134450000Y-127800000D01*
X135060000Y-129910000D02*
X135060000Y-125190000D01*
%TO.C,J2*%
X143140000Y-124890000D02*
X143140000Y-126140000D01*
X143440000Y-125190000D02*
X143440000Y-129910000D01*
X143440000Y-126500000D02*
X144050000Y-126500000D01*
X143440000Y-127800000D02*
X144050000Y-127800000D01*
X143440000Y-129910000D02*
X149560000Y-129910000D01*
X144050000Y-125800000D02*
X144050000Y-129300000D01*
X144050000Y-129300000D02*
X148950000Y-129300000D01*
X144390000Y-124890000D02*
X143140000Y-124890000D01*
X144900000Y-124990000D02*
X144900000Y-125190000D01*
X145200000Y-124990000D02*
X144900000Y-124990000D01*
X145200000Y-125090000D02*
X144900000Y-125090000D01*
X145200000Y-125190000D02*
X145200000Y-124990000D01*
X146000000Y-125190000D02*
X146000000Y-125800000D01*
X146000000Y-125800000D02*
X144050000Y-125800000D01*
X146400000Y-128800000D02*
X146600000Y-128800000D01*
X146400000Y-129300000D02*
X146400000Y-128800000D01*
X146500000Y-129300000D02*
X146500000Y-128800000D01*
X146600000Y-128800000D02*
X146600000Y-129300000D01*
X147000000Y-125800000D02*
X147000000Y-125190000D01*
X148950000Y-125800000D02*
X147000000Y-125800000D01*
X148950000Y-129300000D02*
X148950000Y-125800000D01*
X149560000Y-125190000D02*
X143440000Y-125190000D01*
X149560000Y-126500000D02*
X148950000Y-126500000D01*
X149560000Y-127800000D02*
X148950000Y-127800000D01*
X149560000Y-129910000D02*
X149560000Y-125190000D01*
%TD*%
M02*
