M48
; DRILL file {KiCad 8.0.5} date 2024-10-22T13:33:29-0400
; FORMAT={-:-/ absolute / inch / decimal}
; #@! TF.CreationDate,2024-10-22T13:33:29-04:00
; #@! TF.GenerationSoftware,Kicad,Pcbnew,8.0.5
; #@! TF.FileFunction,Plated,1,2,PTH
FMAT,2
INCH
; #@! TA.AperFunction,Plated,PTH,ComponentDrill
T1C0.0295
; #@! TA.AperFunction,Plated,PTH,ComponentDrill
T2C0.0394
%
G90
G05
T1
X4.7638Y-5.0
X4.8425Y-5.0
X4.9213Y-5.0
X5.0Y-5.0
X5.0787Y-5.0
X5.1575Y-5.0
X5.2362Y-5.0
X5.7283Y-5.0
X5.8071Y-5.0
T2
X5.1465Y-2.7457
X5.1465Y-2.8457
X5.1465Y-2.9457
X5.1465Y-3.0457
X5.1465Y-3.1457
X5.1465Y-3.2457
X5.1465Y-3.3457
X5.1465Y-3.4457
X5.1465Y-3.5457
X5.1465Y-3.6457
X5.1465Y-3.7457
X5.1465Y-3.8457
X5.1465Y-3.9457
X5.1465Y-4.0457
X5.1465Y-4.1457
X5.1465Y-4.2457
X5.1465Y-4.3457
X5.1465Y-4.4457
X5.1465Y-4.5457
X5.1465Y-4.6457
X5.8465Y-2.7457
X5.8465Y-2.8457
X5.8465Y-2.9457
X5.8465Y-3.0457
X5.8465Y-3.1457
X5.8465Y-3.2457
X5.8465Y-3.3457
X5.8465Y-3.4457
X5.8465Y-3.5457
X5.8465Y-3.6457
X5.8465Y-3.7457
X5.8465Y-3.8457
X5.8465Y-3.9457
X5.8465Y-4.0457
X5.8465Y-4.1457
X5.8465Y-4.2457
X5.8465Y-4.3457
X5.8465Y-4.4457
X5.8465Y-4.5457
X5.8465Y-4.6457
M30
