%TF.GenerationSoftware,KiCad,Pcbnew,8.0.5*%
%TF.CreationDate,2024-10-21T13:31:45-04:00*%
%TF.ProjectId,receiver,72656365-6976-4657-922e-6b696361645f,rev?*%
%TF.SameCoordinates,Original*%
%TF.FileFunction,Soldermask,Top*%
%TF.FilePolarity,Negative*%
%FSLAX46Y46*%
G04 Gerber Fmt 4.6, Leading zero omitted, Abs format (unit mm)*
G04 Created by KiCad (PCBNEW 8.0.5) date 2024-10-21 13:31:45*
%MOMM*%
%LPD*%
G01*
G04 APERTURE LIST*
G04 Aperture macros list*
%AMRoundRect*
0 Rectangle with rounded corners*
0 $1 Rounding radius*
0 $2 $3 $4 $5 $6 $7 $8 $9 X,Y pos of 4 corners*
0 Add a 4 corners polygon primitive as box body*
4,1,4,$2,$3,$4,$5,$6,$7,$8,$9,$2,$3,0*
0 Add four circle primitives for the rounded corners*
1,1,$1+$1,$2,$3*
1,1,$1+$1,$4,$5*
1,1,$1+$1,$6,$7*
1,1,$1+$1,$8,$9*
0 Add four rect primitives between the rounded corners*
20,1,$1+$1,$2,$3,$4,$5,0*
20,1,$1+$1,$4,$5,$6,$7,0*
20,1,$1+$1,$6,$7,$8,$9,0*
20,1,$1+$1,$8,$9,$2,$3,0*%
%AMFreePoly0*
4,1,28,0.605014,0.794986,0.644504,0.794986,0.724698,0.756366,0.780194,0.686777,0.800000,0.600000,0.800000,-0.600000,0.780194,-0.686777,0.724698,-0.756366,0.644504,-0.794986,0.605014,-0.794986,0.600000,-0.800000,0.000000,-0.800000,-0.178017,-0.779942,-0.347107,-0.720775,-0.498792,-0.625465,-0.625465,-0.498792,-0.720775,-0.347107,-0.779942,-0.178017,-0.800000,0.000000,-0.779942,0.178017,
-0.720775,0.347107,-0.625465,0.498792,-0.498792,0.625465,-0.347107,0.720775,-0.178017,0.779942,0.000000,0.800000,0.600000,0.800000,0.605014,0.794986,0.605014,0.794986,$1*%
%AMFreePoly1*
4,1,28,0.178017,0.779942,0.347107,0.720775,0.498792,0.625465,0.625465,0.498792,0.720775,0.347107,0.779942,0.178017,0.800000,0.000000,0.779942,-0.178017,0.720775,-0.347107,0.625465,-0.498792,0.498792,-0.625465,0.347107,-0.720775,0.178017,-0.779942,0.000000,-0.800000,-0.600000,-0.800000,-0.605014,-0.794986,-0.644504,-0.794986,-0.724698,-0.756366,-0.780194,-0.686777,-0.800000,-0.600000,
-0.800000,0.600000,-0.780194,0.686777,-0.724698,0.756366,-0.644504,0.794986,-0.605014,0.794986,-0.600000,0.800000,0.000000,0.800000,0.178017,0.779942,0.178017,0.779942,$1*%
G04 Aperture macros list end*
%ADD10RoundRect,0.200000X-0.600000X-0.600000X0.600000X-0.600000X0.600000X0.600000X-0.600000X0.600000X0*%
%ADD11C,1.600000*%
%ADD12FreePoly0,0.000000*%
%ADD13FreePoly1,0.000000*%
%ADD14C,2.200000*%
%ADD15RoundRect,0.250000X-0.350000X-0.625000X0.350000X-0.625000X0.350000X0.625000X-0.350000X0.625000X0*%
%ADD16O,1.200000X1.750000*%
G04 APERTURE END LIST*
D10*
%TO.C,U1*%
X130720000Y-69740000D03*
D11*
X130720000Y-72280000D03*
D12*
X130720000Y-74820000D03*
D11*
X130720000Y-77360000D03*
X130720000Y-79900000D03*
X130720000Y-82440000D03*
X130720000Y-84980000D03*
D12*
X130720000Y-87520000D03*
D11*
X130720000Y-90060000D03*
X130720000Y-92600000D03*
X130720000Y-95140000D03*
X130720000Y-97680000D03*
D12*
X130720000Y-100220000D03*
D11*
X130720000Y-102760000D03*
X130720000Y-105300000D03*
X130720000Y-107840000D03*
X130720000Y-110380000D03*
D12*
X130720000Y-112920000D03*
D11*
X130720000Y-115460000D03*
X130720000Y-118000000D03*
X148500000Y-118000000D03*
X148500000Y-115460000D03*
D13*
X148500000Y-112920000D03*
D11*
X148500000Y-110380000D03*
X148500000Y-107840000D03*
X148500000Y-105300000D03*
X148500000Y-102760000D03*
D13*
X148500000Y-100220000D03*
D11*
X148500000Y-97680000D03*
X148500000Y-95140000D03*
X148500000Y-92600000D03*
X148500000Y-90060000D03*
D13*
X148500000Y-87520000D03*
D11*
X148500000Y-84980000D03*
X148500000Y-82440000D03*
X148500000Y-79900000D03*
X148500000Y-77360000D03*
D13*
X148500000Y-74820000D03*
D11*
X148500000Y-72280000D03*
X148500000Y-69740000D03*
%TD*%
D14*
%TO.C,H2*%
X157500000Y-68500000D03*
%TD*%
D15*
%TO.C,J1*%
X121000000Y-127000000D03*
D16*
X123000000Y-127000000D03*
X125000000Y-127000000D03*
X127000000Y-127000000D03*
X129000000Y-127000000D03*
X131000000Y-127000000D03*
X133000000Y-127000000D03*
%TD*%
D15*
%TO.C,J2*%
X145500000Y-127000000D03*
D16*
X147500000Y-127000000D03*
%TD*%
D14*
%TO.C,H4*%
X157500000Y-134000000D03*
%TD*%
%TO.C,H1*%
X113500000Y-68500000D03*
%TD*%
%TO.C,H3*%
X113500000Y-134000000D03*
%TD*%
M02*
