%TF.GenerationSoftware,KiCad,Pcbnew,8.0.5*%
%TF.CreationDate,2024-10-21T13:31:45-04:00*%
%TF.ProjectId,receiver,72656365-6976-4657-922e-6b696361645f,rev?*%
%TF.SameCoordinates,Original*%
%TF.FileFunction,Copper,L2,Bot*%
%TF.FilePolarity,Positive*%
%FSLAX46Y46*%
G04 Gerber Fmt 4.6, Leading zero omitted, Abs format (unit mm)*
G04 Created by KiCad (PCBNEW 8.0.5) date 2024-10-21 13:31:45*
%MOMM*%
%LPD*%
G01*
G04 APERTURE LIST*
G04 Aperture macros list*
%AMRoundRect*
0 Rectangle with rounded corners*
0 $1 Rounding radius*
0 $2 $3 $4 $5 $6 $7 $8 $9 X,Y pos of 4 corners*
0 Add a 4 corners polygon primitive as box body*
4,1,4,$2,$3,$4,$5,$6,$7,$8,$9,$2,$3,0*
0 Add four circle primitives for the rounded corners*
1,1,$1+$1,$2,$3*
1,1,$1+$1,$4,$5*
1,1,$1+$1,$6,$7*
1,1,$1+$1,$8,$9*
0 Add four rect primitives between the rounded corners*
20,1,$1+$1,$2,$3,$4,$5,0*
20,1,$1+$1,$4,$5,$6,$7,0*
20,1,$1+$1,$6,$7,$8,$9,0*
20,1,$1+$1,$8,$9,$2,$3,0*%
%AMFreePoly0*
4,1,28,0.605014,0.794986,0.644504,0.794986,0.724698,0.756366,0.780194,0.686777,0.800000,0.600000,0.800000,-0.600000,0.780194,-0.686777,0.724698,-0.756366,0.644504,-0.794986,0.605014,-0.794986,0.600000,-0.800000,0.000000,-0.800000,-0.178017,-0.779942,-0.347107,-0.720775,-0.498792,-0.625465,-0.625465,-0.498792,-0.720775,-0.347107,-0.779942,-0.178017,-0.800000,0.000000,-0.779942,0.178017,
-0.720775,0.347107,-0.625465,0.498792,-0.498792,0.625465,-0.347107,0.720775,-0.178017,0.779942,0.000000,0.800000,0.600000,0.800000,0.605014,0.794986,0.605014,0.794986,$1*%
%AMFreePoly1*
4,1,28,0.178017,0.779942,0.347107,0.720775,0.498792,0.625465,0.625465,0.498792,0.720775,0.347107,0.779942,0.178017,0.800000,0.000000,0.779942,-0.178017,0.720775,-0.347107,0.625465,-0.498792,0.498792,-0.625465,0.347107,-0.720775,0.178017,-0.779942,0.000000,-0.800000,-0.600000,-0.800000,-0.605014,-0.794986,-0.644504,-0.794986,-0.724698,-0.756366,-0.780194,-0.686777,-0.800000,-0.600000,
-0.800000,0.600000,-0.780194,0.686777,-0.724698,0.756366,-0.644504,0.794986,-0.605014,0.794986,-0.600000,0.800000,0.000000,0.800000,0.178017,0.779942,0.178017,0.779942,$1*%
G04 Aperture macros list end*
%TA.AperFunction,ComponentPad*%
%ADD10RoundRect,0.200000X-0.600000X-0.600000X0.600000X-0.600000X0.600000X0.600000X-0.600000X0.600000X0*%
%TD*%
%TA.AperFunction,ComponentPad*%
%ADD11C,1.600000*%
%TD*%
%TA.AperFunction,ComponentPad*%
%ADD12FreePoly0,0.000000*%
%TD*%
%TA.AperFunction,ComponentPad*%
%ADD13FreePoly1,0.000000*%
%TD*%
%TA.AperFunction,ComponentPad*%
%ADD14RoundRect,0.250000X-0.350000X-0.625000X0.350000X-0.625000X0.350000X0.625000X-0.350000X0.625000X0*%
%TD*%
%TA.AperFunction,ComponentPad*%
%ADD15O,1.200000X1.750000*%
%TD*%
G04 APERTURE END LIST*
D10*
%TO.P,U1,1,GPIO0*%
%TO.N,unconnected-(U1-GPIO0-Pad1)*%
X130720000Y-69740000D03*
D11*
%TO.P,U1,2,GPIO1*%
%TO.N,unconnected-(U1-GPIO1-Pad2)*%
X130720000Y-72280000D03*
D12*
%TO.P,U1,3,GND*%
%TO.N,/GND*%
X130720000Y-74820000D03*
D11*
%TO.P,U1,4,GPIO2*%
%TO.N,/I2C1_SDA*%
X130720000Y-77360000D03*
%TO.P,U1,5,GPIO3*%
%TO.N,/I2C1_SCL*%
X130720000Y-79900000D03*
%TO.P,U1,6,GPIO4*%
%TO.N,/I2C0_SDA*%
X130720000Y-82440000D03*
%TO.P,U1,7,GPIO5*%
%TO.N,/I2C0_SCL*%
X130720000Y-84980000D03*
D12*
%TO.P,U1,8,GND*%
%TO.N,unconnected-(U1-GND-Pad8)*%
X130720000Y-87520000D03*
D11*
%TO.P,U1,9,GPIO6*%
%TO.N,unconnected-(U1-GPIO6-Pad9)*%
X130720000Y-90060000D03*
%TO.P,U1,10,GPIO7*%
%TO.N,unconnected-(U1-GPIO7-Pad10)*%
X130720000Y-92600000D03*
%TO.P,U1,11,GPIO8*%
%TO.N,unconnected-(U1-GPIO8-Pad11)*%
X130720000Y-95140000D03*
%TO.P,U1,12,GPIO9*%
%TO.N,unconnected-(U1-GPIO9-Pad12)*%
X130720000Y-97680000D03*
D12*
%TO.P,U1,13,GND*%
%TO.N,unconnected-(U1-GND-Pad13)*%
X130720000Y-100220000D03*
D11*
%TO.P,U1,14,GPIO10*%
%TO.N,unconnected-(U1-GPIO10-Pad14)*%
X130720000Y-102760000D03*
%TO.P,U1,15,GPIO11*%
%TO.N,unconnected-(U1-GPIO11-Pad15)*%
X130720000Y-105300000D03*
%TO.P,U1,16,GPIO12*%
%TO.N,unconnected-(U1-GPIO12-Pad16)*%
X130720000Y-107840000D03*
%TO.P,U1,17,GPIO13*%
%TO.N,unconnected-(U1-GPIO13-Pad17)*%
X130720000Y-110380000D03*
D12*
%TO.P,U1,18,GND*%
%TO.N,unconnected-(U1-GND-Pad18)*%
X130720000Y-112920000D03*
D11*
%TO.P,U1,19,GPIO14*%
%TO.N,unconnected-(U1-GPIO14-Pad19)*%
X130720000Y-115460000D03*
%TO.P,U1,20,GPIO15*%
%TO.N,unconnected-(U1-GPIO15-Pad20)*%
X130720000Y-118000000D03*
%TO.P,U1,21,GPIO16*%
%TO.N,unconnected-(U1-GPIO16-Pad21)*%
X148500000Y-118000000D03*
%TO.P,U1,22,GPIO17*%
%TO.N,unconnected-(U1-GPIO17-Pad22)*%
X148500000Y-115460000D03*
D13*
%TO.P,U1,23,GND*%
%TO.N,/GND*%
X148500000Y-112920000D03*
D11*
%TO.P,U1,24,GPIO18*%
%TO.N,unconnected-(U1-GPIO18-Pad24)*%
X148500000Y-110380000D03*
%TO.P,U1,25,GPIO19*%
%TO.N,unconnected-(U1-GPIO19-Pad25)*%
X148500000Y-107840000D03*
%TO.P,U1,26,GPIO20*%
%TO.N,unconnected-(U1-GPIO20-Pad26)*%
X148500000Y-105300000D03*
%TO.P,U1,27,GPIO21*%
%TO.N,unconnected-(U1-GPIO21-Pad27)*%
X148500000Y-102760000D03*
D13*
%TO.P,U1,28,GND*%
%TO.N,unconnected-(U1-GND-Pad28)*%
X148500000Y-100220000D03*
D11*
%TO.P,U1,29,GPIO22*%
%TO.N,unconnected-(U1-GPIO22-Pad29)*%
X148500000Y-97680000D03*
%TO.P,U1,30,RUN*%
%TO.N,unconnected-(U1-RUN-Pad30)*%
X148500000Y-95140000D03*
%TO.P,U1,31,GPIO26_ADC0*%
%TO.N,unconnected-(U1-GPIO26_ADC0-Pad31)*%
X148500000Y-92600000D03*
%TO.P,U1,32,GPIO27_ADC1*%
%TO.N,unconnected-(U1-GPIO27_ADC1-Pad32)*%
X148500000Y-90060000D03*
D13*
%TO.P,U1,33,AGND*%
%TO.N,unconnected-(U1-AGND-Pad33)*%
X148500000Y-87520000D03*
D11*
%TO.P,U1,34,GPIO28_ADC2*%
%TO.N,unconnected-(U1-GPIO28_ADC2-Pad34)*%
X148500000Y-84980000D03*
%TO.P,U1,35,ADC_VREF*%
%TO.N,unconnected-(U1-ADC_VREF-Pad35)*%
X148500000Y-82440000D03*
%TO.P,U1,36,3V3*%
%TO.N,/3V3*%
X148500000Y-79900000D03*
%TO.P,U1,37,3V3_EN*%
%TO.N,unconnected-(U1-3V3_EN-Pad37)*%
X148500000Y-77360000D03*
D13*
%TO.P,U1,38,GND*%
%TO.N,/GND*%
X148500000Y-74820000D03*
D11*
%TO.P,U1,39,VSYS*%
%TO.N,unconnected-(U1-VSYS-Pad39)*%
X148500000Y-72280000D03*
%TO.P,U1,40,VBUS*%
%TO.N,unconnected-(U1-VBUS-Pad40)*%
X148500000Y-69740000D03*
%TD*%
D14*
%TO.P,J1,1,Pin_1*%
%TO.N,/GND*%
X121000000Y-127000000D03*
D15*
%TO.P,J1,2,Pin_2*%
%TO.N,/I2C1_SDA*%
X123000000Y-127000000D03*
%TO.P,J1,3,Pin_3*%
%TO.N,/I2C1_SCL*%
X125000000Y-127000000D03*
%TO.P,J1,4,Pin_4*%
%TO.N,/I2C0_SDA*%
X127000000Y-127000000D03*
%TO.P,J1,5,Pin_5*%
%TO.N,/I2C0_SCL*%
X129000000Y-127000000D03*
%TO.P,J1,6,Pin_6*%
%TO.N,/3V3*%
X131000000Y-127000000D03*
%TO.P,J1,7,Pin_7*%
%TO.N,/+5V*%
X133000000Y-127000000D03*
%TD*%
D14*
%TO.P,J2,1,Pin_1*%
%TO.N,/GND*%
X145500000Y-127000000D03*
D15*
%TO.P,J2,2,Pin_2*%
%TO.N,/+5V*%
X147500000Y-127000000D03*
%TD*%
%TA.AperFunction,Conductor*%
%TO.N,/3V3*%
G36*
X159942539Y-65520185D02*
G01*
X159988294Y-65572989D01*
X159999500Y-65624500D01*
X159999500Y-136875500D01*
X159979815Y-136942539D01*
X159927011Y-136988294D01*
X159875500Y-136999500D01*
X111124500Y-136999500D01*
X111057461Y-136979815D01*
X111011706Y-136927011D01*
X111000500Y-136875500D01*
X111000500Y-133893713D01*
X112149500Y-133893713D01*
X112149500Y-134106286D01*
X112182753Y-134316239D01*
X112248444Y-134518414D01*
X112344951Y-134707820D01*
X112469890Y-134879786D01*
X112620213Y-135030109D01*
X112792179Y-135155048D01*
X112792181Y-135155049D01*
X112792184Y-135155051D01*
X112981588Y-135251557D01*
X113183757Y-135317246D01*
X113393713Y-135350500D01*
X113393714Y-135350500D01*
X113606286Y-135350500D01*
X113606287Y-135350500D01*
X113816243Y-135317246D01*
X114018412Y-135251557D01*
X114207816Y-135155051D01*
X114229789Y-135139086D01*
X114379786Y-135030109D01*
X114379788Y-135030106D01*
X114379792Y-135030104D01*
X114530104Y-134879792D01*
X114530106Y-134879788D01*
X114530109Y-134879786D01*
X114655048Y-134707820D01*
X114655047Y-134707820D01*
X114655051Y-134707816D01*
X114751557Y-134518412D01*
X114817246Y-134316243D01*
X114850500Y-134106287D01*
X114850500Y-133893713D01*
X156149500Y-133893713D01*
X156149500Y-134106286D01*
X156182753Y-134316239D01*
X156248444Y-134518414D01*
X156344951Y-134707820D01*
X156469890Y-134879786D01*
X156620213Y-135030109D01*
X156792179Y-135155048D01*
X156792181Y-135155049D01*
X156792184Y-135155051D01*
X156981588Y-135251557D01*
X157183757Y-135317246D01*
X157393713Y-135350500D01*
X157393714Y-135350500D01*
X157606286Y-135350500D01*
X157606287Y-135350500D01*
X157816243Y-135317246D01*
X158018412Y-135251557D01*
X158207816Y-135155051D01*
X158229789Y-135139086D01*
X158379786Y-135030109D01*
X158379788Y-135030106D01*
X158379792Y-135030104D01*
X158530104Y-134879792D01*
X158530106Y-134879788D01*
X158530109Y-134879786D01*
X158655048Y-134707820D01*
X158655047Y-134707820D01*
X158655051Y-134707816D01*
X158751557Y-134518412D01*
X158817246Y-134316243D01*
X158850500Y-134106287D01*
X158850500Y-133893713D01*
X158817246Y-133683757D01*
X158751557Y-133481588D01*
X158655051Y-133292184D01*
X158655049Y-133292181D01*
X158655048Y-133292179D01*
X158530109Y-133120213D01*
X158379786Y-132969890D01*
X158207820Y-132844951D01*
X158018414Y-132748444D01*
X158018413Y-132748443D01*
X158018412Y-132748443D01*
X157816243Y-132682754D01*
X157816241Y-132682753D01*
X157816240Y-132682753D01*
X157654957Y-132657208D01*
X157606287Y-132649500D01*
X157393713Y-132649500D01*
X157345042Y-132657208D01*
X157183760Y-132682753D01*
X156981585Y-132748444D01*
X156792179Y-132844951D01*
X156620213Y-132969890D01*
X156469890Y-133120213D01*
X156344951Y-133292179D01*
X156248444Y-133481585D01*
X156182753Y-133683760D01*
X156149500Y-133893713D01*
X114850500Y-133893713D01*
X114817246Y-133683757D01*
X114751557Y-133481588D01*
X114655051Y-133292184D01*
X114655049Y-133292181D01*
X114655048Y-133292179D01*
X114530109Y-133120213D01*
X114379786Y-132969890D01*
X114207820Y-132844951D01*
X114018414Y-132748444D01*
X114018413Y-132748443D01*
X114018412Y-132748443D01*
X113816243Y-132682754D01*
X113816241Y-132682753D01*
X113816240Y-132682753D01*
X113654957Y-132657208D01*
X113606287Y-132649500D01*
X113393713Y-132649500D01*
X113345042Y-132657208D01*
X113183760Y-132682753D01*
X112981585Y-132748444D01*
X112792179Y-132844951D01*
X112620213Y-132969890D01*
X112469890Y-133120213D01*
X112344951Y-133292179D01*
X112248444Y-133481585D01*
X112182753Y-133683760D01*
X112149500Y-133893713D01*
X111000500Y-133893713D01*
X111000500Y-126324983D01*
X119899500Y-126324983D01*
X119899500Y-127675001D01*
X119899501Y-127675018D01*
X119910000Y-127777796D01*
X119910001Y-127777799D01*
X119965185Y-127944331D01*
X119965187Y-127944336D01*
X119988870Y-127982732D01*
X120057288Y-128093656D01*
X120181344Y-128217712D01*
X120330666Y-128309814D01*
X120497203Y-128364999D01*
X120599991Y-128375500D01*
X121400008Y-128375499D01*
X121400016Y-128375498D01*
X121400019Y-128375498D01*
X121456302Y-128369748D01*
X121502797Y-128364999D01*
X121669334Y-128309814D01*
X121818656Y-128217712D01*
X121942712Y-128093656D01*
X121982310Y-128029456D01*
X122034258Y-127982732D01*
X122103220Y-127971509D01*
X122167303Y-127999352D01*
X122175530Y-128006872D01*
X122283072Y-128114414D01*
X122423212Y-128216232D01*
X122577555Y-128294873D01*
X122742299Y-128348402D01*
X122913389Y-128375500D01*
X122913390Y-128375500D01*
X123086610Y-128375500D01*
X123086611Y-128375500D01*
X123257701Y-128348402D01*
X123422445Y-128294873D01*
X123576788Y-128216232D01*
X123716928Y-128114414D01*
X123839414Y-127991928D01*
X123899682Y-127908975D01*
X123955012Y-127866311D01*
X124024626Y-127860332D01*
X124086421Y-127892938D01*
X124100315Y-127908973D01*
X124160586Y-127991928D01*
X124283072Y-128114414D01*
X124423212Y-128216232D01*
X124577555Y-128294873D01*
X124742299Y-128348402D01*
X124913389Y-128375500D01*
X124913390Y-128375500D01*
X125086610Y-128375500D01*
X125086611Y-128375500D01*
X125257701Y-128348402D01*
X125422445Y-128294873D01*
X125576788Y-128216232D01*
X125716928Y-128114414D01*
X125839414Y-127991928D01*
X125899682Y-127908975D01*
X125955012Y-127866311D01*
X126024626Y-127860332D01*
X126086421Y-127892938D01*
X126100315Y-127908973D01*
X126160586Y-127991928D01*
X126283072Y-128114414D01*
X126423212Y-128216232D01*
X126577555Y-128294873D01*
X126742299Y-128348402D01*
X126913389Y-128375500D01*
X126913390Y-128375500D01*
X127086610Y-128375500D01*
X127086611Y-128375500D01*
X127257701Y-128348402D01*
X127422445Y-128294873D01*
X127576788Y-128216232D01*
X127716928Y-128114414D01*
X127839414Y-127991928D01*
X127899682Y-127908975D01*
X127955012Y-127866311D01*
X128024626Y-127860332D01*
X128086421Y-127892938D01*
X128100315Y-127908973D01*
X128160586Y-127991928D01*
X128283072Y-128114414D01*
X128423212Y-128216232D01*
X128577555Y-128294873D01*
X128742299Y-128348402D01*
X128913389Y-128375500D01*
X128913390Y-128375500D01*
X129086610Y-128375500D01*
X129086611Y-128375500D01*
X129257701Y-128348402D01*
X129422445Y-128294873D01*
X129576788Y-128216232D01*
X129716928Y-128114414D01*
X129839414Y-127991928D01*
X129899991Y-127908550D01*
X129955321Y-127865885D01*
X130024934Y-127859906D01*
X130086729Y-127892512D01*
X130100628Y-127908551D01*
X130160967Y-127991602D01*
X130283397Y-128114032D01*
X130423475Y-128215804D01*
X130577744Y-128294408D01*
X130742415Y-128347914D01*
X130742414Y-128347914D01*
X130749999Y-128349115D01*
X130750000Y-128349114D01*
X130750000Y-127280330D01*
X130769745Y-127300075D01*
X130855255Y-127349444D01*
X130950630Y-127375000D01*
X131049370Y-127375000D01*
X131144745Y-127349444D01*
X131230255Y-127300075D01*
X131250000Y-127280330D01*
X131250000Y-128349115D01*
X131257584Y-128347914D01*
X131422255Y-128294408D01*
X131576524Y-128215804D01*
X131716602Y-128114032D01*
X131839036Y-127991598D01*
X131899371Y-127908552D01*
X131954700Y-127865886D01*
X132024313Y-127859905D01*
X132086109Y-127892510D01*
X132100008Y-127908550D01*
X132100318Y-127908976D01*
X132160586Y-127991928D01*
X132283072Y-128114414D01*
X132423212Y-128216232D01*
X132577555Y-128294873D01*
X132742299Y-128348402D01*
X132913389Y-128375500D01*
X132913390Y-128375500D01*
X133086610Y-128375500D01*
X133086611Y-128375500D01*
X133257701Y-128348402D01*
X133422445Y-128294873D01*
X133576788Y-128216232D01*
X133716928Y-128114414D01*
X133839414Y-127991928D01*
X133941232Y-127851788D01*
X134019873Y-127697445D01*
X134073402Y-127532701D01*
X134100500Y-127361611D01*
X134100500Y-126638389D01*
X134073402Y-126467299D01*
X134027160Y-126324983D01*
X144399500Y-126324983D01*
X144399500Y-127675001D01*
X144399501Y-127675018D01*
X144410000Y-127777796D01*
X144410001Y-127777799D01*
X144465185Y-127944331D01*
X144465187Y-127944336D01*
X144488870Y-127982732D01*
X144557288Y-128093656D01*
X144681344Y-128217712D01*
X144830666Y-128309814D01*
X144997203Y-128364999D01*
X145099991Y-128375500D01*
X145900008Y-128375499D01*
X145900016Y-128375498D01*
X145900019Y-128375498D01*
X145956302Y-128369748D01*
X146002797Y-128364999D01*
X146169334Y-128309814D01*
X146318656Y-128217712D01*
X146442712Y-128093656D01*
X146482310Y-128029456D01*
X146534258Y-127982732D01*
X146603220Y-127971509D01*
X146667303Y-127999352D01*
X146675530Y-128006872D01*
X146783072Y-128114414D01*
X146923212Y-128216232D01*
X147077555Y-128294873D01*
X147242299Y-128348402D01*
X147413389Y-128375500D01*
X147413390Y-128375500D01*
X147586610Y-128375500D01*
X147586611Y-128375500D01*
X147757701Y-128348402D01*
X147922445Y-128294873D01*
X148076788Y-128216232D01*
X148216928Y-128114414D01*
X148339414Y-127991928D01*
X148441232Y-127851788D01*
X148519873Y-127697445D01*
X148573402Y-127532701D01*
X148600500Y-127361611D01*
X148600500Y-126638389D01*
X148573402Y-126467299D01*
X148519873Y-126302555D01*
X148441232Y-126148212D01*
X148339414Y-126008072D01*
X148216928Y-125885586D01*
X148076788Y-125783768D01*
X147922445Y-125705127D01*
X147757701Y-125651598D01*
X147757699Y-125651597D01*
X147757698Y-125651597D01*
X147626271Y-125630781D01*
X147586611Y-125624500D01*
X147413389Y-125624500D01*
X147373728Y-125630781D01*
X147242302Y-125651597D01*
X147077552Y-125705128D01*
X146923211Y-125783768D01*
X146783073Y-125885585D01*
X146675530Y-125993128D01*
X146614207Y-126026612D01*
X146544515Y-126021628D01*
X146488582Y-125979756D01*
X146482310Y-125970543D01*
X146442712Y-125906344D01*
X146318656Y-125782288D01*
X146193559Y-125705128D01*
X146169336Y-125690187D01*
X146169331Y-125690185D01*
X146167862Y-125689698D01*
X146002797Y-125635001D01*
X146002795Y-125635000D01*
X145900010Y-125624500D01*
X145099998Y-125624500D01*
X145099980Y-125624501D01*
X144997203Y-125635000D01*
X144997200Y-125635001D01*
X144830668Y-125690185D01*
X144830663Y-125690187D01*
X144681342Y-125782289D01*
X144557289Y-125906342D01*
X144465187Y-126055663D01*
X144465185Y-126055668D01*
X144448014Y-126107488D01*
X144410001Y-126222203D01*
X144410001Y-126222204D01*
X144410000Y-126222204D01*
X144399500Y-126324983D01*
X134027160Y-126324983D01*
X134019873Y-126302555D01*
X133941232Y-126148212D01*
X133839414Y-126008072D01*
X133716928Y-125885586D01*
X133576788Y-125783768D01*
X133422445Y-125705127D01*
X133257701Y-125651598D01*
X133257699Y-125651597D01*
X133257698Y-125651597D01*
X133126271Y-125630781D01*
X133086611Y-125624500D01*
X132913389Y-125624500D01*
X132873728Y-125630781D01*
X132742302Y-125651597D01*
X132577552Y-125705128D01*
X132423211Y-125783768D01*
X132343256Y-125841859D01*
X132283072Y-125885586D01*
X132283070Y-125885588D01*
X132283069Y-125885588D01*
X132160585Y-126008072D01*
X132100007Y-126091450D01*
X132044677Y-126134115D01*
X131975063Y-126140093D01*
X131913269Y-126107486D01*
X131899371Y-126091447D01*
X131839036Y-126008401D01*
X131716602Y-125885967D01*
X131576524Y-125784195D01*
X131422257Y-125705591D01*
X131257589Y-125652087D01*
X131257581Y-125652085D01*
X131250000Y-125650884D01*
X131250000Y-126719670D01*
X131230255Y-126699925D01*
X131144745Y-126650556D01*
X131049370Y-126625000D01*
X130950630Y-126625000D01*
X130855255Y-126650556D01*
X130769745Y-126699925D01*
X130750000Y-126719670D01*
X130750000Y-125650884D01*
X130749999Y-125650884D01*
X130742418Y-125652085D01*
X130742410Y-125652087D01*
X130577742Y-125705591D01*
X130423475Y-125784195D01*
X130283397Y-125885967D01*
X130160965Y-126008399D01*
X130160961Y-126008404D01*
X130100627Y-126091448D01*
X130045297Y-126134114D01*
X129975684Y-126140093D01*
X129913889Y-126107488D01*
X129899991Y-126091449D01*
X129899990Y-126091447D01*
X129839414Y-126008072D01*
X129716928Y-125885586D01*
X129576788Y-125783768D01*
X129422445Y-125705127D01*
X129257701Y-125651598D01*
X129257699Y-125651597D01*
X129257698Y-125651597D01*
X129126271Y-125630781D01*
X129086611Y-125624500D01*
X128913389Y-125624500D01*
X128873728Y-125630781D01*
X128742302Y-125651597D01*
X128577552Y-125705128D01*
X128423211Y-125783768D01*
X128343256Y-125841859D01*
X128283072Y-125885586D01*
X128283070Y-125885588D01*
X128283069Y-125885588D01*
X128160588Y-126008069D01*
X128160581Y-126008078D01*
X128100317Y-126091023D01*
X128044987Y-126133689D01*
X127975374Y-126139667D01*
X127913579Y-126107061D01*
X127899683Y-126091023D01*
X127839653Y-126008401D01*
X127839414Y-126008072D01*
X127716928Y-125885586D01*
X127576788Y-125783768D01*
X127422445Y-125705127D01*
X127257701Y-125651598D01*
X127257699Y-125651597D01*
X127257698Y-125651597D01*
X127126271Y-125630781D01*
X127086611Y-125624500D01*
X126913389Y-125624500D01*
X126873728Y-125630781D01*
X126742302Y-125651597D01*
X126577552Y-125705128D01*
X126423211Y-125783768D01*
X126343256Y-125841859D01*
X126283072Y-125885586D01*
X126283070Y-125885588D01*
X126283069Y-125885588D01*
X126160588Y-126008069D01*
X126160581Y-126008078D01*
X126100317Y-126091023D01*
X126044987Y-126133689D01*
X125975374Y-126139667D01*
X125913579Y-126107061D01*
X125899683Y-126091023D01*
X125839653Y-126008401D01*
X125839414Y-126008072D01*
X125716928Y-125885586D01*
X125576788Y-125783768D01*
X125422445Y-125705127D01*
X125257701Y-125651598D01*
X125257699Y-125651597D01*
X125257698Y-125651597D01*
X125126271Y-125630781D01*
X125086611Y-125624500D01*
X124913389Y-125624500D01*
X124873728Y-125630781D01*
X124742302Y-125651597D01*
X124577552Y-125705128D01*
X124423211Y-125783768D01*
X124343256Y-125841859D01*
X124283072Y-125885586D01*
X124283070Y-125885588D01*
X124283069Y-125885588D01*
X124160588Y-126008069D01*
X124160581Y-126008078D01*
X124100317Y-126091023D01*
X124044987Y-126133689D01*
X123975374Y-126139667D01*
X123913579Y-126107061D01*
X123899683Y-126091023D01*
X123839653Y-126008401D01*
X123839414Y-126008072D01*
X123716928Y-125885586D01*
X123576788Y-125783768D01*
X123422445Y-125705127D01*
X123257701Y-125651598D01*
X123257699Y-125651597D01*
X123257698Y-125651597D01*
X123126271Y-125630781D01*
X123086611Y-125624500D01*
X122913389Y-125624500D01*
X122873728Y-125630781D01*
X122742302Y-125651597D01*
X122577552Y-125705128D01*
X122423211Y-125783768D01*
X122283073Y-125885585D01*
X122175530Y-125993128D01*
X122114207Y-126026612D01*
X122044515Y-126021628D01*
X121988582Y-125979756D01*
X121982310Y-125970543D01*
X121942712Y-125906344D01*
X121818656Y-125782288D01*
X121693559Y-125705128D01*
X121669336Y-125690187D01*
X121669331Y-125690185D01*
X121667862Y-125689698D01*
X121502797Y-125635001D01*
X121502795Y-125635000D01*
X121400010Y-125624500D01*
X120599998Y-125624500D01*
X120599980Y-125624501D01*
X120497203Y-125635000D01*
X120497200Y-125635001D01*
X120330668Y-125690185D01*
X120330663Y-125690187D01*
X120181342Y-125782289D01*
X120057289Y-125906342D01*
X119965187Y-126055663D01*
X119965185Y-126055668D01*
X119948014Y-126107488D01*
X119910001Y-126222203D01*
X119910001Y-126222204D01*
X119910000Y-126222204D01*
X119899500Y-126324983D01*
X111000500Y-126324983D01*
X111000500Y-74763396D01*
X129412617Y-74763396D01*
X129412617Y-74876603D01*
X129432800Y-75055736D01*
X129432801Y-75055739D01*
X129457986Y-75166089D01*
X129457989Y-75166098D01*
X129517528Y-75336255D01*
X129566647Y-75438249D01*
X129625859Y-75532484D01*
X129662558Y-75590890D01*
X129733135Y-75679390D01*
X129860610Y-75806865D01*
X129949110Y-75877442D01*
X130073465Y-75955579D01*
X130101755Y-75973355D01*
X130101759Y-75973357D01*
X130119209Y-75981761D01*
X130171068Y-76028584D01*
X130189380Y-76096011D01*
X130168331Y-76162635D01*
X130117812Y-76205862D01*
X130067264Y-76229433D01*
X129880858Y-76359954D01*
X129719954Y-76520858D01*
X129589432Y-76707265D01*
X129589431Y-76707267D01*
X129493261Y-76913502D01*
X129493258Y-76913511D01*
X129434366Y-77133302D01*
X129434364Y-77133313D01*
X129414532Y-77359998D01*
X129414532Y-77360001D01*
X129434364Y-77586686D01*
X129434366Y-77586697D01*
X129493258Y-77806488D01*
X129493261Y-77806497D01*
X129589431Y-78012732D01*
X129589432Y-78012734D01*
X129719954Y-78199141D01*
X129880858Y-78360045D01*
X129880861Y-78360047D01*
X130067266Y-78490568D01*
X130125275Y-78517618D01*
X130177714Y-78563791D01*
X130196866Y-78630984D01*
X130176650Y-78697865D01*
X130125275Y-78742382D01*
X130067267Y-78769431D01*
X130067265Y-78769432D01*
X129880858Y-78899954D01*
X129719954Y-79060858D01*
X129589432Y-79247265D01*
X129589431Y-79247267D01*
X129493261Y-79453502D01*
X129493258Y-79453511D01*
X129434366Y-79673302D01*
X129434364Y-79673313D01*
X129414532Y-79899998D01*
X129414532Y-79900001D01*
X129434364Y-80126686D01*
X129434366Y-80126697D01*
X129493258Y-80346488D01*
X129493261Y-80346497D01*
X129589431Y-80552732D01*
X129589432Y-80552734D01*
X129719954Y-80739141D01*
X129880858Y-80900045D01*
X129880861Y-80900047D01*
X130067266Y-81030568D01*
X130124681Y-81057341D01*
X130125275Y-81057618D01*
X130177714Y-81103791D01*
X130196866Y-81170984D01*
X130176650Y-81237865D01*
X130125275Y-81282382D01*
X130067267Y-81309431D01*
X130067265Y-81309432D01*
X129880858Y-81439954D01*
X129719954Y-81600858D01*
X129589432Y-81787265D01*
X129589431Y-81787267D01*
X129493261Y-81993502D01*
X129493258Y-81993511D01*
X129434366Y-82213302D01*
X129434364Y-82213313D01*
X129414532Y-82439998D01*
X129414532Y-82440001D01*
X129434364Y-82666686D01*
X129434366Y-82666697D01*
X129493258Y-82886488D01*
X129493261Y-82886497D01*
X129589431Y-83092732D01*
X129589432Y-83092734D01*
X129719954Y-83279141D01*
X129880858Y-83440045D01*
X129880861Y-83440047D01*
X130067266Y-83570568D01*
X130125275Y-83597618D01*
X130177714Y-83643791D01*
X130196866Y-83710984D01*
X130176650Y-83777865D01*
X130125275Y-83822382D01*
X130067267Y-83849431D01*
X130067265Y-83849432D01*
X129880858Y-83979954D01*
X129719954Y-84140858D01*
X129589432Y-84327265D01*
X129589431Y-84327267D01*
X129493261Y-84533502D01*
X129493258Y-84533511D01*
X129434366Y-84753302D01*
X129434364Y-84753313D01*
X129414532Y-84979998D01*
X129414532Y-84980001D01*
X129434364Y-85206686D01*
X129434366Y-85206697D01*
X129493258Y-85426488D01*
X129493261Y-85426497D01*
X129589431Y-85632732D01*
X129589432Y-85632734D01*
X129719954Y-85819141D01*
X129880858Y-85980045D01*
X129880861Y-85980047D01*
X130067266Y-86110568D01*
X130117810Y-86134137D01*
X130170250Y-86180309D01*
X130189402Y-86247502D01*
X130169187Y-86314384D01*
X130119213Y-86358236D01*
X130101762Y-86366640D01*
X130101755Y-86366644D01*
X129949111Y-86462557D01*
X129860610Y-86533134D01*
X129733134Y-86660610D01*
X129662557Y-86749111D01*
X129566647Y-86901750D01*
X129517528Y-87003744D01*
X129457989Y-87173901D01*
X129457986Y-87173910D01*
X129432801Y-87284260D01*
X129432800Y-87284263D01*
X129412617Y-87463396D01*
X129412617Y-87576603D01*
X129432800Y-87755736D01*
X129432801Y-87755739D01*
X129457986Y-87866089D01*
X129457989Y-87866098D01*
X129517528Y-88036255D01*
X129566647Y-88138249D01*
X129625859Y-88232484D01*
X129662558Y-88290890D01*
X129733135Y-88379390D01*
X129860610Y-88506865D01*
X129949110Y-88577442D01*
X130073465Y-88655579D01*
X130101755Y-88673355D01*
X130101759Y-88673357D01*
X130119209Y-88681761D01*
X130171068Y-88728584D01*
X130189380Y-88796011D01*
X130168331Y-88862635D01*
X130117812Y-88905862D01*
X130067264Y-88929433D01*
X129880858Y-89059954D01*
X129719954Y-89220858D01*
X129589432Y-89407265D01*
X129589431Y-89407267D01*
X129493261Y-89613502D01*
X129493258Y-89613511D01*
X129434366Y-89833302D01*
X129434364Y-89833313D01*
X129414532Y-90059998D01*
X129414532Y-90060001D01*
X129434364Y-90286686D01*
X129434366Y-90286697D01*
X129493258Y-90506488D01*
X129493261Y-90506497D01*
X129589431Y-90712732D01*
X129589432Y-90712734D01*
X129719954Y-90899141D01*
X129880858Y-91060045D01*
X129880861Y-91060047D01*
X130067266Y-91190568D01*
X130125275Y-91217618D01*
X130177714Y-91263791D01*
X130196866Y-91330984D01*
X130176650Y-91397865D01*
X130125275Y-91442382D01*
X130067267Y-91469431D01*
X130067265Y-91469432D01*
X129880858Y-91599954D01*
X129719954Y-91760858D01*
X129589432Y-91947265D01*
X129589431Y-91947267D01*
X129493261Y-92153502D01*
X129493258Y-92153511D01*
X129434366Y-92373302D01*
X129434364Y-92373313D01*
X129414532Y-92599998D01*
X129414532Y-92600001D01*
X129434364Y-92826686D01*
X129434366Y-92826697D01*
X129493258Y-93046488D01*
X129493261Y-93046497D01*
X129589431Y-93252732D01*
X129589432Y-93252734D01*
X129719954Y-93439141D01*
X129880858Y-93600045D01*
X129880861Y-93600047D01*
X130067266Y-93730568D01*
X130125275Y-93757618D01*
X130177714Y-93803791D01*
X130196866Y-93870984D01*
X130176650Y-93937865D01*
X130125275Y-93982382D01*
X130067267Y-94009431D01*
X130067265Y-94009432D01*
X129880858Y-94139954D01*
X129719954Y-94300858D01*
X129589432Y-94487265D01*
X129589431Y-94487267D01*
X129493261Y-94693502D01*
X129493258Y-94693511D01*
X129434366Y-94913302D01*
X129434364Y-94913313D01*
X129414532Y-95139998D01*
X129414532Y-95140001D01*
X129434364Y-95366686D01*
X129434366Y-95366697D01*
X129493258Y-95586488D01*
X129493261Y-95586497D01*
X129589431Y-95792732D01*
X129589432Y-95792734D01*
X129719954Y-95979141D01*
X129880858Y-96140045D01*
X129880861Y-96140047D01*
X130067266Y-96270568D01*
X130125275Y-96297618D01*
X130177714Y-96343791D01*
X130196866Y-96410984D01*
X130176650Y-96477865D01*
X130125275Y-96522382D01*
X130067267Y-96549431D01*
X130067265Y-96549432D01*
X129880858Y-96679954D01*
X129719954Y-96840858D01*
X129589432Y-97027265D01*
X129589431Y-97027267D01*
X129493261Y-97233502D01*
X129493258Y-97233511D01*
X129434366Y-97453302D01*
X129434364Y-97453313D01*
X129414532Y-97679998D01*
X129414532Y-97680001D01*
X129434364Y-97906686D01*
X129434366Y-97906697D01*
X129493258Y-98126488D01*
X129493261Y-98126497D01*
X129589431Y-98332732D01*
X129589432Y-98332734D01*
X129719954Y-98519141D01*
X129880858Y-98680045D01*
X129880861Y-98680047D01*
X130067266Y-98810568D01*
X130117810Y-98834137D01*
X130170250Y-98880309D01*
X130189402Y-98947502D01*
X130169187Y-99014384D01*
X130119213Y-99058236D01*
X130101762Y-99066640D01*
X130101755Y-99066644D01*
X129949111Y-99162557D01*
X129860610Y-99233134D01*
X129733134Y-99360610D01*
X129662557Y-99449111D01*
X129566647Y-99601750D01*
X129517528Y-99703744D01*
X129457989Y-99873901D01*
X129457986Y-99873910D01*
X129432801Y-99984260D01*
X129432800Y-99984263D01*
X129412617Y-100163396D01*
X129412617Y-100276603D01*
X129432800Y-100455736D01*
X129432801Y-100455739D01*
X129457986Y-100566089D01*
X129457989Y-100566098D01*
X129517528Y-100736255D01*
X129566647Y-100838249D01*
X129625859Y-100932484D01*
X129662558Y-100990890D01*
X129733135Y-101079390D01*
X129860610Y-101206865D01*
X129949110Y-101277442D01*
X130073465Y-101355579D01*
X130101755Y-101373355D01*
X130101759Y-101373357D01*
X130119209Y-101381761D01*
X130171068Y-101428584D01*
X130189380Y-101496011D01*
X130168331Y-101562635D01*
X130117812Y-101605862D01*
X130067264Y-101629433D01*
X129880858Y-101759954D01*
X129719954Y-101920858D01*
X129589432Y-102107265D01*
X129589431Y-102107267D01*
X129493261Y-102313502D01*
X129493258Y-102313511D01*
X129434366Y-102533302D01*
X129434364Y-102533313D01*
X129414532Y-102759998D01*
X129414532Y-102760001D01*
X129434364Y-102986686D01*
X129434366Y-102986697D01*
X129493258Y-103206488D01*
X129493261Y-103206497D01*
X129589431Y-103412732D01*
X129589432Y-103412734D01*
X129719954Y-103599141D01*
X129880858Y-103760045D01*
X129880861Y-103760047D01*
X130067266Y-103890568D01*
X130125275Y-103917618D01*
X130177714Y-103963791D01*
X130196866Y-104030984D01*
X130176650Y-104097865D01*
X130125275Y-104142382D01*
X130067267Y-104169431D01*
X130067265Y-104169432D01*
X129880858Y-104299954D01*
X129719954Y-104460858D01*
X129589432Y-104647265D01*
X129589431Y-104647267D01*
X129493261Y-104853502D01*
X129493258Y-104853511D01*
X129434366Y-105073302D01*
X129434364Y-105073313D01*
X129414532Y-105299998D01*
X129414532Y-105300001D01*
X129434364Y-105526686D01*
X129434366Y-105526697D01*
X129493258Y-105746488D01*
X129493261Y-105746497D01*
X129589431Y-105952732D01*
X129589432Y-105952734D01*
X129719954Y-106139141D01*
X129880858Y-106300045D01*
X129880861Y-106300047D01*
X130067266Y-106430568D01*
X130125275Y-106457618D01*
X130177714Y-106503791D01*
X130196866Y-106570984D01*
X130176650Y-106637865D01*
X130125275Y-106682382D01*
X130067267Y-106709431D01*
X130067265Y-106709432D01*
X129880858Y-106839954D01*
X129719954Y-107000858D01*
X129589432Y-107187265D01*
X129589431Y-107187267D01*
X129493261Y-107393502D01*
X129493258Y-107393511D01*
X129434366Y-107613302D01*
X129434364Y-107613313D01*
X129414532Y-107839998D01*
X129414532Y-107840001D01*
X129434364Y-108066686D01*
X129434366Y-108066697D01*
X129493258Y-108286488D01*
X129493261Y-108286497D01*
X129589431Y-108492732D01*
X129589432Y-108492734D01*
X129719954Y-108679141D01*
X129880858Y-108840045D01*
X129880861Y-108840047D01*
X130067266Y-108970568D01*
X130125275Y-108997618D01*
X130177714Y-109043791D01*
X130196866Y-109110984D01*
X130176650Y-109177865D01*
X130125275Y-109222382D01*
X130067267Y-109249431D01*
X130067265Y-109249432D01*
X129880858Y-109379954D01*
X129719954Y-109540858D01*
X129589432Y-109727265D01*
X129589431Y-109727267D01*
X129493261Y-109933502D01*
X129493258Y-109933511D01*
X129434366Y-110153302D01*
X129434364Y-110153313D01*
X129414532Y-110379998D01*
X129414532Y-110380001D01*
X129434364Y-110606686D01*
X129434366Y-110606697D01*
X129493258Y-110826488D01*
X129493261Y-110826497D01*
X129589431Y-111032732D01*
X129589432Y-111032734D01*
X129719954Y-111219141D01*
X129880858Y-111380045D01*
X129880861Y-111380047D01*
X130067266Y-111510568D01*
X130117810Y-111534137D01*
X130170250Y-111580309D01*
X130189402Y-111647502D01*
X130169187Y-111714384D01*
X130119213Y-111758236D01*
X130101762Y-111766640D01*
X130101755Y-111766644D01*
X129949111Y-111862557D01*
X129860610Y-111933134D01*
X129733134Y-112060610D01*
X129662557Y-112149111D01*
X129566647Y-112301750D01*
X129517528Y-112403744D01*
X129457989Y-112573901D01*
X129457986Y-112573910D01*
X129432801Y-112684260D01*
X129432800Y-112684263D01*
X129412617Y-112863396D01*
X129412617Y-112976603D01*
X129432800Y-113155736D01*
X129432801Y-113155739D01*
X129457986Y-113266089D01*
X129457989Y-113266098D01*
X129517528Y-113436255D01*
X129566647Y-113538249D01*
X129625859Y-113632484D01*
X129662558Y-113690890D01*
X129733135Y-113779390D01*
X129860610Y-113906865D01*
X129949110Y-113977442D01*
X130073465Y-114055579D01*
X130101755Y-114073355D01*
X130101759Y-114073357D01*
X130119209Y-114081761D01*
X130171068Y-114128584D01*
X130189380Y-114196011D01*
X130168331Y-114262635D01*
X130117812Y-114305862D01*
X130067264Y-114329433D01*
X129880858Y-114459954D01*
X129719954Y-114620858D01*
X129589432Y-114807265D01*
X129589431Y-114807267D01*
X129493261Y-115013502D01*
X129493258Y-115013511D01*
X129434366Y-115233302D01*
X129434364Y-115233313D01*
X129414532Y-115459998D01*
X129414532Y-115460001D01*
X129434364Y-115686686D01*
X129434366Y-115686697D01*
X129493258Y-115906488D01*
X129493261Y-115906497D01*
X129589431Y-116112732D01*
X129589432Y-116112734D01*
X129719954Y-116299141D01*
X129880858Y-116460045D01*
X129880861Y-116460047D01*
X130067266Y-116590568D01*
X130125275Y-116617618D01*
X130177714Y-116663791D01*
X130196866Y-116730984D01*
X130176650Y-116797865D01*
X130125275Y-116842382D01*
X130067267Y-116869431D01*
X130067265Y-116869432D01*
X129880858Y-116999954D01*
X129719954Y-117160858D01*
X129589432Y-117347265D01*
X129589431Y-117347267D01*
X129493261Y-117553502D01*
X129493258Y-117553511D01*
X129434366Y-117773302D01*
X129434364Y-117773313D01*
X129414532Y-117999998D01*
X129414532Y-118000001D01*
X129434364Y-118226686D01*
X129434366Y-118226697D01*
X129493258Y-118446488D01*
X129493261Y-118446497D01*
X129589431Y-118652732D01*
X129589432Y-118652734D01*
X129719954Y-118839141D01*
X129880858Y-119000045D01*
X129880861Y-119000047D01*
X130067266Y-119130568D01*
X130273504Y-119226739D01*
X130493308Y-119285635D01*
X130655230Y-119299801D01*
X130719998Y-119305468D01*
X130720000Y-119305468D01*
X130720002Y-119305468D01*
X130776673Y-119300509D01*
X130946692Y-119285635D01*
X131166496Y-119226739D01*
X131372734Y-119130568D01*
X131559139Y-119000047D01*
X131720047Y-118839139D01*
X131850568Y-118652734D01*
X131946739Y-118446496D01*
X132005635Y-118226692D01*
X132025468Y-118000000D01*
X132005635Y-117773308D01*
X131946739Y-117553504D01*
X131850568Y-117347266D01*
X131720047Y-117160861D01*
X131720045Y-117160858D01*
X131559141Y-116999954D01*
X131372734Y-116869432D01*
X131372728Y-116869429D01*
X131314725Y-116842382D01*
X131262285Y-116796210D01*
X131243133Y-116729017D01*
X131263348Y-116662135D01*
X131314725Y-116617618D01*
X131372734Y-116590568D01*
X131559139Y-116460047D01*
X131720047Y-116299139D01*
X131850568Y-116112734D01*
X131946739Y-115906496D01*
X132005635Y-115686692D01*
X132025468Y-115460000D01*
X132005635Y-115233308D01*
X131999362Y-115209895D01*
X132510000Y-115209895D01*
X137162057Y-118822663D01*
X137202931Y-118879327D01*
X137210000Y-118920597D01*
X137210000Y-119870000D01*
X142010000Y-119870000D01*
X142010000Y-118920597D01*
X142029685Y-118853558D01*
X142057941Y-118822664D01*
X146710000Y-115209895D01*
X146710000Y-110870000D01*
X132510000Y-110870000D01*
X132510000Y-115209895D01*
X131999362Y-115209895D01*
X131946739Y-115013504D01*
X131850568Y-114807266D01*
X131720047Y-114620861D01*
X131720045Y-114620858D01*
X131559141Y-114459954D01*
X131493001Y-114413643D01*
X131449376Y-114359067D01*
X131442182Y-114289568D01*
X131473704Y-114227213D01*
X131526766Y-114193829D01*
X131584980Y-114175438D01*
X131667236Y-114135825D01*
X131738320Y-114094137D01*
X131828723Y-114009102D01*
X131843120Y-113995561D01*
X131843122Y-113995559D01*
X131843123Y-113995558D01*
X131900045Y-113924179D01*
X131945998Y-113855783D01*
X131997652Y-113721495D01*
X132017968Y-113632487D01*
X132029697Y-113550917D01*
X132025913Y-113504644D01*
X132025500Y-113494537D01*
X132025500Y-113000274D01*
X132026280Y-112986387D01*
X132027383Y-112976600D01*
X132027383Y-112863398D01*
X132026280Y-112853610D01*
X132025500Y-112839725D01*
X132025500Y-112388973D01*
X132026762Y-112371325D01*
X132029697Y-112350912D01*
X132017968Y-112207515D01*
X132017968Y-112207513D01*
X131997652Y-112118505D01*
X131972830Y-112039933D01*
X131900045Y-111915821D01*
X131843123Y-111844442D01*
X131843113Y-111844431D01*
X131786668Y-111784420D01*
X131786663Y-111784416D01*
X131667241Y-111704178D01*
X131667236Y-111704175D01*
X131667234Y-111704174D01*
X131584980Y-111664562D01*
X131584976Y-111664560D01*
X131584973Y-111664559D01*
X131584972Y-111664558D01*
X131523523Y-111640922D01*
X131468020Y-111598482D01*
X131444273Y-111532772D01*
X131459821Y-111464654D01*
X131496917Y-111423614D01*
X131559139Y-111380047D01*
X131720047Y-111219139D01*
X131850568Y-111032734D01*
X131946739Y-110826496D01*
X132005635Y-110606692D01*
X132025468Y-110380000D01*
X132005635Y-110153308D01*
X131946739Y-109933504D01*
X131850568Y-109727266D01*
X131720047Y-109540861D01*
X131720045Y-109540858D01*
X131559141Y-109379954D01*
X131372734Y-109249432D01*
X131372728Y-109249429D01*
X131314725Y-109222382D01*
X131262285Y-109176210D01*
X131243133Y-109109017D01*
X131263348Y-109042135D01*
X131314725Y-108997618D01*
X131372734Y-108970568D01*
X131559139Y-108840047D01*
X131720047Y-108679139D01*
X131850568Y-108492734D01*
X131946739Y-108286496D01*
X132005635Y-108066692D01*
X132025468Y-107840000D01*
X132005635Y-107613308D01*
X131946739Y-107393504D01*
X131850568Y-107187266D01*
X131720047Y-107000861D01*
X131720045Y-107000858D01*
X131559141Y-106839954D01*
X131372734Y-106709432D01*
X131372728Y-106709429D01*
X131314725Y-106682382D01*
X131262285Y-106636210D01*
X131243133Y-106569017D01*
X131263348Y-106502135D01*
X131314725Y-106457618D01*
X131372734Y-106430568D01*
X131559139Y-106300047D01*
X131720047Y-106139139D01*
X131850568Y-105952734D01*
X131946739Y-105746496D01*
X132005635Y-105526692D01*
X132025468Y-105300000D01*
X132005635Y-105073308D01*
X131946739Y-104853504D01*
X131850568Y-104647266D01*
X131720047Y-104460861D01*
X131720045Y-104460858D01*
X131559141Y-104299954D01*
X131372734Y-104169432D01*
X131372728Y-104169429D01*
X131314725Y-104142382D01*
X131262285Y-104096210D01*
X131243133Y-104029017D01*
X131263348Y-103962135D01*
X131314725Y-103917618D01*
X131372734Y-103890568D01*
X131559139Y-103760047D01*
X131720047Y-103599139D01*
X131850568Y-103412734D01*
X131946739Y-103206496D01*
X132005635Y-102986692D01*
X132025468Y-102760000D01*
X132005635Y-102533308D01*
X131946739Y-102313504D01*
X131850568Y-102107266D01*
X131720047Y-101920861D01*
X131720045Y-101920858D01*
X131559141Y-101759954D01*
X131493001Y-101713643D01*
X131449376Y-101659067D01*
X131442182Y-101589568D01*
X131473704Y-101527213D01*
X131526766Y-101493829D01*
X131584980Y-101475438D01*
X131667236Y-101435825D01*
X131738320Y-101394137D01*
X131828723Y-101309102D01*
X131843120Y-101295561D01*
X131843122Y-101295559D01*
X131843123Y-101295558D01*
X131900045Y-101224179D01*
X131945998Y-101155783D01*
X131997652Y-101021495D01*
X132017968Y-100932487D01*
X132029697Y-100850917D01*
X132025913Y-100804644D01*
X132025500Y-100794537D01*
X132025500Y-100300274D01*
X132026280Y-100286387D01*
X132027383Y-100276600D01*
X132027383Y-100163398D01*
X132026280Y-100153610D01*
X132025500Y-100139725D01*
X132025500Y-99688973D01*
X132026762Y-99671325D01*
X132029697Y-99650912D01*
X132017968Y-99507515D01*
X132017968Y-99507513D01*
X131997652Y-99418505D01*
X131972830Y-99339933D01*
X131900045Y-99215821D01*
X131843123Y-99144442D01*
X131843113Y-99144431D01*
X131786668Y-99084420D01*
X131786663Y-99084416D01*
X131667241Y-99004178D01*
X131667236Y-99004175D01*
X131667234Y-99004174D01*
X131584980Y-98964562D01*
X131584976Y-98964560D01*
X131584973Y-98964559D01*
X131584972Y-98964558D01*
X131523523Y-98940922D01*
X131468020Y-98898482D01*
X131444273Y-98832772D01*
X131459821Y-98764654D01*
X131496917Y-98723614D01*
X131559139Y-98680047D01*
X131720047Y-98519139D01*
X131850568Y-98332734D01*
X131946739Y-98126496D01*
X132005635Y-97906692D01*
X132025468Y-97680000D01*
X132005635Y-97453308D01*
X131946739Y-97233504D01*
X131850568Y-97027266D01*
X131720047Y-96840861D01*
X131720045Y-96840858D01*
X131559141Y-96679954D01*
X131372734Y-96549432D01*
X131372728Y-96549429D01*
X131314725Y-96522382D01*
X131262285Y-96476210D01*
X131243133Y-96409017D01*
X131263348Y-96342135D01*
X131314725Y-96297618D01*
X131372734Y-96270568D01*
X131559139Y-96140047D01*
X131720047Y-95979139D01*
X131850568Y-95792734D01*
X131946739Y-95586496D01*
X132005635Y-95366692D01*
X132025468Y-95140000D01*
X132005635Y-94913308D01*
X131946739Y-94693504D01*
X131850568Y-94487266D01*
X131720047Y-94300861D01*
X131720045Y-94300858D01*
X131559141Y-94139954D01*
X131372734Y-94009432D01*
X131372728Y-94009429D01*
X131314725Y-93982382D01*
X131262285Y-93936210D01*
X131243133Y-93869017D01*
X131263348Y-93802135D01*
X131314725Y-93757618D01*
X131372734Y-93730568D01*
X131559139Y-93600047D01*
X131720047Y-93439139D01*
X131850568Y-93252734D01*
X131946739Y-93046496D01*
X132005635Y-92826692D01*
X132025468Y-92600000D01*
X132005635Y-92373308D01*
X131946739Y-92153504D01*
X131850568Y-91947266D01*
X131720047Y-91760861D01*
X131720045Y-91760858D01*
X131559141Y-91599954D01*
X131372734Y-91469432D01*
X131372728Y-91469429D01*
X131314725Y-91442382D01*
X131262285Y-91396210D01*
X131243133Y-91329017D01*
X131263348Y-91262135D01*
X131314725Y-91217618D01*
X131372734Y-91190568D01*
X131559139Y-91060047D01*
X131720047Y-90899139D01*
X131850568Y-90712734D01*
X131946739Y-90506496D01*
X132005635Y-90286692D01*
X132025468Y-90060000D01*
X132005635Y-89833308D01*
X131946739Y-89613504D01*
X131850568Y-89407266D01*
X131720047Y-89220861D01*
X131720045Y-89220858D01*
X131559141Y-89059954D01*
X131493001Y-89013643D01*
X131449376Y-88959067D01*
X131442182Y-88889568D01*
X131473704Y-88827213D01*
X131526766Y-88793829D01*
X131584980Y-88775438D01*
X131667236Y-88735825D01*
X131738320Y-88694137D01*
X131828723Y-88609102D01*
X131843120Y-88595561D01*
X131843122Y-88595559D01*
X131843123Y-88595558D01*
X131900045Y-88524179D01*
X131945998Y-88455783D01*
X131997652Y-88321495D01*
X132017968Y-88232487D01*
X132029697Y-88150917D01*
X132025913Y-88104644D01*
X132025500Y-88094537D01*
X132025500Y-87600274D01*
X132026280Y-87586387D01*
X132027383Y-87576600D01*
X132027383Y-87463398D01*
X132026280Y-87453610D01*
X132025500Y-87439725D01*
X132025500Y-86988973D01*
X132026762Y-86971325D01*
X132029697Y-86950912D01*
X132017968Y-86807515D01*
X132017968Y-86807513D01*
X131997652Y-86718505D01*
X131972830Y-86639933D01*
X131900045Y-86515821D01*
X131843123Y-86444442D01*
X131843113Y-86444431D01*
X131786668Y-86384420D01*
X131786663Y-86384416D01*
X131667241Y-86304178D01*
X131667236Y-86304175D01*
X131667234Y-86304174D01*
X131584980Y-86264562D01*
X131584976Y-86264560D01*
X131584973Y-86264559D01*
X131584972Y-86264558D01*
X131523523Y-86240922D01*
X131468020Y-86198482D01*
X131444273Y-86132772D01*
X131459821Y-86064654D01*
X131496917Y-86023614D01*
X131559139Y-85980047D01*
X131720047Y-85819139D01*
X131850568Y-85632734D01*
X131946739Y-85426496D01*
X132005635Y-85206692D01*
X132025468Y-84980000D01*
X132005635Y-84753308D01*
X131946739Y-84533504D01*
X131850568Y-84327266D01*
X131720047Y-84140861D01*
X131720045Y-84140858D01*
X131559141Y-83979954D01*
X131372734Y-83849432D01*
X131372728Y-83849429D01*
X131314725Y-83822382D01*
X131262285Y-83776210D01*
X131243133Y-83709017D01*
X131263348Y-83642135D01*
X131314725Y-83597618D01*
X131372734Y-83570568D01*
X131559139Y-83440047D01*
X131720047Y-83279139D01*
X131850568Y-83092734D01*
X131946739Y-82886496D01*
X132005635Y-82666692D01*
X132025468Y-82440000D01*
X132005635Y-82213308D01*
X131946739Y-81993504D01*
X131850568Y-81787266D01*
X131720047Y-81600861D01*
X131720045Y-81600858D01*
X131559141Y-81439954D01*
X131372734Y-81309432D01*
X131372728Y-81309429D01*
X131314725Y-81282382D01*
X131262285Y-81236210D01*
X131243133Y-81169017D01*
X131263348Y-81102135D01*
X131314725Y-81057618D01*
X131315319Y-81057341D01*
X131372734Y-81030568D01*
X131559139Y-80900047D01*
X131720047Y-80739139D01*
X131850568Y-80552734D01*
X131946739Y-80346496D01*
X132005635Y-80126692D01*
X132025468Y-79900000D01*
X132005635Y-79673308D01*
X131946739Y-79453504D01*
X131850568Y-79247266D01*
X131720047Y-79060861D01*
X131720045Y-79060858D01*
X131559141Y-78899954D01*
X131372734Y-78769432D01*
X131372728Y-78769429D01*
X131314725Y-78742382D01*
X131262285Y-78696210D01*
X131243133Y-78629017D01*
X131263348Y-78562135D01*
X131314725Y-78517618D01*
X131372734Y-78490568D01*
X131559139Y-78360047D01*
X131720047Y-78199139D01*
X131850568Y-78012734D01*
X131946739Y-77806496D01*
X132005635Y-77586692D01*
X132025468Y-77360000D01*
X132005635Y-77133308D01*
X131946739Y-76913504D01*
X131850568Y-76707266D01*
X131720047Y-76520861D01*
X131720045Y-76520858D01*
X131559141Y-76359954D01*
X131493001Y-76313643D01*
X131449376Y-76259067D01*
X131442182Y-76189568D01*
X131473704Y-76127213D01*
X131526766Y-76093829D01*
X131584980Y-76075438D01*
X131667236Y-76035825D01*
X131738320Y-75994137D01*
X131828723Y-75909102D01*
X131843120Y-75895561D01*
X131843122Y-75895559D01*
X131843123Y-75895558D01*
X131900045Y-75824179D01*
X131945998Y-75755783D01*
X131997652Y-75621495D01*
X132017968Y-75532487D01*
X132029697Y-75450917D01*
X132025913Y-75404644D01*
X132025500Y-75394537D01*
X132025500Y-74900274D01*
X132026280Y-74886387D01*
X132027383Y-74876600D01*
X132027383Y-74763398D01*
X132026280Y-74753610D01*
X132025500Y-74739725D01*
X132025500Y-74288973D01*
X132026762Y-74271325D01*
X132029697Y-74250912D01*
X132024640Y-74189084D01*
X147190302Y-74189084D01*
X147194087Y-74235354D01*
X147194500Y-74245462D01*
X147194500Y-74739725D01*
X147193720Y-74753610D01*
X147192617Y-74763398D01*
X147192617Y-74876600D01*
X147193720Y-74886387D01*
X147194500Y-74900274D01*
X147194500Y-75351025D01*
X147193238Y-75368671D01*
X147190303Y-75389084D01*
X147190302Y-75389088D01*
X147202031Y-75532484D01*
X147222348Y-75621496D01*
X147247170Y-75700067D01*
X147247171Y-75700070D01*
X147319955Y-75824179D01*
X147376878Y-75895559D01*
X147376886Y-75895568D01*
X147433331Y-75955579D01*
X147433336Y-75955583D01*
X147433337Y-75955584D01*
X147552764Y-76035825D01*
X147635020Y-76075438D01*
X147696478Y-76099078D01*
X147751978Y-76141516D01*
X147775726Y-76207226D01*
X147760178Y-76275344D01*
X147723082Y-76316384D01*
X147660860Y-76359952D01*
X147499954Y-76520858D01*
X147369432Y-76707265D01*
X147369431Y-76707267D01*
X147273261Y-76913502D01*
X147273258Y-76913511D01*
X147214366Y-77133302D01*
X147214364Y-77133313D01*
X147194532Y-77359998D01*
X147194532Y-77360001D01*
X147214364Y-77586686D01*
X147214366Y-77586697D01*
X147273258Y-77806488D01*
X147273261Y-77806497D01*
X147369431Y-78012732D01*
X147369432Y-78012734D01*
X147499954Y-78199141D01*
X147660858Y-78360045D01*
X147660861Y-78360047D01*
X147847266Y-78490568D01*
X147905865Y-78517893D01*
X147958305Y-78564065D01*
X147977457Y-78631258D01*
X147957242Y-78698139D01*
X147905867Y-78742657D01*
X147847513Y-78769868D01*
X147847512Y-78769868D01*
X147774526Y-78820973D01*
X147774526Y-78820974D01*
X148370590Y-79417037D01*
X148307007Y-79434075D01*
X148192993Y-79499901D01*
X148099901Y-79592993D01*
X148034075Y-79707007D01*
X148017037Y-79770589D01*
X147420974Y-79174526D01*
X147420973Y-79174526D01*
X147369868Y-79247512D01*
X147369866Y-79247516D01*
X147273734Y-79453673D01*
X147273730Y-79453682D01*
X147214860Y-79673389D01*
X147214858Y-79673400D01*
X147195034Y-79899997D01*
X147195034Y-79900002D01*
X147214858Y-80126599D01*
X147214860Y-80126610D01*
X147273730Y-80346317D01*
X147273735Y-80346331D01*
X147369863Y-80552478D01*
X147420974Y-80625472D01*
X148017037Y-80029409D01*
X148034075Y-80092993D01*
X148099901Y-80207007D01*
X148192993Y-80300099D01*
X148307007Y-80365925D01*
X148370590Y-80382962D01*
X147774526Y-80979025D01*
X147847513Y-81030132D01*
X147847521Y-81030136D01*
X147905864Y-81057342D01*
X147958304Y-81103514D01*
X147977456Y-81170707D01*
X147957241Y-81237589D01*
X147905866Y-81282105D01*
X147847272Y-81309428D01*
X147847265Y-81309432D01*
X147660858Y-81439954D01*
X147499954Y-81600858D01*
X147369432Y-81787265D01*
X147369431Y-81787267D01*
X147273261Y-81993502D01*
X147273258Y-81993511D01*
X147214366Y-82213302D01*
X147214364Y-82213313D01*
X147194532Y-82439998D01*
X147194532Y-82440001D01*
X147214364Y-82666686D01*
X147214366Y-82666697D01*
X147273258Y-82886488D01*
X147273261Y-82886497D01*
X147369431Y-83092732D01*
X147369432Y-83092734D01*
X147499954Y-83279141D01*
X147660858Y-83440045D01*
X147660861Y-83440047D01*
X147847266Y-83570568D01*
X147905275Y-83597618D01*
X147957714Y-83643791D01*
X147976866Y-83710984D01*
X147956650Y-83777865D01*
X147905275Y-83822382D01*
X147847267Y-83849431D01*
X147847265Y-83849432D01*
X147660858Y-83979954D01*
X147499954Y-84140858D01*
X147369432Y-84327265D01*
X147369431Y-84327267D01*
X147273261Y-84533502D01*
X147273258Y-84533511D01*
X147214366Y-84753302D01*
X147214364Y-84753313D01*
X147194532Y-84979998D01*
X147194532Y-84980001D01*
X147214364Y-85206686D01*
X147214366Y-85206697D01*
X147273258Y-85426488D01*
X147273261Y-85426497D01*
X147369431Y-85632732D01*
X147369432Y-85632734D01*
X147499954Y-85819141D01*
X147660857Y-85980044D01*
X147660860Y-85980046D01*
X147660861Y-85980047D01*
X147726997Y-86026356D01*
X147770623Y-86080932D01*
X147777817Y-86150430D01*
X147746295Y-86212785D01*
X147693233Y-86246170D01*
X147635025Y-86264560D01*
X147635016Y-86264564D01*
X147552764Y-86304174D01*
X147552749Y-86304182D01*
X147481683Y-86345860D01*
X147481677Y-86345865D01*
X147376879Y-86444438D01*
X147319953Y-86515823D01*
X147274001Y-86584217D01*
X147222348Y-86718505D01*
X147202031Y-86807516D01*
X147190302Y-86889084D01*
X147194087Y-86935354D01*
X147194500Y-86945462D01*
X147194500Y-87439725D01*
X147193720Y-87453610D01*
X147192617Y-87463398D01*
X147192617Y-87576600D01*
X147193720Y-87586387D01*
X147194500Y-87600274D01*
X147194500Y-88051025D01*
X147193238Y-88068671D01*
X147190303Y-88089084D01*
X147190302Y-88089088D01*
X147202031Y-88232484D01*
X147222348Y-88321496D01*
X147247170Y-88400067D01*
X147247171Y-88400070D01*
X147319955Y-88524179D01*
X147376878Y-88595559D01*
X147376886Y-88595568D01*
X147433331Y-88655579D01*
X147433336Y-88655583D01*
X147433337Y-88655584D01*
X147552764Y-88735825D01*
X147635020Y-88775438D01*
X147696478Y-88799078D01*
X147751978Y-88841516D01*
X147775726Y-88907226D01*
X147760178Y-88975344D01*
X147723082Y-89016384D01*
X147660860Y-89059952D01*
X147499954Y-89220858D01*
X147369432Y-89407265D01*
X147369431Y-89407267D01*
X147273261Y-89613502D01*
X147273258Y-89613511D01*
X147214366Y-89833302D01*
X147214364Y-89833313D01*
X147194532Y-90059998D01*
X147194532Y-90060001D01*
X147214364Y-90286686D01*
X147214366Y-90286697D01*
X147273258Y-90506488D01*
X147273261Y-90506497D01*
X147369431Y-90712732D01*
X147369432Y-90712734D01*
X147499954Y-90899141D01*
X147660858Y-91060045D01*
X147660861Y-91060047D01*
X147847266Y-91190568D01*
X147905275Y-91217618D01*
X147957714Y-91263791D01*
X147976866Y-91330984D01*
X147956650Y-91397865D01*
X147905275Y-91442382D01*
X147847267Y-91469431D01*
X147847265Y-91469432D01*
X147660858Y-91599954D01*
X147499954Y-91760858D01*
X147369432Y-91947265D01*
X147369431Y-91947267D01*
X147273261Y-92153502D01*
X147273258Y-92153511D01*
X147214366Y-92373302D01*
X147214364Y-92373313D01*
X147194532Y-92599998D01*
X147194532Y-92600001D01*
X147214364Y-92826686D01*
X147214366Y-92826697D01*
X147273258Y-93046488D01*
X147273261Y-93046497D01*
X147369431Y-93252732D01*
X147369432Y-93252734D01*
X147499954Y-93439141D01*
X147660858Y-93600045D01*
X147660861Y-93600047D01*
X147847266Y-93730568D01*
X147905275Y-93757618D01*
X147957714Y-93803791D01*
X147976866Y-93870984D01*
X147956650Y-93937865D01*
X147905275Y-93982382D01*
X147847267Y-94009431D01*
X147847265Y-94009432D01*
X147660858Y-94139954D01*
X147499954Y-94300858D01*
X147369432Y-94487265D01*
X147369431Y-94487267D01*
X147273261Y-94693502D01*
X147273258Y-94693511D01*
X147214366Y-94913302D01*
X147214364Y-94913313D01*
X147194532Y-95139998D01*
X147194532Y-95140001D01*
X147214364Y-95366686D01*
X147214366Y-95366697D01*
X147273258Y-95586488D01*
X147273261Y-95586497D01*
X147369431Y-95792732D01*
X147369432Y-95792734D01*
X147499954Y-95979141D01*
X147660858Y-96140045D01*
X147660861Y-96140047D01*
X147847266Y-96270568D01*
X147905275Y-96297618D01*
X147957714Y-96343791D01*
X147976866Y-96410984D01*
X147956650Y-96477865D01*
X147905275Y-96522382D01*
X147847267Y-96549431D01*
X147847265Y-96549432D01*
X147660858Y-96679954D01*
X147499954Y-96840858D01*
X147369432Y-97027265D01*
X147369431Y-97027267D01*
X147273261Y-97233502D01*
X147273258Y-97233511D01*
X147214366Y-97453302D01*
X147214364Y-97453313D01*
X147194532Y-97679998D01*
X147194532Y-97680001D01*
X147214364Y-97906686D01*
X147214366Y-97906697D01*
X147273258Y-98126488D01*
X147273261Y-98126497D01*
X147369431Y-98332732D01*
X147369432Y-98332734D01*
X147499954Y-98519141D01*
X147660857Y-98680044D01*
X147660860Y-98680046D01*
X147660861Y-98680047D01*
X147726997Y-98726356D01*
X147770623Y-98780932D01*
X147777817Y-98850430D01*
X147746295Y-98912785D01*
X147693233Y-98946170D01*
X147635025Y-98964560D01*
X147635016Y-98964564D01*
X147552764Y-99004174D01*
X147552749Y-99004182D01*
X147481683Y-99045860D01*
X147481677Y-99045865D01*
X147376879Y-99144438D01*
X147319953Y-99215823D01*
X147274001Y-99284217D01*
X147222348Y-99418505D01*
X147202031Y-99507516D01*
X147190302Y-99589084D01*
X147194087Y-99635354D01*
X147194500Y-99645462D01*
X147194500Y-100139725D01*
X147193720Y-100153610D01*
X147192617Y-100163398D01*
X147192617Y-100276600D01*
X147193720Y-100286387D01*
X147194500Y-100300274D01*
X147194500Y-100751025D01*
X147193238Y-100768671D01*
X147190303Y-100789084D01*
X147190302Y-100789088D01*
X147202031Y-100932484D01*
X147222348Y-101021496D01*
X147247170Y-101100067D01*
X147247171Y-101100070D01*
X147319955Y-101224179D01*
X147376878Y-101295559D01*
X147376886Y-101295568D01*
X147433331Y-101355579D01*
X147433336Y-101355583D01*
X147433337Y-101355584D01*
X147552764Y-101435825D01*
X147635020Y-101475438D01*
X147696478Y-101499078D01*
X147751978Y-101541516D01*
X147775726Y-101607226D01*
X147760178Y-101675344D01*
X147723082Y-101716384D01*
X147660860Y-101759952D01*
X147499954Y-101920858D01*
X147369432Y-102107265D01*
X147369431Y-102107267D01*
X147273261Y-102313502D01*
X147273258Y-102313511D01*
X147214366Y-102533302D01*
X147214364Y-102533313D01*
X147194532Y-102759998D01*
X147194532Y-102760001D01*
X147214364Y-102986686D01*
X147214366Y-102986697D01*
X147273258Y-103206488D01*
X147273261Y-103206497D01*
X147369431Y-103412732D01*
X147369432Y-103412734D01*
X147499954Y-103599141D01*
X147660858Y-103760045D01*
X147660861Y-103760047D01*
X147847266Y-103890568D01*
X147905275Y-103917618D01*
X147957714Y-103963791D01*
X147976866Y-104030984D01*
X147956650Y-104097865D01*
X147905275Y-104142382D01*
X147847267Y-104169431D01*
X147847265Y-104169432D01*
X147660858Y-104299954D01*
X147499954Y-104460858D01*
X147369432Y-104647265D01*
X147369431Y-104647267D01*
X147273261Y-104853502D01*
X147273258Y-104853511D01*
X147214366Y-105073302D01*
X147214364Y-105073313D01*
X147194532Y-105299998D01*
X147194532Y-105300001D01*
X147214364Y-105526686D01*
X147214366Y-105526697D01*
X147273258Y-105746488D01*
X147273261Y-105746497D01*
X147369431Y-105952732D01*
X147369432Y-105952734D01*
X147499954Y-106139141D01*
X147660858Y-106300045D01*
X147660861Y-106300047D01*
X147847266Y-106430568D01*
X147905275Y-106457618D01*
X147957714Y-106503791D01*
X147976866Y-106570984D01*
X147956650Y-106637865D01*
X147905275Y-106682382D01*
X147847267Y-106709431D01*
X147847265Y-106709432D01*
X147660858Y-106839954D01*
X147499954Y-107000858D01*
X147369432Y-107187265D01*
X147369431Y-107187267D01*
X147273261Y-107393502D01*
X147273258Y-107393511D01*
X147214366Y-107613302D01*
X147214364Y-107613313D01*
X147194532Y-107839998D01*
X147194532Y-107840001D01*
X147214364Y-108066686D01*
X147214366Y-108066697D01*
X147273258Y-108286488D01*
X147273261Y-108286497D01*
X147369431Y-108492732D01*
X147369432Y-108492734D01*
X147499954Y-108679141D01*
X147660858Y-108840045D01*
X147660861Y-108840047D01*
X147847266Y-108970568D01*
X147905275Y-108997618D01*
X147957714Y-109043791D01*
X147976866Y-109110984D01*
X147956650Y-109177865D01*
X147905275Y-109222382D01*
X147847267Y-109249431D01*
X147847265Y-109249432D01*
X147660858Y-109379954D01*
X147499954Y-109540858D01*
X147369432Y-109727265D01*
X147369431Y-109727267D01*
X147273261Y-109933502D01*
X147273258Y-109933511D01*
X147214366Y-110153302D01*
X147214364Y-110153313D01*
X147194532Y-110379998D01*
X147194532Y-110380001D01*
X147214364Y-110606686D01*
X147214366Y-110606697D01*
X147273258Y-110826488D01*
X147273261Y-110826497D01*
X147369431Y-111032732D01*
X147369432Y-111032734D01*
X147499954Y-111219141D01*
X147660857Y-111380044D01*
X147660860Y-111380046D01*
X147660861Y-111380047D01*
X147726997Y-111426356D01*
X147770623Y-111480932D01*
X147777817Y-111550430D01*
X147746295Y-111612785D01*
X147693233Y-111646170D01*
X147635025Y-111664560D01*
X147635016Y-111664564D01*
X147552764Y-111704174D01*
X147552749Y-111704182D01*
X147481683Y-111745860D01*
X147481677Y-111745865D01*
X147376879Y-111844438D01*
X147319953Y-111915823D01*
X147274001Y-111984217D01*
X147222348Y-112118505D01*
X147202031Y-112207516D01*
X147190302Y-112289084D01*
X147194087Y-112335354D01*
X147194500Y-112345462D01*
X147194500Y-112839725D01*
X147193720Y-112853610D01*
X147192617Y-112863398D01*
X147192617Y-112976600D01*
X147193720Y-112986387D01*
X147194500Y-113000274D01*
X147194500Y-113451025D01*
X147193238Y-113468671D01*
X147190303Y-113489084D01*
X147190302Y-113489088D01*
X147202031Y-113632484D01*
X147222348Y-113721496D01*
X147247170Y-113800067D01*
X147247171Y-113800070D01*
X147319955Y-113924179D01*
X147376878Y-113995559D01*
X147376886Y-113995568D01*
X147433331Y-114055579D01*
X147433336Y-114055583D01*
X147433337Y-114055584D01*
X147552764Y-114135825D01*
X147635020Y-114175438D01*
X147696478Y-114199078D01*
X147751978Y-114241516D01*
X147775726Y-114307226D01*
X147760178Y-114375344D01*
X147723082Y-114416384D01*
X147660860Y-114459952D01*
X147499954Y-114620858D01*
X147369432Y-114807265D01*
X147369431Y-114807267D01*
X147273261Y-115013502D01*
X147273258Y-115013511D01*
X147214366Y-115233302D01*
X147214364Y-115233313D01*
X147194532Y-115459998D01*
X147194532Y-115460001D01*
X147214364Y-115686686D01*
X147214366Y-115686697D01*
X147273258Y-115906488D01*
X147273261Y-115906497D01*
X147369431Y-116112732D01*
X147369432Y-116112734D01*
X147499954Y-116299141D01*
X147660858Y-116460045D01*
X147660861Y-116460047D01*
X147847266Y-116590568D01*
X147905275Y-116617618D01*
X147957714Y-116663791D01*
X147976866Y-116730984D01*
X147956650Y-116797865D01*
X147905275Y-116842382D01*
X147847267Y-116869431D01*
X147847265Y-116869432D01*
X147660858Y-116999954D01*
X147499954Y-117160858D01*
X147369432Y-117347265D01*
X147369431Y-117347267D01*
X147273261Y-117553502D01*
X147273258Y-117553511D01*
X147214366Y-117773302D01*
X147214364Y-117773313D01*
X147194532Y-117999998D01*
X147194532Y-118000001D01*
X147214364Y-118226686D01*
X147214366Y-118226697D01*
X147273258Y-118446488D01*
X147273261Y-118446497D01*
X147369431Y-118652732D01*
X147369432Y-118652734D01*
X147499954Y-118839141D01*
X147660858Y-119000045D01*
X147660861Y-119000047D01*
X147847266Y-119130568D01*
X148053504Y-119226739D01*
X148273308Y-119285635D01*
X148435230Y-119299801D01*
X148499998Y-119305468D01*
X148500000Y-119305468D01*
X148500002Y-119305468D01*
X148556673Y-119300509D01*
X148726692Y-119285635D01*
X148946496Y-119226739D01*
X149152734Y-119130568D01*
X149339139Y-119000047D01*
X149500047Y-118839139D01*
X149630568Y-118652734D01*
X149726739Y-118446496D01*
X149785635Y-118226692D01*
X149805468Y-118000000D01*
X149785635Y-117773308D01*
X149726739Y-117553504D01*
X149630568Y-117347266D01*
X149500047Y-117160861D01*
X149500045Y-117160858D01*
X149339141Y-116999954D01*
X149152734Y-116869432D01*
X149152728Y-116869429D01*
X149094725Y-116842382D01*
X149042285Y-116796210D01*
X149023133Y-116729017D01*
X149043348Y-116662135D01*
X149094725Y-116617618D01*
X149152734Y-116590568D01*
X149339139Y-116460047D01*
X149500047Y-116299139D01*
X149630568Y-116112734D01*
X149726739Y-115906496D01*
X149785635Y-115686692D01*
X149805468Y-115460000D01*
X149785635Y-115233308D01*
X149726739Y-115013504D01*
X149630568Y-114807266D01*
X149500047Y-114620861D01*
X149500045Y-114620858D01*
X149339141Y-114459954D01*
X149152734Y-114329432D01*
X149152732Y-114329431D01*
X149102188Y-114305862D01*
X149049749Y-114259689D01*
X149030597Y-114192496D01*
X149050813Y-114125615D01*
X149100792Y-114081760D01*
X149118245Y-114073355D01*
X149270890Y-113977442D01*
X149359390Y-113906865D01*
X149486865Y-113779390D01*
X149557442Y-113690890D01*
X149653355Y-113538245D01*
X149702470Y-113436258D01*
X149762011Y-113266098D01*
X149787198Y-113155742D01*
X149807383Y-112976599D01*
X149807383Y-112863401D01*
X149787198Y-112684258D01*
X149762011Y-112573902D01*
X149702470Y-112403742D01*
X149653355Y-112301755D01*
X149557442Y-112149110D01*
X149486865Y-112060610D01*
X149359390Y-111933135D01*
X149270890Y-111862558D01*
X149146534Y-111784420D01*
X149118244Y-111766644D01*
X149118238Y-111766641D01*
X149100788Y-111758237D01*
X149048930Y-111711413D01*
X149030619Y-111643985D01*
X149051669Y-111577362D01*
X149102184Y-111534139D01*
X149152734Y-111510568D01*
X149339139Y-111380047D01*
X149500047Y-111219139D01*
X149630568Y-111032734D01*
X149726739Y-110826496D01*
X149785635Y-110606692D01*
X149805468Y-110380000D01*
X149785635Y-110153308D01*
X149726739Y-109933504D01*
X149630568Y-109727266D01*
X149500047Y-109540861D01*
X149500045Y-109540858D01*
X149339141Y-109379954D01*
X149152734Y-109249432D01*
X149152728Y-109249429D01*
X149094725Y-109222382D01*
X149042285Y-109176210D01*
X149023133Y-109109017D01*
X149043348Y-109042135D01*
X149094725Y-108997618D01*
X149152734Y-108970568D01*
X149339139Y-108840047D01*
X149500047Y-108679139D01*
X149630568Y-108492734D01*
X149726739Y-108286496D01*
X149785635Y-108066692D01*
X149805468Y-107840000D01*
X149785635Y-107613308D01*
X149726739Y-107393504D01*
X149630568Y-107187266D01*
X149500047Y-107000861D01*
X149500045Y-107000858D01*
X149339141Y-106839954D01*
X149152734Y-106709432D01*
X149152728Y-106709429D01*
X149094725Y-106682382D01*
X149042285Y-106636210D01*
X149023133Y-106569017D01*
X149043348Y-106502135D01*
X149094725Y-106457618D01*
X149152734Y-106430568D01*
X149339139Y-106300047D01*
X149500047Y-106139139D01*
X149630568Y-105952734D01*
X149726739Y-105746496D01*
X149785635Y-105526692D01*
X149805468Y-105300000D01*
X149785635Y-105073308D01*
X149726739Y-104853504D01*
X149630568Y-104647266D01*
X149500047Y-104460861D01*
X149500045Y-104460858D01*
X149339141Y-104299954D01*
X149152734Y-104169432D01*
X149152728Y-104169429D01*
X149094725Y-104142382D01*
X149042285Y-104096210D01*
X149023133Y-104029017D01*
X149043348Y-103962135D01*
X149094725Y-103917618D01*
X149152734Y-103890568D01*
X149339139Y-103760047D01*
X149500047Y-103599139D01*
X149630568Y-103412734D01*
X149726739Y-103206496D01*
X149785635Y-102986692D01*
X149805468Y-102760000D01*
X149785635Y-102533308D01*
X149726739Y-102313504D01*
X149630568Y-102107266D01*
X149500047Y-101920861D01*
X149500045Y-101920858D01*
X149339141Y-101759954D01*
X149152734Y-101629432D01*
X149152732Y-101629431D01*
X149102188Y-101605862D01*
X149049749Y-101559689D01*
X149030597Y-101492496D01*
X149050813Y-101425615D01*
X149100792Y-101381760D01*
X149118245Y-101373355D01*
X149270890Y-101277442D01*
X149359390Y-101206865D01*
X149486865Y-101079390D01*
X149557442Y-100990890D01*
X149653355Y-100838245D01*
X149702470Y-100736258D01*
X149762011Y-100566098D01*
X149787198Y-100455742D01*
X149807383Y-100276599D01*
X149807383Y-100163401D01*
X149787198Y-99984258D01*
X149762011Y-99873902D01*
X149702470Y-99703742D01*
X149653355Y-99601755D01*
X149557442Y-99449110D01*
X149486865Y-99360610D01*
X149359390Y-99233135D01*
X149270890Y-99162558D01*
X149146534Y-99084420D01*
X149118244Y-99066644D01*
X149118238Y-99066641D01*
X149100788Y-99058237D01*
X149048930Y-99011413D01*
X149030619Y-98943985D01*
X149051669Y-98877362D01*
X149102184Y-98834139D01*
X149152734Y-98810568D01*
X149339139Y-98680047D01*
X149500047Y-98519139D01*
X149630568Y-98332734D01*
X149726739Y-98126496D01*
X149785635Y-97906692D01*
X149805468Y-97680000D01*
X149785635Y-97453308D01*
X149726739Y-97233504D01*
X149630568Y-97027266D01*
X149500047Y-96840861D01*
X149500045Y-96840858D01*
X149339141Y-96679954D01*
X149152734Y-96549432D01*
X149152728Y-96549429D01*
X149094725Y-96522382D01*
X149042285Y-96476210D01*
X149023133Y-96409017D01*
X149043348Y-96342135D01*
X149094725Y-96297618D01*
X149152734Y-96270568D01*
X149339139Y-96140047D01*
X149500047Y-95979139D01*
X149630568Y-95792734D01*
X149726739Y-95586496D01*
X149785635Y-95366692D01*
X149805468Y-95140000D01*
X149785635Y-94913308D01*
X149726739Y-94693504D01*
X149630568Y-94487266D01*
X149500047Y-94300861D01*
X149500045Y-94300858D01*
X149339141Y-94139954D01*
X149152734Y-94009432D01*
X149152728Y-94009429D01*
X149094725Y-93982382D01*
X149042285Y-93936210D01*
X149023133Y-93869017D01*
X149043348Y-93802135D01*
X149094725Y-93757618D01*
X149152734Y-93730568D01*
X149339139Y-93600047D01*
X149500047Y-93439139D01*
X149630568Y-93252734D01*
X149726739Y-93046496D01*
X149785635Y-92826692D01*
X149805468Y-92600000D01*
X149785635Y-92373308D01*
X149726739Y-92153504D01*
X149630568Y-91947266D01*
X149500047Y-91760861D01*
X149500045Y-91760858D01*
X149339141Y-91599954D01*
X149152734Y-91469432D01*
X149152728Y-91469429D01*
X149094725Y-91442382D01*
X149042285Y-91396210D01*
X149023133Y-91329017D01*
X149043348Y-91262135D01*
X149094725Y-91217618D01*
X149152734Y-91190568D01*
X149339139Y-91060047D01*
X149500047Y-90899139D01*
X149630568Y-90712734D01*
X149726739Y-90506496D01*
X149785635Y-90286692D01*
X149805468Y-90060000D01*
X149785635Y-89833308D01*
X149726739Y-89613504D01*
X149630568Y-89407266D01*
X149500047Y-89220861D01*
X149500045Y-89220858D01*
X149339141Y-89059954D01*
X149152734Y-88929432D01*
X149152732Y-88929431D01*
X149102188Y-88905862D01*
X149049749Y-88859689D01*
X149030597Y-88792496D01*
X149050813Y-88725615D01*
X149100792Y-88681760D01*
X149118245Y-88673355D01*
X149270890Y-88577442D01*
X149359390Y-88506865D01*
X149486865Y-88379390D01*
X149557442Y-88290890D01*
X149653355Y-88138245D01*
X149702470Y-88036258D01*
X149762011Y-87866098D01*
X149787198Y-87755742D01*
X149807383Y-87576599D01*
X149807383Y-87463401D01*
X149787198Y-87284258D01*
X149762011Y-87173902D01*
X149702470Y-87003742D01*
X149653355Y-86901755D01*
X149557442Y-86749110D01*
X149486865Y-86660610D01*
X149359390Y-86533135D01*
X149270890Y-86462558D01*
X149146534Y-86384420D01*
X149118244Y-86366644D01*
X149118238Y-86366641D01*
X149100788Y-86358237D01*
X149048930Y-86311413D01*
X149030619Y-86243985D01*
X149051669Y-86177362D01*
X149102184Y-86134139D01*
X149152734Y-86110568D01*
X149339139Y-85980047D01*
X149500047Y-85819139D01*
X149630568Y-85632734D01*
X149726739Y-85426496D01*
X149785635Y-85206692D01*
X149805468Y-84980000D01*
X149785635Y-84753308D01*
X149726739Y-84533504D01*
X149630568Y-84327266D01*
X149500047Y-84140861D01*
X149500045Y-84140858D01*
X149339141Y-83979954D01*
X149152734Y-83849432D01*
X149152728Y-83849429D01*
X149094725Y-83822382D01*
X149042285Y-83776210D01*
X149023133Y-83709017D01*
X149043348Y-83642135D01*
X149094725Y-83597618D01*
X149152734Y-83570568D01*
X149339139Y-83440047D01*
X149500047Y-83279139D01*
X149630568Y-83092734D01*
X149726739Y-82886496D01*
X149785635Y-82666692D01*
X149805468Y-82440000D01*
X149785635Y-82213308D01*
X149726739Y-81993504D01*
X149630568Y-81787266D01*
X149500047Y-81600861D01*
X149500045Y-81600858D01*
X149339141Y-81439954D01*
X149152735Y-81309433D01*
X149152736Y-81309433D01*
X149152734Y-81309432D01*
X149094132Y-81282105D01*
X149041694Y-81235933D01*
X149022543Y-81168739D01*
X149042759Y-81101858D01*
X149094135Y-81057341D01*
X149152482Y-81030133D01*
X149225471Y-80979024D01*
X148629409Y-80382962D01*
X148692993Y-80365925D01*
X148807007Y-80300099D01*
X148900099Y-80207007D01*
X148965925Y-80092993D01*
X148982962Y-80029409D01*
X149579024Y-80625471D01*
X149630136Y-80552478D01*
X149726264Y-80346331D01*
X149726269Y-80346317D01*
X149785139Y-80126610D01*
X149785141Y-80126599D01*
X149804966Y-79900002D01*
X149804966Y-79899997D01*
X149785141Y-79673400D01*
X149785139Y-79673389D01*
X149726269Y-79453682D01*
X149726264Y-79453668D01*
X149630136Y-79247521D01*
X149630132Y-79247513D01*
X149579025Y-79174526D01*
X148982962Y-79770589D01*
X148965925Y-79707007D01*
X148900099Y-79592993D01*
X148807007Y-79499901D01*
X148692993Y-79434075D01*
X148629410Y-79417037D01*
X149225472Y-78820974D01*
X149152480Y-78769864D01*
X149094134Y-78742657D01*
X149041695Y-78696484D01*
X149022543Y-78629291D01*
X149042759Y-78562410D01*
X149094134Y-78517893D01*
X149152734Y-78490568D01*
X149339139Y-78360047D01*
X149500047Y-78199139D01*
X149630568Y-78012734D01*
X149726739Y-77806496D01*
X149785635Y-77586692D01*
X149805468Y-77360000D01*
X149785635Y-77133308D01*
X149726739Y-76913504D01*
X149630568Y-76707266D01*
X149500047Y-76520861D01*
X149500045Y-76520858D01*
X149339141Y-76359954D01*
X149152734Y-76229432D01*
X149152732Y-76229431D01*
X149102188Y-76205862D01*
X149049749Y-76159689D01*
X149030597Y-76092496D01*
X149050813Y-76025615D01*
X149100792Y-75981760D01*
X149118245Y-75973355D01*
X149270890Y-75877442D01*
X149359390Y-75806865D01*
X149486865Y-75679390D01*
X149557442Y-75590890D01*
X149653355Y-75438245D01*
X149702470Y-75336258D01*
X149762011Y-75166098D01*
X149787198Y-75055742D01*
X149807383Y-74876599D01*
X149807383Y-74763401D01*
X149787198Y-74584258D01*
X149762011Y-74473902D01*
X149702470Y-74303742D01*
X149653355Y-74201755D01*
X149557442Y-74049110D01*
X149486865Y-73960610D01*
X149359390Y-73833135D01*
X149270890Y-73762558D01*
X149146534Y-73684420D01*
X149118244Y-73666644D01*
X149118238Y-73666641D01*
X149100788Y-73658237D01*
X149048930Y-73611413D01*
X149030619Y-73543985D01*
X149051669Y-73477362D01*
X149102184Y-73434139D01*
X149152734Y-73410568D01*
X149339139Y-73280047D01*
X149500047Y-73119139D01*
X149630568Y-72932734D01*
X149726739Y-72726496D01*
X149785635Y-72506692D01*
X149805468Y-72280000D01*
X149785635Y-72053308D01*
X149726739Y-71833504D01*
X149630568Y-71627266D01*
X149500047Y-71440861D01*
X149500045Y-71440858D01*
X149339141Y-71279954D01*
X149152734Y-71149432D01*
X149152728Y-71149429D01*
X149094725Y-71122382D01*
X149042285Y-71076210D01*
X149023133Y-71009017D01*
X149043348Y-70942135D01*
X149094725Y-70897618D01*
X149152734Y-70870568D01*
X149339139Y-70740047D01*
X149500047Y-70579139D01*
X149630568Y-70392734D01*
X149726739Y-70186496D01*
X149785635Y-69966692D01*
X149805468Y-69740000D01*
X149785635Y-69513308D01*
X149726739Y-69293504D01*
X149630568Y-69087266D01*
X149500047Y-68900861D01*
X149500045Y-68900858D01*
X149339141Y-68739954D01*
X149152734Y-68609432D01*
X149152732Y-68609431D01*
X148946497Y-68513261D01*
X148946488Y-68513258D01*
X148726697Y-68454366D01*
X148726693Y-68454365D01*
X148726692Y-68454365D01*
X148726691Y-68454364D01*
X148726686Y-68454364D01*
X148500002Y-68434532D01*
X148499998Y-68434532D01*
X148273313Y-68454364D01*
X148273302Y-68454366D01*
X148053511Y-68513258D01*
X148053502Y-68513261D01*
X147847267Y-68609431D01*
X147847265Y-68609432D01*
X147660858Y-68739954D01*
X147499954Y-68900858D01*
X147369432Y-69087265D01*
X147369431Y-69087267D01*
X147273261Y-69293502D01*
X147273258Y-69293511D01*
X147214366Y-69513302D01*
X147214364Y-69513313D01*
X147194532Y-69739998D01*
X147194532Y-69740001D01*
X147214364Y-69966686D01*
X147214366Y-69966697D01*
X147273258Y-70186488D01*
X147273261Y-70186497D01*
X147369431Y-70392732D01*
X147369432Y-70392734D01*
X147499954Y-70579141D01*
X147660858Y-70740045D01*
X147660861Y-70740047D01*
X147847266Y-70870568D01*
X147905275Y-70897618D01*
X147957714Y-70943791D01*
X147976866Y-71010984D01*
X147956650Y-71077865D01*
X147905275Y-71122382D01*
X147847267Y-71149431D01*
X147847265Y-71149432D01*
X147660858Y-71279954D01*
X147499954Y-71440858D01*
X147369432Y-71627265D01*
X147369431Y-71627267D01*
X147273261Y-71833502D01*
X147273258Y-71833511D01*
X147214366Y-72053302D01*
X147214364Y-72053313D01*
X147194532Y-72279998D01*
X147194532Y-72280001D01*
X147214364Y-72506686D01*
X147214366Y-72506697D01*
X147273258Y-72726488D01*
X147273261Y-72726497D01*
X147369431Y-72932732D01*
X147369432Y-72932734D01*
X147499954Y-73119141D01*
X147660857Y-73280044D01*
X147660860Y-73280046D01*
X147660861Y-73280047D01*
X147726997Y-73326356D01*
X147770623Y-73380932D01*
X147777817Y-73450430D01*
X147746295Y-73512785D01*
X147693233Y-73546170D01*
X147635025Y-73564560D01*
X147635016Y-73564564D01*
X147552764Y-73604174D01*
X147552749Y-73604182D01*
X147481683Y-73645860D01*
X147481677Y-73645865D01*
X147376879Y-73744438D01*
X147319953Y-73815823D01*
X147274001Y-73884217D01*
X147222348Y-74018505D01*
X147202031Y-74107516D01*
X147190302Y-74189084D01*
X132024640Y-74189084D01*
X132017968Y-74107515D01*
X132017968Y-74107513D01*
X131997652Y-74018505D01*
X131972830Y-73939933D01*
X131900045Y-73815821D01*
X131843123Y-73744442D01*
X131843113Y-73744431D01*
X131786668Y-73684420D01*
X131786663Y-73684416D01*
X131667241Y-73604178D01*
X131667236Y-73604175D01*
X131667234Y-73604174D01*
X131584980Y-73564562D01*
X131584976Y-73564560D01*
X131584973Y-73564559D01*
X131584972Y-73564558D01*
X131523523Y-73540922D01*
X131468020Y-73498482D01*
X131444273Y-73432772D01*
X131459821Y-73364654D01*
X131496917Y-73323614D01*
X131559139Y-73280047D01*
X131720047Y-73119139D01*
X131850568Y-72932734D01*
X131946739Y-72726496D01*
X132005635Y-72506692D01*
X132025468Y-72280000D01*
X132005635Y-72053308D01*
X131946739Y-71833504D01*
X131850568Y-71627266D01*
X131720047Y-71440861D01*
X131720045Y-71440858D01*
X131559142Y-71279955D01*
X131549106Y-71272927D01*
X131488515Y-71230502D01*
X131444891Y-71175927D01*
X131437697Y-71106429D01*
X131469219Y-71044074D01*
X131522747Y-71010543D01*
X131609606Y-70983478D01*
X131755185Y-70895472D01*
X131875472Y-70775185D01*
X131963478Y-70629606D01*
X132014086Y-70467196D01*
X132020500Y-70396616D01*
X132020500Y-69083384D01*
X132014086Y-69012804D01*
X131963478Y-68850394D01*
X131875472Y-68704815D01*
X131875470Y-68704813D01*
X131875469Y-68704811D01*
X131755188Y-68584530D01*
X131637295Y-68513261D01*
X131609606Y-68496522D01*
X131447196Y-68445914D01*
X131447194Y-68445913D01*
X131447192Y-68445913D01*
X131397778Y-68441423D01*
X131376616Y-68439500D01*
X130063384Y-68439500D01*
X130044145Y-68441248D01*
X129992807Y-68445913D01*
X129830393Y-68496522D01*
X129684811Y-68584530D01*
X129564530Y-68704811D01*
X129476522Y-68850393D01*
X129425913Y-69012807D01*
X129419500Y-69083386D01*
X129419500Y-70396613D01*
X129425913Y-70467192D01*
X129476522Y-70629606D01*
X129564530Y-70775188D01*
X129684811Y-70895469D01*
X129684813Y-70895470D01*
X129684815Y-70895472D01*
X129830394Y-70983478D01*
X129917250Y-71010543D01*
X129975397Y-71049280D01*
X130003372Y-71113305D01*
X129992291Y-71182290D01*
X129951483Y-71230503D01*
X129880858Y-71279954D01*
X129719954Y-71440858D01*
X129589432Y-71627265D01*
X129589431Y-71627267D01*
X129493261Y-71833502D01*
X129493258Y-71833511D01*
X129434366Y-72053302D01*
X129434364Y-72053313D01*
X129414532Y-72279998D01*
X129414532Y-72280001D01*
X129434364Y-72506686D01*
X129434366Y-72506697D01*
X129493258Y-72726488D01*
X129493261Y-72726497D01*
X129589431Y-72932732D01*
X129589432Y-72932734D01*
X129719954Y-73119141D01*
X129880858Y-73280045D01*
X129880861Y-73280047D01*
X130067266Y-73410568D01*
X130117810Y-73434137D01*
X130170250Y-73480309D01*
X130189402Y-73547502D01*
X130169187Y-73614384D01*
X130119213Y-73658236D01*
X130101762Y-73666640D01*
X130101755Y-73666644D01*
X129949111Y-73762557D01*
X129860610Y-73833134D01*
X129733134Y-73960610D01*
X129662557Y-74049111D01*
X129566647Y-74201750D01*
X129517528Y-74303744D01*
X129457989Y-74473901D01*
X129457986Y-74473910D01*
X129432801Y-74584260D01*
X129432800Y-74584263D01*
X129412617Y-74763396D01*
X111000500Y-74763396D01*
X111000500Y-68393713D01*
X112149500Y-68393713D01*
X112149500Y-68606287D01*
X112182754Y-68816243D01*
X112210248Y-68900861D01*
X112248444Y-69018414D01*
X112344951Y-69207820D01*
X112469890Y-69379786D01*
X112620213Y-69530109D01*
X112792179Y-69655048D01*
X112792181Y-69655049D01*
X112792184Y-69655051D01*
X112981588Y-69751557D01*
X113183757Y-69817246D01*
X113393713Y-69850500D01*
X113393714Y-69850500D01*
X113606286Y-69850500D01*
X113606287Y-69850500D01*
X113816243Y-69817246D01*
X114018412Y-69751557D01*
X114207816Y-69655051D01*
X114229789Y-69639086D01*
X114379786Y-69530109D01*
X114379788Y-69530106D01*
X114379792Y-69530104D01*
X114530104Y-69379792D01*
X114530106Y-69379788D01*
X114530109Y-69379786D01*
X114655048Y-69207820D01*
X114655047Y-69207820D01*
X114655051Y-69207816D01*
X114751557Y-69018412D01*
X114817246Y-68816243D01*
X114850500Y-68606287D01*
X114850500Y-68393713D01*
X156149500Y-68393713D01*
X156149500Y-68606287D01*
X156182754Y-68816243D01*
X156210248Y-68900861D01*
X156248444Y-69018414D01*
X156344951Y-69207820D01*
X156469890Y-69379786D01*
X156620213Y-69530109D01*
X156792179Y-69655048D01*
X156792181Y-69655049D01*
X156792184Y-69655051D01*
X156981588Y-69751557D01*
X157183757Y-69817246D01*
X157393713Y-69850500D01*
X157393714Y-69850500D01*
X157606286Y-69850500D01*
X157606287Y-69850500D01*
X157816243Y-69817246D01*
X158018412Y-69751557D01*
X158207816Y-69655051D01*
X158229789Y-69639086D01*
X158379786Y-69530109D01*
X158379788Y-69530106D01*
X158379792Y-69530104D01*
X158530104Y-69379792D01*
X158530106Y-69379788D01*
X158530109Y-69379786D01*
X158655048Y-69207820D01*
X158655047Y-69207820D01*
X158655051Y-69207816D01*
X158751557Y-69018412D01*
X158817246Y-68816243D01*
X158850500Y-68606287D01*
X158850500Y-68393713D01*
X158817246Y-68183757D01*
X158751557Y-67981588D01*
X158655051Y-67792184D01*
X158655049Y-67792181D01*
X158655048Y-67792179D01*
X158530109Y-67620213D01*
X158379786Y-67469890D01*
X158207820Y-67344951D01*
X158018414Y-67248444D01*
X158018413Y-67248443D01*
X158018412Y-67248443D01*
X157816243Y-67182754D01*
X157816241Y-67182753D01*
X157816240Y-67182753D01*
X157654957Y-67157208D01*
X157606287Y-67149500D01*
X157393713Y-67149500D01*
X157345042Y-67157208D01*
X157183760Y-67182753D01*
X156981585Y-67248444D01*
X156792179Y-67344951D01*
X156620213Y-67469890D01*
X156469890Y-67620213D01*
X156344951Y-67792179D01*
X156248444Y-67981585D01*
X156182753Y-68183760D01*
X156149500Y-68393713D01*
X114850500Y-68393713D01*
X114817246Y-68183757D01*
X114751557Y-67981588D01*
X114655051Y-67792184D01*
X114655049Y-67792181D01*
X114655048Y-67792179D01*
X114530109Y-67620213D01*
X114379786Y-67469890D01*
X114207820Y-67344951D01*
X114018414Y-67248444D01*
X114018413Y-67248443D01*
X114018412Y-67248443D01*
X113816243Y-67182754D01*
X113816241Y-67182753D01*
X113816240Y-67182753D01*
X113654957Y-67157208D01*
X113606287Y-67149500D01*
X113393713Y-67149500D01*
X113345042Y-67157208D01*
X113183760Y-67182753D01*
X112981585Y-67248444D01*
X112792179Y-67344951D01*
X112620213Y-67469890D01*
X112469890Y-67620213D01*
X112344951Y-67792179D01*
X112248444Y-67981585D01*
X112182753Y-68183760D01*
X112149500Y-68393713D01*
X111000500Y-68393713D01*
X111000500Y-65624500D01*
X111020185Y-65557461D01*
X111072989Y-65511706D01*
X111124500Y-65500500D01*
X159875500Y-65500500D01*
X159942539Y-65520185D01*
G37*
%TD.AperFunction*%
%TD*%
M02*
