%TF.GenerationSoftware,KiCad,Pcbnew,8.0.5*%
%TF.CreationDate,2024-10-21T18:00:15-04:00*%
%TF.ProjectId,Sensing_PCB,53656e73-696e-4675-9f50-43422e6b6963,rev?*%
%TF.SameCoordinates,Original*%
%TF.FileFunction,Copper,L1,Top*%
%TF.FilePolarity,Positive*%
%FSLAX46Y46*%
G04 Gerber Fmt 4.6, Leading zero omitted, Abs format (unit mm)*
G04 Created by KiCad (PCBNEW 8.0.5) date 2024-10-21 18:00:15*
%MOMM*%
%LPD*%
G01*
G04 APERTURE LIST*
G04 Aperture macros list*
%AMRoundRect*
0 Rectangle with rounded corners*
0 $1 Rounding radius*
0 $2 $3 $4 $5 $6 $7 $8 $9 X,Y pos of 4 corners*
0 Add a 4 corners polygon primitive as box body*
4,1,4,$2,$3,$4,$5,$6,$7,$8,$9,$2,$3,0*
0 Add four circle primitives for the rounded corners*
1,1,$1+$1,$2,$3*
1,1,$1+$1,$4,$5*
1,1,$1+$1,$6,$7*
1,1,$1+$1,$8,$9*
0 Add four rect primitives between the rounded corners*
20,1,$1+$1,$2,$3,$4,$5,0*
20,1,$1+$1,$4,$5,$6,$7,0*
20,1,$1+$1,$6,$7,$8,$9,0*
20,1,$1+$1,$8,$9,$2,$3,0*%
G04 Aperture macros list end*
%TA.AperFunction,ComponentPad*%
%ADD10C,1.600000*%
%TD*%
%TA.AperFunction,ComponentPad*%
%ADD11O,1.600000X1.600000*%
%TD*%
%TA.AperFunction,ComponentPad*%
%ADD12R,1.676400X1.676400*%
%TD*%
%TA.AperFunction,ComponentPad*%
%ADD13C,1.676400*%
%TD*%
%TA.AperFunction,ComponentPad*%
%ADD14RoundRect,0.250000X0.625000X-0.350000X0.625000X0.350000X-0.625000X0.350000X-0.625000X-0.350000X0*%
%TD*%
%TA.AperFunction,ComponentPad*%
%ADD15O,1.750000X1.200000*%
%TD*%
%TA.AperFunction,ComponentPad*%
%ADD16O,1.700000X1.700000*%
%TD*%
%TA.AperFunction,SMDPad,CuDef*%
%ADD17R,3.500000X1.700000*%
%TD*%
%TA.AperFunction,ComponentPad*%
%ADD18R,1.700000X1.700000*%
%TD*%
%TA.AperFunction,SMDPad,CuDef*%
%ADD19R,1.700000X3.500000*%
%TD*%
%TA.AperFunction,ComponentPad*%
%ADD20RoundRect,0.250000X-0.350000X-0.625000X0.350000X-0.625000X0.350000X0.625000X-0.350000X0.625000X0*%
%TD*%
%TA.AperFunction,ComponentPad*%
%ADD21O,1.200000X1.750000*%
%TD*%
%TA.AperFunction,Conductor*%
%ADD22C,0.200000*%
%TD*%
G04 APERTURE END LIST*
D10*
%TO.P,R2,1*%
%TO.N,/GND*%
X183000000Y-153580000D03*
D11*
%TO.P,R2,2*%
%TO.N,Net-(U3-POS1)*%
X183000000Y-143420000D03*
%TD*%
D12*
%TO.P,U3,1,OUT1*%
%TO.N,/ADC*%
X170690000Y-135380000D03*
D13*
%TO.P,U3,2,NEG1*%
%TO.N,/OUT1*%
X170690000Y-137920000D03*
%TO.P,U3,3,POS1*%
%TO.N,Net-(U3-POS1)*%
X170690000Y-140460000D03*
%TO.P,U3,4,V+*%
%TO.N,/3V3_Chamber*%
X170690000Y-143000000D03*
%TO.P,U3,5,POS2*%
%TO.N,unconnected-(U3-POS2-Pad5)*%
X170690000Y-145540000D03*
%TO.P,U3,6,NEG2*%
%TO.N,unconnected-(U3-NEG2-Pad6)*%
X170690000Y-148080000D03*
%TO.P,U3,7,OUT2*%
%TO.N,unconnected-(U3-OUT2-Pad7)*%
X170690000Y-150620000D03*
%TO.P,U3,8,OUT3*%
%TO.N,unconnected-(U3-OUT3-Pad8)*%
X178310000Y-150620000D03*
%TO.P,U3,9,NEG3*%
%TO.N,unconnected-(U3-NEG3-Pad9)*%
X178310000Y-148080000D03*
%TO.P,U3,10,POS3*%
%TO.N,unconnected-(U3-POS3-Pad10)*%
X178310000Y-145540000D03*
%TO.P,U3,11,V-*%
%TO.N,/GND*%
X178310000Y-143000000D03*
%TO.P,U3,12,POS4*%
%TO.N,unconnected-(U3-POS4-Pad12)*%
X178310000Y-140460000D03*
%TO.P,U3,13,NEG4*%
%TO.N,unconnected-(U3-NEG4-Pad13)*%
X178310000Y-137920000D03*
%TO.P,U3,14,OUT4*%
%TO.N,unconnected-(U3-OUT4-Pad14)*%
X178310000Y-135380000D03*
%TD*%
D14*
%TO.P,J1,1,Pin_1*%
%TO.N,/GND*%
X136000000Y-137500000D03*
D15*
%TO.P,J1,2,Pin_2*%
%TO.N,/I2C1_SDA*%
X136000000Y-135500000D03*
%TO.P,J1,3,Pin_3*%
%TO.N,/I2C1_SCL*%
X136000000Y-133500000D03*
%TO.P,J1,4,Pin_4*%
%TO.N,/I2C0_SDA*%
X136000000Y-131500000D03*
%TO.P,J1,5,Pin_5*%
%TO.N,/I2C0_SCL*%
X136000000Y-129500000D03*
%TO.P,J1,6,Pin_6*%
%TO.N,/3V3*%
X136000000Y-127500000D03*
%TO.P,J1,7,Pin_7*%
%TO.N,/5V*%
X136000000Y-125500000D03*
%TD*%
D10*
%TO.P,R4,1*%
%TO.N,/OUT1*%
X183000000Y-140580000D03*
D11*
%TO.P,R4,2*%
%TO.N,/ADC*%
X183000000Y-130420000D03*
%TD*%
D14*
%TO.P,J3,1,Pin_1*%
%TO.N,/GND*%
X136000000Y-146500000D03*
D15*
%TO.P,J3,2,Pin_2*%
%TO.N,/5V*%
X136000000Y-144500000D03*
%TO.P,J3,3,Pin_3*%
%TO.N,/SERVO*%
X136000000Y-142500000D03*
%TD*%
D10*
%TO.P,R3,1*%
%TO.N,/OUT1*%
X182972900Y-125193600D03*
D11*
%TO.P,R3,2*%
%TO.N,/FS_OUTPUT(-)*%
X182972900Y-115033600D03*
%TD*%
D16*
%TO.P,U4,1,GPIO0*%
%TO.N,unconnected-(U4-GPIO0-Pad1)_1*%
X144985000Y-111070000D03*
D17*
%TO.N,unconnected-(U4-GPIO0-Pad1)*%
X144085000Y-111070000D03*
D16*
%TO.P,U4,2,GPIO1*%
%TO.N,unconnected-(U4-GPIO1-Pad2)*%
X144985000Y-113610000D03*
D17*
%TO.N,unconnected-(U4-GPIO1-Pad2)_1*%
X144085000Y-113610000D03*
D18*
%TO.P,U4,3,GND*%
%TO.N,unconnected-(U4-GND-Pad3)_1*%
X144985000Y-116150000D03*
D17*
%TO.N,unconnected-(U4-GND-Pad3)*%
X144085000Y-116150000D03*
D16*
%TO.P,U4,4,GPIO2*%
%TO.N,/I2C1_SDA*%
X144985000Y-118690000D03*
D17*
X144085000Y-118690000D03*
D16*
%TO.P,U4,5,GPIO3*%
%TO.N,/I2C1_SCL*%
X144985000Y-121230000D03*
D17*
X144085000Y-121230000D03*
D16*
%TO.P,U4,6,GPIO4*%
%TO.N,/I2C0_SDA*%
X144985000Y-123770000D03*
D17*
X144085000Y-123770000D03*
D16*
%TO.P,U4,7,GPIO5*%
%TO.N,/I2C0_SCL*%
X144985000Y-126310000D03*
D17*
X144085000Y-126310000D03*
D18*
%TO.P,U4,8,GND*%
%TO.N,/GND*%
X144985000Y-128850000D03*
D17*
X144085000Y-128850000D03*
D16*
%TO.P,U4,9,GPIO6*%
%TO.N,/SERVO*%
X144985000Y-131390000D03*
D17*
X144085000Y-131390000D03*
D16*
%TO.P,U4,10,GPIO7*%
%TO.N,unconnected-(U4-GPIO7-Pad10)_1*%
X144985000Y-133930000D03*
D17*
%TO.N,unconnected-(U4-GPIO7-Pad10)*%
X144085000Y-133930000D03*
D16*
%TO.P,U4,11,GPIO8*%
%TO.N,unconnected-(U4-GPIO8-Pad11)_1*%
X144985000Y-136470000D03*
D17*
%TO.N,unconnected-(U4-GPIO8-Pad11)*%
X144085000Y-136470000D03*
D16*
%TO.P,U4,12,GPIO9*%
%TO.N,unconnected-(U4-GPIO9-Pad12)_1*%
X144985000Y-139010000D03*
D17*
%TO.N,unconnected-(U4-GPIO9-Pad12)*%
X144085000Y-139010000D03*
D18*
%TO.P,U4,13,GND*%
%TO.N,unconnected-(U4-GND-Pad13)_1*%
X144985000Y-141550000D03*
D17*
%TO.N,unconnected-(U4-GND-Pad13)*%
X144085000Y-141550000D03*
D16*
%TO.P,U4,14,GPIO10*%
%TO.N,unconnected-(U4-GPIO10-Pad14)_1*%
X144985000Y-144090000D03*
D17*
%TO.N,unconnected-(U4-GPIO10-Pad14)*%
X144085000Y-144090000D03*
D16*
%TO.P,U4,15,GPIO11*%
%TO.N,unconnected-(U4-GPIO11-Pad15)_1*%
X144985000Y-146630000D03*
D17*
%TO.N,unconnected-(U4-GPIO11-Pad15)*%
X144085000Y-146630000D03*
D16*
%TO.P,U4,16,GPIO12*%
%TO.N,unconnected-(U4-GPIO12-Pad16)*%
X144985000Y-149170000D03*
D17*
%TO.N,unconnected-(U4-GPIO12-Pad16)_1*%
X144085000Y-149170000D03*
D16*
%TO.P,U4,17,GPIO13*%
%TO.N,unconnected-(U4-GPIO13-Pad17)_1*%
X144985000Y-151710000D03*
D17*
%TO.N,unconnected-(U4-GPIO13-Pad17)*%
X144085000Y-151710000D03*
D18*
%TO.P,U4,18,GND*%
%TO.N,unconnected-(U4-GND-Pad18)_1*%
X144985000Y-154250000D03*
D17*
%TO.N,unconnected-(U4-GND-Pad18)*%
X144085000Y-154250000D03*
D16*
%TO.P,U4,19,GPIO14*%
%TO.N,unconnected-(U4-GPIO14-Pad19)*%
X144985000Y-156790000D03*
D17*
%TO.N,unconnected-(U4-GPIO14-Pad19)_1*%
X144085000Y-156790000D03*
D16*
%TO.P,U4,20,GPIO15*%
%TO.N,unconnected-(U4-GPIO15-Pad20)*%
X144985000Y-159330000D03*
D17*
%TO.N,unconnected-(U4-GPIO15-Pad20)_1*%
X144085000Y-159330000D03*
D16*
%TO.P,U4,21,GPIO16*%
%TO.N,unconnected-(U4-GPIO16-Pad21)*%
X162765000Y-159330000D03*
D17*
%TO.N,unconnected-(U4-GPIO16-Pad21)_1*%
X163665000Y-159330000D03*
D16*
%TO.P,U4,22,GPIO17*%
%TO.N,unconnected-(U4-GPIO17-Pad22)_1*%
X162765000Y-156790000D03*
D17*
%TO.N,unconnected-(U4-GPIO17-Pad22)*%
X163665000Y-156790000D03*
D18*
%TO.P,U4,23,GND*%
%TO.N,/GND*%
X162765000Y-154250000D03*
D17*
X163665000Y-154250000D03*
D16*
%TO.P,U4,24,GPIO18*%
%TO.N,unconnected-(U4-GPIO18-Pad24)_1*%
X162765000Y-151710000D03*
D17*
%TO.N,unconnected-(U4-GPIO18-Pad24)*%
X163665000Y-151710000D03*
D16*
%TO.P,U4,25,GPIO19*%
%TO.N,unconnected-(U4-GPIO19-Pad25)_1*%
X162765000Y-149170000D03*
D17*
%TO.N,unconnected-(U4-GPIO19-Pad25)*%
X163665000Y-149170000D03*
D16*
%TO.P,U4,26,GPIO20*%
%TO.N,unconnected-(U4-GPIO20-Pad26)*%
X162765000Y-146630000D03*
D17*
%TO.N,unconnected-(U4-GPIO20-Pad26)_1*%
X163665000Y-146630000D03*
D16*
%TO.P,U4,27,GPIO21*%
%TO.N,unconnected-(U4-GPIO21-Pad27)_1*%
X162765000Y-144090000D03*
D17*
%TO.N,unconnected-(U4-GPIO21-Pad27)*%
X163665000Y-144090000D03*
D18*
%TO.P,U4,28,GND*%
%TO.N,/GND*%
X162765000Y-141550000D03*
D17*
X163665000Y-141550000D03*
D16*
%TO.P,U4,29,GPIO22*%
%TO.N,unconnected-(U4-GPIO22-Pad29)_1*%
X162765000Y-139010000D03*
D17*
%TO.N,unconnected-(U4-GPIO22-Pad29)*%
X163665000Y-139010000D03*
D16*
%TO.P,U4,30,RUN*%
%TO.N,unconnected-(U4-RUN-Pad30)_1*%
X162765000Y-136470000D03*
D17*
%TO.N,unconnected-(U4-RUN-Pad30)*%
X163665000Y-136470000D03*
D16*
%TO.P,U4,31,GPIO26_ADC0*%
%TO.N,/ADC*%
X162765000Y-133930000D03*
D17*
X163665000Y-133930000D03*
D16*
%TO.P,U4,32,GPIO27_ADC1*%
%TO.N,unconnected-(U4-GPIO27_ADC1-Pad32)*%
X162765000Y-131390000D03*
D17*
%TO.N,unconnected-(U4-GPIO27_ADC1-Pad32)_1*%
X163665000Y-131390000D03*
D18*
%TO.P,U4,33,AGND*%
%TO.N,unconnected-(U4-AGND-Pad33)_1*%
X162765000Y-128850000D03*
D17*
%TO.N,unconnected-(U4-AGND-Pad33)*%
X163665000Y-128850000D03*
D16*
%TO.P,U4,34,GPIO28_ADC2*%
%TO.N,unconnected-(U4-GPIO28_ADC2-Pad34)_1*%
X162765000Y-126310000D03*
D17*
%TO.N,unconnected-(U4-GPIO28_ADC2-Pad34)*%
X163665000Y-126310000D03*
D16*
%TO.P,U4,35,ADC_VREF*%
%TO.N,unconnected-(U4-ADC_VREF-Pad35)_1*%
X162765000Y-123770000D03*
D17*
%TO.N,unconnected-(U4-ADC_VREF-Pad35)*%
X163665000Y-123770000D03*
D16*
%TO.P,U4,36,3V3*%
%TO.N,/3V3_Chamber*%
X162765000Y-121230000D03*
D17*
X163665000Y-121230000D03*
D16*
%TO.P,U4,37,3V3_EN*%
%TO.N,unconnected-(U4-3V3_EN-Pad37)_1*%
X162765000Y-118690000D03*
D17*
%TO.N,unconnected-(U4-3V3_EN-Pad37)*%
X163665000Y-118690000D03*
D18*
%TO.P,U4,38,GND*%
%TO.N,/GND*%
X162765000Y-116150000D03*
D17*
X163665000Y-116150000D03*
D16*
%TO.P,U4,39,VSYS*%
%TO.N,/3V3*%
X162765000Y-113610000D03*
D17*
X163665000Y-113610000D03*
D16*
%TO.P,U4,40,VBUS*%
%TO.N,unconnected-(U4-VBUS-Pad40)*%
X162765000Y-111070000D03*
D17*
%TO.N,unconnected-(U4-VBUS-Pad40)_1*%
X163665000Y-111070000D03*
D16*
%TO.P,U4,41,SWCLK*%
%TO.N,unconnected-(U4-SWCLK-Pad41)*%
X151335000Y-159100000D03*
D19*
%TO.N,unconnected-(U4-SWCLK-Pad41)_1*%
X151335000Y-160000000D03*
D18*
%TO.P,U4,42,GND*%
%TO.N,unconnected-(U4-GND-Pad42)*%
X153875000Y-159100000D03*
D19*
%TO.N,unconnected-(U4-GND-Pad42)_1*%
X153875000Y-160000000D03*
D16*
%TO.P,U4,43,SWDIO*%
%TO.N,unconnected-(U4-SWDIO-Pad43)*%
X156415000Y-159100000D03*
D19*
%TO.N,unconnected-(U4-SWDIO-Pad43)_1*%
X156415000Y-160000000D03*
%TD*%
D10*
%TO.P,R1,1*%
%TO.N,/FS_OUTPUT(+)*%
X176500000Y-115000000D03*
D11*
%TO.P,R1,2*%
%TO.N,Net-(U3-POS1)*%
X176500000Y-125160000D03*
%TD*%
D20*
%TO.P,J2,1,Pin_1*%
%TO.N,/3V3_Chamber*%
X173500000Y-110500000D03*
D21*
%TO.P,J2,2,Pin_2*%
%TO.N,/FS_OUTPUT(+)*%
X175500000Y-110500000D03*
%TO.P,J2,3,Pin_3*%
%TO.N,/GND*%
X177500000Y-110500000D03*
%TO.P,J2,4,Pin_4*%
%TO.N,/FS_OUTPUT(-)*%
X179500000Y-110500000D03*
%TD*%
D22*
%TO.N,/OUT1*%
X170690000Y-137920000D02*
X171862000Y-139092000D01*
X171862000Y-139092000D02*
X181610000Y-139092000D01*
X184119600Y-126340300D02*
X182972900Y-125193600D01*
X183000000Y-140580000D02*
X181610000Y-139190000D01*
X181610000Y-139190000D02*
X181610000Y-139092000D01*
X184119600Y-136582400D02*
X184119600Y-126340300D01*
X181610000Y-139092000D02*
X184119600Y-136582400D01*
%TO.N,/ADC*%
X170120100Y-135380000D02*
X169550100Y-135380000D01*
X170690000Y-135380000D02*
X170120100Y-135380000D01*
X175080100Y-130420000D02*
X183000000Y-130420000D01*
X162765000Y-133930000D02*
X168100100Y-133930000D01*
X170120100Y-135380000D02*
X175080100Y-130420000D01*
X168100100Y-133930000D02*
X169550100Y-135380000D01*
%TO.N,/3V3*%
X141118300Y-122381700D02*
X136901700Y-126598300D01*
X162765000Y-113610000D02*
X161613300Y-113610000D01*
X136000000Y-127500000D02*
X136000000Y-126598300D01*
X152841600Y-122381700D02*
X141118300Y-122381700D01*
X161613300Y-113610000D02*
X152841600Y-122381700D01*
X136901700Y-126598300D02*
X136000000Y-126598300D01*
%TO.N,/I2C0_SDA*%
X145960000Y-127461700D02*
X140038300Y-127461700D01*
X136901700Y-130598300D02*
X136000000Y-130598300D01*
X136000000Y-131500000D02*
X136000000Y-130598300D01*
X146136700Y-127285000D02*
X145960000Y-127461700D01*
X144985000Y-123770000D02*
X146136700Y-123770000D01*
X146136700Y-123770000D02*
X146136700Y-127285000D01*
X140038300Y-127461700D02*
X136901700Y-130598300D01*
%TO.N,/I2C0_SCL*%
X136000000Y-129500000D02*
X136000000Y-128598300D01*
X139190000Y-126310000D02*
X144985000Y-126310000D01*
X136901700Y-128598300D02*
X139190000Y-126310000D01*
X136000000Y-128598300D02*
X136901700Y-128598300D01*
%TD*%
%TA.AperFunction,Conductor*%
%TO.N,/GND*%
G36*
X189442539Y-108020185D02*
G01*
X189488294Y-108072989D01*
X189499500Y-108124500D01*
X189499500Y-162875500D01*
X189479815Y-162942539D01*
X189427011Y-162988294D01*
X189375500Y-162999500D01*
X134124500Y-162999500D01*
X134057461Y-162979815D01*
X134011706Y-162927011D01*
X134000500Y-162875500D01*
X134000500Y-157393713D01*
X135149500Y-157393713D01*
X135149500Y-157606286D01*
X135181163Y-157806203D01*
X135182754Y-157816243D01*
X135244952Y-158007669D01*
X135248444Y-158018414D01*
X135344951Y-158207820D01*
X135469890Y-158379785D01*
X135469894Y-158379790D01*
X135620213Y-158530109D01*
X135792179Y-158655048D01*
X135792181Y-158655049D01*
X135792184Y-158655051D01*
X135981588Y-158751557D01*
X136183757Y-158817246D01*
X136393713Y-158850500D01*
X136393714Y-158850500D01*
X136606286Y-158850500D01*
X136606287Y-158850500D01*
X136816243Y-158817246D01*
X137018412Y-158751557D01*
X137207816Y-158655051D01*
X137229789Y-158639086D01*
X137379786Y-158530109D01*
X137379788Y-158530106D01*
X137379792Y-158530104D01*
X137530104Y-158379792D01*
X137530106Y-158379788D01*
X137530110Y-158379785D01*
X137655048Y-158207820D01*
X137655047Y-158207820D01*
X137655051Y-158207816D01*
X137751557Y-158018412D01*
X137817246Y-157816243D01*
X137850500Y-157606287D01*
X137850500Y-157393713D01*
X137817246Y-157183757D01*
X137751557Y-156981588D01*
X137655051Y-156792184D01*
X137655049Y-156792181D01*
X137655048Y-156792179D01*
X137530109Y-156620213D01*
X137379786Y-156469890D01*
X137207820Y-156344951D01*
X137018414Y-156248444D01*
X137018413Y-156248443D01*
X137018412Y-156248443D01*
X136816243Y-156182754D01*
X136816241Y-156182753D01*
X136816240Y-156182753D01*
X136654957Y-156157208D01*
X136606287Y-156149500D01*
X136393713Y-156149500D01*
X136345042Y-156157208D01*
X136183760Y-156182753D01*
X135981585Y-156248444D01*
X135792179Y-156344951D01*
X135620213Y-156469890D01*
X135469890Y-156620213D01*
X135344951Y-156792179D01*
X135248444Y-156981585D01*
X135182753Y-157183760D01*
X135149500Y-157393713D01*
X134000500Y-157393713D01*
X134000500Y-142413389D01*
X134624500Y-142413389D01*
X134624500Y-142586611D01*
X134651598Y-142757701D01*
X134705127Y-142922445D01*
X134783768Y-143076788D01*
X134885586Y-143216928D01*
X135008072Y-143339414D01*
X135025257Y-143351899D01*
X135091023Y-143399683D01*
X135133689Y-143455013D01*
X135139667Y-143524626D01*
X135107061Y-143586421D01*
X135091023Y-143600317D01*
X135008078Y-143660581D01*
X135008069Y-143660588D01*
X134885588Y-143783069D01*
X134885588Y-143783070D01*
X134885586Y-143783072D01*
X134841859Y-143843256D01*
X134783768Y-143923211D01*
X134705128Y-144077552D01*
X134651597Y-144242302D01*
X134624500Y-144413389D01*
X134624500Y-144586610D01*
X134643351Y-144705635D01*
X134651598Y-144757701D01*
X134705127Y-144922445D01*
X134783768Y-145076788D01*
X134885586Y-145216928D01*
X134885588Y-145216930D01*
X134993491Y-145324833D01*
X135026976Y-145386156D01*
X135021992Y-145455848D01*
X134980120Y-145511781D01*
X134970907Y-145518053D01*
X134906654Y-145557684D01*
X134782684Y-145681654D01*
X134690643Y-145830875D01*
X134690641Y-145830880D01*
X134635494Y-145997302D01*
X134635493Y-145997309D01*
X134625000Y-146100013D01*
X134625000Y-146250000D01*
X135719670Y-146250000D01*
X135699925Y-146269745D01*
X135650556Y-146355255D01*
X135625000Y-146450630D01*
X135625000Y-146549370D01*
X135650556Y-146644745D01*
X135699925Y-146730255D01*
X135719670Y-146750000D01*
X134625001Y-146750000D01*
X134625001Y-146899986D01*
X134635494Y-147002697D01*
X134690641Y-147169119D01*
X134690643Y-147169124D01*
X134782684Y-147318345D01*
X134906654Y-147442315D01*
X135055875Y-147534356D01*
X135055880Y-147534358D01*
X135222302Y-147589505D01*
X135222309Y-147589506D01*
X135325019Y-147599999D01*
X135749999Y-147599999D01*
X135750000Y-147599998D01*
X135750000Y-146780330D01*
X135769745Y-146800075D01*
X135855255Y-146849444D01*
X135950630Y-146875000D01*
X136049370Y-146875000D01*
X136144745Y-146849444D01*
X136230255Y-146800075D01*
X136250000Y-146780330D01*
X136250000Y-147599999D01*
X136674972Y-147599999D01*
X136674986Y-147599998D01*
X136777697Y-147589505D01*
X136944119Y-147534358D01*
X136944124Y-147534356D01*
X137093345Y-147442315D01*
X137217315Y-147318345D01*
X137309356Y-147169124D01*
X137309358Y-147169119D01*
X137364505Y-147002697D01*
X137364506Y-147002690D01*
X137374999Y-146899986D01*
X137375000Y-146899973D01*
X137375000Y-146750000D01*
X136280330Y-146750000D01*
X136300075Y-146730255D01*
X136349444Y-146644745D01*
X136375000Y-146549370D01*
X136375000Y-146450630D01*
X136349444Y-146355255D01*
X136300075Y-146269745D01*
X136280330Y-146250000D01*
X137374999Y-146250000D01*
X137374999Y-146100028D01*
X137374998Y-146100013D01*
X137364505Y-145997302D01*
X137309358Y-145830880D01*
X137309356Y-145830875D01*
X137217315Y-145681654D01*
X137093343Y-145557682D01*
X137029093Y-145518053D01*
X136982368Y-145466105D01*
X136971145Y-145397143D01*
X136998988Y-145333061D01*
X137006486Y-145324855D01*
X137114414Y-145216928D01*
X137216232Y-145076788D01*
X137294873Y-144922445D01*
X137348402Y-144757701D01*
X137375500Y-144586611D01*
X137375500Y-144413389D01*
X137348402Y-144242299D01*
X137294873Y-144077555D01*
X137216232Y-143923212D01*
X137114414Y-143783072D01*
X136991928Y-143660586D01*
X136908975Y-143600317D01*
X136866311Y-143544988D01*
X136860332Y-143475374D01*
X136892938Y-143413579D01*
X136908976Y-143399682D01*
X136991928Y-143339414D01*
X137114414Y-143216928D01*
X137216232Y-143076788D01*
X137294873Y-142922445D01*
X137348402Y-142757701D01*
X137375500Y-142586611D01*
X137375500Y-142413389D01*
X137348402Y-142242299D01*
X137294873Y-142077555D01*
X137216232Y-141923212D01*
X137114414Y-141783072D01*
X136991928Y-141660586D01*
X136851788Y-141558768D01*
X136697445Y-141480127D01*
X136532701Y-141426598D01*
X136532699Y-141426597D01*
X136532698Y-141426597D01*
X136401271Y-141405781D01*
X136361611Y-141399500D01*
X135638389Y-141399500D01*
X135598728Y-141405781D01*
X135467302Y-141426597D01*
X135302552Y-141480128D01*
X135148211Y-141558768D01*
X135068256Y-141616859D01*
X135008072Y-141660586D01*
X135008070Y-141660588D01*
X135008069Y-141660588D01*
X134885588Y-141783069D01*
X134885588Y-141783070D01*
X134885586Y-141783072D01*
X134868253Y-141806929D01*
X134783768Y-141923211D01*
X134705128Y-142077552D01*
X134651597Y-142242302D01*
X134624500Y-142413389D01*
X134000500Y-142413389D01*
X134000500Y-125413389D01*
X134624500Y-125413389D01*
X134624500Y-125586611D01*
X134627650Y-125606497D01*
X134643963Y-125709500D01*
X134651598Y-125757701D01*
X134705127Y-125922445D01*
X134783768Y-126076788D01*
X134885586Y-126216928D01*
X135008072Y-126339414D01*
X135008078Y-126339418D01*
X135091023Y-126399683D01*
X135133689Y-126455013D01*
X135139667Y-126524626D01*
X135107061Y-126586421D01*
X135091023Y-126600317D01*
X135008078Y-126660581D01*
X135008069Y-126660588D01*
X134885588Y-126783069D01*
X134885588Y-126783070D01*
X134885586Y-126783072D01*
X134841859Y-126843256D01*
X134783768Y-126923211D01*
X134705128Y-127077552D01*
X134651597Y-127242302D01*
X134624500Y-127413389D01*
X134624500Y-127586610D01*
X134651592Y-127757668D01*
X134651598Y-127757701D01*
X134705127Y-127922445D01*
X134783768Y-128076788D01*
X134885586Y-128216928D01*
X135008072Y-128339414D01*
X135008078Y-128339418D01*
X135091023Y-128399683D01*
X135133689Y-128455013D01*
X135139667Y-128524626D01*
X135107061Y-128586421D01*
X135091023Y-128600317D01*
X135008078Y-128660581D01*
X135008069Y-128660588D01*
X134885588Y-128783069D01*
X134885588Y-128783070D01*
X134885586Y-128783072D01*
X134841859Y-128843256D01*
X134783768Y-128923211D01*
X134705128Y-129077552D01*
X134651597Y-129242302D01*
X134624500Y-129413389D01*
X134624500Y-129586610D01*
X134650036Y-129747844D01*
X134651598Y-129757701D01*
X134694377Y-129889361D01*
X134705128Y-129922447D01*
X134770773Y-130051284D01*
X134783768Y-130076788D01*
X134885586Y-130216928D01*
X135008072Y-130339414D01*
X135008078Y-130339418D01*
X135091023Y-130399683D01*
X135133689Y-130455013D01*
X135139667Y-130524626D01*
X135107061Y-130586421D01*
X135091023Y-130600317D01*
X135008078Y-130660581D01*
X135008069Y-130660588D01*
X134885588Y-130783069D01*
X134885588Y-130783070D01*
X134885586Y-130783072D01*
X134841859Y-130843256D01*
X134783768Y-130923211D01*
X134705128Y-131077552D01*
X134651597Y-131242302D01*
X134624500Y-131413389D01*
X134624500Y-131586610D01*
X134643351Y-131705635D01*
X134651598Y-131757701D01*
X134705127Y-131922445D01*
X134783768Y-132076788D01*
X134885586Y-132216928D01*
X135008072Y-132339414D01*
X135008078Y-132339418D01*
X135091023Y-132399683D01*
X135133689Y-132455013D01*
X135139667Y-132524626D01*
X135107061Y-132586421D01*
X135091023Y-132600317D01*
X135008078Y-132660581D01*
X135008069Y-132660588D01*
X134885588Y-132783069D01*
X134885588Y-132783070D01*
X134885586Y-132783072D01*
X134845920Y-132837668D01*
X134783768Y-132923211D01*
X134705128Y-133077552D01*
X134651597Y-133242302D01*
X134631305Y-133370423D01*
X134624500Y-133413389D01*
X134624500Y-133586611D01*
X134651598Y-133757701D01*
X134705127Y-133922445D01*
X134783768Y-134076788D01*
X134885586Y-134216928D01*
X135008072Y-134339414D01*
X135008078Y-134339418D01*
X135091023Y-134399683D01*
X135133689Y-134455013D01*
X135139667Y-134524626D01*
X135107061Y-134586421D01*
X135091023Y-134600317D01*
X135008078Y-134660581D01*
X135008069Y-134660588D01*
X134885588Y-134783069D01*
X134885588Y-134783070D01*
X134885586Y-134783072D01*
X134853043Y-134827864D01*
X134783768Y-134923211D01*
X134705128Y-135077552D01*
X134651597Y-135242302D01*
X134630158Y-135377668D01*
X134624500Y-135413389D01*
X134624500Y-135586611D01*
X134651598Y-135757701D01*
X134705127Y-135922445D01*
X134783768Y-136076788D01*
X134885586Y-136216928D01*
X134885588Y-136216930D01*
X134993491Y-136324833D01*
X135026976Y-136386156D01*
X135021992Y-136455848D01*
X134980120Y-136511781D01*
X134970907Y-136518053D01*
X134906654Y-136557684D01*
X134782684Y-136681654D01*
X134690643Y-136830875D01*
X134690641Y-136830880D01*
X134635494Y-136997302D01*
X134635493Y-136997309D01*
X134625000Y-137100013D01*
X134625000Y-137250000D01*
X135719670Y-137250000D01*
X135699925Y-137269745D01*
X135650556Y-137355255D01*
X135625000Y-137450630D01*
X135625000Y-137549370D01*
X135650556Y-137644745D01*
X135699925Y-137730255D01*
X135719670Y-137750000D01*
X134625001Y-137750000D01*
X134625001Y-137899986D01*
X134635494Y-138002697D01*
X134690641Y-138169119D01*
X134690643Y-138169124D01*
X134782684Y-138318345D01*
X134906654Y-138442315D01*
X135055875Y-138534356D01*
X135055880Y-138534358D01*
X135222302Y-138589505D01*
X135222309Y-138589506D01*
X135325019Y-138599999D01*
X135749999Y-138599999D01*
X135750000Y-138599998D01*
X135750000Y-137780330D01*
X135769745Y-137800075D01*
X135855255Y-137849444D01*
X135950630Y-137875000D01*
X136049370Y-137875000D01*
X136144745Y-137849444D01*
X136230255Y-137800075D01*
X136250000Y-137780330D01*
X136250000Y-138599999D01*
X136674972Y-138599999D01*
X136674986Y-138599998D01*
X136777697Y-138589505D01*
X136944119Y-138534358D01*
X136944124Y-138534356D01*
X137093345Y-138442315D01*
X137217315Y-138318345D01*
X137309356Y-138169124D01*
X137309358Y-138169119D01*
X137364505Y-138002697D01*
X137364506Y-138002690D01*
X137374999Y-137899986D01*
X137375000Y-137899973D01*
X137375000Y-137750000D01*
X136280330Y-137750000D01*
X136300075Y-137730255D01*
X136349444Y-137644745D01*
X136375000Y-137549370D01*
X136375000Y-137450630D01*
X136349444Y-137355255D01*
X136300075Y-137269745D01*
X136280330Y-137250000D01*
X137374999Y-137250000D01*
X137374999Y-137100028D01*
X137374998Y-137100013D01*
X137364505Y-136997302D01*
X137309358Y-136830880D01*
X137309356Y-136830875D01*
X137217315Y-136681654D01*
X137093343Y-136557682D01*
X137029093Y-136518053D01*
X136982368Y-136466105D01*
X136971145Y-136397143D01*
X136998988Y-136333061D01*
X137006486Y-136324855D01*
X137114414Y-136216928D01*
X137216232Y-136076788D01*
X137294873Y-135922445D01*
X137348402Y-135757701D01*
X137375500Y-135586611D01*
X137375500Y-135413389D01*
X137348402Y-135242299D01*
X137294873Y-135077555D01*
X137216232Y-134923212D01*
X137114414Y-134783072D01*
X136991928Y-134660586D01*
X136908975Y-134600317D01*
X136866311Y-134544988D01*
X136860332Y-134475374D01*
X136892938Y-134413579D01*
X136908976Y-134399682D01*
X136991928Y-134339414D01*
X137114414Y-134216928D01*
X137216232Y-134076788D01*
X137294873Y-133922445D01*
X137348402Y-133757701D01*
X137375500Y-133586611D01*
X137375500Y-133413389D01*
X137348402Y-133242299D01*
X137294873Y-133077555D01*
X137216232Y-132923212D01*
X137114414Y-132783072D01*
X136991928Y-132660586D01*
X136908975Y-132600317D01*
X136866311Y-132544988D01*
X136860332Y-132475374D01*
X136892938Y-132413579D01*
X136908976Y-132399682D01*
X136991928Y-132339414D01*
X137114414Y-132216928D01*
X137216232Y-132076788D01*
X137294873Y-131922445D01*
X137348402Y-131757701D01*
X137375500Y-131586611D01*
X137375500Y-131413389D01*
X137348402Y-131242299D01*
X137312665Y-131132315D01*
X137310671Y-131062478D01*
X137342917Y-131006318D01*
X137382220Y-130967016D01*
X137382220Y-130967015D01*
X137392422Y-130956814D01*
X137392429Y-130956804D01*
X140250716Y-128098519D01*
X140312039Y-128065034D01*
X140338397Y-128062200D01*
X141711000Y-128062200D01*
X141778039Y-128081885D01*
X141823794Y-128134689D01*
X141835000Y-128186200D01*
X141835000Y-128600000D01*
X144540440Y-128600000D01*
X144509755Y-128653147D01*
X144475000Y-128782857D01*
X144475000Y-128917143D01*
X144509755Y-129046853D01*
X144540440Y-129100000D01*
X141835000Y-129100000D01*
X141835000Y-129747844D01*
X141841401Y-129807372D01*
X141841403Y-129807379D01*
X141891645Y-129942086D01*
X141891646Y-129942088D01*
X141968890Y-130045272D01*
X141993307Y-130110736D01*
X141978456Y-130179009D01*
X141968890Y-130193894D01*
X141891204Y-130297669D01*
X141891202Y-130297671D01*
X141840908Y-130432517D01*
X141838490Y-130455013D01*
X141834501Y-130492123D01*
X141834500Y-130492135D01*
X141834500Y-132287870D01*
X141834501Y-132287876D01*
X141840908Y-132347483D01*
X141891202Y-132482328D01*
X141891203Y-132482330D01*
X141968578Y-132585689D01*
X141992995Y-132651153D01*
X141978144Y-132719426D01*
X141968578Y-132734311D01*
X141891203Y-132837669D01*
X141891202Y-132837671D01*
X141840908Y-132972517D01*
X141834501Y-133032116D01*
X141834501Y-133032123D01*
X141834500Y-133032135D01*
X141834500Y-134827870D01*
X141834501Y-134827876D01*
X141840908Y-134887483D01*
X141891202Y-135022328D01*
X141891203Y-135022330D01*
X141968578Y-135125689D01*
X141992995Y-135191153D01*
X141978144Y-135259426D01*
X141968578Y-135274311D01*
X141891203Y-135377669D01*
X141891202Y-135377671D01*
X141840908Y-135512517D01*
X141834501Y-135572116D01*
X141834501Y-135572123D01*
X141834500Y-135572135D01*
X141834500Y-137367870D01*
X141834501Y-137367876D01*
X141840908Y-137427483D01*
X141891202Y-137562328D01*
X141891203Y-137562330D01*
X141968578Y-137665689D01*
X141992995Y-137731153D01*
X141978144Y-137799426D01*
X141968578Y-137814311D01*
X141891203Y-137917669D01*
X141891202Y-137917671D01*
X141840908Y-138052517D01*
X141834501Y-138112116D01*
X141834501Y-138112123D01*
X141834500Y-138112135D01*
X141834500Y-139907870D01*
X141834501Y-139907876D01*
X141840908Y-139967483D01*
X141891202Y-140102328D01*
X141891203Y-140102330D01*
X141968578Y-140205689D01*
X141992995Y-140271153D01*
X141978144Y-140339426D01*
X141968578Y-140354309D01*
X141968265Y-140354729D01*
X141891203Y-140457669D01*
X141891202Y-140457671D01*
X141840908Y-140592517D01*
X141834501Y-140652116D01*
X141834501Y-140652123D01*
X141834500Y-140652135D01*
X141834500Y-142447870D01*
X141834501Y-142447876D01*
X141840908Y-142507483D01*
X141891202Y-142642328D01*
X141891203Y-142642330D01*
X141968578Y-142745689D01*
X141992995Y-142811153D01*
X141978144Y-142879426D01*
X141968578Y-142894311D01*
X141891203Y-142997669D01*
X141891202Y-142997671D01*
X141840908Y-143132517D01*
X141834501Y-143192116D01*
X141834501Y-143192123D01*
X141834500Y-143192135D01*
X141834500Y-144987870D01*
X141834501Y-144987876D01*
X141840908Y-145047483D01*
X141891202Y-145182328D01*
X141891203Y-145182330D01*
X141968578Y-145285689D01*
X141992995Y-145351153D01*
X141978144Y-145419426D01*
X141968578Y-145434311D01*
X141891203Y-145537669D01*
X141891202Y-145537671D01*
X141840908Y-145672517D01*
X141834501Y-145732116D01*
X141834501Y-145732123D01*
X141834500Y-145732135D01*
X141834500Y-147527870D01*
X141834501Y-147527876D01*
X141840908Y-147587483D01*
X141891202Y-147722328D01*
X141891203Y-147722330D01*
X141968578Y-147825689D01*
X141992995Y-147891153D01*
X141978144Y-147959426D01*
X141968578Y-147974311D01*
X141891203Y-148077669D01*
X141891202Y-148077671D01*
X141840908Y-148212517D01*
X141834501Y-148272116D01*
X141834501Y-148272123D01*
X141834500Y-148272135D01*
X141834500Y-150067870D01*
X141834501Y-150067876D01*
X141840908Y-150127483D01*
X141891202Y-150262328D01*
X141891203Y-150262330D01*
X141968578Y-150365689D01*
X141992995Y-150431153D01*
X141978144Y-150499426D01*
X141968578Y-150514311D01*
X141891203Y-150617669D01*
X141891202Y-150617671D01*
X141840908Y-150752517D01*
X141834501Y-150812116D01*
X141834501Y-150812123D01*
X141834500Y-150812135D01*
X141834500Y-152607870D01*
X141834501Y-152607876D01*
X141840908Y-152667483D01*
X141891202Y-152802328D01*
X141891203Y-152802330D01*
X141968578Y-152905689D01*
X141992995Y-152971153D01*
X141978144Y-153039426D01*
X141968578Y-153054309D01*
X141968265Y-153054729D01*
X141891203Y-153157669D01*
X141891202Y-153157671D01*
X141840908Y-153292517D01*
X141834501Y-153352116D01*
X141834501Y-153352123D01*
X141834500Y-153352135D01*
X141834500Y-155147870D01*
X141834501Y-155147876D01*
X141840908Y-155207483D01*
X141891202Y-155342328D01*
X141891203Y-155342330D01*
X141968578Y-155445689D01*
X141992995Y-155511153D01*
X141978144Y-155579426D01*
X141968578Y-155594311D01*
X141891203Y-155697669D01*
X141891202Y-155697671D01*
X141840908Y-155832517D01*
X141834501Y-155892116D01*
X141834501Y-155892123D01*
X141834500Y-155892135D01*
X141834500Y-157687870D01*
X141834501Y-157687876D01*
X141840908Y-157747483D01*
X141891202Y-157882328D01*
X141891203Y-157882330D01*
X141968578Y-157985689D01*
X141992995Y-158051153D01*
X141978144Y-158119426D01*
X141968578Y-158134311D01*
X141891203Y-158237669D01*
X141891202Y-158237671D01*
X141840908Y-158372517D01*
X141834501Y-158432116D01*
X141834501Y-158432123D01*
X141834500Y-158432135D01*
X141834500Y-160227870D01*
X141834501Y-160227876D01*
X141840908Y-160287483D01*
X141891202Y-160422328D01*
X141891206Y-160422335D01*
X141977452Y-160537544D01*
X141977455Y-160537547D01*
X142092664Y-160623793D01*
X142092671Y-160623797D01*
X142227517Y-160674091D01*
X142227516Y-160674091D01*
X142234444Y-160674835D01*
X142287127Y-160680500D01*
X144920611Y-160680499D01*
X144931419Y-160680971D01*
X144984999Y-160685659D01*
X144985000Y-160685659D01*
X144985001Y-160685659D01*
X145038580Y-160680971D01*
X145049388Y-160680499D01*
X145882871Y-160680499D01*
X145882872Y-160680499D01*
X145942483Y-160674091D01*
X146077331Y-160623796D01*
X146192546Y-160537546D01*
X146278796Y-160422331D01*
X146329091Y-160287483D01*
X146335500Y-160227873D01*
X146335499Y-159394383D01*
X146335971Y-159383576D01*
X146340659Y-159330000D01*
X146340659Y-159329999D01*
X146335971Y-159276421D01*
X146335499Y-159265613D01*
X146335499Y-159099997D01*
X149979341Y-159099997D01*
X149979341Y-159100001D01*
X149984028Y-159153574D01*
X149984500Y-159164381D01*
X149984500Y-161797870D01*
X149984501Y-161797876D01*
X149990908Y-161857483D01*
X150041202Y-161992328D01*
X150041206Y-161992335D01*
X150127452Y-162107544D01*
X150127455Y-162107547D01*
X150242664Y-162193793D01*
X150242671Y-162193797D01*
X150377517Y-162244091D01*
X150377516Y-162244091D01*
X150384444Y-162244835D01*
X150437127Y-162250500D01*
X152232872Y-162250499D01*
X152292483Y-162244091D01*
X152427331Y-162193796D01*
X152530690Y-162116421D01*
X152596152Y-162092004D01*
X152664425Y-162106855D01*
X152679303Y-162116416D01*
X152782665Y-162193793D01*
X152782668Y-162193795D01*
X152782671Y-162193797D01*
X152917517Y-162244091D01*
X152917516Y-162244091D01*
X152924444Y-162244835D01*
X152977127Y-162250500D01*
X154772872Y-162250499D01*
X154832483Y-162244091D01*
X154967331Y-162193796D01*
X155070690Y-162116421D01*
X155136152Y-162092004D01*
X155204425Y-162106855D01*
X155219303Y-162116416D01*
X155322665Y-162193793D01*
X155322668Y-162193795D01*
X155322671Y-162193797D01*
X155457517Y-162244091D01*
X155457516Y-162244091D01*
X155464444Y-162244835D01*
X155517127Y-162250500D01*
X157312872Y-162250499D01*
X157372483Y-162244091D01*
X157507331Y-162193796D01*
X157622546Y-162107546D01*
X157708796Y-161992331D01*
X157759091Y-161857483D01*
X157765500Y-161797873D01*
X157765499Y-159164381D01*
X157765971Y-159153578D01*
X157770659Y-159100000D01*
X157770659Y-159099999D01*
X157765971Y-159046418D01*
X157765499Y-159035610D01*
X157765499Y-158202129D01*
X157765498Y-158202123D01*
X157765497Y-158202116D01*
X157759091Y-158142517D01*
X157756030Y-158134311D01*
X157708797Y-158007671D01*
X157708793Y-158007664D01*
X157622547Y-157892455D01*
X157622544Y-157892452D01*
X157507335Y-157806206D01*
X157507328Y-157806202D01*
X157372482Y-157755908D01*
X157372483Y-157755908D01*
X157312883Y-157749501D01*
X157312881Y-157749500D01*
X157312873Y-157749500D01*
X157312865Y-157749500D01*
X156479383Y-157749500D01*
X156468576Y-157749028D01*
X156415002Y-157744341D01*
X156414999Y-157744341D01*
X156379865Y-157747414D01*
X156361421Y-157749028D01*
X156350616Y-157749500D01*
X155517129Y-157749500D01*
X155517123Y-157749501D01*
X155457516Y-157755908D01*
X155322671Y-157806202D01*
X155322669Y-157806203D01*
X155219311Y-157883578D01*
X155153847Y-157907995D01*
X155085574Y-157893144D01*
X155070689Y-157883578D01*
X154967330Y-157806203D01*
X154967328Y-157806202D01*
X154832482Y-157755908D01*
X154832483Y-157755908D01*
X154772883Y-157749501D01*
X154772881Y-157749500D01*
X154772873Y-157749500D01*
X154772864Y-157749500D01*
X152977129Y-157749500D01*
X152977123Y-157749501D01*
X152917516Y-157755908D01*
X152782671Y-157806202D01*
X152782669Y-157806203D01*
X152679311Y-157883578D01*
X152613847Y-157907995D01*
X152545574Y-157893144D01*
X152530689Y-157883578D01*
X152427330Y-157806203D01*
X152427328Y-157806202D01*
X152292482Y-157755908D01*
X152292483Y-157755908D01*
X152232883Y-157749501D01*
X152232881Y-157749500D01*
X152232873Y-157749500D01*
X152232865Y-157749500D01*
X151399383Y-157749500D01*
X151388576Y-157749028D01*
X151335002Y-157744341D01*
X151334999Y-157744341D01*
X151299865Y-157747414D01*
X151281421Y-157749028D01*
X151270616Y-157749500D01*
X150437129Y-157749500D01*
X150437123Y-157749501D01*
X150377516Y-157755908D01*
X150242671Y-157806202D01*
X150242664Y-157806206D01*
X150127455Y-157892452D01*
X150127452Y-157892455D01*
X150041206Y-158007664D01*
X150041202Y-158007671D01*
X149990908Y-158142517D01*
X149984501Y-158202116D01*
X149984501Y-158202123D01*
X149984500Y-158202135D01*
X149984500Y-159035618D01*
X149984028Y-159046425D01*
X149979341Y-159099997D01*
X146335499Y-159099997D01*
X146335499Y-158432129D01*
X146335498Y-158432123D01*
X146335497Y-158432116D01*
X146329091Y-158372517D01*
X146278796Y-158237669D01*
X146201421Y-158134309D01*
X146177004Y-158068848D01*
X146191855Y-158000575D01*
X146201416Y-157985696D01*
X146278796Y-157882331D01*
X146329091Y-157747483D01*
X146335500Y-157687873D01*
X146335499Y-156854383D01*
X146335971Y-156843576D01*
X146340659Y-156790000D01*
X146340659Y-156789999D01*
X146335971Y-156736421D01*
X146335499Y-156725613D01*
X146335499Y-155892129D01*
X146335498Y-155892123D01*
X146335497Y-155892116D01*
X146329091Y-155832517D01*
X146278796Y-155697669D01*
X146201421Y-155594309D01*
X146177004Y-155528848D01*
X146191855Y-155460575D01*
X146201416Y-155445696D01*
X146278796Y-155342331D01*
X146329091Y-155207483D01*
X146335500Y-155147873D01*
X146335499Y-153352128D01*
X146329091Y-153292517D01*
X146278796Y-153157669D01*
X146201421Y-153054309D01*
X146177004Y-152988848D01*
X146191855Y-152920575D01*
X146201416Y-152905696D01*
X146278796Y-152802331D01*
X146329091Y-152667483D01*
X146335500Y-152607873D01*
X146335499Y-151774383D01*
X146335971Y-151763576D01*
X146340659Y-151710000D01*
X146340659Y-151709999D01*
X146335971Y-151656421D01*
X146335499Y-151645613D01*
X146335499Y-150812129D01*
X146335498Y-150812123D01*
X146335497Y-150812116D01*
X146329091Y-150752517D01*
X146279665Y-150620000D01*
X146278797Y-150617671D01*
X146278795Y-150617668D01*
X146201421Y-150514309D01*
X146177004Y-150448848D01*
X146191855Y-150380575D01*
X146201416Y-150365696D01*
X146278796Y-150262331D01*
X146329091Y-150127483D01*
X146335500Y-150067873D01*
X146335499Y-149234383D01*
X146335971Y-149223576D01*
X146340659Y-149170000D01*
X146340659Y-149169999D01*
X146335971Y-149116421D01*
X146335499Y-149105613D01*
X146335499Y-148272129D01*
X146335498Y-148272123D01*
X146335497Y-148272116D01*
X146329091Y-148212517D01*
X146279665Y-148080000D01*
X146278797Y-148077671D01*
X146278795Y-148077668D01*
X146201421Y-147974309D01*
X146177004Y-147908848D01*
X146191855Y-147840575D01*
X146201416Y-147825696D01*
X146278796Y-147722331D01*
X146329091Y-147587483D01*
X146335500Y-147527873D01*
X146335499Y-146694383D01*
X146335971Y-146683576D01*
X146340659Y-146630000D01*
X146340659Y-146629999D01*
X146335971Y-146576421D01*
X146335499Y-146565613D01*
X146335499Y-145732129D01*
X146335498Y-145732123D01*
X146335497Y-145732116D01*
X146329091Y-145672517D01*
X146302230Y-145600500D01*
X146278797Y-145537671D01*
X146278795Y-145537668D01*
X146259416Y-145511781D01*
X146201421Y-145434309D01*
X146177004Y-145368848D01*
X146191855Y-145300575D01*
X146201416Y-145285696D01*
X146278796Y-145182331D01*
X146329091Y-145047483D01*
X146335500Y-144987873D01*
X146335499Y-144154383D01*
X146335971Y-144143576D01*
X146340659Y-144090000D01*
X146340659Y-144089999D01*
X146335971Y-144036421D01*
X146335499Y-144025613D01*
X146335499Y-143192129D01*
X146335498Y-143192123D01*
X146335497Y-143192116D01*
X146329091Y-143132517D01*
X146308305Y-143076788D01*
X146278797Y-142997671D01*
X146278795Y-142997668D01*
X146260706Y-142973504D01*
X146201421Y-142894309D01*
X146177004Y-142828848D01*
X146191855Y-142760575D01*
X146201416Y-142745696D01*
X146278796Y-142642331D01*
X146329091Y-142507483D01*
X146335500Y-142447873D01*
X146335499Y-140652128D01*
X146329091Y-140592517D01*
X146324422Y-140580000D01*
X146278797Y-140457671D01*
X146278795Y-140457668D01*
X146201421Y-140354309D01*
X146177004Y-140288848D01*
X146191855Y-140220575D01*
X146201416Y-140205696D01*
X146278796Y-140102331D01*
X146329091Y-139967483D01*
X146335500Y-139907873D01*
X146335499Y-139074383D01*
X146335971Y-139063576D01*
X146340659Y-139010000D01*
X146340659Y-139009999D01*
X146335971Y-138956421D01*
X146335499Y-138945613D01*
X146335499Y-138112129D01*
X146335498Y-138112123D01*
X146335497Y-138112116D01*
X146329091Y-138052517D01*
X146310509Y-138002697D01*
X146278797Y-137917671D01*
X146278795Y-137917668D01*
X146265558Y-137899986D01*
X146201421Y-137814309D01*
X146177004Y-137748848D01*
X146191855Y-137680575D01*
X146201416Y-137665696D01*
X146278796Y-137562331D01*
X146329091Y-137427483D01*
X146335500Y-137367873D01*
X146335499Y-136534383D01*
X146335971Y-136523576D01*
X146340659Y-136470000D01*
X146340659Y-136469999D01*
X146335971Y-136416421D01*
X146335499Y-136405613D01*
X146335499Y-135572129D01*
X146335498Y-135572123D01*
X146335497Y-135572116D01*
X146329091Y-135512517D01*
X146279665Y-135380000D01*
X146278797Y-135377671D01*
X146278795Y-135377668D01*
X146201421Y-135274309D01*
X146177004Y-135208848D01*
X146191855Y-135140575D01*
X146201416Y-135125696D01*
X146278796Y-135022331D01*
X146329091Y-134887483D01*
X146335500Y-134827873D01*
X146335499Y-133994383D01*
X146335971Y-133983576D01*
X146340659Y-133930000D01*
X146340659Y-133929999D01*
X146335971Y-133876421D01*
X146335499Y-133865613D01*
X146335499Y-133032129D01*
X146335498Y-133032123D01*
X146335497Y-133032116D01*
X146329091Y-132972517D01*
X146310701Y-132923212D01*
X146278797Y-132837671D01*
X146278795Y-132837668D01*
X146201421Y-132734309D01*
X146177004Y-132668848D01*
X146191855Y-132600575D01*
X146201416Y-132585696D01*
X146278796Y-132482331D01*
X146329091Y-132347483D01*
X146335500Y-132287873D01*
X146335499Y-131454383D01*
X146335971Y-131443576D01*
X146340659Y-131390000D01*
X146340659Y-131389999D01*
X146335971Y-131336421D01*
X146335499Y-131325613D01*
X146335499Y-130492129D01*
X146335498Y-130492123D01*
X146335497Y-130492116D01*
X146329091Y-130432517D01*
X146294367Y-130339418D01*
X146278797Y-130297671D01*
X146278795Y-130297668D01*
X146201109Y-130193893D01*
X146176692Y-130128430D01*
X146191543Y-130060157D01*
X146201110Y-130045271D01*
X146278352Y-129942089D01*
X146278354Y-129942086D01*
X146328596Y-129807379D01*
X146328598Y-129807372D01*
X146334999Y-129747844D01*
X146335000Y-129747827D01*
X146335000Y-129100000D01*
X145429560Y-129100000D01*
X145460245Y-129046853D01*
X145495000Y-128917143D01*
X145495000Y-128782857D01*
X145460245Y-128653147D01*
X145429560Y-128600000D01*
X146335000Y-128600000D01*
X146335000Y-127987298D01*
X146354685Y-127920259D01*
X146371314Y-127899621D01*
X146440520Y-127830416D01*
X146440520Y-127830415D01*
X146457961Y-127812975D01*
X146457963Y-127812971D01*
X146617217Y-127653719D01*
X146617217Y-127653718D01*
X146617220Y-127653716D01*
X146696277Y-127516784D01*
X146737201Y-127364057D01*
X146737201Y-127205942D01*
X146737201Y-127198347D01*
X146737200Y-127198329D01*
X146737200Y-123690945D01*
X146737200Y-123690943D01*
X146696277Y-123538216D01*
X146696273Y-123538209D01*
X146617224Y-123401290D01*
X146617218Y-123401282D01*
X146505417Y-123289481D01*
X146505412Y-123289477D01*
X146397499Y-123227174D01*
X146349284Y-123176607D01*
X146335499Y-123119787D01*
X146335499Y-123106200D01*
X146355184Y-123039161D01*
X146407988Y-122993406D01*
X146459499Y-122982200D01*
X152754931Y-122982200D01*
X152754947Y-122982201D01*
X152762543Y-122982201D01*
X152920654Y-122982201D01*
X152920657Y-122982201D01*
X153073385Y-122941277D01*
X153147305Y-122898599D01*
X153210316Y-122862220D01*
X153322120Y-122750416D01*
X153322120Y-122750414D01*
X153332324Y-122740211D01*
X153332328Y-122740206D01*
X161326777Y-114745756D01*
X161388098Y-114712273D01*
X161457790Y-114717257D01*
X161513721Y-114759126D01*
X161548890Y-114806106D01*
X161573307Y-114871569D01*
X161558456Y-114939842D01*
X161548890Y-114954727D01*
X161471647Y-115057910D01*
X161471645Y-115057913D01*
X161421403Y-115192620D01*
X161421401Y-115192627D01*
X161415000Y-115252155D01*
X161415000Y-115900000D01*
X162320440Y-115900000D01*
X162289755Y-115953147D01*
X162255000Y-116082857D01*
X162255000Y-116217143D01*
X162289755Y-116346853D01*
X162320440Y-116400000D01*
X161415000Y-116400000D01*
X161415000Y-117047844D01*
X161421401Y-117107372D01*
X161421403Y-117107379D01*
X161471645Y-117242086D01*
X161471646Y-117242088D01*
X161548890Y-117345272D01*
X161573307Y-117410736D01*
X161558456Y-117479009D01*
X161548890Y-117493894D01*
X161471204Y-117597669D01*
X161471202Y-117597671D01*
X161420908Y-117732517D01*
X161414501Y-117792116D01*
X161414501Y-117792123D01*
X161414500Y-117792135D01*
X161414500Y-118625616D01*
X161414028Y-118636423D01*
X161409341Y-118689997D01*
X161409341Y-118690002D01*
X161414028Y-118743576D01*
X161414500Y-118754383D01*
X161414500Y-119587870D01*
X161414501Y-119587876D01*
X161420908Y-119647483D01*
X161471202Y-119782328D01*
X161471203Y-119782330D01*
X161548578Y-119885689D01*
X161572995Y-119951153D01*
X161558144Y-120019426D01*
X161548578Y-120034311D01*
X161471203Y-120137669D01*
X161471202Y-120137671D01*
X161420908Y-120272517D01*
X161414501Y-120332116D01*
X161414501Y-120332123D01*
X161414500Y-120332135D01*
X161414500Y-121165616D01*
X161414028Y-121176423D01*
X161409341Y-121229997D01*
X161409341Y-121230002D01*
X161414028Y-121283576D01*
X161414500Y-121294383D01*
X161414500Y-122127870D01*
X161414501Y-122127876D01*
X161420908Y-122187483D01*
X161471202Y-122322328D01*
X161471203Y-122322330D01*
X161548578Y-122425689D01*
X161572995Y-122491153D01*
X161558144Y-122559426D01*
X161548578Y-122574311D01*
X161471203Y-122677669D01*
X161471202Y-122677671D01*
X161420908Y-122812517D01*
X161415565Y-122862220D01*
X161414501Y-122872123D01*
X161414500Y-122872135D01*
X161414500Y-123705616D01*
X161414028Y-123716423D01*
X161409341Y-123769997D01*
X161409341Y-123770002D01*
X161414028Y-123823576D01*
X161414500Y-123834383D01*
X161414500Y-124667870D01*
X161414501Y-124667876D01*
X161420908Y-124727483D01*
X161471202Y-124862328D01*
X161471203Y-124862330D01*
X161548578Y-124965689D01*
X161572995Y-125031153D01*
X161558144Y-125099426D01*
X161548578Y-125114311D01*
X161471203Y-125217669D01*
X161471202Y-125217671D01*
X161420908Y-125352517D01*
X161417234Y-125386697D01*
X161414501Y-125412123D01*
X161414500Y-125412135D01*
X161414500Y-126245616D01*
X161414028Y-126256423D01*
X161409341Y-126309997D01*
X161409341Y-126310002D01*
X161414028Y-126363576D01*
X161414500Y-126374383D01*
X161414500Y-127207870D01*
X161414501Y-127207876D01*
X161420908Y-127267483D01*
X161471202Y-127402328D01*
X161471203Y-127402330D01*
X161548578Y-127505689D01*
X161572995Y-127571153D01*
X161558144Y-127639426D01*
X161548578Y-127654311D01*
X161471203Y-127757669D01*
X161471202Y-127757671D01*
X161420908Y-127892517D01*
X161415565Y-127942220D01*
X161414501Y-127952123D01*
X161414500Y-127952135D01*
X161414500Y-129747870D01*
X161414501Y-129747876D01*
X161420908Y-129807483D01*
X161471202Y-129942328D01*
X161471203Y-129942330D01*
X161548578Y-130045689D01*
X161572995Y-130111153D01*
X161558144Y-130179426D01*
X161548578Y-130194311D01*
X161471203Y-130297669D01*
X161471202Y-130297671D01*
X161420908Y-130432517D01*
X161418490Y-130455013D01*
X161414501Y-130492123D01*
X161414500Y-130492135D01*
X161414500Y-131325616D01*
X161414028Y-131336423D01*
X161409341Y-131389997D01*
X161409341Y-131390002D01*
X161414028Y-131443576D01*
X161414500Y-131454383D01*
X161414500Y-132287870D01*
X161414501Y-132287876D01*
X161420908Y-132347483D01*
X161471202Y-132482328D01*
X161471203Y-132482330D01*
X161548578Y-132585689D01*
X161572995Y-132651153D01*
X161558144Y-132719426D01*
X161548578Y-132734311D01*
X161471203Y-132837669D01*
X161471202Y-132837671D01*
X161420908Y-132972517D01*
X161414501Y-133032116D01*
X161414501Y-133032123D01*
X161414500Y-133032135D01*
X161414500Y-133865616D01*
X161414028Y-133876423D01*
X161409341Y-133929997D01*
X161409341Y-133930002D01*
X161414028Y-133983576D01*
X161414500Y-133994383D01*
X161414500Y-134827870D01*
X161414501Y-134827876D01*
X161420908Y-134887483D01*
X161471202Y-135022328D01*
X161471203Y-135022330D01*
X161548578Y-135125689D01*
X161572995Y-135191153D01*
X161558144Y-135259426D01*
X161548578Y-135274311D01*
X161471203Y-135377669D01*
X161471202Y-135377671D01*
X161420908Y-135512517D01*
X161414501Y-135572116D01*
X161414501Y-135572123D01*
X161414500Y-135572135D01*
X161414500Y-136405616D01*
X161414028Y-136416423D01*
X161409341Y-136469997D01*
X161409341Y-136470002D01*
X161414028Y-136523576D01*
X161414500Y-136534383D01*
X161414500Y-137367870D01*
X161414501Y-137367876D01*
X161420908Y-137427483D01*
X161471202Y-137562328D01*
X161471203Y-137562330D01*
X161548578Y-137665689D01*
X161572995Y-137731153D01*
X161558144Y-137799426D01*
X161548578Y-137814311D01*
X161471203Y-137917669D01*
X161471202Y-137917671D01*
X161420908Y-138052517D01*
X161414501Y-138112116D01*
X161414501Y-138112123D01*
X161414500Y-138112135D01*
X161414500Y-138945616D01*
X161414028Y-138956423D01*
X161409341Y-139009997D01*
X161409341Y-139010002D01*
X161414028Y-139063576D01*
X161414500Y-139074383D01*
X161414500Y-139907870D01*
X161414501Y-139907876D01*
X161420908Y-139967483D01*
X161471202Y-140102328D01*
X161471206Y-140102335D01*
X161548889Y-140206105D01*
X161573307Y-140271569D01*
X161558456Y-140339842D01*
X161548890Y-140354727D01*
X161471647Y-140457910D01*
X161471645Y-140457913D01*
X161421403Y-140592620D01*
X161421401Y-140592627D01*
X161415000Y-140652155D01*
X161415000Y-141300000D01*
X162320440Y-141300000D01*
X162289755Y-141353147D01*
X162255000Y-141482857D01*
X162255000Y-141617143D01*
X162289755Y-141746853D01*
X162320440Y-141800000D01*
X161415000Y-141800000D01*
X161415000Y-142447844D01*
X161421401Y-142507372D01*
X161421403Y-142507379D01*
X161471645Y-142642086D01*
X161471646Y-142642088D01*
X161548890Y-142745272D01*
X161573307Y-142810736D01*
X161558456Y-142879009D01*
X161548890Y-142893894D01*
X161471204Y-142997669D01*
X161471202Y-142997671D01*
X161420908Y-143132517D01*
X161414501Y-143192116D01*
X161414501Y-143192123D01*
X161414500Y-143192135D01*
X161414500Y-144025616D01*
X161414028Y-144036423D01*
X161409341Y-144089997D01*
X161409341Y-144090002D01*
X161414028Y-144143576D01*
X161414500Y-144154383D01*
X161414500Y-144987870D01*
X161414501Y-144987876D01*
X161420908Y-145047483D01*
X161471202Y-145182328D01*
X161471203Y-145182330D01*
X161548578Y-145285689D01*
X161572995Y-145351153D01*
X161558144Y-145419426D01*
X161548578Y-145434311D01*
X161471203Y-145537669D01*
X161471202Y-145537671D01*
X161420908Y-145672517D01*
X161414501Y-145732116D01*
X161414501Y-145732123D01*
X161414500Y-145732135D01*
X161414500Y-146565616D01*
X161414028Y-146576423D01*
X161409341Y-146629997D01*
X161409341Y-146630002D01*
X161414028Y-146683576D01*
X161414500Y-146694383D01*
X161414500Y-147527870D01*
X161414501Y-147527876D01*
X161420908Y-147587483D01*
X161471202Y-147722328D01*
X161471203Y-147722330D01*
X161548578Y-147825689D01*
X161572995Y-147891153D01*
X161558144Y-147959426D01*
X161548578Y-147974311D01*
X161471203Y-148077669D01*
X161471202Y-148077671D01*
X161420908Y-148212517D01*
X161414501Y-148272116D01*
X161414501Y-148272123D01*
X161414500Y-148272135D01*
X161414500Y-149105616D01*
X161414028Y-149116423D01*
X161409341Y-149169997D01*
X161409341Y-149170002D01*
X161414028Y-149223576D01*
X161414500Y-149234383D01*
X161414500Y-150067870D01*
X161414501Y-150067876D01*
X161420908Y-150127483D01*
X161471202Y-150262328D01*
X161471203Y-150262330D01*
X161548578Y-150365689D01*
X161572995Y-150431153D01*
X161558144Y-150499426D01*
X161548578Y-150514311D01*
X161471203Y-150617669D01*
X161471202Y-150617671D01*
X161420908Y-150752517D01*
X161414501Y-150812116D01*
X161414501Y-150812123D01*
X161414500Y-150812135D01*
X161414500Y-151645616D01*
X161414028Y-151656423D01*
X161409341Y-151709997D01*
X161409341Y-151710002D01*
X161414028Y-151763576D01*
X161414500Y-151774383D01*
X161414500Y-152607870D01*
X161414501Y-152607876D01*
X161420908Y-152667483D01*
X161471202Y-152802328D01*
X161471206Y-152802335D01*
X161548889Y-152906105D01*
X161573307Y-152971569D01*
X161558456Y-153039842D01*
X161548890Y-153054727D01*
X161471647Y-153157910D01*
X161471645Y-153157913D01*
X161421403Y-153292620D01*
X161421401Y-153292627D01*
X161415000Y-153352155D01*
X161415000Y-154000000D01*
X162320440Y-154000000D01*
X162289755Y-154053147D01*
X162255000Y-154182857D01*
X162255000Y-154317143D01*
X162289755Y-154446853D01*
X162320440Y-154500000D01*
X161415000Y-154500000D01*
X161415000Y-155147844D01*
X161421401Y-155207372D01*
X161421403Y-155207379D01*
X161471645Y-155342086D01*
X161471646Y-155342088D01*
X161548890Y-155445272D01*
X161573307Y-155510736D01*
X161558456Y-155579009D01*
X161548890Y-155593894D01*
X161471204Y-155697669D01*
X161471202Y-155697671D01*
X161420908Y-155832517D01*
X161414501Y-155892116D01*
X161414501Y-155892123D01*
X161414500Y-155892135D01*
X161414500Y-156725616D01*
X161414028Y-156736423D01*
X161409341Y-156789997D01*
X161409341Y-156790002D01*
X161414028Y-156843576D01*
X161414500Y-156854383D01*
X161414500Y-157687870D01*
X161414501Y-157687876D01*
X161420908Y-157747483D01*
X161471202Y-157882328D01*
X161471203Y-157882330D01*
X161548578Y-157985689D01*
X161572995Y-158051153D01*
X161558144Y-158119426D01*
X161548578Y-158134311D01*
X161471203Y-158237669D01*
X161471202Y-158237671D01*
X161420908Y-158372517D01*
X161414501Y-158432116D01*
X161414501Y-158432123D01*
X161414500Y-158432135D01*
X161414500Y-159265616D01*
X161414028Y-159276423D01*
X161409341Y-159329997D01*
X161409341Y-159330002D01*
X161414028Y-159383576D01*
X161414500Y-159394383D01*
X161414500Y-160227870D01*
X161414501Y-160227876D01*
X161420908Y-160287483D01*
X161471202Y-160422328D01*
X161471206Y-160422335D01*
X161557452Y-160537544D01*
X161557455Y-160537547D01*
X161672664Y-160623793D01*
X161672671Y-160623797D01*
X161807517Y-160674091D01*
X161807516Y-160674091D01*
X161814444Y-160674835D01*
X161867127Y-160680500D01*
X162700616Y-160680499D01*
X162711425Y-160680971D01*
X162765000Y-160685659D01*
X162818575Y-160680971D01*
X162829384Y-160680499D01*
X165462871Y-160680499D01*
X165462872Y-160680499D01*
X165522483Y-160674091D01*
X165657331Y-160623796D01*
X165772546Y-160537546D01*
X165858796Y-160422331D01*
X165909091Y-160287483D01*
X165915500Y-160227873D01*
X165915499Y-158432128D01*
X165909091Y-158372517D01*
X165858796Y-158237669D01*
X165781421Y-158134309D01*
X165757004Y-158068848D01*
X165771855Y-158000575D01*
X165781416Y-157985696D01*
X165858796Y-157882331D01*
X165909091Y-157747483D01*
X165915500Y-157687873D01*
X165915500Y-157393713D01*
X185649500Y-157393713D01*
X185649500Y-157606286D01*
X185681163Y-157806203D01*
X185682754Y-157816243D01*
X185744952Y-158007669D01*
X185748444Y-158018414D01*
X185844951Y-158207820D01*
X185969890Y-158379785D01*
X185969894Y-158379790D01*
X186120213Y-158530109D01*
X186292179Y-158655048D01*
X186292181Y-158655049D01*
X186292184Y-158655051D01*
X186481588Y-158751557D01*
X186683757Y-158817246D01*
X186893713Y-158850500D01*
X186893714Y-158850500D01*
X187106286Y-158850500D01*
X187106287Y-158850500D01*
X187316243Y-158817246D01*
X187518412Y-158751557D01*
X187707816Y-158655051D01*
X187729789Y-158639086D01*
X187879786Y-158530109D01*
X187879788Y-158530106D01*
X187879792Y-158530104D01*
X188030104Y-158379792D01*
X188030106Y-158379788D01*
X188030110Y-158379785D01*
X188155048Y-158207820D01*
X188155047Y-158207820D01*
X188155051Y-158207816D01*
X188251557Y-158018412D01*
X188317246Y-157816243D01*
X188350500Y-157606287D01*
X188350500Y-157393713D01*
X188317246Y-157183757D01*
X188251557Y-156981588D01*
X188155051Y-156792184D01*
X188155049Y-156792181D01*
X188155048Y-156792179D01*
X188030109Y-156620213D01*
X187879786Y-156469890D01*
X187707820Y-156344951D01*
X187518414Y-156248444D01*
X187518413Y-156248443D01*
X187518412Y-156248443D01*
X187316243Y-156182754D01*
X187316241Y-156182753D01*
X187316240Y-156182753D01*
X187154957Y-156157208D01*
X187106287Y-156149500D01*
X186893713Y-156149500D01*
X186845042Y-156157208D01*
X186683760Y-156182753D01*
X186481585Y-156248444D01*
X186292179Y-156344951D01*
X186120213Y-156469890D01*
X185969890Y-156620213D01*
X185844951Y-156792179D01*
X185748444Y-156981585D01*
X185682753Y-157183760D01*
X185649500Y-157393713D01*
X165915500Y-157393713D01*
X165915499Y-155892128D01*
X165909091Y-155832517D01*
X165858796Y-155697669D01*
X165781109Y-155593893D01*
X165756692Y-155528430D01*
X165771543Y-155460157D01*
X165781110Y-155445271D01*
X165858352Y-155342089D01*
X165858354Y-155342086D01*
X165908596Y-155207379D01*
X165908598Y-155207372D01*
X165914999Y-155147844D01*
X165915000Y-155147827D01*
X165915000Y-154500000D01*
X163209560Y-154500000D01*
X163240245Y-154446853D01*
X163275000Y-154317143D01*
X163275000Y-154182857D01*
X163240245Y-154053147D01*
X163209560Y-154000000D01*
X165915000Y-154000000D01*
X165915000Y-153579997D01*
X181695034Y-153579997D01*
X181695034Y-153580002D01*
X181714858Y-153806599D01*
X181714860Y-153806610D01*
X181773730Y-154026317D01*
X181773735Y-154026331D01*
X181869863Y-154232478D01*
X181920974Y-154305472D01*
X182600000Y-153626446D01*
X182600000Y-153632661D01*
X182627259Y-153734394D01*
X182679920Y-153825606D01*
X182754394Y-153900080D01*
X182845606Y-153952741D01*
X182947339Y-153980000D01*
X182953553Y-153980000D01*
X182274526Y-154659025D01*
X182347513Y-154710132D01*
X182347521Y-154710136D01*
X182553668Y-154806264D01*
X182553682Y-154806269D01*
X182773389Y-154865139D01*
X182773400Y-154865141D01*
X182999998Y-154884966D01*
X183000002Y-154884966D01*
X183226599Y-154865141D01*
X183226610Y-154865139D01*
X183446317Y-154806269D01*
X183446331Y-154806264D01*
X183652478Y-154710136D01*
X183725471Y-154659024D01*
X183046447Y-153980000D01*
X183052661Y-153980000D01*
X183154394Y-153952741D01*
X183245606Y-153900080D01*
X183320080Y-153825606D01*
X183372741Y-153734394D01*
X183400000Y-153632661D01*
X183400000Y-153626447D01*
X184079024Y-154305471D01*
X184130136Y-154232478D01*
X184226264Y-154026331D01*
X184226269Y-154026317D01*
X184285139Y-153806610D01*
X184285141Y-153806599D01*
X184304966Y-153580002D01*
X184304966Y-153579997D01*
X184285141Y-153353400D01*
X184285139Y-153353389D01*
X184226269Y-153133682D01*
X184226264Y-153133668D01*
X184130136Y-152927521D01*
X184130132Y-152927513D01*
X184079025Y-152854526D01*
X183400000Y-153533551D01*
X183400000Y-153527339D01*
X183372741Y-153425606D01*
X183320080Y-153334394D01*
X183245606Y-153259920D01*
X183154394Y-153207259D01*
X183052661Y-153180000D01*
X183046448Y-153180000D01*
X183725472Y-152500974D01*
X183652478Y-152449863D01*
X183446331Y-152353735D01*
X183446317Y-152353730D01*
X183226610Y-152294860D01*
X183226599Y-152294858D01*
X183000002Y-152275034D01*
X182999998Y-152275034D01*
X182773400Y-152294858D01*
X182773389Y-152294860D01*
X182553682Y-152353730D01*
X182553673Y-152353734D01*
X182347516Y-152449866D01*
X182347512Y-152449868D01*
X182274526Y-152500973D01*
X182274526Y-152500974D01*
X182953553Y-153180000D01*
X182947339Y-153180000D01*
X182845606Y-153207259D01*
X182754394Y-153259920D01*
X182679920Y-153334394D01*
X182627259Y-153425606D01*
X182600000Y-153527339D01*
X182600000Y-153533552D01*
X181920974Y-152854526D01*
X181920973Y-152854526D01*
X181869868Y-152927512D01*
X181869866Y-152927516D01*
X181773734Y-153133673D01*
X181773730Y-153133682D01*
X181714860Y-153353389D01*
X181714858Y-153353400D01*
X181695034Y-153579997D01*
X165915000Y-153579997D01*
X165915000Y-153352172D01*
X165914999Y-153352155D01*
X165908598Y-153292627D01*
X165908596Y-153292620D01*
X165858354Y-153157913D01*
X165858352Y-153157910D01*
X165781110Y-153054729D01*
X165756692Y-152989265D01*
X165771543Y-152920992D01*
X165781105Y-152906111D01*
X165858796Y-152802331D01*
X165909091Y-152667483D01*
X165915500Y-152607873D01*
X165915499Y-150812128D01*
X165909091Y-150752517D01*
X165859665Y-150620000D01*
X165858797Y-150617671D01*
X165858795Y-150617668D01*
X165781421Y-150514309D01*
X165757004Y-150448848D01*
X165771855Y-150380575D01*
X165781416Y-150365696D01*
X165858796Y-150262331D01*
X165909091Y-150127483D01*
X165915500Y-150067873D01*
X165915499Y-148272128D01*
X165909091Y-148212517D01*
X165859665Y-148080000D01*
X165858797Y-148077671D01*
X165858795Y-148077668D01*
X165781421Y-147974309D01*
X165757004Y-147908848D01*
X165771855Y-147840575D01*
X165781416Y-147825696D01*
X165858796Y-147722331D01*
X165909091Y-147587483D01*
X165915500Y-147527873D01*
X165915499Y-145732128D01*
X165909091Y-145672517D01*
X165882230Y-145600500D01*
X165858797Y-145537671D01*
X165858795Y-145537668D01*
X165839416Y-145511781D01*
X165781421Y-145434309D01*
X165757004Y-145368848D01*
X165771855Y-145300575D01*
X165781416Y-145285696D01*
X165858796Y-145182331D01*
X165909091Y-145047483D01*
X165915500Y-144987873D01*
X165915499Y-143192128D01*
X165909091Y-143132517D01*
X165888305Y-143076788D01*
X165858797Y-142997671D01*
X165858795Y-142997668D01*
X165840706Y-142973504D01*
X165781109Y-142893893D01*
X165756692Y-142828430D01*
X165771543Y-142760157D01*
X165781110Y-142745271D01*
X165858352Y-142642089D01*
X165858354Y-142642086D01*
X165908596Y-142507379D01*
X165908598Y-142507372D01*
X165914999Y-142447844D01*
X165915000Y-142447827D01*
X165915000Y-141800000D01*
X163209560Y-141800000D01*
X163240245Y-141746853D01*
X163275000Y-141617143D01*
X163275000Y-141482857D01*
X163240245Y-141353147D01*
X163209560Y-141300000D01*
X165915000Y-141300000D01*
X165915000Y-140652172D01*
X165914999Y-140652155D01*
X165908598Y-140592627D01*
X165908596Y-140592620D01*
X165858354Y-140457913D01*
X165858352Y-140457910D01*
X165781110Y-140354729D01*
X165756692Y-140289265D01*
X165771543Y-140220992D01*
X165781105Y-140206111D01*
X165858796Y-140102331D01*
X165909091Y-139967483D01*
X165915500Y-139907873D01*
X165915499Y-138112128D01*
X165909091Y-138052517D01*
X165890509Y-138002697D01*
X165858797Y-137917671D01*
X165858795Y-137917668D01*
X165845558Y-137899986D01*
X165781421Y-137814309D01*
X165757004Y-137748848D01*
X165771855Y-137680575D01*
X165781416Y-137665696D01*
X165858796Y-137562331D01*
X165909091Y-137427483D01*
X165915500Y-137367873D01*
X165915499Y-135572128D01*
X165909091Y-135512517D01*
X165859665Y-135380000D01*
X165858797Y-135377671D01*
X165858795Y-135377668D01*
X165781421Y-135274309D01*
X165757004Y-135208848D01*
X165771855Y-135140575D01*
X165781416Y-135125696D01*
X165858796Y-135022331D01*
X165909091Y-134887483D01*
X165915500Y-134827873D01*
X165915500Y-134654500D01*
X165935185Y-134587461D01*
X165987989Y-134541706D01*
X166039500Y-134530500D01*
X167800003Y-134530500D01*
X167867042Y-134550185D01*
X167887683Y-134566818D01*
X169181384Y-135860520D01*
X169181386Y-135860521D01*
X169181390Y-135860524D01*
X169289299Y-135922825D01*
X169337515Y-135973391D01*
X169351300Y-136030211D01*
X169351300Y-136266069D01*
X169351301Y-136266076D01*
X169357708Y-136325683D01*
X169408002Y-136460528D01*
X169408006Y-136460535D01*
X169494252Y-136575744D01*
X169494255Y-136575747D01*
X169609464Y-136661993D01*
X169609471Y-136661997D01*
X169751585Y-136715002D01*
X169750537Y-136717810D01*
X169799100Y-136745467D01*
X169831482Y-136807379D01*
X169825252Y-136876970D01*
X169797546Y-136919246D01*
X169660579Y-137056213D01*
X169612414Y-137125000D01*
X169526223Y-137248093D01*
X169427229Y-137460387D01*
X169427225Y-137460396D01*
X169366603Y-137686643D01*
X169366601Y-137686653D01*
X169346186Y-137919999D01*
X169346186Y-137920000D01*
X169366601Y-138153346D01*
X169366603Y-138153356D01*
X169427225Y-138379603D01*
X169427227Y-138379607D01*
X169427228Y-138379611D01*
X169526223Y-138591907D01*
X169660579Y-138783787D01*
X169826213Y-138949421D01*
X170018093Y-139083777D01*
X170018094Y-139083777D01*
X170022528Y-139086882D01*
X170021521Y-139088319D01*
X170064297Y-139133190D01*
X170077513Y-139201798D01*
X170051540Y-139266660D01*
X170021953Y-139292297D01*
X170022528Y-139293118D01*
X170018094Y-139296222D01*
X170018093Y-139296223D01*
X169826213Y-139430579D01*
X169826211Y-139430580D01*
X169826208Y-139430583D01*
X169660583Y-139596208D01*
X169660580Y-139596211D01*
X169660579Y-139596213D01*
X169567727Y-139728819D01*
X169526223Y-139788093D01*
X169427229Y-140000387D01*
X169427225Y-140000396D01*
X169366603Y-140226643D01*
X169366601Y-140226653D01*
X169346186Y-140459999D01*
X169346186Y-140460000D01*
X169366601Y-140693346D01*
X169366603Y-140693356D01*
X169427225Y-140919603D01*
X169427227Y-140919607D01*
X169427228Y-140919611D01*
X169526223Y-141131907D01*
X169660579Y-141323787D01*
X169826213Y-141489421D01*
X170018093Y-141623777D01*
X170018094Y-141623777D01*
X170022528Y-141626882D01*
X170021521Y-141628319D01*
X170064297Y-141673190D01*
X170077513Y-141741798D01*
X170051540Y-141806660D01*
X170021953Y-141832297D01*
X170022528Y-141833118D01*
X170018094Y-141836222D01*
X170018093Y-141836223D01*
X169826213Y-141970579D01*
X169826211Y-141970580D01*
X169826208Y-141970583D01*
X169660583Y-142136208D01*
X169660580Y-142136211D01*
X169660579Y-142136213D01*
X169526223Y-142328093D01*
X169473481Y-142441200D01*
X169427229Y-142540387D01*
X169427225Y-142540396D01*
X169366603Y-142766643D01*
X169366601Y-142766653D01*
X169346186Y-142999999D01*
X169346186Y-143000000D01*
X169366601Y-143233346D01*
X169366603Y-143233356D01*
X169427225Y-143459603D01*
X169427227Y-143459607D01*
X169427228Y-143459611D01*
X169526223Y-143671907D01*
X169660579Y-143863787D01*
X169826213Y-144029421D01*
X170018093Y-144163777D01*
X170018094Y-144163777D01*
X170022528Y-144166882D01*
X170021521Y-144168319D01*
X170064297Y-144213190D01*
X170077513Y-144281798D01*
X170051540Y-144346660D01*
X170021953Y-144372297D01*
X170022528Y-144373118D01*
X170018094Y-144376222D01*
X170018093Y-144376223D01*
X169826213Y-144510579D01*
X169826211Y-144510580D01*
X169826208Y-144510583D01*
X169660583Y-144676208D01*
X169660580Y-144676211D01*
X169660579Y-144676213D01*
X169526223Y-144868093D01*
X169427229Y-145080387D01*
X169427225Y-145080396D01*
X169366603Y-145306643D01*
X169366601Y-145306653D01*
X169346186Y-145539999D01*
X169346186Y-145540000D01*
X169366601Y-145773346D01*
X169366603Y-145773356D01*
X169427225Y-145999603D01*
X169427227Y-145999607D01*
X169427228Y-145999611D01*
X169526223Y-146211907D01*
X169660579Y-146403787D01*
X169826213Y-146569421D01*
X170018093Y-146703777D01*
X170018094Y-146703777D01*
X170022528Y-146706882D01*
X170021521Y-146708319D01*
X170064297Y-146753190D01*
X170077513Y-146821798D01*
X170051540Y-146886660D01*
X170021953Y-146912297D01*
X170022528Y-146913118D01*
X170018094Y-146916222D01*
X170018093Y-146916223D01*
X169826213Y-147050579D01*
X169826211Y-147050580D01*
X169826208Y-147050583D01*
X169660583Y-147216208D01*
X169660580Y-147216211D01*
X169660579Y-147216213D01*
X169526223Y-147408093D01*
X169436737Y-147599998D01*
X169427229Y-147620387D01*
X169427225Y-147620396D01*
X169366603Y-147846643D01*
X169366601Y-147846653D01*
X169346186Y-148079999D01*
X169346186Y-148080000D01*
X169366601Y-148313346D01*
X169366603Y-148313356D01*
X169427225Y-148539603D01*
X169427227Y-148539607D01*
X169427228Y-148539611D01*
X169526223Y-148751907D01*
X169660579Y-148943787D01*
X169826213Y-149109421D01*
X170018093Y-149243777D01*
X170018094Y-149243777D01*
X170022528Y-149246882D01*
X170021521Y-149248319D01*
X170064297Y-149293190D01*
X170077513Y-149361798D01*
X170051540Y-149426660D01*
X170021953Y-149452297D01*
X170022528Y-149453118D01*
X170018094Y-149456222D01*
X170018093Y-149456223D01*
X169826213Y-149590579D01*
X169826211Y-149590580D01*
X169826208Y-149590583D01*
X169660583Y-149756208D01*
X169526223Y-149948093D01*
X169427229Y-150160387D01*
X169427225Y-150160396D01*
X169366603Y-150386643D01*
X169366601Y-150386653D01*
X169346186Y-150619999D01*
X169346186Y-150620000D01*
X169366601Y-150853346D01*
X169366603Y-150853356D01*
X169427225Y-151079603D01*
X169427227Y-151079607D01*
X169427228Y-151079611D01*
X169526223Y-151291907D01*
X169660579Y-151483787D01*
X169826213Y-151649421D01*
X170018093Y-151783777D01*
X170230389Y-151882772D01*
X170456649Y-151943398D01*
X170643329Y-151959730D01*
X170689999Y-151963814D01*
X170690000Y-151963814D01*
X170690001Y-151963814D01*
X170728891Y-151960411D01*
X170923351Y-151943398D01*
X171149611Y-151882772D01*
X171361907Y-151783777D01*
X171553787Y-151649421D01*
X171719421Y-151483787D01*
X171853777Y-151291907D01*
X171952772Y-151079611D01*
X172013398Y-150853351D01*
X172033814Y-150620000D01*
X172013398Y-150386649D01*
X171952772Y-150160389D01*
X171853777Y-149948093D01*
X171719421Y-149756213D01*
X171553787Y-149590579D01*
X171361907Y-149456223D01*
X171361905Y-149456222D01*
X171357472Y-149453118D01*
X171358481Y-149451676D01*
X171315712Y-149406828D01*
X171302484Y-149338222D01*
X171328447Y-149273355D01*
X171358048Y-149247705D01*
X171357472Y-149246882D01*
X171361905Y-149243777D01*
X171361907Y-149243777D01*
X171553787Y-149109421D01*
X171719421Y-148943787D01*
X171853777Y-148751907D01*
X171952772Y-148539611D01*
X172013398Y-148313351D01*
X172033814Y-148080000D01*
X172013398Y-147846649D01*
X171952772Y-147620389D01*
X171853777Y-147408093D01*
X171719421Y-147216213D01*
X171553787Y-147050579D01*
X171361907Y-146916223D01*
X171361905Y-146916222D01*
X171357472Y-146913118D01*
X171358481Y-146911676D01*
X171315712Y-146866828D01*
X171302484Y-146798222D01*
X171328447Y-146733355D01*
X171358048Y-146707705D01*
X171357472Y-146706882D01*
X171361905Y-146703777D01*
X171361907Y-146703777D01*
X171553787Y-146569421D01*
X171719421Y-146403787D01*
X171853777Y-146211907D01*
X171952772Y-145999611D01*
X172013398Y-145773351D01*
X172033814Y-145540000D01*
X172013398Y-145306649D01*
X171952772Y-145080389D01*
X171853777Y-144868093D01*
X171719421Y-144676213D01*
X171553787Y-144510579D01*
X171361907Y-144376223D01*
X171361905Y-144376222D01*
X171357472Y-144373118D01*
X171358481Y-144371676D01*
X171315712Y-144326828D01*
X171302484Y-144258222D01*
X171328447Y-144193355D01*
X171358048Y-144167705D01*
X171357472Y-144166882D01*
X171361905Y-144163777D01*
X171361907Y-144163777D01*
X171553787Y-144029421D01*
X171719421Y-143863787D01*
X171853777Y-143671907D01*
X171952772Y-143459611D01*
X172013398Y-143233351D01*
X172033814Y-143000000D01*
X172031496Y-142973511D01*
X172018803Y-142828430D01*
X172013398Y-142766649D01*
X171952772Y-142540389D01*
X171853777Y-142328093D01*
X171719421Y-142136213D01*
X171553787Y-141970579D01*
X171361907Y-141836223D01*
X171361905Y-141836222D01*
X171357472Y-141833118D01*
X171358481Y-141831676D01*
X171315712Y-141786828D01*
X171302484Y-141718222D01*
X171328447Y-141653355D01*
X171358048Y-141627705D01*
X171357472Y-141626882D01*
X171361905Y-141623777D01*
X171361907Y-141623777D01*
X171553787Y-141489421D01*
X171719421Y-141323787D01*
X171853777Y-141131907D01*
X171952772Y-140919611D01*
X172013398Y-140693351D01*
X172033814Y-140460000D01*
X172013398Y-140226649D01*
X171952772Y-140000389D01*
X171891459Y-139868904D01*
X171880968Y-139799827D01*
X171909488Y-139736043D01*
X171967965Y-139697804D01*
X172003842Y-139692500D01*
X176996158Y-139692500D01*
X177063197Y-139712185D01*
X177108952Y-139764989D01*
X177118896Y-139834147D01*
X177108540Y-139868904D01*
X177090364Y-139907883D01*
X177047229Y-140000387D01*
X177047225Y-140000396D01*
X176986603Y-140226643D01*
X176986601Y-140226653D01*
X176966186Y-140459999D01*
X176966186Y-140460000D01*
X176986601Y-140693346D01*
X176986603Y-140693356D01*
X177047225Y-140919603D01*
X177047227Y-140919607D01*
X177047228Y-140919611D01*
X177146223Y-141131907D01*
X177280579Y-141323787D01*
X177446213Y-141489421D01*
X177638093Y-141623777D01*
X177638094Y-141623777D01*
X177642528Y-141626882D01*
X177641613Y-141628187D01*
X177684787Y-141673456D01*
X177698018Y-141742061D01*
X177672058Y-141806929D01*
X177642236Y-141832779D01*
X177642778Y-141833553D01*
X177557099Y-141893544D01*
X177557098Y-141893545D01*
X178132580Y-142469026D01*
X178094311Y-142479281D01*
X177966889Y-142552849D01*
X177862849Y-142656889D01*
X177789281Y-142784311D01*
X177779026Y-142822579D01*
X177203545Y-142247098D01*
X177203544Y-142247099D01*
X177146659Y-142328341D01*
X177047701Y-142540558D01*
X177047697Y-142540567D01*
X176987097Y-142766731D01*
X176987095Y-142766741D01*
X176966688Y-142999998D01*
X176966688Y-143000001D01*
X176987095Y-143233258D01*
X176987097Y-143233268D01*
X177047697Y-143459432D01*
X177047701Y-143459441D01*
X177146657Y-143671654D01*
X177146658Y-143671656D01*
X177203545Y-143752899D01*
X177203546Y-143752900D01*
X177779026Y-143177419D01*
X177789281Y-143215689D01*
X177862849Y-143343111D01*
X177966889Y-143447151D01*
X178094311Y-143520719D01*
X178132579Y-143530972D01*
X177557098Y-144106453D01*
X177642779Y-144166447D01*
X177641817Y-144167820D01*
X177684786Y-144212872D01*
X177698019Y-144281477D01*
X177672061Y-144346346D01*
X177642017Y-144372388D01*
X177642528Y-144373118D01*
X177638094Y-144376222D01*
X177638093Y-144376223D01*
X177446213Y-144510579D01*
X177446211Y-144510580D01*
X177446208Y-144510583D01*
X177280583Y-144676208D01*
X177280580Y-144676211D01*
X177280579Y-144676213D01*
X177146223Y-144868093D01*
X177047229Y-145080387D01*
X177047225Y-145080396D01*
X176986603Y-145306643D01*
X176986601Y-145306653D01*
X176966186Y-145539999D01*
X176966186Y-145540000D01*
X176986601Y-145773346D01*
X176986603Y-145773356D01*
X177047225Y-145999603D01*
X177047227Y-145999607D01*
X177047228Y-145999611D01*
X177146223Y-146211907D01*
X177280579Y-146403787D01*
X177446213Y-146569421D01*
X177638093Y-146703777D01*
X177638094Y-146703777D01*
X177642528Y-146706882D01*
X177641521Y-146708319D01*
X177684297Y-146753190D01*
X177697513Y-146821798D01*
X177671540Y-146886660D01*
X177641953Y-146912297D01*
X177642528Y-146913118D01*
X177638094Y-146916222D01*
X177638093Y-146916223D01*
X177446213Y-147050579D01*
X177446211Y-147050580D01*
X177446208Y-147050583D01*
X177280583Y-147216208D01*
X177280580Y-147216211D01*
X177280579Y-147216213D01*
X177146223Y-147408093D01*
X177056737Y-147599998D01*
X177047229Y-147620387D01*
X177047225Y-147620396D01*
X176986603Y-147846643D01*
X176986601Y-147846653D01*
X176966186Y-148079999D01*
X176966186Y-148080000D01*
X176986601Y-148313346D01*
X176986603Y-148313356D01*
X177047225Y-148539603D01*
X177047227Y-148539607D01*
X177047228Y-148539611D01*
X177146223Y-148751907D01*
X177280579Y-148943787D01*
X177446213Y-149109421D01*
X177638093Y-149243777D01*
X177638094Y-149243777D01*
X177642528Y-149246882D01*
X177641521Y-149248319D01*
X177684297Y-149293190D01*
X177697513Y-149361798D01*
X177671540Y-149426660D01*
X177641953Y-149452297D01*
X177642528Y-149453118D01*
X177638094Y-149456222D01*
X177638093Y-149456223D01*
X177446213Y-149590579D01*
X177446211Y-149590580D01*
X177446208Y-149590583D01*
X177280583Y-149756208D01*
X177146223Y-149948093D01*
X177047229Y-150160387D01*
X177047225Y-150160396D01*
X176986603Y-150386643D01*
X176986601Y-150386653D01*
X176966186Y-150619999D01*
X176966186Y-150620000D01*
X176986601Y-150853346D01*
X176986603Y-150853356D01*
X177047225Y-151079603D01*
X177047227Y-151079607D01*
X177047228Y-151079611D01*
X177146223Y-151291907D01*
X177280579Y-151483787D01*
X177446213Y-151649421D01*
X177638093Y-151783777D01*
X177850389Y-151882772D01*
X178076649Y-151943398D01*
X178263329Y-151959730D01*
X178309999Y-151963814D01*
X178310000Y-151963814D01*
X178310001Y-151963814D01*
X178348891Y-151960411D01*
X178543351Y-151943398D01*
X178769611Y-151882772D01*
X178981907Y-151783777D01*
X179173787Y-151649421D01*
X179339421Y-151483787D01*
X179473777Y-151291907D01*
X179572772Y-151079611D01*
X179633398Y-150853351D01*
X179653814Y-150620000D01*
X179633398Y-150386649D01*
X179572772Y-150160389D01*
X179473777Y-149948093D01*
X179339421Y-149756213D01*
X179173787Y-149590579D01*
X178981907Y-149456223D01*
X178981905Y-149456222D01*
X178977472Y-149453118D01*
X178978481Y-149451676D01*
X178935712Y-149406828D01*
X178922484Y-149338222D01*
X178948447Y-149273355D01*
X178978048Y-149247705D01*
X178977472Y-149246882D01*
X178981905Y-149243777D01*
X178981907Y-149243777D01*
X179173787Y-149109421D01*
X179339421Y-148943787D01*
X179473777Y-148751907D01*
X179572772Y-148539611D01*
X179633398Y-148313351D01*
X179653814Y-148080000D01*
X179633398Y-147846649D01*
X179572772Y-147620389D01*
X179473777Y-147408093D01*
X179339421Y-147216213D01*
X179173787Y-147050579D01*
X178981907Y-146916223D01*
X178981905Y-146916222D01*
X178977472Y-146913118D01*
X178978481Y-146911676D01*
X178935712Y-146866828D01*
X178922484Y-146798222D01*
X178948447Y-146733355D01*
X178978048Y-146707705D01*
X178977472Y-146706882D01*
X178981905Y-146703777D01*
X178981907Y-146703777D01*
X179173787Y-146569421D01*
X179339421Y-146403787D01*
X179473777Y-146211907D01*
X179572772Y-145999611D01*
X179633398Y-145773351D01*
X179653814Y-145540000D01*
X179633398Y-145306649D01*
X179572772Y-145080389D01*
X179473777Y-144868093D01*
X179339421Y-144676213D01*
X179173787Y-144510579D01*
X178981907Y-144376223D01*
X178981905Y-144376222D01*
X178977472Y-144373118D01*
X178978384Y-144371814D01*
X178935207Y-144326532D01*
X178921982Y-144257926D01*
X178947949Y-144193060D01*
X178977765Y-144167224D01*
X178977221Y-144166447D01*
X179062900Y-144106453D01*
X178487420Y-143530972D01*
X178525689Y-143520719D01*
X178653111Y-143447151D01*
X178757151Y-143343111D01*
X178830719Y-143215689D01*
X178840973Y-143177420D01*
X179416453Y-143752900D01*
X179473342Y-143671655D01*
X179572298Y-143459441D01*
X179572302Y-143459432D01*
X179582868Y-143419998D01*
X181694532Y-143419998D01*
X181694532Y-143420001D01*
X181714364Y-143646686D01*
X181714366Y-143646697D01*
X181773258Y-143866488D01*
X181773261Y-143866497D01*
X181869431Y-144072732D01*
X181869432Y-144072734D01*
X181999954Y-144259141D01*
X182160858Y-144420045D01*
X182160861Y-144420047D01*
X182347266Y-144550568D01*
X182553504Y-144646739D01*
X182773308Y-144705635D01*
X182935230Y-144719801D01*
X182999998Y-144725468D01*
X183000000Y-144725468D01*
X183000002Y-144725468D01*
X183056673Y-144720509D01*
X183226692Y-144705635D01*
X183446496Y-144646739D01*
X183652734Y-144550568D01*
X183839139Y-144420047D01*
X184000047Y-144259139D01*
X184130568Y-144072734D01*
X184226739Y-143866496D01*
X184285635Y-143646692D01*
X184305468Y-143420000D01*
X184303690Y-143399683D01*
X184298417Y-143339411D01*
X184285635Y-143193308D01*
X184233838Y-142999998D01*
X184226741Y-142973511D01*
X184226738Y-142973502D01*
X184204789Y-142926433D01*
X184130568Y-142767266D01*
X184004073Y-142586611D01*
X184000045Y-142580858D01*
X183839141Y-142419954D01*
X183652734Y-142289432D01*
X183652732Y-142289431D01*
X183446497Y-142193261D01*
X183446488Y-142193258D01*
X183226697Y-142134366D01*
X183226693Y-142134365D01*
X183226692Y-142134365D01*
X183226691Y-142134364D01*
X183226686Y-142134364D01*
X183102825Y-142123528D01*
X183037756Y-142098076D01*
X182998367Y-142043682D01*
X182972646Y-142089061D01*
X182910799Y-142121569D01*
X182897175Y-142123528D01*
X182773312Y-142134364D01*
X182773302Y-142134366D01*
X182553511Y-142193258D01*
X182553502Y-142193261D01*
X182347267Y-142289431D01*
X182347265Y-142289432D01*
X182160858Y-142419954D01*
X181999954Y-142580858D01*
X181869432Y-142767265D01*
X181869431Y-142767267D01*
X181773261Y-142973502D01*
X181773258Y-142973511D01*
X181714366Y-143193302D01*
X181714364Y-143193313D01*
X181694532Y-143419998D01*
X179582868Y-143419998D01*
X179632902Y-143233268D01*
X179632904Y-143233258D01*
X179653312Y-143000001D01*
X179653312Y-142999998D01*
X179632904Y-142766741D01*
X179632902Y-142766731D01*
X179572302Y-142540567D01*
X179572298Y-142540558D01*
X179473342Y-142328345D01*
X179473341Y-142328343D01*
X179416453Y-142247099D01*
X179416453Y-142247098D01*
X178840972Y-142822579D01*
X178830719Y-142784311D01*
X178757151Y-142656889D01*
X178653111Y-142552849D01*
X178525689Y-142479281D01*
X178487419Y-142469026D01*
X179062900Y-141893546D01*
X179062899Y-141893545D01*
X178977221Y-141833553D01*
X178978181Y-141832181D01*
X178935207Y-141787115D01*
X178921981Y-141718509D01*
X178947946Y-141653643D01*
X178977985Y-141627615D01*
X178977472Y-141626882D01*
X178981905Y-141623777D01*
X178981907Y-141623777D01*
X179173787Y-141489421D01*
X179339421Y-141323787D01*
X179473777Y-141131907D01*
X179572772Y-140919611D01*
X179633398Y-140693351D01*
X179653814Y-140460000D01*
X179633398Y-140226649D01*
X179572772Y-140000389D01*
X179511459Y-139868904D01*
X179500968Y-139799827D01*
X179529488Y-139736043D01*
X179587965Y-139697804D01*
X179623842Y-139692500D01*
X181211903Y-139692500D01*
X181278942Y-139712185D01*
X181299584Y-139728819D01*
X181708058Y-140137293D01*
X181741543Y-140198616D01*
X181740152Y-140257067D01*
X181714366Y-140353302D01*
X181714364Y-140353313D01*
X181694532Y-140579998D01*
X181694532Y-140580001D01*
X181714364Y-140806686D01*
X181714366Y-140806697D01*
X181773258Y-141026488D01*
X181773261Y-141026497D01*
X181869431Y-141232732D01*
X181869432Y-141232734D01*
X181999954Y-141419141D01*
X182160858Y-141580045D01*
X182160861Y-141580047D01*
X182347266Y-141710568D01*
X182553504Y-141806739D01*
X182773308Y-141865635D01*
X182887141Y-141875594D01*
X182897175Y-141876472D01*
X182962243Y-141901925D01*
X183001631Y-141956317D01*
X183027353Y-141910939D01*
X183089200Y-141878431D01*
X183102825Y-141876472D01*
X183109699Y-141875870D01*
X183226692Y-141865635D01*
X183446496Y-141806739D01*
X183652734Y-141710568D01*
X183839139Y-141580047D01*
X184000047Y-141419139D01*
X184130568Y-141232734D01*
X184226739Y-141026496D01*
X184285635Y-140806692D01*
X184305468Y-140580000D01*
X184285635Y-140353308D01*
X184226739Y-140133504D01*
X184130568Y-139927266D01*
X184032839Y-139787693D01*
X184000045Y-139740858D01*
X183839141Y-139579954D01*
X183652734Y-139449432D01*
X183652732Y-139449431D01*
X183446497Y-139353261D01*
X183446488Y-139353258D01*
X183226697Y-139294366D01*
X183226693Y-139294365D01*
X183226692Y-139294365D01*
X183226691Y-139294364D01*
X183226686Y-139294364D01*
X183000002Y-139274532D01*
X182999998Y-139274532D01*
X182773313Y-139294364D01*
X182773302Y-139294366D01*
X182677067Y-139320152D01*
X182607217Y-139318489D01*
X182557293Y-139288058D01*
X182497915Y-139228680D01*
X182464430Y-139167357D01*
X182469414Y-139097665D01*
X182497911Y-139053323D01*
X184478106Y-137073127D01*
X184478111Y-137073124D01*
X184488314Y-137062920D01*
X184488316Y-137062920D01*
X184600120Y-136951116D01*
X184679177Y-136814184D01*
X184720100Y-136661457D01*
X184720100Y-126429360D01*
X184720101Y-126429347D01*
X184720101Y-126261244D01*
X184717364Y-126251028D01*
X184679177Y-126108516D01*
X184616029Y-125999139D01*
X184600124Y-125971590D01*
X184600118Y-125971582D01*
X184441268Y-125812732D01*
X184264840Y-125636305D01*
X184231356Y-125574983D01*
X184232747Y-125516531D01*
X184258535Y-125420292D01*
X184278368Y-125193600D01*
X184275428Y-125160001D01*
X184265704Y-125048848D01*
X184258535Y-124966908D01*
X184199639Y-124747104D01*
X184103468Y-124540866D01*
X183972947Y-124354461D01*
X183972945Y-124354458D01*
X183812041Y-124193554D01*
X183625634Y-124063032D01*
X183625632Y-124063031D01*
X183419397Y-123966861D01*
X183419388Y-123966858D01*
X183199597Y-123907966D01*
X183199593Y-123907965D01*
X183199592Y-123907965D01*
X183199591Y-123907964D01*
X183199586Y-123907964D01*
X182972902Y-123888132D01*
X182972898Y-123888132D01*
X182746213Y-123907964D01*
X182746202Y-123907966D01*
X182526411Y-123966858D01*
X182526402Y-123966861D01*
X182320167Y-124063031D01*
X182320165Y-124063032D01*
X182133758Y-124193554D01*
X181972854Y-124354458D01*
X181842332Y-124540865D01*
X181842331Y-124540867D01*
X181746161Y-124747102D01*
X181746158Y-124747111D01*
X181687266Y-124966902D01*
X181687264Y-124966913D01*
X181667432Y-125193598D01*
X181667432Y-125193601D01*
X181687264Y-125420286D01*
X181687266Y-125420297D01*
X181746158Y-125640088D01*
X181746161Y-125640097D01*
X181842331Y-125846332D01*
X181842332Y-125846334D01*
X181972854Y-126032741D01*
X182133758Y-126193645D01*
X182133761Y-126193647D01*
X182320166Y-126324168D01*
X182526404Y-126420339D01*
X182746208Y-126479235D01*
X182908130Y-126493401D01*
X182972898Y-126499068D01*
X182972900Y-126499068D01*
X182972902Y-126499068D01*
X183029573Y-126494109D01*
X183199592Y-126479235D01*
X183295832Y-126453447D01*
X183365681Y-126455110D01*
X183415606Y-126485541D01*
X183482781Y-126552716D01*
X183516266Y-126614039D01*
X183519100Y-126640397D01*
X183519100Y-129051115D01*
X183499415Y-129118154D01*
X183446611Y-129163909D01*
X183377453Y-129173853D01*
X183363007Y-129170890D01*
X183226697Y-129134366D01*
X183226693Y-129134365D01*
X183226692Y-129134365D01*
X183226691Y-129134364D01*
X183226686Y-129134364D01*
X183000002Y-129114532D01*
X182999998Y-129114532D01*
X182773313Y-129134364D01*
X182773302Y-129134366D01*
X182553511Y-129193258D01*
X182553502Y-129193261D01*
X182347267Y-129289431D01*
X182347265Y-129289432D01*
X182160858Y-129419954D01*
X181999954Y-129580858D01*
X181923450Y-129690118D01*
X181869881Y-129766624D01*
X181815307Y-129810248D01*
X181768308Y-129819500D01*
X175159157Y-129819500D01*
X175001042Y-129819500D01*
X174848315Y-129860423D01*
X174848314Y-129860423D01*
X174848312Y-129860424D01*
X174848309Y-129860425D01*
X174798196Y-129889359D01*
X174798195Y-129889360D01*
X174754789Y-129914420D01*
X174711385Y-129939479D01*
X174711382Y-129939481D01*
X174599578Y-130051286D01*
X170645882Y-134004981D01*
X170584559Y-134038466D01*
X170558201Y-134041300D01*
X169803929Y-134041300D01*
X169803923Y-134041301D01*
X169744316Y-134047708D01*
X169609471Y-134098002D01*
X169609464Y-134098006D01*
X169494256Y-134184252D01*
X169494255Y-134184253D01*
X169494254Y-134184254D01*
X169455574Y-134235923D01*
X169399642Y-134277793D01*
X169329950Y-134282777D01*
X169268628Y-134249292D01*
X168587690Y-133568355D01*
X168587688Y-133568352D01*
X168468817Y-133449481D01*
X168468816Y-133449480D01*
X168382004Y-133399360D01*
X168382004Y-133399359D01*
X168382000Y-133399358D01*
X168331885Y-133370423D01*
X168179157Y-133329499D01*
X168021043Y-133329499D01*
X168013447Y-133329499D01*
X168013431Y-133329500D01*
X166039499Y-133329500D01*
X165972460Y-133309815D01*
X165926705Y-133257011D01*
X165915499Y-133205500D01*
X165915499Y-133032129D01*
X165915498Y-133032123D01*
X165915497Y-133032116D01*
X165909091Y-132972517D01*
X165890701Y-132923212D01*
X165858797Y-132837671D01*
X165858795Y-132837668D01*
X165781421Y-132734309D01*
X165757004Y-132668848D01*
X165771855Y-132600575D01*
X165781416Y-132585696D01*
X165858796Y-132482331D01*
X165909091Y-132347483D01*
X165915500Y-132287873D01*
X165915499Y-130492128D01*
X165909091Y-130432517D01*
X165874367Y-130339418D01*
X165858797Y-130297671D01*
X165858795Y-130297668D01*
X165781421Y-130194309D01*
X165757004Y-130128848D01*
X165771855Y-130060575D01*
X165781416Y-130045696D01*
X165858796Y-129942331D01*
X165909091Y-129807483D01*
X165915500Y-129747873D01*
X165915499Y-127952128D01*
X165909091Y-127892517D01*
X165879422Y-127812971D01*
X165858797Y-127757671D01*
X165858795Y-127757668D01*
X165781421Y-127654309D01*
X165757004Y-127588848D01*
X165771855Y-127520575D01*
X165781416Y-127505696D01*
X165858796Y-127402331D01*
X165909091Y-127267483D01*
X165915500Y-127207873D01*
X165915499Y-125412128D01*
X165909091Y-125352517D01*
X165867982Y-125242299D01*
X165858797Y-125217671D01*
X165858795Y-125217668D01*
X165815624Y-125159998D01*
X175194532Y-125159998D01*
X175194532Y-125160001D01*
X175214364Y-125386686D01*
X175214366Y-125386697D01*
X175273258Y-125606488D01*
X175273261Y-125606497D01*
X175369431Y-125812732D01*
X175369432Y-125812734D01*
X175499954Y-125999141D01*
X175660858Y-126160045D01*
X175660861Y-126160047D01*
X175847266Y-126290568D01*
X176053504Y-126386739D01*
X176273308Y-126445635D01*
X176435230Y-126459801D01*
X176499998Y-126465468D01*
X176500000Y-126465468D01*
X176500002Y-126465468D01*
X176556673Y-126460509D01*
X176726692Y-126445635D01*
X176946496Y-126386739D01*
X177152734Y-126290568D01*
X177339139Y-126160047D01*
X177500047Y-125999139D01*
X177630568Y-125812734D01*
X177726739Y-125606496D01*
X177785635Y-125386692D01*
X177805468Y-125160000D01*
X177802946Y-125131179D01*
X177788575Y-124966913D01*
X177785635Y-124933308D01*
X177726739Y-124713504D01*
X177630568Y-124507266D01*
X177500047Y-124320861D01*
X177500045Y-124320858D01*
X177339141Y-124159954D01*
X177152734Y-124029432D01*
X177152732Y-124029431D01*
X176946497Y-123933261D01*
X176946488Y-123933258D01*
X176726697Y-123874366D01*
X176726693Y-123874365D01*
X176726692Y-123874365D01*
X176726691Y-123874364D01*
X176726686Y-123874364D01*
X176500002Y-123854532D01*
X176499998Y-123854532D01*
X176273313Y-123874364D01*
X176273302Y-123874366D01*
X176053511Y-123933258D01*
X176053502Y-123933261D01*
X175847267Y-124029431D01*
X175847265Y-124029432D01*
X175660858Y-124159954D01*
X175499954Y-124320858D01*
X175369432Y-124507265D01*
X175369431Y-124507267D01*
X175273261Y-124713502D01*
X175273258Y-124713511D01*
X175214366Y-124933302D01*
X175214364Y-124933313D01*
X175194532Y-125159998D01*
X165815624Y-125159998D01*
X165781421Y-125114309D01*
X165757004Y-125048848D01*
X165771855Y-124980575D01*
X165781416Y-124965696D01*
X165858796Y-124862331D01*
X165909091Y-124727483D01*
X165915500Y-124667873D01*
X165915499Y-122872128D01*
X165909091Y-122812517D01*
X165858796Y-122677669D01*
X165781421Y-122574309D01*
X165757004Y-122508848D01*
X165771855Y-122440575D01*
X165781416Y-122425696D01*
X165858796Y-122322331D01*
X165909091Y-122187483D01*
X165915500Y-122127873D01*
X165915499Y-120332128D01*
X165909091Y-120272517D01*
X165858796Y-120137669D01*
X165781421Y-120034309D01*
X165757004Y-119968848D01*
X165771855Y-119900575D01*
X165781416Y-119885696D01*
X165858796Y-119782331D01*
X165909091Y-119647483D01*
X165915500Y-119587873D01*
X165915499Y-117792128D01*
X165909091Y-117732517D01*
X165858796Y-117597669D01*
X165781109Y-117493893D01*
X165756692Y-117428430D01*
X165771543Y-117360157D01*
X165781110Y-117345271D01*
X165858352Y-117242089D01*
X165858354Y-117242086D01*
X165908596Y-117107379D01*
X165908598Y-117107372D01*
X165914999Y-117047844D01*
X165915000Y-117047827D01*
X165915000Y-116400000D01*
X163209560Y-116400000D01*
X163240245Y-116346853D01*
X163275000Y-116217143D01*
X163275000Y-116082857D01*
X163240245Y-115953147D01*
X163209560Y-115900000D01*
X165915000Y-115900000D01*
X165915000Y-115252172D01*
X165914999Y-115252155D01*
X165908598Y-115192627D01*
X165908596Y-115192620D01*
X165858354Y-115057913D01*
X165858352Y-115057910D01*
X165814999Y-114999998D01*
X175194532Y-114999998D01*
X175194532Y-115000001D01*
X175214364Y-115226686D01*
X175214366Y-115226697D01*
X175273258Y-115446488D01*
X175273261Y-115446497D01*
X175369431Y-115652732D01*
X175369432Y-115652734D01*
X175499954Y-115839141D01*
X175660858Y-116000045D01*
X175660861Y-116000047D01*
X175847266Y-116130568D01*
X176053504Y-116226739D01*
X176273308Y-116285635D01*
X176435230Y-116299801D01*
X176499998Y-116305468D01*
X176500000Y-116305468D01*
X176500002Y-116305468D01*
X176556673Y-116300509D01*
X176726692Y-116285635D01*
X176946496Y-116226739D01*
X177152734Y-116130568D01*
X177339139Y-116000047D01*
X177500047Y-115839139D01*
X177630568Y-115652734D01*
X177726739Y-115446496D01*
X177785635Y-115226692D01*
X177802529Y-115033598D01*
X181667432Y-115033598D01*
X181667432Y-115033601D01*
X181687264Y-115260286D01*
X181687266Y-115260297D01*
X181746158Y-115480088D01*
X181746161Y-115480097D01*
X181842331Y-115686332D01*
X181842332Y-115686334D01*
X181972854Y-115872741D01*
X182133758Y-116033645D01*
X182133761Y-116033647D01*
X182320166Y-116164168D01*
X182526404Y-116260339D01*
X182746208Y-116319235D01*
X182908130Y-116333401D01*
X182972898Y-116339068D01*
X182972900Y-116339068D01*
X182972902Y-116339068D01*
X183029573Y-116334109D01*
X183199592Y-116319235D01*
X183419396Y-116260339D01*
X183625634Y-116164168D01*
X183812039Y-116033647D01*
X183972947Y-115872739D01*
X184103468Y-115686334D01*
X184199639Y-115480096D01*
X184258535Y-115260292D01*
X184278368Y-115033600D01*
X184275428Y-115000001D01*
X184270129Y-114939426D01*
X184258535Y-114806908D01*
X184199639Y-114587104D01*
X184103468Y-114380866D01*
X183972947Y-114194461D01*
X183972945Y-114194458D01*
X183812041Y-114033554D01*
X183625634Y-113903032D01*
X183625632Y-113903031D01*
X183419397Y-113806861D01*
X183419388Y-113806858D01*
X183199597Y-113747966D01*
X183199593Y-113747965D01*
X183199592Y-113747965D01*
X183199591Y-113747964D01*
X183199586Y-113747964D01*
X182972902Y-113728132D01*
X182972898Y-113728132D01*
X182746213Y-113747964D01*
X182746202Y-113747966D01*
X182526411Y-113806858D01*
X182526402Y-113806861D01*
X182320167Y-113903031D01*
X182320165Y-113903032D01*
X182133758Y-114033554D01*
X181972854Y-114194458D01*
X181842332Y-114380865D01*
X181842331Y-114380867D01*
X181746161Y-114587102D01*
X181746158Y-114587111D01*
X181687266Y-114806902D01*
X181687264Y-114806913D01*
X181667432Y-115033598D01*
X177802529Y-115033598D01*
X177805468Y-115000000D01*
X177801451Y-114954091D01*
X177788575Y-114806913D01*
X177785635Y-114773308D01*
X177726739Y-114553504D01*
X177630568Y-114347266D01*
X177500047Y-114160861D01*
X177500045Y-114160858D01*
X177339141Y-113999954D01*
X177152734Y-113869432D01*
X177152732Y-113869431D01*
X176946497Y-113773261D01*
X176946488Y-113773258D01*
X176726697Y-113714366D01*
X176726693Y-113714365D01*
X176726692Y-113714365D01*
X176726691Y-113714364D01*
X176726686Y-113714364D01*
X176500002Y-113694532D01*
X176499998Y-113694532D01*
X176273313Y-113714364D01*
X176273302Y-113714366D01*
X176053511Y-113773258D01*
X176053502Y-113773261D01*
X175847267Y-113869431D01*
X175847265Y-113869432D01*
X175660858Y-113999954D01*
X175499954Y-114160858D01*
X175369432Y-114347265D01*
X175369431Y-114347267D01*
X175273261Y-114553502D01*
X175273258Y-114553511D01*
X175214366Y-114773302D01*
X175214364Y-114773313D01*
X175194532Y-114999998D01*
X165814999Y-114999998D01*
X165781110Y-114954729D01*
X165756692Y-114889265D01*
X165771543Y-114820992D01*
X165781105Y-114806111D01*
X165858796Y-114702331D01*
X165909091Y-114567483D01*
X165915500Y-114507873D01*
X165915499Y-112712128D01*
X165909091Y-112652517D01*
X165858796Y-112517669D01*
X165781421Y-112414309D01*
X165757004Y-112348848D01*
X165771855Y-112280575D01*
X165781416Y-112265696D01*
X165858796Y-112162331D01*
X165909091Y-112027483D01*
X165915500Y-111967873D01*
X165915500Y-111893713D01*
X185649500Y-111893713D01*
X185649500Y-112106286D01*
X185677104Y-112280575D01*
X185682754Y-112316243D01*
X185748202Y-112517671D01*
X185748444Y-112518414D01*
X185844951Y-112707820D01*
X185969890Y-112879786D01*
X186120213Y-113030109D01*
X186292179Y-113155048D01*
X186292181Y-113155049D01*
X186292184Y-113155051D01*
X186481588Y-113251557D01*
X186683757Y-113317246D01*
X186893713Y-113350500D01*
X186893714Y-113350500D01*
X187106286Y-113350500D01*
X187106287Y-113350500D01*
X187316243Y-113317246D01*
X187518412Y-113251557D01*
X187707816Y-113155051D01*
X187743013Y-113129479D01*
X187879786Y-113030109D01*
X187879788Y-113030106D01*
X187879792Y-113030104D01*
X188030104Y-112879792D01*
X188030106Y-112879788D01*
X188030109Y-112879786D01*
X188155048Y-112707820D01*
X188155047Y-112707820D01*
X188155051Y-112707816D01*
X188251557Y-112518412D01*
X188317246Y-112316243D01*
X188350500Y-112106287D01*
X188350500Y-111893713D01*
X188317246Y-111683757D01*
X188251557Y-111481588D01*
X188155051Y-111292184D01*
X188155049Y-111292181D01*
X188155048Y-111292179D01*
X188030109Y-111120213D01*
X187879786Y-110969890D01*
X187707820Y-110844951D01*
X187518414Y-110748444D01*
X187518413Y-110748443D01*
X187518412Y-110748443D01*
X187316243Y-110682754D01*
X187316241Y-110682753D01*
X187316240Y-110682753D01*
X187154957Y-110657208D01*
X187106287Y-110649500D01*
X186893713Y-110649500D01*
X186845042Y-110657208D01*
X186683760Y-110682753D01*
X186683757Y-110682754D01*
X186496189Y-110743699D01*
X186481585Y-110748444D01*
X186292179Y-110844951D01*
X186120213Y-110969890D01*
X185969890Y-111120213D01*
X185844951Y-111292179D01*
X185748444Y-111481585D01*
X185682753Y-111683760D01*
X185649500Y-111893713D01*
X165915500Y-111893713D01*
X165915499Y-110172128D01*
X165909091Y-110112517D01*
X165875901Y-110023531D01*
X165858797Y-109977671D01*
X165858793Y-109977664D01*
X165772547Y-109862455D01*
X165772544Y-109862452D01*
X165722492Y-109824983D01*
X172399500Y-109824983D01*
X172399500Y-111175001D01*
X172399501Y-111175018D01*
X172410000Y-111277796D01*
X172410001Y-111277799D01*
X172465185Y-111444331D01*
X172465187Y-111444336D01*
X172488162Y-111481585D01*
X172557288Y-111593656D01*
X172681344Y-111717712D01*
X172830666Y-111809814D01*
X172997203Y-111864999D01*
X173099991Y-111875500D01*
X173900008Y-111875499D01*
X173900016Y-111875498D01*
X173900019Y-111875498D01*
X173965117Y-111868848D01*
X174002797Y-111864999D01*
X174169334Y-111809814D01*
X174318656Y-111717712D01*
X174442712Y-111593656D01*
X174482310Y-111529456D01*
X174534258Y-111482732D01*
X174603220Y-111471509D01*
X174667303Y-111499352D01*
X174675530Y-111506872D01*
X174783072Y-111614414D01*
X174923212Y-111716232D01*
X175077555Y-111794873D01*
X175242299Y-111848402D01*
X175413389Y-111875500D01*
X175413390Y-111875500D01*
X175586610Y-111875500D01*
X175586611Y-111875500D01*
X175757701Y-111848402D01*
X175922445Y-111794873D01*
X176076788Y-111716232D01*
X176216928Y-111614414D01*
X176339414Y-111491928D01*
X176399991Y-111408550D01*
X176455321Y-111365885D01*
X176524934Y-111359906D01*
X176586729Y-111392512D01*
X176600628Y-111408551D01*
X176660967Y-111491602D01*
X176783397Y-111614032D01*
X176923475Y-111715804D01*
X177077744Y-111794408D01*
X177242415Y-111847914D01*
X177242414Y-111847914D01*
X177249999Y-111849115D01*
X177250000Y-111849114D01*
X177250000Y-110780330D01*
X177269745Y-110800075D01*
X177355255Y-110849444D01*
X177450630Y-110875000D01*
X177549370Y-110875000D01*
X177644745Y-110849444D01*
X177730255Y-110800075D01*
X177750000Y-110780330D01*
X177750000Y-111849115D01*
X177757584Y-111847914D01*
X177922255Y-111794408D01*
X178076524Y-111715804D01*
X178216602Y-111614032D01*
X178339036Y-111491598D01*
X178399371Y-111408552D01*
X178454700Y-111365886D01*
X178524313Y-111359905D01*
X178586109Y-111392510D01*
X178600008Y-111408550D01*
X178616535Y-111431297D01*
X178660586Y-111491928D01*
X178783072Y-111614414D01*
X178923212Y-111716232D01*
X179077555Y-111794873D01*
X179242299Y-111848402D01*
X179413389Y-111875500D01*
X179413390Y-111875500D01*
X179586610Y-111875500D01*
X179586611Y-111875500D01*
X179757701Y-111848402D01*
X179922445Y-111794873D01*
X180076788Y-111716232D01*
X180216928Y-111614414D01*
X180339414Y-111491928D01*
X180441232Y-111351788D01*
X180519873Y-111197445D01*
X180573402Y-111032701D01*
X180600500Y-110861611D01*
X180600500Y-110138389D01*
X180573402Y-109967299D01*
X180519873Y-109802555D01*
X180441232Y-109648212D01*
X180339414Y-109508072D01*
X180216928Y-109385586D01*
X180076788Y-109283768D01*
X179922445Y-109205127D01*
X179757701Y-109151598D01*
X179757699Y-109151597D01*
X179757698Y-109151597D01*
X179626271Y-109130781D01*
X179586611Y-109124500D01*
X179413389Y-109124500D01*
X179373728Y-109130781D01*
X179242302Y-109151597D01*
X179077552Y-109205128D01*
X178923211Y-109283768D01*
X178843256Y-109341859D01*
X178783072Y-109385586D01*
X178783070Y-109385588D01*
X178783069Y-109385588D01*
X178660585Y-109508072D01*
X178600007Y-109591450D01*
X178544677Y-109634115D01*
X178475063Y-109640093D01*
X178413269Y-109607486D01*
X178399371Y-109591447D01*
X178339036Y-109508401D01*
X178216602Y-109385967D01*
X178076524Y-109284195D01*
X177922257Y-109205591D01*
X177757589Y-109152087D01*
X177757581Y-109152085D01*
X177750000Y-109150884D01*
X177750000Y-110219670D01*
X177730255Y-110199925D01*
X177644745Y-110150556D01*
X177549370Y-110125000D01*
X177450630Y-110125000D01*
X177355255Y-110150556D01*
X177269745Y-110199925D01*
X177250000Y-110219670D01*
X177250000Y-109150884D01*
X177249999Y-109150884D01*
X177242418Y-109152085D01*
X177242410Y-109152087D01*
X177077742Y-109205591D01*
X176923475Y-109284195D01*
X176783397Y-109385967D01*
X176660965Y-109508399D01*
X176660961Y-109508404D01*
X176600627Y-109591448D01*
X176545297Y-109634114D01*
X176475684Y-109640093D01*
X176413889Y-109607488D01*
X176399991Y-109591449D01*
X176399990Y-109591447D01*
X176339414Y-109508072D01*
X176216928Y-109385586D01*
X176076788Y-109283768D01*
X175922445Y-109205127D01*
X175757701Y-109151598D01*
X175757699Y-109151597D01*
X175757698Y-109151597D01*
X175626271Y-109130781D01*
X175586611Y-109124500D01*
X175413389Y-109124500D01*
X175373728Y-109130781D01*
X175242302Y-109151597D01*
X175077552Y-109205128D01*
X174923211Y-109283768D01*
X174783073Y-109385585D01*
X174675530Y-109493128D01*
X174614207Y-109526612D01*
X174544515Y-109521628D01*
X174488582Y-109479756D01*
X174482310Y-109470543D01*
X174442712Y-109406344D01*
X174318656Y-109282288D01*
X174193559Y-109205128D01*
X174169336Y-109190187D01*
X174169331Y-109190185D01*
X174167862Y-109189698D01*
X174002797Y-109135001D01*
X174002795Y-109135000D01*
X173900010Y-109124500D01*
X173099998Y-109124500D01*
X173099980Y-109124501D01*
X172997203Y-109135000D01*
X172997200Y-109135001D01*
X172830668Y-109190185D01*
X172830663Y-109190187D01*
X172681342Y-109282289D01*
X172557289Y-109406342D01*
X172465187Y-109555663D01*
X172465185Y-109555668D01*
X172448014Y-109607488D01*
X172410001Y-109722203D01*
X172410001Y-109722204D01*
X172410000Y-109722204D01*
X172399500Y-109824983D01*
X165722492Y-109824983D01*
X165657335Y-109776206D01*
X165657328Y-109776202D01*
X165522482Y-109725908D01*
X165522483Y-109725908D01*
X165462883Y-109719501D01*
X165462881Y-109719500D01*
X165462873Y-109719500D01*
X165462865Y-109719500D01*
X162829385Y-109719500D01*
X162818578Y-109719028D01*
X162765001Y-109714341D01*
X162764997Y-109714341D01*
X162711419Y-109719028D01*
X162700613Y-109719500D01*
X161867129Y-109719500D01*
X161867123Y-109719501D01*
X161807516Y-109725908D01*
X161672671Y-109776202D01*
X161672664Y-109776206D01*
X161557455Y-109862452D01*
X161557452Y-109862455D01*
X161471206Y-109977664D01*
X161471202Y-109977671D01*
X161420908Y-110112517D01*
X161415149Y-110166087D01*
X161414501Y-110172123D01*
X161414500Y-110172135D01*
X161414500Y-111005616D01*
X161414028Y-111016423D01*
X161409341Y-111069997D01*
X161409341Y-111070002D01*
X161414028Y-111123576D01*
X161414500Y-111134383D01*
X161414500Y-111967870D01*
X161414501Y-111967876D01*
X161420908Y-112027483D01*
X161471202Y-112162328D01*
X161471203Y-112162330D01*
X161548578Y-112265689D01*
X161572995Y-112331153D01*
X161558144Y-112399426D01*
X161548578Y-112414311D01*
X161471203Y-112517669D01*
X161471202Y-112517671D01*
X161420908Y-112652517D01*
X161414963Y-112707816D01*
X161414501Y-112712123D01*
X161414500Y-112712135D01*
X161414500Y-112959788D01*
X161394815Y-113026827D01*
X161352500Y-113067174D01*
X161331395Y-113079360D01*
X161287989Y-113104420D01*
X161244585Y-113129479D01*
X161244582Y-113129481D01*
X161132780Y-113241284D01*
X161132778Y-113241286D01*
X156879753Y-117494312D01*
X152629184Y-121744881D01*
X152567861Y-121778366D01*
X152541503Y-121781200D01*
X146459500Y-121781200D01*
X146392461Y-121761515D01*
X146346706Y-121708711D01*
X146335500Y-121657200D01*
X146335499Y-121294385D01*
X146335971Y-121283576D01*
X146340659Y-121230000D01*
X146340659Y-121229999D01*
X146335971Y-121176421D01*
X146335499Y-121165613D01*
X146335499Y-120332129D01*
X146335498Y-120332123D01*
X146335497Y-120332116D01*
X146329091Y-120272517D01*
X146278796Y-120137669D01*
X146201421Y-120034309D01*
X146177004Y-119968848D01*
X146191855Y-119900575D01*
X146201416Y-119885696D01*
X146278796Y-119782331D01*
X146329091Y-119647483D01*
X146335500Y-119587873D01*
X146335499Y-118754383D01*
X146335971Y-118743576D01*
X146340659Y-118690000D01*
X146340659Y-118689999D01*
X146335971Y-118636421D01*
X146335499Y-118625613D01*
X146335499Y-117792129D01*
X146335498Y-117792123D01*
X146335497Y-117792116D01*
X146329091Y-117732517D01*
X146278796Y-117597669D01*
X146201421Y-117494309D01*
X146177004Y-117428848D01*
X146191855Y-117360575D01*
X146201416Y-117345696D01*
X146278796Y-117242331D01*
X146329091Y-117107483D01*
X146335500Y-117047873D01*
X146335499Y-115252128D01*
X146329091Y-115192517D01*
X146328748Y-115191598D01*
X146278797Y-115057671D01*
X146278795Y-115057668D01*
X146263231Y-115036877D01*
X146201421Y-114954309D01*
X146177004Y-114888848D01*
X146191855Y-114820575D01*
X146201416Y-114805696D01*
X146278796Y-114702331D01*
X146329091Y-114567483D01*
X146335500Y-114507873D01*
X146335500Y-114229997D01*
X150194723Y-114229997D01*
X150194723Y-114230002D01*
X150213793Y-114447975D01*
X150213793Y-114447979D01*
X150270422Y-114659322D01*
X150270424Y-114659326D01*
X150270425Y-114659330D01*
X150290477Y-114702331D01*
X150362897Y-114857638D01*
X150372652Y-114871569D01*
X150488402Y-115036877D01*
X150643123Y-115191598D01*
X150822361Y-115317102D01*
X151020670Y-115409575D01*
X151232023Y-115466207D01*
X151414926Y-115482208D01*
X151449998Y-115485277D01*
X151450000Y-115485277D01*
X151450002Y-115485277D01*
X151478254Y-115482805D01*
X151667977Y-115466207D01*
X151879330Y-115409575D01*
X152077639Y-115317102D01*
X152256877Y-115191598D01*
X152411598Y-115036877D01*
X152537102Y-114857639D01*
X152629575Y-114659330D01*
X152686207Y-114447977D01*
X152705277Y-114230000D01*
X152705277Y-114229997D01*
X155044723Y-114229997D01*
X155044723Y-114230002D01*
X155063793Y-114447975D01*
X155063793Y-114447979D01*
X155120422Y-114659322D01*
X155120424Y-114659326D01*
X155120425Y-114659330D01*
X155140477Y-114702331D01*
X155212897Y-114857638D01*
X155222652Y-114871569D01*
X155338402Y-115036877D01*
X155493123Y-115191598D01*
X155672361Y-115317102D01*
X155870670Y-115409575D01*
X156082023Y-115466207D01*
X156264926Y-115482208D01*
X156299998Y-115485277D01*
X156300000Y-115485277D01*
X156300002Y-115485277D01*
X156328254Y-115482805D01*
X156517977Y-115466207D01*
X156729330Y-115409575D01*
X156927639Y-115317102D01*
X157106877Y-115191598D01*
X157261598Y-115036877D01*
X157387102Y-114857639D01*
X157479575Y-114659330D01*
X157536207Y-114447977D01*
X157555277Y-114230000D01*
X157536207Y-114012023D01*
X157498000Y-113869432D01*
X157479577Y-113800677D01*
X157479576Y-113800676D01*
X157479575Y-113800670D01*
X157387102Y-113602362D01*
X157387100Y-113602359D01*
X157387099Y-113602357D01*
X157261599Y-113423124D01*
X157188975Y-113350500D01*
X157106877Y-113268402D01*
X156968978Y-113171844D01*
X156927638Y-113142897D01*
X156765250Y-113067175D01*
X156729330Y-113050425D01*
X156729326Y-113050424D01*
X156729322Y-113050422D01*
X156517977Y-112993793D01*
X156300002Y-112974723D01*
X156299998Y-112974723D01*
X156154682Y-112987436D01*
X156082023Y-112993793D01*
X156082020Y-112993793D01*
X155870677Y-113050422D01*
X155870668Y-113050426D01*
X155672361Y-113142898D01*
X155672357Y-113142900D01*
X155493121Y-113268402D01*
X155338402Y-113423121D01*
X155212900Y-113602357D01*
X155212898Y-113602361D01*
X155120426Y-113800668D01*
X155120422Y-113800677D01*
X155063793Y-114012020D01*
X155063793Y-114012024D01*
X155044723Y-114229997D01*
X152705277Y-114229997D01*
X152686207Y-114012023D01*
X152648000Y-113869432D01*
X152629577Y-113800677D01*
X152629576Y-113800676D01*
X152629575Y-113800670D01*
X152537102Y-113602362D01*
X152537100Y-113602359D01*
X152537099Y-113602357D01*
X152411599Y-113423124D01*
X152338975Y-113350500D01*
X152256877Y-113268402D01*
X152118978Y-113171844D01*
X152077638Y-113142897D01*
X151915250Y-113067175D01*
X151879330Y-113050425D01*
X151879326Y-113050424D01*
X151879322Y-113050422D01*
X151667977Y-112993793D01*
X151450002Y-112974723D01*
X151449998Y-112974723D01*
X151304682Y-112987436D01*
X151232023Y-112993793D01*
X151232020Y-112993793D01*
X151020677Y-113050422D01*
X151020668Y-113050426D01*
X150822361Y-113142898D01*
X150822357Y-113142900D01*
X150643121Y-113268402D01*
X150488402Y-113423121D01*
X150362900Y-113602357D01*
X150362898Y-113602361D01*
X150270426Y-113800668D01*
X150270422Y-113800677D01*
X150213793Y-114012020D01*
X150213793Y-114012024D01*
X150194723Y-114229997D01*
X146335500Y-114229997D01*
X146335499Y-113674384D01*
X146335971Y-113663576D01*
X146340659Y-113610000D01*
X146340659Y-113609999D01*
X146335971Y-113556421D01*
X146335499Y-113545613D01*
X146335499Y-112712129D01*
X146335498Y-112712123D01*
X146335497Y-112712116D01*
X146329091Y-112652517D01*
X146278796Y-112517669D01*
X146201421Y-112414309D01*
X146177004Y-112348848D01*
X146191855Y-112280575D01*
X146201416Y-112265696D01*
X146278796Y-112162331D01*
X146329091Y-112027483D01*
X146335500Y-111967873D01*
X146335499Y-111199993D01*
X149744700Y-111199993D01*
X149744700Y-111200006D01*
X149763864Y-111431297D01*
X149763866Y-111431308D01*
X149820842Y-111656300D01*
X149914075Y-111868848D01*
X150041016Y-112063147D01*
X150041019Y-112063151D01*
X150041021Y-112063153D01*
X150198216Y-112233913D01*
X150198219Y-112233915D01*
X150198222Y-112233918D01*
X150381365Y-112376464D01*
X150381371Y-112376468D01*
X150381374Y-112376470D01*
X150585497Y-112486936D01*
X150699487Y-112526068D01*
X150805015Y-112562297D01*
X150805017Y-112562297D01*
X150805019Y-112562298D01*
X151033951Y-112600500D01*
X151033952Y-112600500D01*
X151266048Y-112600500D01*
X151266049Y-112600500D01*
X151494981Y-112562298D01*
X151714503Y-112486936D01*
X151918626Y-112376470D01*
X152101784Y-112233913D01*
X152258979Y-112063153D01*
X152385924Y-111868849D01*
X152479157Y-111656300D01*
X152536134Y-111431305D01*
X152536135Y-111431297D01*
X152555300Y-111200006D01*
X152555300Y-111199993D01*
X155194700Y-111199993D01*
X155194700Y-111200006D01*
X155213864Y-111431297D01*
X155213866Y-111431308D01*
X155270842Y-111656300D01*
X155364075Y-111868848D01*
X155491016Y-112063147D01*
X155491019Y-112063151D01*
X155491021Y-112063153D01*
X155648216Y-112233913D01*
X155648219Y-112233915D01*
X155648222Y-112233918D01*
X155831365Y-112376464D01*
X155831371Y-112376468D01*
X155831374Y-112376470D01*
X156035497Y-112486936D01*
X156149487Y-112526068D01*
X156255015Y-112562297D01*
X156255017Y-112562297D01*
X156255019Y-112562298D01*
X156483951Y-112600500D01*
X156483952Y-112600500D01*
X156716048Y-112600500D01*
X156716049Y-112600500D01*
X156944981Y-112562298D01*
X157164503Y-112486936D01*
X157368626Y-112376470D01*
X157551784Y-112233913D01*
X157708979Y-112063153D01*
X157835924Y-111868849D01*
X157929157Y-111656300D01*
X157986134Y-111431305D01*
X157986135Y-111431297D01*
X158005300Y-111200006D01*
X158005300Y-111199993D01*
X157986135Y-110968702D01*
X157986133Y-110968691D01*
X157929157Y-110743699D01*
X157835924Y-110531151D01*
X157708983Y-110336852D01*
X157708980Y-110336849D01*
X157708979Y-110336847D01*
X157551784Y-110166087D01*
X157551779Y-110166083D01*
X157551777Y-110166081D01*
X157368634Y-110023535D01*
X157368628Y-110023531D01*
X157164504Y-109913064D01*
X157164495Y-109913061D01*
X156944984Y-109837702D01*
X156773282Y-109809050D01*
X156716049Y-109799500D01*
X156483951Y-109799500D01*
X156438164Y-109807140D01*
X156255015Y-109837702D01*
X156035504Y-109913061D01*
X156035495Y-109913064D01*
X155831371Y-110023531D01*
X155831365Y-110023535D01*
X155648222Y-110166081D01*
X155648219Y-110166084D01*
X155648216Y-110166086D01*
X155648216Y-110166087D01*
X155617066Y-110199925D01*
X155491016Y-110336852D01*
X155364075Y-110531151D01*
X155270842Y-110743699D01*
X155213866Y-110968691D01*
X155213864Y-110968702D01*
X155194700Y-111199993D01*
X152555300Y-111199993D01*
X152536135Y-110968702D01*
X152536133Y-110968691D01*
X152479157Y-110743699D01*
X152385924Y-110531151D01*
X152258983Y-110336852D01*
X152258980Y-110336849D01*
X152258979Y-110336847D01*
X152101784Y-110166087D01*
X152101779Y-110166083D01*
X152101777Y-110166081D01*
X151918634Y-110023535D01*
X151918628Y-110023531D01*
X151714504Y-109913064D01*
X151714495Y-109913061D01*
X151494984Y-109837702D01*
X151323282Y-109809050D01*
X151266049Y-109799500D01*
X151033951Y-109799500D01*
X150988164Y-109807140D01*
X150805015Y-109837702D01*
X150585504Y-109913061D01*
X150585495Y-109913064D01*
X150381371Y-110023531D01*
X150381365Y-110023535D01*
X150198222Y-110166081D01*
X150198219Y-110166084D01*
X150198216Y-110166086D01*
X150198216Y-110166087D01*
X150167066Y-110199925D01*
X150041016Y-110336852D01*
X149914075Y-110531151D01*
X149820842Y-110743699D01*
X149763866Y-110968691D01*
X149763864Y-110968702D01*
X149744700Y-111199993D01*
X146335499Y-111199993D01*
X146335499Y-111134383D01*
X146335971Y-111123576D01*
X146340659Y-111070000D01*
X146340659Y-111069999D01*
X146335971Y-111016421D01*
X146335499Y-111005613D01*
X146335499Y-110172129D01*
X146335498Y-110172123D01*
X146335497Y-110172116D01*
X146329091Y-110112517D01*
X146295901Y-110023531D01*
X146278797Y-109977671D01*
X146278793Y-109977664D01*
X146192547Y-109862455D01*
X146192544Y-109862452D01*
X146077335Y-109776206D01*
X146077328Y-109776202D01*
X145942482Y-109725908D01*
X145942483Y-109725908D01*
X145882883Y-109719501D01*
X145882881Y-109719500D01*
X145882873Y-109719500D01*
X145882865Y-109719500D01*
X145049380Y-109719500D01*
X145038573Y-109719028D01*
X145012024Y-109716705D01*
X144985001Y-109714341D01*
X144984998Y-109714341D01*
X144931424Y-109719028D01*
X144920617Y-109719500D01*
X142287129Y-109719500D01*
X142287123Y-109719501D01*
X142227516Y-109725908D01*
X142092671Y-109776202D01*
X142092664Y-109776206D01*
X141977455Y-109862452D01*
X141977452Y-109862455D01*
X141891206Y-109977664D01*
X141891202Y-109977671D01*
X141840908Y-110112517D01*
X141835149Y-110166087D01*
X141834501Y-110172123D01*
X141834500Y-110172135D01*
X141834500Y-111967870D01*
X141834501Y-111967876D01*
X141840908Y-112027483D01*
X141891202Y-112162328D01*
X141891203Y-112162330D01*
X141968578Y-112265689D01*
X141992995Y-112331153D01*
X141978144Y-112399426D01*
X141968578Y-112414311D01*
X141891203Y-112517669D01*
X141891202Y-112517671D01*
X141840908Y-112652517D01*
X141834963Y-112707816D01*
X141834501Y-112712123D01*
X141834500Y-112712135D01*
X141834500Y-114507870D01*
X141834501Y-114507876D01*
X141840908Y-114567483D01*
X141891202Y-114702328D01*
X141891203Y-114702330D01*
X141968578Y-114805689D01*
X141992995Y-114871153D01*
X141978144Y-114939426D01*
X141968578Y-114954309D01*
X141968265Y-114954729D01*
X141891203Y-115057669D01*
X141891202Y-115057671D01*
X141840908Y-115192517D01*
X141837234Y-115226697D01*
X141834501Y-115252123D01*
X141834500Y-115252135D01*
X141834500Y-117047870D01*
X141834501Y-117047876D01*
X141840908Y-117107483D01*
X141891202Y-117242328D01*
X141891203Y-117242330D01*
X141968578Y-117345689D01*
X141992995Y-117411153D01*
X141978144Y-117479426D01*
X141968578Y-117494311D01*
X141891203Y-117597669D01*
X141891202Y-117597671D01*
X141840908Y-117732517D01*
X141834501Y-117792116D01*
X141834501Y-117792123D01*
X141834500Y-117792135D01*
X141834500Y-119587870D01*
X141834501Y-119587876D01*
X141840908Y-119647483D01*
X141891202Y-119782328D01*
X141891203Y-119782330D01*
X141968578Y-119885689D01*
X141992995Y-119951153D01*
X141978144Y-120019426D01*
X141968578Y-120034311D01*
X141891203Y-120137669D01*
X141891202Y-120137671D01*
X141840908Y-120272517D01*
X141834501Y-120332116D01*
X141834501Y-120332123D01*
X141834500Y-120332135D01*
X141834501Y-121657200D01*
X141814816Y-121724239D01*
X141762013Y-121769994D01*
X141710501Y-121781200D01*
X141204969Y-121781200D01*
X141204953Y-121781199D01*
X141197357Y-121781199D01*
X141039243Y-121781199D01*
X140931887Y-121809965D01*
X140886510Y-121822124D01*
X140886509Y-121822125D01*
X140836396Y-121851059D01*
X140836395Y-121851060D01*
X140792989Y-121876120D01*
X140749585Y-121901179D01*
X140749582Y-121901181D01*
X140637778Y-122012986D01*
X137506213Y-125144550D01*
X137444890Y-125178035D01*
X137375198Y-125173051D01*
X137319265Y-125131179D01*
X137300602Y-125095189D01*
X137294873Y-125077555D01*
X137216232Y-124923212D01*
X137114414Y-124783072D01*
X136991928Y-124660586D01*
X136851788Y-124558768D01*
X136697445Y-124480127D01*
X136532701Y-124426598D01*
X136532699Y-124426597D01*
X136532698Y-124426597D01*
X136401271Y-124405781D01*
X136361611Y-124399500D01*
X135638389Y-124399500D01*
X135598728Y-124405781D01*
X135467302Y-124426597D01*
X135302552Y-124480128D01*
X135148211Y-124558768D01*
X135068256Y-124616859D01*
X135008072Y-124660586D01*
X135008070Y-124660588D01*
X135008069Y-124660588D01*
X134885588Y-124783069D01*
X134885588Y-124783070D01*
X134885586Y-124783072D01*
X134841859Y-124843256D01*
X134783768Y-124923211D01*
X134705128Y-125077552D01*
X134651597Y-125242302D01*
X134634141Y-125352516D01*
X134624500Y-125413389D01*
X134000500Y-125413389D01*
X134000500Y-111893713D01*
X135149500Y-111893713D01*
X135149500Y-112106286D01*
X135177104Y-112280575D01*
X135182754Y-112316243D01*
X135248202Y-112517671D01*
X135248444Y-112518414D01*
X135344951Y-112707820D01*
X135469890Y-112879786D01*
X135620213Y-113030109D01*
X135792179Y-113155048D01*
X135792181Y-113155049D01*
X135792184Y-113155051D01*
X135981588Y-113251557D01*
X136183757Y-113317246D01*
X136393713Y-113350500D01*
X136393714Y-113350500D01*
X136606286Y-113350500D01*
X136606287Y-113350500D01*
X136816243Y-113317246D01*
X137018412Y-113251557D01*
X137207816Y-113155051D01*
X137243013Y-113129479D01*
X137379786Y-113030109D01*
X137379788Y-113030106D01*
X137379792Y-113030104D01*
X137530104Y-112879792D01*
X137530106Y-112879788D01*
X137530109Y-112879786D01*
X137655048Y-112707820D01*
X137655047Y-112707820D01*
X137655051Y-112707816D01*
X137751557Y-112518412D01*
X137817246Y-112316243D01*
X137850500Y-112106287D01*
X137850500Y-111893713D01*
X137817246Y-111683757D01*
X137751557Y-111481588D01*
X137655051Y-111292184D01*
X137655049Y-111292181D01*
X137655048Y-111292179D01*
X137530109Y-111120213D01*
X137379786Y-110969890D01*
X137207820Y-110844951D01*
X137018414Y-110748444D01*
X137018413Y-110748443D01*
X137018412Y-110748443D01*
X136816243Y-110682754D01*
X136816241Y-110682753D01*
X136816240Y-110682753D01*
X136654957Y-110657208D01*
X136606287Y-110649500D01*
X136393713Y-110649500D01*
X136345042Y-110657208D01*
X136183760Y-110682753D01*
X136183757Y-110682754D01*
X135996189Y-110743699D01*
X135981585Y-110748444D01*
X135792179Y-110844951D01*
X135620213Y-110969890D01*
X135469890Y-111120213D01*
X135344951Y-111292179D01*
X135248444Y-111481585D01*
X135182753Y-111683760D01*
X135149500Y-111893713D01*
X134000500Y-111893713D01*
X134000500Y-108124500D01*
X134020185Y-108057461D01*
X134072989Y-108011706D01*
X134124500Y-108000500D01*
X189375500Y-108000500D01*
X189442539Y-108020185D01*
G37*
%TD.AperFunction*%
%TD*%
M02*
