%TF.GenerationSoftware,KiCad,Pcbnew,8.0.5*%
%TF.CreationDate,2024-10-21T18:00:16-04:00*%
%TF.ProjectId,Sensing_PCB,53656e73-696e-4675-9f50-43422e6b6963,rev?*%
%TF.SameCoordinates,Original*%
%TF.FileFunction,Copper,L2,Bot*%
%TF.FilePolarity,Positive*%
%FSLAX46Y46*%
G04 Gerber Fmt 4.6, Leading zero omitted, Abs format (unit mm)*
G04 Created by KiCad (PCBNEW 8.0.5) date 2024-10-21 18:00:16*
%MOMM*%
%LPD*%
G01*
G04 APERTURE LIST*
G04 Aperture macros list*
%AMRoundRect*
0 Rectangle with rounded corners*
0 $1 Rounding radius*
0 $2 $3 $4 $5 $6 $7 $8 $9 X,Y pos of 4 corners*
0 Add a 4 corners polygon primitive as box body*
4,1,4,$2,$3,$4,$5,$6,$7,$8,$9,$2,$3,0*
0 Add four circle primitives for the rounded corners*
1,1,$1+$1,$2,$3*
1,1,$1+$1,$4,$5*
1,1,$1+$1,$6,$7*
1,1,$1+$1,$8,$9*
0 Add four rect primitives between the rounded corners*
20,1,$1+$1,$2,$3,$4,$5,0*
20,1,$1+$1,$4,$5,$6,$7,0*
20,1,$1+$1,$6,$7,$8,$9,0*
20,1,$1+$1,$8,$9,$2,$3,0*%
G04 Aperture macros list end*
%TA.AperFunction,ComponentPad*%
%ADD10C,1.600000*%
%TD*%
%TA.AperFunction,ComponentPad*%
%ADD11O,1.600000X1.600000*%
%TD*%
%TA.AperFunction,ComponentPad*%
%ADD12R,1.676400X1.676400*%
%TD*%
%TA.AperFunction,ComponentPad*%
%ADD13C,1.676400*%
%TD*%
%TA.AperFunction,ComponentPad*%
%ADD14RoundRect,0.250000X0.625000X-0.350000X0.625000X0.350000X-0.625000X0.350000X-0.625000X-0.350000X0*%
%TD*%
%TA.AperFunction,ComponentPad*%
%ADD15O,1.750000X1.200000*%
%TD*%
%TA.AperFunction,ComponentPad*%
%ADD16O,1.700000X1.700000*%
%TD*%
%TA.AperFunction,ComponentPad*%
%ADD17R,1.700000X1.700000*%
%TD*%
%TA.AperFunction,ComponentPad*%
%ADD18RoundRect,0.250000X-0.350000X-0.625000X0.350000X-0.625000X0.350000X0.625000X-0.350000X0.625000X0*%
%TD*%
%TA.AperFunction,ComponentPad*%
%ADD19O,1.200000X1.750000*%
%TD*%
%TA.AperFunction,Conductor*%
%ADD20C,0.200000*%
%TD*%
G04 APERTURE END LIST*
D10*
%TO.P,R2,1*%
%TO.N,/GND*%
X183000000Y-153580000D03*
D11*
%TO.P,R2,2*%
%TO.N,Net-(U3-POS1)*%
X183000000Y-143420000D03*
%TD*%
D12*
%TO.P,U3,1,OUT1*%
%TO.N,/ADC*%
X170690000Y-135380000D03*
D13*
%TO.P,U3,2,NEG1*%
%TO.N,/OUT1*%
X170690000Y-137920000D03*
%TO.P,U3,3,POS1*%
%TO.N,Net-(U3-POS1)*%
X170690000Y-140460000D03*
%TO.P,U3,4,V+*%
%TO.N,/3V3_Chamber*%
X170690000Y-143000000D03*
%TO.P,U3,5,POS2*%
%TO.N,unconnected-(U3-POS2-Pad5)*%
X170690000Y-145540000D03*
%TO.P,U3,6,NEG2*%
%TO.N,unconnected-(U3-NEG2-Pad6)*%
X170690000Y-148080000D03*
%TO.P,U3,7,OUT2*%
%TO.N,unconnected-(U3-OUT2-Pad7)*%
X170690000Y-150620000D03*
%TO.P,U3,8,OUT3*%
%TO.N,unconnected-(U3-OUT3-Pad8)*%
X178310000Y-150620000D03*
%TO.P,U3,9,NEG3*%
%TO.N,unconnected-(U3-NEG3-Pad9)*%
X178310000Y-148080000D03*
%TO.P,U3,10,POS3*%
%TO.N,unconnected-(U3-POS3-Pad10)*%
X178310000Y-145540000D03*
%TO.P,U3,11,V-*%
%TO.N,/GND*%
X178310000Y-143000000D03*
%TO.P,U3,12,POS4*%
%TO.N,unconnected-(U3-POS4-Pad12)*%
X178310000Y-140460000D03*
%TO.P,U3,13,NEG4*%
%TO.N,unconnected-(U3-NEG4-Pad13)*%
X178310000Y-137920000D03*
%TO.P,U3,14,OUT4*%
%TO.N,unconnected-(U3-OUT4-Pad14)*%
X178310000Y-135380000D03*
%TD*%
D14*
%TO.P,J1,1,Pin_1*%
%TO.N,/GND*%
X136000000Y-137500000D03*
D15*
%TO.P,J1,2,Pin_2*%
%TO.N,/I2C1_SDA*%
X136000000Y-135500000D03*
%TO.P,J1,3,Pin_3*%
%TO.N,/I2C1_SCL*%
X136000000Y-133500000D03*
%TO.P,J1,4,Pin_4*%
%TO.N,/I2C0_SDA*%
X136000000Y-131500000D03*
%TO.P,J1,5,Pin_5*%
%TO.N,/I2C0_SCL*%
X136000000Y-129500000D03*
%TO.P,J1,6,Pin_6*%
%TO.N,/3V3*%
X136000000Y-127500000D03*
%TO.P,J1,7,Pin_7*%
%TO.N,/5V*%
X136000000Y-125500000D03*
%TD*%
D10*
%TO.P,R4,1*%
%TO.N,/OUT1*%
X183000000Y-140580000D03*
D11*
%TO.P,R4,2*%
%TO.N,/ADC*%
X183000000Y-130420000D03*
%TD*%
D14*
%TO.P,J3,1,Pin_1*%
%TO.N,/GND*%
X136000000Y-146500000D03*
D15*
%TO.P,J3,2,Pin_2*%
%TO.N,/5V*%
X136000000Y-144500000D03*
%TO.P,J3,3,Pin_3*%
%TO.N,/SERVO*%
X136000000Y-142500000D03*
%TD*%
D10*
%TO.P,R3,1*%
%TO.N,/OUT1*%
X182972900Y-125193600D03*
D11*
%TO.P,R3,2*%
%TO.N,/FS_OUTPUT(-)*%
X182972900Y-115033600D03*
%TD*%
D16*
%TO.P,U4,1,GPIO0*%
%TO.N,unconnected-(U4-GPIO0-Pad1)_1*%
X144985000Y-111070000D03*
%TO.P,U4,2,GPIO1*%
%TO.N,unconnected-(U4-GPIO1-Pad2)*%
X144985000Y-113610000D03*
D17*
%TO.P,U4,3,GND*%
%TO.N,unconnected-(U4-GND-Pad3)_1*%
X144985000Y-116150000D03*
D16*
%TO.P,U4,4,GPIO2*%
%TO.N,/I2C1_SDA*%
X144985000Y-118690000D03*
%TO.P,U4,5,GPIO3*%
%TO.N,/I2C1_SCL*%
X144985000Y-121230000D03*
%TO.P,U4,6,GPIO4*%
%TO.N,/I2C0_SDA*%
X144985000Y-123770000D03*
%TO.P,U4,7,GPIO5*%
%TO.N,/I2C0_SCL*%
X144985000Y-126310000D03*
D17*
%TO.P,U4,8,GND*%
%TO.N,/GND*%
X144985000Y-128850000D03*
D16*
%TO.P,U4,9,GPIO6*%
%TO.N,/SERVO*%
X144985000Y-131390000D03*
%TO.P,U4,10,GPIO7*%
%TO.N,unconnected-(U4-GPIO7-Pad10)_1*%
X144985000Y-133930000D03*
%TO.P,U4,11,GPIO8*%
%TO.N,unconnected-(U4-GPIO8-Pad11)_1*%
X144985000Y-136470000D03*
%TO.P,U4,12,GPIO9*%
%TO.N,unconnected-(U4-GPIO9-Pad12)_1*%
X144985000Y-139010000D03*
D17*
%TO.P,U4,13,GND*%
%TO.N,unconnected-(U4-GND-Pad13)_1*%
X144985000Y-141550000D03*
D16*
%TO.P,U4,14,GPIO10*%
%TO.N,unconnected-(U4-GPIO10-Pad14)_1*%
X144985000Y-144090000D03*
%TO.P,U4,15,GPIO11*%
%TO.N,unconnected-(U4-GPIO11-Pad15)_1*%
X144985000Y-146630000D03*
%TO.P,U4,16,GPIO12*%
%TO.N,unconnected-(U4-GPIO12-Pad16)*%
X144985000Y-149170000D03*
%TO.P,U4,17,GPIO13*%
%TO.N,unconnected-(U4-GPIO13-Pad17)_1*%
X144985000Y-151710000D03*
D17*
%TO.P,U4,18,GND*%
%TO.N,unconnected-(U4-GND-Pad18)_1*%
X144985000Y-154250000D03*
D16*
%TO.P,U4,19,GPIO14*%
%TO.N,unconnected-(U4-GPIO14-Pad19)*%
X144985000Y-156790000D03*
%TO.P,U4,20,GPIO15*%
%TO.N,unconnected-(U4-GPIO15-Pad20)*%
X144985000Y-159330000D03*
%TO.P,U4,21,GPIO16*%
%TO.N,unconnected-(U4-GPIO16-Pad21)*%
X162765000Y-159330000D03*
%TO.P,U4,22,GPIO17*%
%TO.N,unconnected-(U4-GPIO17-Pad22)_1*%
X162765000Y-156790000D03*
D17*
%TO.P,U4,23,GND*%
%TO.N,/GND*%
X162765000Y-154250000D03*
D16*
%TO.P,U4,24,GPIO18*%
%TO.N,unconnected-(U4-GPIO18-Pad24)_1*%
X162765000Y-151710000D03*
%TO.P,U4,25,GPIO19*%
%TO.N,unconnected-(U4-GPIO19-Pad25)_1*%
X162765000Y-149170000D03*
%TO.P,U4,26,GPIO20*%
%TO.N,unconnected-(U4-GPIO20-Pad26)*%
X162765000Y-146630000D03*
%TO.P,U4,27,GPIO21*%
%TO.N,unconnected-(U4-GPIO21-Pad27)_1*%
X162765000Y-144090000D03*
D17*
%TO.P,U4,28,GND*%
%TO.N,/GND*%
X162765000Y-141550000D03*
D16*
%TO.P,U4,29,GPIO22*%
%TO.N,unconnected-(U4-GPIO22-Pad29)_1*%
X162765000Y-139010000D03*
%TO.P,U4,30,RUN*%
%TO.N,unconnected-(U4-RUN-Pad30)_1*%
X162765000Y-136470000D03*
%TO.P,U4,31,GPIO26_ADC0*%
%TO.N,/ADC*%
X162765000Y-133930000D03*
%TO.P,U4,32,GPIO27_ADC1*%
%TO.N,unconnected-(U4-GPIO27_ADC1-Pad32)*%
X162765000Y-131390000D03*
D17*
%TO.P,U4,33,AGND*%
%TO.N,unconnected-(U4-AGND-Pad33)_1*%
X162765000Y-128850000D03*
D16*
%TO.P,U4,34,GPIO28_ADC2*%
%TO.N,unconnected-(U4-GPIO28_ADC2-Pad34)_1*%
X162765000Y-126310000D03*
%TO.P,U4,35,ADC_VREF*%
%TO.N,unconnected-(U4-ADC_VREF-Pad35)_1*%
X162765000Y-123770000D03*
%TO.P,U4,36,3V3*%
%TO.N,/3V3_Chamber*%
X162765000Y-121230000D03*
%TO.P,U4,37,3V3_EN*%
%TO.N,unconnected-(U4-3V3_EN-Pad37)_1*%
X162765000Y-118690000D03*
D17*
%TO.P,U4,38,GND*%
%TO.N,/GND*%
X162765000Y-116150000D03*
D16*
%TO.P,U4,39,VSYS*%
%TO.N,/3V3*%
X162765000Y-113610000D03*
%TO.P,U4,40,VBUS*%
%TO.N,unconnected-(U4-VBUS-Pad40)*%
X162765000Y-111070000D03*
%TO.P,U4,41,SWCLK*%
%TO.N,unconnected-(U4-SWCLK-Pad41)*%
X151335000Y-159100000D03*
D17*
%TO.P,U4,42,GND*%
%TO.N,unconnected-(U4-GND-Pad42)*%
X153875000Y-159100000D03*
D16*
%TO.P,U4,43,SWDIO*%
%TO.N,unconnected-(U4-SWDIO-Pad43)*%
X156415000Y-159100000D03*
%TD*%
D10*
%TO.P,R1,1*%
%TO.N,/FS_OUTPUT(+)*%
X176500000Y-115000000D03*
D11*
%TO.P,R1,2*%
%TO.N,Net-(U3-POS1)*%
X176500000Y-125160000D03*
%TD*%
D18*
%TO.P,J2,1,Pin_1*%
%TO.N,/3V3_Chamber*%
X173500000Y-110500000D03*
D19*
%TO.P,J2,2,Pin_2*%
%TO.N,/FS_OUTPUT(+)*%
X175500000Y-110500000D03*
%TO.P,J2,3,Pin_3*%
%TO.N,/GND*%
X177500000Y-110500000D03*
%TO.P,J2,4,Pin_4*%
%TO.N,/FS_OUTPUT(-)*%
X179500000Y-110500000D03*
%TD*%
D20*
%TO.N,/SERVO*%
X144697100Y-132541700D02*
X136000000Y-141238800D01*
X144985000Y-132541700D02*
X144697100Y-132541700D01*
X144985000Y-131390000D02*
X144985000Y-132541700D01*
X136000000Y-141238800D02*
X136000000Y-142500000D01*
%TO.N,/5V*%
X136000000Y-144500000D02*
X136000000Y-143598300D01*
X135513500Y-126401700D02*
X136000000Y-126401700D01*
X135436400Y-143598300D02*
X134809600Y-142971500D01*
X136000000Y-143598300D02*
X135436400Y-143598300D01*
X134809600Y-142971500D02*
X134809600Y-127105600D01*
X136000000Y-125500000D02*
X136000000Y-126401700D01*
X134809600Y-127105600D02*
X135513500Y-126401700D01*
%TO.N,Net-(U3-POS1)*%
X173671800Y-137478200D02*
X177923600Y-141730000D01*
X183000000Y-143420000D02*
X181898300Y-143420000D01*
X176500000Y-134650000D02*
X173671800Y-137478200D01*
X173671800Y-137478200D02*
X170690000Y-140460000D01*
X180208300Y-141730000D02*
X181898300Y-143420000D01*
X177923600Y-141730000D02*
X180208300Y-141730000D01*
X176500000Y-125160000D02*
X176500000Y-134650000D01*
%TO.N,/FS_OUTPUT(-)*%
X180401700Y-110500000D02*
X180401700Y-111360700D01*
X182972900Y-115033600D02*
X182972900Y-113931900D01*
X179500000Y-110500000D02*
X180401700Y-110500000D01*
X180401700Y-111360700D02*
X182972900Y-113931900D01*
%TO.N,/FS_OUTPUT(+)*%
X175500000Y-110500000D02*
X176401700Y-110500000D01*
X176401700Y-114901700D02*
X176500000Y-115000000D01*
X176401700Y-110500000D02*
X176401700Y-114901700D01*
%TO.N,/I2C1_SCL*%
X144697100Y-122381700D02*
X137622000Y-129456800D01*
X136000000Y-133500000D02*
X136000000Y-132598300D01*
X136486500Y-132598300D02*
X136000000Y-132598300D01*
X144985000Y-121230000D02*
X144985000Y-122381700D01*
X137622000Y-131462800D02*
X136486500Y-132598300D01*
X144985000Y-122381700D02*
X144697100Y-122381700D01*
X137622000Y-129456800D02*
X137622000Y-131462800D01*
%TO.N,/I2C1_SDA*%
X136563600Y-134598300D02*
X143833300Y-127328600D01*
X143833300Y-127328600D02*
X143833300Y-125832900D01*
X146137900Y-120726100D02*
X145253500Y-119841700D01*
X145253500Y-119841700D02*
X144985000Y-119841700D01*
X144985000Y-118690000D02*
X144985000Y-119841700D01*
X144626200Y-125040000D02*
X145380700Y-125040000D01*
X143833300Y-125832900D02*
X144626200Y-125040000D01*
X136000000Y-134598300D02*
X136563600Y-134598300D01*
X146137900Y-124282800D02*
X146137900Y-120726100D01*
X136000000Y-135500000D02*
X136000000Y-134598300D01*
X145380700Y-125040000D02*
X146137900Y-124282800D01*
%TD*%
%TA.AperFunction,Conductor*%
%TO.N,/3V3_Chamber*%
G36*
X189442539Y-108020185D02*
G01*
X189488294Y-108072989D01*
X189499500Y-108124500D01*
X189499500Y-162875500D01*
X189479815Y-162942539D01*
X189427011Y-162988294D01*
X189375500Y-162999500D01*
X134124500Y-162999500D01*
X134057461Y-162979815D01*
X134011706Y-162927011D01*
X134000500Y-162875500D01*
X134000500Y-157393713D01*
X135149500Y-157393713D01*
X135149500Y-157606286D01*
X135181163Y-157806202D01*
X135182754Y-157816243D01*
X135246685Y-158013002D01*
X135248444Y-158018414D01*
X135344951Y-158207820D01*
X135469890Y-158379786D01*
X135620213Y-158530109D01*
X135792179Y-158655048D01*
X135792181Y-158655049D01*
X135792184Y-158655051D01*
X135981588Y-158751557D01*
X136183757Y-158817246D01*
X136393713Y-158850500D01*
X136393714Y-158850500D01*
X136606286Y-158850500D01*
X136606287Y-158850500D01*
X136816243Y-158817246D01*
X137018412Y-158751557D01*
X137207816Y-158655051D01*
X137233577Y-158636335D01*
X137379786Y-158530109D01*
X137379788Y-158530106D01*
X137379792Y-158530104D01*
X137530104Y-158379792D01*
X137530106Y-158379788D01*
X137530109Y-158379786D01*
X137655048Y-158207820D01*
X137655047Y-158207820D01*
X137655051Y-158207816D01*
X137751557Y-158018412D01*
X137817246Y-157816243D01*
X137850500Y-157606287D01*
X137850500Y-157393713D01*
X137817246Y-157183757D01*
X137751557Y-156981588D01*
X137655051Y-156792184D01*
X137655049Y-156792181D01*
X137655048Y-156792179D01*
X137530109Y-156620213D01*
X137379786Y-156469890D01*
X137207820Y-156344951D01*
X137018414Y-156248444D01*
X137018413Y-156248443D01*
X137018412Y-156248443D01*
X136816243Y-156182754D01*
X136816241Y-156182753D01*
X136816240Y-156182753D01*
X136654957Y-156157208D01*
X136606287Y-156149500D01*
X136393713Y-156149500D01*
X136345042Y-156157208D01*
X136183760Y-156182753D01*
X135981585Y-156248444D01*
X135792179Y-156344951D01*
X135620213Y-156469890D01*
X135469890Y-156620213D01*
X135344951Y-156792179D01*
X135248444Y-156981585D01*
X135182753Y-157183760D01*
X135149500Y-157393713D01*
X134000500Y-157393713D01*
X134000500Y-143213926D01*
X134020185Y-143146887D01*
X134072989Y-143101132D01*
X134142147Y-143091188D01*
X134205703Y-143120213D01*
X134243477Y-143178991D01*
X134244266Y-143181800D01*
X134250023Y-143203285D01*
X134257898Y-143216925D01*
X134257899Y-143216928D01*
X134257900Y-143216928D01*
X134329077Y-143340212D01*
X134329081Y-143340217D01*
X134447949Y-143459085D01*
X134447955Y-143459090D01*
X134763398Y-143774533D01*
X134796883Y-143835856D01*
X134791899Y-143905548D01*
X134785526Y-143918640D01*
X134785980Y-143918872D01*
X134783770Y-143923209D01*
X134783768Y-143923212D01*
X134755049Y-143979577D01*
X134705128Y-144077552D01*
X134651597Y-144242302D01*
X134624500Y-144413389D01*
X134624500Y-144586610D01*
X134643351Y-144705635D01*
X134651598Y-144757701D01*
X134705127Y-144922445D01*
X134783768Y-145076788D01*
X134885586Y-145216928D01*
X134885588Y-145216930D01*
X134993127Y-145324469D01*
X135026612Y-145385792D01*
X135021628Y-145455484D01*
X134979756Y-145511417D01*
X134970544Y-145517688D01*
X134906344Y-145557287D01*
X134782289Y-145681342D01*
X134690187Y-145830663D01*
X134690186Y-145830666D01*
X134635001Y-145997203D01*
X134635001Y-145997204D01*
X134635000Y-145997204D01*
X134624500Y-146099983D01*
X134624500Y-146900001D01*
X134624501Y-146900019D01*
X134635000Y-147002796D01*
X134635001Y-147002799D01*
X134665108Y-147093655D01*
X134690186Y-147169334D01*
X134782288Y-147318656D01*
X134906344Y-147442712D01*
X135055666Y-147534814D01*
X135222203Y-147589999D01*
X135324991Y-147600500D01*
X136675008Y-147600499D01*
X136777797Y-147589999D01*
X136944334Y-147534814D01*
X137093656Y-147442712D01*
X137217712Y-147318656D01*
X137309814Y-147169334D01*
X137364999Y-147002797D01*
X137375500Y-146900009D01*
X137375499Y-146099992D01*
X137364999Y-145997203D01*
X137309814Y-145830666D01*
X137217712Y-145681344D01*
X137093656Y-145557288D01*
X137093652Y-145557285D01*
X137029456Y-145517688D01*
X136982731Y-145465740D01*
X136971510Y-145396777D01*
X136999353Y-145332695D01*
X137006850Y-145324491D01*
X137114414Y-145216928D01*
X137216232Y-145076788D01*
X137294873Y-144922445D01*
X137348402Y-144757701D01*
X137375500Y-144586611D01*
X137375500Y-144413389D01*
X137348402Y-144242299D01*
X137294873Y-144077555D01*
X137216232Y-143923212D01*
X137114414Y-143783072D01*
X136991928Y-143660586D01*
X136908975Y-143600317D01*
X136866311Y-143544988D01*
X136860332Y-143475374D01*
X136892938Y-143413579D01*
X136908976Y-143399682D01*
X136991928Y-143339414D01*
X137114414Y-143216928D01*
X137216232Y-143076788D01*
X137294873Y-142922445D01*
X137348402Y-142757701D01*
X137375500Y-142586611D01*
X137375500Y-142413389D01*
X137348402Y-142242299D01*
X137294873Y-142077555D01*
X137216232Y-141923212D01*
X137114414Y-141783072D01*
X136991928Y-141660586D01*
X136881076Y-141580047D01*
X136851786Y-141558766D01*
X136790199Y-141527387D01*
X136739403Y-141479413D01*
X136722607Y-141411592D01*
X136745144Y-141345457D01*
X136758806Y-141329227D01*
X143580558Y-134507476D01*
X143641879Y-134473993D01*
X143711571Y-134478977D01*
X143767504Y-134520849D01*
X143780619Y-134542753D01*
X143810965Y-134607830D01*
X143810966Y-134607832D01*
X143810967Y-134607833D01*
X143810967Y-134607834D01*
X143946501Y-134801395D01*
X143946506Y-134801402D01*
X144113597Y-134968493D01*
X144113603Y-134968498D01*
X144299158Y-135098425D01*
X144342783Y-135153002D01*
X144349977Y-135222500D01*
X144318454Y-135284855D01*
X144299158Y-135301575D01*
X144113597Y-135431505D01*
X143946505Y-135598597D01*
X143810965Y-135792169D01*
X143810964Y-135792171D01*
X143711098Y-136006335D01*
X143711094Y-136006344D01*
X143649938Y-136234586D01*
X143649936Y-136234596D01*
X143629341Y-136469999D01*
X143629341Y-136470000D01*
X143649936Y-136705403D01*
X143649938Y-136705413D01*
X143711094Y-136933655D01*
X143711096Y-136933659D01*
X143711097Y-136933663D01*
X143768241Y-137056208D01*
X143810965Y-137147830D01*
X143810967Y-137147834D01*
X143946501Y-137341395D01*
X143946506Y-137341402D01*
X144113597Y-137508493D01*
X144113603Y-137508498D01*
X144299158Y-137638425D01*
X144342783Y-137693002D01*
X144349977Y-137762500D01*
X144318454Y-137824855D01*
X144299158Y-137841575D01*
X144113597Y-137971505D01*
X143946505Y-138138597D01*
X143810965Y-138332169D01*
X143810964Y-138332171D01*
X143711098Y-138546335D01*
X143711094Y-138546344D01*
X143649938Y-138774586D01*
X143649936Y-138774596D01*
X143629341Y-139009999D01*
X143629341Y-139010000D01*
X143649936Y-139245403D01*
X143649938Y-139245413D01*
X143711094Y-139473655D01*
X143711096Y-139473659D01*
X143711097Y-139473663D01*
X143768241Y-139596208D01*
X143810965Y-139687830D01*
X143810967Y-139687834D01*
X143919281Y-139842521D01*
X143946501Y-139881396D01*
X143946506Y-139881402D01*
X144068430Y-140003326D01*
X144101915Y-140064649D01*
X144096931Y-140134341D01*
X144055059Y-140190274D01*
X144024083Y-140207189D01*
X143892669Y-140256203D01*
X143892664Y-140256206D01*
X143777455Y-140342452D01*
X143777452Y-140342455D01*
X143691206Y-140457664D01*
X143691202Y-140457671D01*
X143640908Y-140592517D01*
X143634501Y-140652116D01*
X143634501Y-140652123D01*
X143634500Y-140652135D01*
X143634500Y-142447870D01*
X143634501Y-142447876D01*
X143640908Y-142507483D01*
X143691202Y-142642328D01*
X143691206Y-142642335D01*
X143777452Y-142757544D01*
X143777455Y-142757547D01*
X143892664Y-142843793D01*
X143892671Y-142843797D01*
X144024081Y-142892810D01*
X144080015Y-142934681D01*
X144104432Y-143000145D01*
X144089580Y-143068418D01*
X144068430Y-143096673D01*
X143946503Y-143218600D01*
X143810965Y-143412169D01*
X143810964Y-143412171D01*
X143711098Y-143626335D01*
X143711094Y-143626344D01*
X143649938Y-143854586D01*
X143649936Y-143854596D01*
X143629341Y-144089999D01*
X143629341Y-144090000D01*
X143649936Y-144325403D01*
X143649938Y-144325413D01*
X143711094Y-144553655D01*
X143711096Y-144553659D01*
X143711097Y-144553663D01*
X143726461Y-144586611D01*
X143810965Y-144767830D01*
X143810967Y-144767834D01*
X143946501Y-144961395D01*
X143946506Y-144961402D01*
X144113597Y-145128493D01*
X144113603Y-145128498D01*
X144299158Y-145258425D01*
X144342783Y-145313002D01*
X144349977Y-145382500D01*
X144318454Y-145444855D01*
X144299158Y-145461575D01*
X144113597Y-145591505D01*
X143946505Y-145758597D01*
X143810965Y-145952169D01*
X143810964Y-145952171D01*
X143711098Y-146166335D01*
X143711094Y-146166344D01*
X143649938Y-146394586D01*
X143649936Y-146394596D01*
X143629341Y-146629999D01*
X143629341Y-146630000D01*
X143649936Y-146865403D01*
X143649938Y-146865413D01*
X143711094Y-147093655D01*
X143711096Y-147093659D01*
X143711097Y-147093663D01*
X143746382Y-147169331D01*
X143810965Y-147307830D01*
X143810967Y-147307834D01*
X143946501Y-147501395D01*
X143946506Y-147501402D01*
X144113597Y-147668493D01*
X144113603Y-147668498D01*
X144299158Y-147798425D01*
X144342783Y-147853002D01*
X144349977Y-147922500D01*
X144318454Y-147984855D01*
X144299158Y-148001575D01*
X144113597Y-148131505D01*
X143946505Y-148298597D01*
X143810965Y-148492169D01*
X143810964Y-148492171D01*
X143711098Y-148706335D01*
X143711094Y-148706344D01*
X143649938Y-148934586D01*
X143649936Y-148934596D01*
X143629341Y-149169999D01*
X143629341Y-149170000D01*
X143649936Y-149405403D01*
X143649938Y-149405413D01*
X143711094Y-149633655D01*
X143711096Y-149633659D01*
X143711097Y-149633663D01*
X143768241Y-149756208D01*
X143810965Y-149847830D01*
X143810967Y-149847834D01*
X143946501Y-150041395D01*
X143946506Y-150041402D01*
X144113597Y-150208493D01*
X144113603Y-150208498D01*
X144299158Y-150338425D01*
X144342783Y-150393002D01*
X144349977Y-150462500D01*
X144318454Y-150524855D01*
X144299158Y-150541575D01*
X144113597Y-150671505D01*
X143946505Y-150838597D01*
X143810965Y-151032169D01*
X143810964Y-151032171D01*
X143711098Y-151246335D01*
X143711094Y-151246344D01*
X143649938Y-151474586D01*
X143649936Y-151474596D01*
X143629341Y-151709999D01*
X143629341Y-151710000D01*
X143649936Y-151945403D01*
X143649938Y-151945413D01*
X143711094Y-152173655D01*
X143711096Y-152173659D01*
X143711097Y-152173663D01*
X143767382Y-152294366D01*
X143810965Y-152387830D01*
X143810967Y-152387834D01*
X143854099Y-152449432D01*
X143946501Y-152581396D01*
X143946506Y-152581402D01*
X144068430Y-152703326D01*
X144101915Y-152764649D01*
X144096931Y-152834341D01*
X144055059Y-152890274D01*
X144024083Y-152907189D01*
X143892669Y-152956203D01*
X143892664Y-152956206D01*
X143777455Y-153042452D01*
X143777452Y-153042455D01*
X143691206Y-153157664D01*
X143691202Y-153157671D01*
X143640908Y-153292517D01*
X143634501Y-153352116D01*
X143634501Y-153352123D01*
X143634500Y-153352135D01*
X143634500Y-155147870D01*
X143634501Y-155147876D01*
X143640908Y-155207483D01*
X143691202Y-155342328D01*
X143691206Y-155342335D01*
X143777452Y-155457544D01*
X143777455Y-155457547D01*
X143892664Y-155543793D01*
X143892671Y-155543797D01*
X144024081Y-155592810D01*
X144080015Y-155634681D01*
X144104432Y-155700145D01*
X144089580Y-155768418D01*
X144068430Y-155796673D01*
X143946503Y-155918600D01*
X143810965Y-156112169D01*
X143810964Y-156112171D01*
X143711098Y-156326335D01*
X143711094Y-156326344D01*
X143649938Y-156554586D01*
X143649936Y-156554596D01*
X143629341Y-156789999D01*
X143629341Y-156790000D01*
X143649936Y-157025403D01*
X143649938Y-157025413D01*
X143711094Y-157253655D01*
X143711096Y-157253659D01*
X143711097Y-157253663D01*
X143776404Y-157393713D01*
X143810965Y-157467830D01*
X143810967Y-157467834D01*
X143946501Y-157661395D01*
X143946506Y-157661402D01*
X144113597Y-157828493D01*
X144113603Y-157828498D01*
X144299158Y-157958425D01*
X144342783Y-158013002D01*
X144349977Y-158082500D01*
X144318454Y-158144855D01*
X144299158Y-158161575D01*
X144113597Y-158291505D01*
X143946505Y-158458597D01*
X143810965Y-158652169D01*
X143810964Y-158652171D01*
X143711098Y-158866335D01*
X143711094Y-158866344D01*
X143649938Y-159094586D01*
X143649936Y-159094596D01*
X143629341Y-159329999D01*
X143629341Y-159330000D01*
X143649936Y-159565403D01*
X143649938Y-159565413D01*
X143711094Y-159793655D01*
X143711096Y-159793659D01*
X143711097Y-159793663D01*
X143806322Y-159997873D01*
X143810965Y-160007830D01*
X143810967Y-160007834D01*
X143902456Y-160138493D01*
X143946505Y-160201401D01*
X144113599Y-160368495D01*
X144149733Y-160393796D01*
X144307165Y-160504032D01*
X144307167Y-160504033D01*
X144307170Y-160504035D01*
X144521337Y-160603903D01*
X144749592Y-160665063D01*
X144937918Y-160681539D01*
X144984999Y-160685659D01*
X144985000Y-160685659D01*
X144985001Y-160685659D01*
X145024234Y-160682226D01*
X145220408Y-160665063D01*
X145448663Y-160603903D01*
X145662830Y-160504035D01*
X145856401Y-160368495D01*
X146023495Y-160201401D01*
X146159035Y-160007830D01*
X146258903Y-159793663D01*
X146320063Y-159565408D01*
X146340659Y-159330000D01*
X146320536Y-159099999D01*
X149979341Y-159099999D01*
X149979341Y-159100000D01*
X149999936Y-159335403D01*
X149999938Y-159335413D01*
X150061094Y-159563655D01*
X150061096Y-159563659D01*
X150061097Y-159563663D01*
X150145499Y-159744663D01*
X150160965Y-159777830D01*
X150160967Y-159777834D01*
X150269281Y-159932521D01*
X150296505Y-159971401D01*
X150463599Y-160138495D01*
X150553429Y-160201395D01*
X150657165Y-160274032D01*
X150657167Y-160274033D01*
X150657170Y-160274035D01*
X150871337Y-160373903D01*
X151099592Y-160435063D01*
X151276034Y-160450500D01*
X151334999Y-160455659D01*
X151335000Y-160455659D01*
X151335001Y-160455659D01*
X151393966Y-160450500D01*
X151570408Y-160435063D01*
X151798663Y-160373903D01*
X152012830Y-160274035D01*
X152206401Y-160138495D01*
X152328329Y-160016566D01*
X152389648Y-159983084D01*
X152459340Y-159988068D01*
X152515274Y-160029939D01*
X152532189Y-160060917D01*
X152581202Y-160192328D01*
X152581206Y-160192335D01*
X152667452Y-160307544D01*
X152667455Y-160307547D01*
X152782664Y-160393793D01*
X152782671Y-160393797D01*
X152917517Y-160444091D01*
X152917516Y-160444091D01*
X152924444Y-160444835D01*
X152977127Y-160450500D01*
X154772872Y-160450499D01*
X154832483Y-160444091D01*
X154967331Y-160393796D01*
X155082546Y-160307546D01*
X155168796Y-160192331D01*
X155217810Y-160060916D01*
X155259681Y-160004984D01*
X155325145Y-159980566D01*
X155393418Y-159995417D01*
X155421673Y-160016569D01*
X155543599Y-160138495D01*
X155633429Y-160201395D01*
X155737165Y-160274032D01*
X155737167Y-160274033D01*
X155737170Y-160274035D01*
X155951337Y-160373903D01*
X156179592Y-160435063D01*
X156356034Y-160450500D01*
X156414999Y-160455659D01*
X156415000Y-160455659D01*
X156415001Y-160455659D01*
X156473966Y-160450500D01*
X156650408Y-160435063D01*
X156878663Y-160373903D01*
X157092830Y-160274035D01*
X157286401Y-160138495D01*
X157453495Y-159971401D01*
X157589035Y-159777830D01*
X157688903Y-159563663D01*
X157750063Y-159335408D01*
X157770659Y-159100000D01*
X157750063Y-158864592D01*
X157688903Y-158636337D01*
X157589035Y-158422171D01*
X157497540Y-158291501D01*
X157453494Y-158228597D01*
X157286402Y-158061506D01*
X157286395Y-158061501D01*
X157284251Y-158060000D01*
X157209518Y-158007671D01*
X157092834Y-157925967D01*
X157092830Y-157925965D01*
X157092828Y-157925964D01*
X156878663Y-157826097D01*
X156878659Y-157826096D01*
X156878655Y-157826094D01*
X156650413Y-157764938D01*
X156650403Y-157764936D01*
X156415001Y-157744341D01*
X156414999Y-157744341D01*
X156179596Y-157764936D01*
X156179586Y-157764938D01*
X155951344Y-157826094D01*
X155951335Y-157826098D01*
X155737171Y-157925964D01*
X155737169Y-157925965D01*
X155543600Y-158061503D01*
X155421673Y-158183430D01*
X155360350Y-158216914D01*
X155290658Y-158211930D01*
X155234725Y-158170058D01*
X155217810Y-158139081D01*
X155168797Y-158007671D01*
X155168793Y-158007664D01*
X155082547Y-157892455D01*
X155082544Y-157892452D01*
X154967335Y-157806206D01*
X154967328Y-157806202D01*
X154832482Y-157755908D01*
X154832483Y-157755908D01*
X154772883Y-157749501D01*
X154772881Y-157749500D01*
X154772873Y-157749500D01*
X154772864Y-157749500D01*
X152977129Y-157749500D01*
X152977123Y-157749501D01*
X152917516Y-157755908D01*
X152782671Y-157806202D01*
X152782664Y-157806206D01*
X152667455Y-157892452D01*
X152667452Y-157892455D01*
X152581206Y-158007664D01*
X152581203Y-158007669D01*
X152532189Y-158139083D01*
X152490317Y-158195016D01*
X152424853Y-158219433D01*
X152356580Y-158204581D01*
X152328326Y-158183430D01*
X152206402Y-158061506D01*
X152206395Y-158061501D01*
X152204251Y-158060000D01*
X152129518Y-158007671D01*
X152012834Y-157925967D01*
X152012830Y-157925965D01*
X152012828Y-157925964D01*
X151798663Y-157826097D01*
X151798659Y-157826096D01*
X151798655Y-157826094D01*
X151570413Y-157764938D01*
X151570403Y-157764936D01*
X151335001Y-157744341D01*
X151334999Y-157744341D01*
X151099596Y-157764936D01*
X151099586Y-157764938D01*
X150871344Y-157826094D01*
X150871335Y-157826098D01*
X150657171Y-157925964D01*
X150657169Y-157925965D01*
X150463597Y-158061505D01*
X150296505Y-158228597D01*
X150160965Y-158422169D01*
X150160964Y-158422171D01*
X150061098Y-158636335D01*
X150061094Y-158636344D01*
X149999938Y-158864586D01*
X149999936Y-158864596D01*
X149979341Y-159099999D01*
X146320536Y-159099999D01*
X146320063Y-159094592D01*
X146258903Y-158866337D01*
X146159035Y-158652171D01*
X146073564Y-158530104D01*
X146023494Y-158458597D01*
X145856402Y-158291506D01*
X145856396Y-158291501D01*
X145670842Y-158161575D01*
X145627217Y-158106998D01*
X145620023Y-158037500D01*
X145651546Y-157975145D01*
X145670842Y-157958425D01*
X145717197Y-157925967D01*
X145856401Y-157828495D01*
X146023495Y-157661401D01*
X146159035Y-157467830D01*
X146258903Y-157253663D01*
X146320063Y-157025408D01*
X146340659Y-156790000D01*
X146320063Y-156554592D01*
X146258903Y-156326337D01*
X146159035Y-156112171D01*
X146023495Y-155918599D01*
X145901567Y-155796671D01*
X145868084Y-155735351D01*
X145873068Y-155665659D01*
X145914939Y-155609725D01*
X145945915Y-155592810D01*
X146077331Y-155543796D01*
X146192546Y-155457546D01*
X146278796Y-155342331D01*
X146329091Y-155207483D01*
X146335500Y-155147873D01*
X146335499Y-153352128D01*
X146329091Y-153292517D01*
X146278796Y-153157669D01*
X146278795Y-153157668D01*
X146278793Y-153157664D01*
X146192547Y-153042455D01*
X146192544Y-153042452D01*
X146077335Y-152956206D01*
X146077328Y-152956202D01*
X145945917Y-152907189D01*
X145889983Y-152865318D01*
X145865566Y-152799853D01*
X145880418Y-152731580D01*
X145901563Y-152703332D01*
X146023495Y-152581401D01*
X146159035Y-152387830D01*
X146258903Y-152173663D01*
X146320063Y-151945408D01*
X146340659Y-151710000D01*
X146320063Y-151474592D01*
X146258903Y-151246337D01*
X146159035Y-151032171D01*
X146033825Y-150853351D01*
X146023494Y-150838597D01*
X145856402Y-150671506D01*
X145856396Y-150671501D01*
X145670842Y-150541575D01*
X145627217Y-150486998D01*
X145620023Y-150417500D01*
X145651546Y-150355145D01*
X145670842Y-150338425D01*
X145693026Y-150322891D01*
X145856401Y-150208495D01*
X146023495Y-150041401D01*
X146159035Y-149847830D01*
X146258903Y-149633663D01*
X146320063Y-149405408D01*
X146340659Y-149170000D01*
X146320063Y-148934592D01*
X146258903Y-148706337D01*
X146159035Y-148492171D01*
X146033825Y-148313351D01*
X146023494Y-148298597D01*
X145856402Y-148131506D01*
X145856396Y-148131501D01*
X145670842Y-148001575D01*
X145627217Y-147946998D01*
X145620023Y-147877500D01*
X145651546Y-147815145D01*
X145670842Y-147798425D01*
X145693026Y-147782891D01*
X145856401Y-147668495D01*
X146023495Y-147501401D01*
X146159035Y-147307830D01*
X146258903Y-147093663D01*
X146320063Y-146865408D01*
X146340659Y-146630000D01*
X146320063Y-146394592D01*
X146258903Y-146166337D01*
X146159035Y-145952171D01*
X146033825Y-145773351D01*
X146023494Y-145758597D01*
X145856402Y-145591506D01*
X145856396Y-145591501D01*
X145670842Y-145461575D01*
X145627217Y-145406998D01*
X145620023Y-145337500D01*
X145651546Y-145275145D01*
X145670842Y-145258425D01*
X145730106Y-145216928D01*
X145856401Y-145128495D01*
X146023495Y-144961401D01*
X146159035Y-144767830D01*
X146258903Y-144553663D01*
X146320063Y-144325408D01*
X146340659Y-144090000D01*
X146320063Y-143854592D01*
X146264357Y-143646692D01*
X146258905Y-143626344D01*
X146258904Y-143626343D01*
X146258903Y-143626337D01*
X146159035Y-143412171D01*
X146150290Y-143399682D01*
X146023496Y-143218600D01*
X145983887Y-143178991D01*
X145901567Y-143096671D01*
X145868084Y-143035351D01*
X145873068Y-142965659D01*
X145914939Y-142909725D01*
X145945915Y-142892810D01*
X146077331Y-142843796D01*
X146192546Y-142757546D01*
X146278796Y-142642331D01*
X146329091Y-142507483D01*
X146335500Y-142447873D01*
X146335499Y-140652128D01*
X146329091Y-140592517D01*
X146324422Y-140580000D01*
X146278797Y-140457671D01*
X146278793Y-140457664D01*
X146192547Y-140342455D01*
X146192544Y-140342452D01*
X146077335Y-140256206D01*
X146077328Y-140256202D01*
X145945917Y-140207189D01*
X145889983Y-140165318D01*
X145865566Y-140099853D01*
X145880418Y-140031580D01*
X145901563Y-140003332D01*
X146023495Y-139881401D01*
X146159035Y-139687830D01*
X146258903Y-139473663D01*
X146320063Y-139245408D01*
X146340659Y-139010000D01*
X146320063Y-138774592D01*
X146258903Y-138546337D01*
X146159035Y-138332171D01*
X146149573Y-138318657D01*
X146023494Y-138138597D01*
X145856402Y-137971506D01*
X145856396Y-137971501D01*
X145670842Y-137841575D01*
X145627217Y-137786998D01*
X145620023Y-137717500D01*
X145651546Y-137655145D01*
X145670842Y-137638425D01*
X145774445Y-137565881D01*
X145856401Y-137508495D01*
X146023495Y-137341401D01*
X146159035Y-137147830D01*
X146258903Y-136933663D01*
X146320063Y-136705408D01*
X146340659Y-136470000D01*
X146320063Y-136234592D01*
X146258903Y-136006337D01*
X146159035Y-135792171D01*
X146134897Y-135757697D01*
X146023494Y-135598597D01*
X145856402Y-135431506D01*
X145856396Y-135431501D01*
X145670842Y-135301575D01*
X145627217Y-135246998D01*
X145620023Y-135177500D01*
X145651546Y-135115145D01*
X145670842Y-135098425D01*
X145784678Y-135018716D01*
X145856401Y-134968495D01*
X146023495Y-134801401D01*
X146159035Y-134607830D01*
X146258903Y-134393663D01*
X146320063Y-134165408D01*
X146340659Y-133930000D01*
X146320063Y-133694592D01*
X146258903Y-133466337D01*
X146159035Y-133252171D01*
X146023495Y-133058599D01*
X146023494Y-133058597D01*
X145856402Y-132891506D01*
X145856396Y-132891501D01*
X145670842Y-132761575D01*
X145627217Y-132706998D01*
X145620023Y-132637500D01*
X145651546Y-132575145D01*
X145670842Y-132558425D01*
X145840097Y-132439911D01*
X145856401Y-132428495D01*
X146023495Y-132261401D01*
X146159035Y-132067830D01*
X146258903Y-131853663D01*
X146320063Y-131625408D01*
X146340659Y-131390000D01*
X146340111Y-131383742D01*
X146320063Y-131154596D01*
X146320063Y-131154592D01*
X146258903Y-130926337D01*
X146159035Y-130712171D01*
X146143621Y-130690158D01*
X146023496Y-130518600D01*
X146004896Y-130500000D01*
X145901567Y-130396671D01*
X145868084Y-130335351D01*
X145873068Y-130265659D01*
X145914939Y-130209725D01*
X145945915Y-130192810D01*
X146077331Y-130143796D01*
X146192546Y-130057546D01*
X146278796Y-129942331D01*
X146329091Y-129807483D01*
X146335500Y-129747873D01*
X146335499Y-127952128D01*
X146329091Y-127892517D01*
X146278806Y-127757697D01*
X146278797Y-127757671D01*
X146278793Y-127757664D01*
X146192547Y-127642455D01*
X146192544Y-127642452D01*
X146077335Y-127556206D01*
X146077328Y-127556202D01*
X145945917Y-127507189D01*
X145889983Y-127465318D01*
X145865566Y-127399853D01*
X145880418Y-127331580D01*
X145901563Y-127303332D01*
X146023495Y-127181401D01*
X146159035Y-126987830D01*
X146258903Y-126773663D01*
X146320063Y-126545408D01*
X146340659Y-126310000D01*
X146320063Y-126074592D01*
X146258903Y-125846337D01*
X146159035Y-125632171D01*
X146141058Y-125606496D01*
X146023494Y-125438597D01*
X146015096Y-125430199D01*
X145981611Y-125368876D01*
X145986595Y-125299184D01*
X146015093Y-125254840D01*
X146618420Y-124651516D01*
X146697477Y-124514584D01*
X146738401Y-124361857D01*
X146738401Y-124203742D01*
X146738401Y-124196147D01*
X146738400Y-124196129D01*
X146738400Y-120647043D01*
X146733699Y-120629501D01*
X146733698Y-120629497D01*
X146713046Y-120552422D01*
X146712979Y-120552171D01*
X146697477Y-120494316D01*
X146697473Y-120494309D01*
X146618424Y-120357390D01*
X146618421Y-120357386D01*
X146618420Y-120357384D01*
X146506616Y-120245580D01*
X146506615Y-120245579D01*
X146502285Y-120241249D01*
X146502274Y-120241239D01*
X146010646Y-119749611D01*
X145977161Y-119688288D01*
X145982145Y-119618596D01*
X146010644Y-119574251D01*
X146023495Y-119561401D01*
X146159035Y-119367830D01*
X146258903Y-119153663D01*
X146320063Y-118925408D01*
X146340659Y-118690000D01*
X146320063Y-118454592D01*
X146258903Y-118226337D01*
X146159035Y-118012171D01*
X146023495Y-117818599D01*
X145901567Y-117696671D01*
X145868084Y-117635351D01*
X145873068Y-117565659D01*
X145914939Y-117509725D01*
X145945915Y-117492810D01*
X146077331Y-117443796D01*
X146192546Y-117357546D01*
X146278796Y-117242331D01*
X146329091Y-117107483D01*
X146335500Y-117047873D01*
X146335499Y-115252128D01*
X146329091Y-115192517D01*
X146328748Y-115191598D01*
X146278797Y-115057671D01*
X146278793Y-115057664D01*
X146192547Y-114942455D01*
X146192544Y-114942452D01*
X146077335Y-114856206D01*
X146077328Y-114856202D01*
X145945917Y-114807189D01*
X145889983Y-114765318D01*
X145865566Y-114699853D01*
X145880418Y-114631580D01*
X145901563Y-114603332D01*
X146023495Y-114481401D01*
X146159035Y-114287830D01*
X146186003Y-114229997D01*
X150194723Y-114229997D01*
X150194723Y-114230002D01*
X150213793Y-114447975D01*
X150213793Y-114447979D01*
X150270422Y-114659322D01*
X150270424Y-114659326D01*
X150270425Y-114659330D01*
X150289321Y-114699853D01*
X150362897Y-114857638D01*
X150362898Y-114857639D01*
X150488402Y-115036877D01*
X150643123Y-115191598D01*
X150822361Y-115317102D01*
X151020670Y-115409575D01*
X151232023Y-115466207D01*
X151414926Y-115482208D01*
X151449998Y-115485277D01*
X151450000Y-115485277D01*
X151450002Y-115485277D01*
X151478254Y-115482805D01*
X151667977Y-115466207D01*
X151879330Y-115409575D01*
X152077639Y-115317102D01*
X152256877Y-115191598D01*
X152411598Y-115036877D01*
X152537102Y-114857639D01*
X152629575Y-114659330D01*
X152686207Y-114447977D01*
X152705277Y-114230000D01*
X152705277Y-114229997D01*
X155044723Y-114229997D01*
X155044723Y-114230002D01*
X155063793Y-114447975D01*
X155063793Y-114447979D01*
X155120422Y-114659322D01*
X155120424Y-114659326D01*
X155120425Y-114659330D01*
X155139321Y-114699853D01*
X155212897Y-114857638D01*
X155212898Y-114857639D01*
X155338402Y-115036877D01*
X155493123Y-115191598D01*
X155672361Y-115317102D01*
X155870670Y-115409575D01*
X156082023Y-115466207D01*
X156264926Y-115482208D01*
X156299998Y-115485277D01*
X156300000Y-115485277D01*
X156300002Y-115485277D01*
X156328254Y-115482805D01*
X156517977Y-115466207D01*
X156729330Y-115409575D01*
X156927639Y-115317102D01*
X157106877Y-115191598D01*
X157261598Y-115036877D01*
X157387102Y-114857639D01*
X157479575Y-114659330D01*
X157536207Y-114447977D01*
X157555277Y-114230000D01*
X157536207Y-114012023D01*
X157498000Y-113869432D01*
X157479577Y-113800677D01*
X157479576Y-113800676D01*
X157479575Y-113800670D01*
X157387102Y-113602362D01*
X157387100Y-113602359D01*
X157387099Y-113602357D01*
X157261599Y-113423124D01*
X157188975Y-113350500D01*
X157106877Y-113268402D01*
X156968978Y-113171844D01*
X156927638Y-113142897D01*
X156828484Y-113096661D01*
X156729330Y-113050425D01*
X156729326Y-113050424D01*
X156729322Y-113050422D01*
X156517977Y-112993793D01*
X156300002Y-112974723D01*
X156299998Y-112974723D01*
X156154682Y-112987436D01*
X156082023Y-112993793D01*
X156082020Y-112993793D01*
X155870677Y-113050422D01*
X155870668Y-113050426D01*
X155672361Y-113142898D01*
X155672357Y-113142900D01*
X155493121Y-113268402D01*
X155338402Y-113423121D01*
X155212900Y-113602357D01*
X155212898Y-113602361D01*
X155120426Y-113800668D01*
X155120422Y-113800677D01*
X155063793Y-114012020D01*
X155063793Y-114012024D01*
X155044723Y-114229997D01*
X152705277Y-114229997D01*
X152686207Y-114012023D01*
X152648000Y-113869432D01*
X152629577Y-113800677D01*
X152629576Y-113800676D01*
X152629575Y-113800670D01*
X152537102Y-113602362D01*
X152537100Y-113602359D01*
X152537099Y-113602357D01*
X152411599Y-113423124D01*
X152338975Y-113350500D01*
X152256877Y-113268402D01*
X152118978Y-113171844D01*
X152077638Y-113142897D01*
X151978484Y-113096661D01*
X151879330Y-113050425D01*
X151879326Y-113050424D01*
X151879322Y-113050422D01*
X151667977Y-112993793D01*
X151450002Y-112974723D01*
X151449998Y-112974723D01*
X151304682Y-112987436D01*
X151232023Y-112993793D01*
X151232020Y-112993793D01*
X151020677Y-113050422D01*
X151020668Y-113050426D01*
X150822361Y-113142898D01*
X150822357Y-113142900D01*
X150643121Y-113268402D01*
X150488402Y-113423121D01*
X150362900Y-113602357D01*
X150362898Y-113602361D01*
X150270426Y-113800668D01*
X150270422Y-113800677D01*
X150213793Y-114012020D01*
X150213793Y-114012024D01*
X150194723Y-114229997D01*
X146186003Y-114229997D01*
X146258903Y-114073663D01*
X146320063Y-113845408D01*
X146340659Y-113610000D01*
X146320063Y-113374592D01*
X146258903Y-113146337D01*
X146159035Y-112932171D01*
X146023495Y-112738599D01*
X146023494Y-112738597D01*
X145856402Y-112571506D01*
X145856396Y-112571501D01*
X145670842Y-112441575D01*
X145627217Y-112386998D01*
X145620023Y-112317500D01*
X145651546Y-112255145D01*
X145670842Y-112238425D01*
X145693026Y-112222891D01*
X145856401Y-112108495D01*
X146023495Y-111941401D01*
X146159035Y-111747830D01*
X146258903Y-111533663D01*
X146320063Y-111305408D01*
X146329286Y-111199993D01*
X149744700Y-111199993D01*
X149744700Y-111200006D01*
X149763864Y-111431297D01*
X149763866Y-111431308D01*
X149820842Y-111656300D01*
X149914075Y-111868848D01*
X150041016Y-112063147D01*
X150041019Y-112063151D01*
X150041021Y-112063153D01*
X150198216Y-112233913D01*
X150198219Y-112233915D01*
X150198222Y-112233918D01*
X150381365Y-112376464D01*
X150381371Y-112376468D01*
X150381374Y-112376470D01*
X150585497Y-112486936D01*
X150699487Y-112526068D01*
X150805015Y-112562297D01*
X150805017Y-112562297D01*
X150805019Y-112562298D01*
X151033951Y-112600500D01*
X151033952Y-112600500D01*
X151266048Y-112600500D01*
X151266049Y-112600500D01*
X151494981Y-112562298D01*
X151714503Y-112486936D01*
X151918626Y-112376470D01*
X152101784Y-112233913D01*
X152258979Y-112063153D01*
X152385924Y-111868849D01*
X152479157Y-111656300D01*
X152536134Y-111431305D01*
X152536135Y-111431297D01*
X152555300Y-111200006D01*
X152555300Y-111199993D01*
X155194700Y-111199993D01*
X155194700Y-111200006D01*
X155213864Y-111431297D01*
X155213866Y-111431308D01*
X155270842Y-111656300D01*
X155364075Y-111868848D01*
X155491016Y-112063147D01*
X155491019Y-112063151D01*
X155491021Y-112063153D01*
X155648216Y-112233913D01*
X155648219Y-112233915D01*
X155648222Y-112233918D01*
X155831365Y-112376464D01*
X155831371Y-112376468D01*
X155831374Y-112376470D01*
X156035497Y-112486936D01*
X156149487Y-112526068D01*
X156255015Y-112562297D01*
X156255017Y-112562297D01*
X156255019Y-112562298D01*
X156483951Y-112600500D01*
X156483952Y-112600500D01*
X156716048Y-112600500D01*
X156716049Y-112600500D01*
X156944981Y-112562298D01*
X157164503Y-112486936D01*
X157368626Y-112376470D01*
X157551784Y-112233913D01*
X157708979Y-112063153D01*
X157835924Y-111868849D01*
X157929157Y-111656300D01*
X157986134Y-111431305D01*
X157986135Y-111431297D01*
X158005300Y-111200006D01*
X158005300Y-111199993D01*
X157994529Y-111069999D01*
X161409341Y-111069999D01*
X161409341Y-111070000D01*
X161429936Y-111305403D01*
X161429938Y-111305413D01*
X161491094Y-111533655D01*
X161491096Y-111533659D01*
X161491097Y-111533663D01*
X161528751Y-111614411D01*
X161590965Y-111747830D01*
X161590967Y-111747834D01*
X161726501Y-111941395D01*
X161726506Y-111941402D01*
X161893597Y-112108493D01*
X161893603Y-112108498D01*
X162079158Y-112238425D01*
X162122783Y-112293002D01*
X162129977Y-112362500D01*
X162098454Y-112424855D01*
X162079158Y-112441575D01*
X161893597Y-112571505D01*
X161726505Y-112738597D01*
X161590965Y-112932169D01*
X161590964Y-112932171D01*
X161491098Y-113146335D01*
X161491094Y-113146344D01*
X161429938Y-113374586D01*
X161429936Y-113374596D01*
X161409341Y-113609999D01*
X161409341Y-113610000D01*
X161429936Y-113845403D01*
X161429938Y-113845413D01*
X161491094Y-114073655D01*
X161491096Y-114073659D01*
X161491097Y-114073663D01*
X161547425Y-114194458D01*
X161590965Y-114287830D01*
X161590967Y-114287834D01*
X161656110Y-114380867D01*
X161726501Y-114481396D01*
X161726506Y-114481402D01*
X161848430Y-114603326D01*
X161881915Y-114664649D01*
X161876931Y-114734341D01*
X161835059Y-114790274D01*
X161804083Y-114807189D01*
X161672669Y-114856203D01*
X161672664Y-114856206D01*
X161557455Y-114942452D01*
X161557452Y-114942455D01*
X161471206Y-115057664D01*
X161471202Y-115057671D01*
X161420908Y-115192517D01*
X161417234Y-115226697D01*
X161414501Y-115252123D01*
X161414500Y-115252135D01*
X161414500Y-117047870D01*
X161414501Y-117047876D01*
X161420908Y-117107483D01*
X161471202Y-117242328D01*
X161471206Y-117242335D01*
X161557452Y-117357544D01*
X161557455Y-117357547D01*
X161672664Y-117443793D01*
X161672671Y-117443797D01*
X161804081Y-117492810D01*
X161860015Y-117534681D01*
X161884432Y-117600145D01*
X161869580Y-117668418D01*
X161848430Y-117696673D01*
X161726503Y-117818600D01*
X161590965Y-118012169D01*
X161590964Y-118012171D01*
X161491098Y-118226335D01*
X161491094Y-118226344D01*
X161429938Y-118454586D01*
X161429936Y-118454596D01*
X161409341Y-118689999D01*
X161409341Y-118690000D01*
X161429936Y-118925403D01*
X161429938Y-118925413D01*
X161491094Y-119153655D01*
X161491096Y-119153659D01*
X161491097Y-119153663D01*
X161590965Y-119367829D01*
X161590965Y-119367830D01*
X161590967Y-119367834D01*
X161726501Y-119561395D01*
X161726506Y-119561402D01*
X161893597Y-119728493D01*
X161893603Y-119728498D01*
X162079594Y-119858730D01*
X162123219Y-119913307D01*
X162130413Y-119982805D01*
X162098890Y-120045160D01*
X162079595Y-120061880D01*
X161893922Y-120191890D01*
X161893920Y-120191891D01*
X161726891Y-120358920D01*
X161726886Y-120358926D01*
X161591400Y-120552420D01*
X161591399Y-120552422D01*
X161491570Y-120766507D01*
X161491567Y-120766513D01*
X161434364Y-120979999D01*
X161434364Y-120980000D01*
X162320440Y-120980000D01*
X162289755Y-121033147D01*
X162255000Y-121162857D01*
X162255000Y-121297143D01*
X162289755Y-121426853D01*
X162320440Y-121480000D01*
X161434364Y-121480000D01*
X161491567Y-121693486D01*
X161491570Y-121693492D01*
X161591399Y-121907578D01*
X161726894Y-122101082D01*
X161893917Y-122268105D01*
X162079595Y-122398119D01*
X162123219Y-122452696D01*
X162130412Y-122522195D01*
X162098890Y-122584549D01*
X162079595Y-122601269D01*
X161893594Y-122731508D01*
X161726505Y-122898597D01*
X161590965Y-123092169D01*
X161590964Y-123092171D01*
X161491098Y-123306335D01*
X161491094Y-123306344D01*
X161429938Y-123534586D01*
X161429936Y-123534596D01*
X161409341Y-123769999D01*
X161409341Y-123770000D01*
X161429936Y-124005403D01*
X161429938Y-124005413D01*
X161491094Y-124233655D01*
X161491096Y-124233659D01*
X161491097Y-124233663D01*
X161547425Y-124354458D01*
X161590965Y-124447830D01*
X161590967Y-124447834D01*
X161726501Y-124641395D01*
X161726506Y-124641402D01*
X161893597Y-124808493D01*
X161893603Y-124808498D01*
X162079158Y-124938425D01*
X162122783Y-124993002D01*
X162129977Y-125062500D01*
X162098454Y-125124855D01*
X162079158Y-125141575D01*
X161893597Y-125271505D01*
X161726505Y-125438597D01*
X161590965Y-125632169D01*
X161590964Y-125632171D01*
X161491098Y-125846335D01*
X161491094Y-125846344D01*
X161429938Y-126074586D01*
X161429936Y-126074596D01*
X161409341Y-126309999D01*
X161409341Y-126310000D01*
X161429936Y-126545403D01*
X161429938Y-126545413D01*
X161491094Y-126773655D01*
X161491096Y-126773660D01*
X161491097Y-126773663D01*
X161537799Y-126873815D01*
X161590965Y-126987830D01*
X161590967Y-126987834D01*
X161666385Y-127095541D01*
X161726501Y-127181396D01*
X161726506Y-127181402D01*
X161848430Y-127303326D01*
X161881915Y-127364649D01*
X161876931Y-127434341D01*
X161835059Y-127490274D01*
X161804083Y-127507189D01*
X161672669Y-127556203D01*
X161672664Y-127556206D01*
X161557455Y-127642452D01*
X161557452Y-127642455D01*
X161471206Y-127757664D01*
X161471202Y-127757671D01*
X161420908Y-127892517D01*
X161414501Y-127952116D01*
X161414501Y-127952123D01*
X161414500Y-127952135D01*
X161414500Y-129747870D01*
X161414501Y-129747876D01*
X161420908Y-129807483D01*
X161471202Y-129942328D01*
X161471206Y-129942335D01*
X161557452Y-130057544D01*
X161557455Y-130057547D01*
X161672664Y-130143793D01*
X161672671Y-130143797D01*
X161804081Y-130192810D01*
X161860015Y-130234681D01*
X161884432Y-130300145D01*
X161869580Y-130368418D01*
X161848430Y-130396673D01*
X161726503Y-130518600D01*
X161590965Y-130712169D01*
X161590964Y-130712171D01*
X161491098Y-130926335D01*
X161491094Y-130926344D01*
X161429938Y-131154586D01*
X161429936Y-131154596D01*
X161409341Y-131389999D01*
X161409341Y-131390000D01*
X161429936Y-131625403D01*
X161429938Y-131625413D01*
X161491094Y-131853655D01*
X161491096Y-131853659D01*
X161491097Y-131853663D01*
X161590965Y-132067830D01*
X161590967Y-132067834D01*
X161726501Y-132261395D01*
X161726506Y-132261402D01*
X161893597Y-132428493D01*
X161893603Y-132428498D01*
X162079158Y-132558425D01*
X162122783Y-132613002D01*
X162129977Y-132682500D01*
X162098454Y-132744855D01*
X162079158Y-132761575D01*
X161893597Y-132891505D01*
X161726505Y-133058597D01*
X161590965Y-133252169D01*
X161590964Y-133252171D01*
X161491098Y-133466335D01*
X161491094Y-133466344D01*
X161429938Y-133694586D01*
X161429936Y-133694596D01*
X161409341Y-133929999D01*
X161409341Y-133930000D01*
X161429936Y-134165403D01*
X161429938Y-134165413D01*
X161491094Y-134393655D01*
X161491096Y-134393659D01*
X161491097Y-134393663D01*
X161537852Y-134493929D01*
X161590965Y-134607830D01*
X161590967Y-134607834D01*
X161726501Y-134801395D01*
X161726506Y-134801402D01*
X161893597Y-134968493D01*
X161893603Y-134968498D01*
X162079158Y-135098425D01*
X162122783Y-135153002D01*
X162129977Y-135222500D01*
X162098454Y-135284855D01*
X162079158Y-135301575D01*
X161893597Y-135431505D01*
X161726505Y-135598597D01*
X161590965Y-135792169D01*
X161590964Y-135792171D01*
X161491098Y-136006335D01*
X161491094Y-136006344D01*
X161429938Y-136234586D01*
X161429936Y-136234596D01*
X161409341Y-136469999D01*
X161409341Y-136470000D01*
X161429936Y-136705403D01*
X161429938Y-136705413D01*
X161491094Y-136933655D01*
X161491096Y-136933659D01*
X161491097Y-136933663D01*
X161548241Y-137056208D01*
X161590965Y-137147830D01*
X161590967Y-137147834D01*
X161726501Y-137341395D01*
X161726506Y-137341402D01*
X161893597Y-137508493D01*
X161893603Y-137508498D01*
X162079158Y-137638425D01*
X162122783Y-137693002D01*
X162129977Y-137762500D01*
X162098454Y-137824855D01*
X162079158Y-137841575D01*
X161893597Y-137971505D01*
X161726505Y-138138597D01*
X161590965Y-138332169D01*
X161590964Y-138332171D01*
X161491098Y-138546335D01*
X161491094Y-138546344D01*
X161429938Y-138774586D01*
X161429936Y-138774596D01*
X161409341Y-139009999D01*
X161409341Y-139010000D01*
X161429936Y-139245403D01*
X161429938Y-139245413D01*
X161491094Y-139473655D01*
X161491096Y-139473659D01*
X161491097Y-139473663D01*
X161548241Y-139596208D01*
X161590965Y-139687830D01*
X161590967Y-139687834D01*
X161699281Y-139842521D01*
X161726501Y-139881396D01*
X161726506Y-139881402D01*
X161848430Y-140003326D01*
X161881915Y-140064649D01*
X161876931Y-140134341D01*
X161835059Y-140190274D01*
X161804083Y-140207189D01*
X161672669Y-140256203D01*
X161672664Y-140256206D01*
X161557455Y-140342452D01*
X161557452Y-140342455D01*
X161471206Y-140457664D01*
X161471202Y-140457671D01*
X161420908Y-140592517D01*
X161414501Y-140652116D01*
X161414501Y-140652123D01*
X161414500Y-140652135D01*
X161414500Y-142447870D01*
X161414501Y-142447876D01*
X161420908Y-142507483D01*
X161471202Y-142642328D01*
X161471206Y-142642335D01*
X161557452Y-142757544D01*
X161557455Y-142757547D01*
X161672664Y-142843793D01*
X161672671Y-142843797D01*
X161804081Y-142892810D01*
X161860015Y-142934681D01*
X161884432Y-143000145D01*
X161869580Y-143068418D01*
X161848430Y-143096673D01*
X161726503Y-143218600D01*
X161590965Y-143412169D01*
X161590964Y-143412171D01*
X161491098Y-143626335D01*
X161491094Y-143626344D01*
X161429938Y-143854586D01*
X161429936Y-143854596D01*
X161409341Y-144089999D01*
X161409341Y-144090000D01*
X161429936Y-144325403D01*
X161429938Y-144325413D01*
X161491094Y-144553655D01*
X161491096Y-144553659D01*
X161491097Y-144553663D01*
X161506461Y-144586611D01*
X161590965Y-144767830D01*
X161590967Y-144767834D01*
X161726501Y-144961395D01*
X161726506Y-144961402D01*
X161893597Y-145128493D01*
X161893603Y-145128498D01*
X162079158Y-145258425D01*
X162122783Y-145313002D01*
X162129977Y-145382500D01*
X162098454Y-145444855D01*
X162079158Y-145461575D01*
X161893597Y-145591505D01*
X161726505Y-145758597D01*
X161590965Y-145952169D01*
X161590964Y-145952171D01*
X161491098Y-146166335D01*
X161491094Y-146166344D01*
X161429938Y-146394586D01*
X161429936Y-146394596D01*
X161409341Y-146629999D01*
X161409341Y-146630000D01*
X161429936Y-146865403D01*
X161429938Y-146865413D01*
X161491094Y-147093655D01*
X161491096Y-147093659D01*
X161491097Y-147093663D01*
X161526382Y-147169331D01*
X161590965Y-147307830D01*
X161590967Y-147307834D01*
X161726501Y-147501395D01*
X161726506Y-147501402D01*
X161893597Y-147668493D01*
X161893603Y-147668498D01*
X162079158Y-147798425D01*
X162122783Y-147853002D01*
X162129977Y-147922500D01*
X162098454Y-147984855D01*
X162079158Y-148001575D01*
X161893597Y-148131505D01*
X161726505Y-148298597D01*
X161590965Y-148492169D01*
X161590964Y-148492171D01*
X161491098Y-148706335D01*
X161491094Y-148706344D01*
X161429938Y-148934586D01*
X161429936Y-148934596D01*
X161409341Y-149169999D01*
X161409341Y-149170000D01*
X161429936Y-149405403D01*
X161429938Y-149405413D01*
X161491094Y-149633655D01*
X161491096Y-149633659D01*
X161491097Y-149633663D01*
X161548241Y-149756208D01*
X161590965Y-149847830D01*
X161590967Y-149847834D01*
X161726501Y-150041395D01*
X161726506Y-150041402D01*
X161893597Y-150208493D01*
X161893603Y-150208498D01*
X162079158Y-150338425D01*
X162122783Y-150393002D01*
X162129977Y-150462500D01*
X162098454Y-150524855D01*
X162079158Y-150541575D01*
X161893597Y-150671505D01*
X161726505Y-150838597D01*
X161590965Y-151032169D01*
X161590964Y-151032171D01*
X161491098Y-151246335D01*
X161491094Y-151246344D01*
X161429938Y-151474586D01*
X161429936Y-151474596D01*
X161409341Y-151709999D01*
X161409341Y-151710000D01*
X161429936Y-151945403D01*
X161429938Y-151945413D01*
X161491094Y-152173655D01*
X161491096Y-152173659D01*
X161491097Y-152173663D01*
X161547382Y-152294366D01*
X161590965Y-152387830D01*
X161590967Y-152387834D01*
X161634099Y-152449432D01*
X161726501Y-152581396D01*
X161726506Y-152581402D01*
X161848430Y-152703326D01*
X161881915Y-152764649D01*
X161876931Y-152834341D01*
X161835059Y-152890274D01*
X161804083Y-152907189D01*
X161672669Y-152956203D01*
X161672664Y-152956206D01*
X161557455Y-153042452D01*
X161557452Y-153042455D01*
X161471206Y-153157664D01*
X161471202Y-153157671D01*
X161420908Y-153292517D01*
X161414501Y-153352116D01*
X161414501Y-153352123D01*
X161414500Y-153352135D01*
X161414500Y-155147870D01*
X161414501Y-155147876D01*
X161420908Y-155207483D01*
X161471202Y-155342328D01*
X161471206Y-155342335D01*
X161557452Y-155457544D01*
X161557455Y-155457547D01*
X161672664Y-155543793D01*
X161672671Y-155543797D01*
X161804081Y-155592810D01*
X161860015Y-155634681D01*
X161884432Y-155700145D01*
X161869580Y-155768418D01*
X161848430Y-155796673D01*
X161726503Y-155918600D01*
X161590965Y-156112169D01*
X161590964Y-156112171D01*
X161491098Y-156326335D01*
X161491094Y-156326344D01*
X161429938Y-156554586D01*
X161429936Y-156554596D01*
X161409341Y-156789999D01*
X161409341Y-156790000D01*
X161429936Y-157025403D01*
X161429938Y-157025413D01*
X161491094Y-157253655D01*
X161491096Y-157253659D01*
X161491097Y-157253663D01*
X161556404Y-157393713D01*
X161590965Y-157467830D01*
X161590967Y-157467834D01*
X161726501Y-157661395D01*
X161726506Y-157661402D01*
X161893597Y-157828493D01*
X161893603Y-157828498D01*
X162079158Y-157958425D01*
X162122783Y-158013002D01*
X162129977Y-158082500D01*
X162098454Y-158144855D01*
X162079158Y-158161575D01*
X161893597Y-158291505D01*
X161726505Y-158458597D01*
X161590965Y-158652169D01*
X161590964Y-158652171D01*
X161491098Y-158866335D01*
X161491094Y-158866344D01*
X161429938Y-159094586D01*
X161429936Y-159094596D01*
X161409341Y-159329999D01*
X161409341Y-159330000D01*
X161429936Y-159565403D01*
X161429938Y-159565413D01*
X161491094Y-159793655D01*
X161491096Y-159793659D01*
X161491097Y-159793663D01*
X161586322Y-159997873D01*
X161590965Y-160007830D01*
X161590967Y-160007834D01*
X161682456Y-160138493D01*
X161726505Y-160201401D01*
X161893599Y-160368495D01*
X161929733Y-160393796D01*
X162087165Y-160504032D01*
X162087167Y-160504033D01*
X162087170Y-160504035D01*
X162301337Y-160603903D01*
X162529592Y-160665063D01*
X162717918Y-160681539D01*
X162764999Y-160685659D01*
X162765000Y-160685659D01*
X162765001Y-160685659D01*
X162804234Y-160682226D01*
X163000408Y-160665063D01*
X163228663Y-160603903D01*
X163442830Y-160504035D01*
X163636401Y-160368495D01*
X163803495Y-160201401D01*
X163939035Y-160007830D01*
X164038903Y-159793663D01*
X164100063Y-159565408D01*
X164120659Y-159330000D01*
X164100063Y-159094592D01*
X164038903Y-158866337D01*
X163939035Y-158652171D01*
X163853564Y-158530104D01*
X163803494Y-158458597D01*
X163636402Y-158291506D01*
X163636396Y-158291501D01*
X163450842Y-158161575D01*
X163407217Y-158106998D01*
X163400023Y-158037500D01*
X163431546Y-157975145D01*
X163450842Y-157958425D01*
X163497197Y-157925967D01*
X163636401Y-157828495D01*
X163803495Y-157661401D01*
X163939035Y-157467830D01*
X163973596Y-157393713D01*
X185649500Y-157393713D01*
X185649500Y-157606286D01*
X185681163Y-157806202D01*
X185682754Y-157816243D01*
X185746685Y-158013002D01*
X185748444Y-158018414D01*
X185844951Y-158207820D01*
X185969890Y-158379786D01*
X186120213Y-158530109D01*
X186292179Y-158655048D01*
X186292181Y-158655049D01*
X186292184Y-158655051D01*
X186481588Y-158751557D01*
X186683757Y-158817246D01*
X186893713Y-158850500D01*
X186893714Y-158850500D01*
X187106286Y-158850500D01*
X187106287Y-158850500D01*
X187316243Y-158817246D01*
X187518412Y-158751557D01*
X187707816Y-158655051D01*
X187733577Y-158636335D01*
X187879786Y-158530109D01*
X187879788Y-158530106D01*
X187879792Y-158530104D01*
X188030104Y-158379792D01*
X188030106Y-158379788D01*
X188030109Y-158379786D01*
X188155048Y-158207820D01*
X188155047Y-158207820D01*
X188155051Y-158207816D01*
X188251557Y-158018412D01*
X188317246Y-157816243D01*
X188350500Y-157606287D01*
X188350500Y-157393713D01*
X188317246Y-157183757D01*
X188251557Y-156981588D01*
X188155051Y-156792184D01*
X188155049Y-156792181D01*
X188155048Y-156792179D01*
X188030109Y-156620213D01*
X187879786Y-156469890D01*
X187707820Y-156344951D01*
X187518414Y-156248444D01*
X187518413Y-156248443D01*
X187518412Y-156248443D01*
X187316243Y-156182754D01*
X187316241Y-156182753D01*
X187316240Y-156182753D01*
X187154957Y-156157208D01*
X187106287Y-156149500D01*
X186893713Y-156149500D01*
X186845042Y-156157208D01*
X186683760Y-156182753D01*
X186481585Y-156248444D01*
X186292179Y-156344951D01*
X186120213Y-156469890D01*
X185969890Y-156620213D01*
X185844951Y-156792179D01*
X185748444Y-156981585D01*
X185682753Y-157183760D01*
X185649500Y-157393713D01*
X163973596Y-157393713D01*
X164038903Y-157253663D01*
X164100063Y-157025408D01*
X164120659Y-156790000D01*
X164100063Y-156554592D01*
X164038903Y-156326337D01*
X163939035Y-156112171D01*
X163803495Y-155918599D01*
X163681567Y-155796671D01*
X163648084Y-155735351D01*
X163653068Y-155665659D01*
X163694939Y-155609725D01*
X163725915Y-155592810D01*
X163857331Y-155543796D01*
X163972546Y-155457546D01*
X164058796Y-155342331D01*
X164109091Y-155207483D01*
X164115500Y-155147873D01*
X164115499Y-153579998D01*
X181694532Y-153579998D01*
X181694532Y-153580001D01*
X181714364Y-153806686D01*
X181714366Y-153806697D01*
X181773258Y-154026488D01*
X181773261Y-154026497D01*
X181869431Y-154232732D01*
X181869432Y-154232734D01*
X181999954Y-154419141D01*
X182160858Y-154580045D01*
X182160861Y-154580047D01*
X182347266Y-154710568D01*
X182553504Y-154806739D01*
X182773308Y-154865635D01*
X182935230Y-154879801D01*
X182999998Y-154885468D01*
X183000000Y-154885468D01*
X183000002Y-154885468D01*
X183056673Y-154880509D01*
X183226692Y-154865635D01*
X183446496Y-154806739D01*
X183652734Y-154710568D01*
X183839139Y-154580047D01*
X184000047Y-154419139D01*
X184130568Y-154232734D01*
X184226739Y-154026496D01*
X184285635Y-153806692D01*
X184305468Y-153580000D01*
X184285635Y-153353308D01*
X184240916Y-153186415D01*
X184226741Y-153133511D01*
X184226738Y-153133502D01*
X184144062Y-152956204D01*
X184130568Y-152927266D01*
X184000047Y-152740861D01*
X184000045Y-152740858D01*
X183839141Y-152579954D01*
X183652734Y-152449432D01*
X183652732Y-152449431D01*
X183446497Y-152353261D01*
X183446488Y-152353258D01*
X183226697Y-152294366D01*
X183226693Y-152294365D01*
X183226692Y-152294365D01*
X183226691Y-152294364D01*
X183226686Y-152294364D01*
X183000002Y-152274532D01*
X182999998Y-152274532D01*
X182773313Y-152294364D01*
X182773302Y-152294366D01*
X182553511Y-152353258D01*
X182553502Y-152353261D01*
X182347267Y-152449431D01*
X182347265Y-152449432D01*
X182160858Y-152579954D01*
X181999954Y-152740858D01*
X181869432Y-152927265D01*
X181869431Y-152927267D01*
X181773261Y-153133502D01*
X181773258Y-153133511D01*
X181714366Y-153353302D01*
X181714364Y-153353313D01*
X181694532Y-153579998D01*
X164115499Y-153579998D01*
X164115499Y-153352128D01*
X164109091Y-153292517D01*
X164058796Y-153157669D01*
X164058795Y-153157668D01*
X164058793Y-153157664D01*
X163972547Y-153042455D01*
X163972544Y-153042452D01*
X163857335Y-152956206D01*
X163857328Y-152956202D01*
X163725917Y-152907189D01*
X163669983Y-152865318D01*
X163645566Y-152799853D01*
X163660418Y-152731580D01*
X163681563Y-152703332D01*
X163803495Y-152581401D01*
X163939035Y-152387830D01*
X164038903Y-152173663D01*
X164100063Y-151945408D01*
X164120659Y-151710000D01*
X164100063Y-151474592D01*
X164038903Y-151246337D01*
X163939035Y-151032171D01*
X163813825Y-150853351D01*
X163803494Y-150838597D01*
X163636402Y-150671506D01*
X163636396Y-150671501D01*
X163450842Y-150541575D01*
X163407217Y-150486998D01*
X163400023Y-150417500D01*
X163431546Y-150355145D01*
X163450842Y-150338425D01*
X163473026Y-150322891D01*
X163636401Y-150208495D01*
X163803495Y-150041401D01*
X163939035Y-149847830D01*
X164038903Y-149633663D01*
X164100063Y-149405408D01*
X164120659Y-149170000D01*
X164100063Y-148934592D01*
X164038903Y-148706337D01*
X163939035Y-148492171D01*
X163813825Y-148313351D01*
X163803494Y-148298597D01*
X163636402Y-148131506D01*
X163636396Y-148131501D01*
X163450842Y-148001575D01*
X163407217Y-147946998D01*
X163400023Y-147877500D01*
X163431546Y-147815145D01*
X163450842Y-147798425D01*
X163473026Y-147782891D01*
X163636401Y-147668495D01*
X163803495Y-147501401D01*
X163939035Y-147307830D01*
X164038903Y-147093663D01*
X164100063Y-146865408D01*
X164120659Y-146630000D01*
X164100063Y-146394592D01*
X164038903Y-146166337D01*
X163939035Y-145952171D01*
X163813825Y-145773351D01*
X163803494Y-145758597D01*
X163636402Y-145591506D01*
X163636396Y-145591501D01*
X163450842Y-145461575D01*
X163407217Y-145406998D01*
X163400023Y-145337500D01*
X163431546Y-145275145D01*
X163450842Y-145258425D01*
X163510106Y-145216928D01*
X163636401Y-145128495D01*
X163803495Y-144961401D01*
X163939035Y-144767830D01*
X164038903Y-144553663D01*
X164100063Y-144325408D01*
X164120659Y-144090000D01*
X164100063Y-143854592D01*
X164044357Y-143646692D01*
X164038905Y-143626344D01*
X164038904Y-143626343D01*
X164038903Y-143626337D01*
X163939035Y-143412171D01*
X163930290Y-143399682D01*
X163803496Y-143218600D01*
X163763887Y-143178991D01*
X163681567Y-143096671D01*
X163648084Y-143035351D01*
X163653068Y-142965659D01*
X163694939Y-142909725D01*
X163725915Y-142892810D01*
X163857331Y-142843796D01*
X163972546Y-142757546D01*
X164058796Y-142642331D01*
X164109091Y-142507483D01*
X164115500Y-142447873D01*
X164115499Y-140652128D01*
X164109091Y-140592517D01*
X164104422Y-140580000D01*
X164058797Y-140457671D01*
X164058793Y-140457664D01*
X163972547Y-140342455D01*
X163972544Y-140342452D01*
X163857335Y-140256206D01*
X163857328Y-140256202D01*
X163725917Y-140207189D01*
X163669983Y-140165318D01*
X163645566Y-140099853D01*
X163660418Y-140031580D01*
X163681563Y-140003332D01*
X163803495Y-139881401D01*
X163939035Y-139687830D01*
X164038903Y-139473663D01*
X164100063Y-139245408D01*
X164120659Y-139010000D01*
X164100063Y-138774592D01*
X164038903Y-138546337D01*
X163939035Y-138332171D01*
X163929573Y-138318657D01*
X163803494Y-138138597D01*
X163636402Y-137971506D01*
X163636396Y-137971501D01*
X163562843Y-137919999D01*
X169346186Y-137919999D01*
X169346186Y-137920000D01*
X169366601Y-138153346D01*
X169366603Y-138153356D01*
X169427225Y-138379603D01*
X169427227Y-138379607D01*
X169427228Y-138379611D01*
X169526223Y-138591907D01*
X169660579Y-138783787D01*
X169826213Y-138949421D01*
X170018093Y-139083777D01*
X170018094Y-139083777D01*
X170022528Y-139086882D01*
X170021521Y-139088319D01*
X170064297Y-139133190D01*
X170077513Y-139201798D01*
X170051540Y-139266660D01*
X170021953Y-139292297D01*
X170022528Y-139293118D01*
X170018094Y-139296222D01*
X170018093Y-139296223D01*
X169826213Y-139430579D01*
X169826211Y-139430580D01*
X169826208Y-139430583D01*
X169660583Y-139596208D01*
X169526223Y-139788093D01*
X169427229Y-140000387D01*
X169427225Y-140000396D01*
X169366603Y-140226643D01*
X169366601Y-140226653D01*
X169346186Y-140459999D01*
X169346186Y-140460000D01*
X169366601Y-140693346D01*
X169366603Y-140693356D01*
X169427225Y-140919603D01*
X169427227Y-140919607D01*
X169427228Y-140919611D01*
X169526223Y-141131907D01*
X169660579Y-141323787D01*
X169826213Y-141489421D01*
X170018093Y-141623777D01*
X170018094Y-141623777D01*
X170022528Y-141626882D01*
X170021613Y-141628187D01*
X170064787Y-141673456D01*
X170078018Y-141742061D01*
X170052058Y-141806929D01*
X170022236Y-141832779D01*
X170022778Y-141833553D01*
X169937099Y-141893544D01*
X169937098Y-141893545D01*
X170512580Y-142469026D01*
X170474311Y-142479281D01*
X170346889Y-142552849D01*
X170242849Y-142656889D01*
X170169281Y-142784311D01*
X170159026Y-142822579D01*
X169583545Y-142247098D01*
X169583544Y-142247099D01*
X169526659Y-142328341D01*
X169427701Y-142540558D01*
X169427697Y-142540567D01*
X169367097Y-142766731D01*
X169367095Y-142766741D01*
X169346688Y-142999998D01*
X169346688Y-143000001D01*
X169367095Y-143233258D01*
X169367097Y-143233268D01*
X169427697Y-143459432D01*
X169427701Y-143459441D01*
X169526657Y-143671654D01*
X169526658Y-143671656D01*
X169583545Y-143752899D01*
X169583546Y-143752900D01*
X170159026Y-143177419D01*
X170169281Y-143215689D01*
X170242849Y-143343111D01*
X170346889Y-143447151D01*
X170474311Y-143520719D01*
X170512579Y-143530972D01*
X169937098Y-144106453D01*
X170022779Y-144166447D01*
X170021817Y-144167820D01*
X170064786Y-144212872D01*
X170078019Y-144281477D01*
X170052061Y-144346346D01*
X170022017Y-144372388D01*
X170022528Y-144373118D01*
X170018094Y-144376222D01*
X170018093Y-144376223D01*
X169826213Y-144510579D01*
X169826211Y-144510580D01*
X169826208Y-144510583D01*
X169660583Y-144676208D01*
X169660580Y-144676211D01*
X169660579Y-144676213D01*
X169596428Y-144767830D01*
X169526223Y-144868093D01*
X169427229Y-145080387D01*
X169427225Y-145080396D01*
X169366603Y-145306643D01*
X169366601Y-145306653D01*
X169346186Y-145539999D01*
X169346186Y-145540000D01*
X169366601Y-145773346D01*
X169366603Y-145773356D01*
X169427225Y-145999603D01*
X169427227Y-145999607D01*
X169427228Y-145999611D01*
X169526223Y-146211907D01*
X169660579Y-146403787D01*
X169826213Y-146569421D01*
X170018093Y-146703777D01*
X170018094Y-146703777D01*
X170022528Y-146706882D01*
X170021521Y-146708319D01*
X170064297Y-146753190D01*
X170077513Y-146821798D01*
X170051540Y-146886660D01*
X170021953Y-146912297D01*
X170022528Y-146913118D01*
X170018094Y-146916222D01*
X170018093Y-146916223D01*
X169826213Y-147050579D01*
X169826211Y-147050580D01*
X169826208Y-147050583D01*
X169660583Y-147216208D01*
X169526223Y-147408093D01*
X169427229Y-147620387D01*
X169427225Y-147620396D01*
X169366603Y-147846643D01*
X169366601Y-147846653D01*
X169346186Y-148079999D01*
X169346186Y-148080000D01*
X169366601Y-148313346D01*
X169366603Y-148313356D01*
X169427225Y-148539603D01*
X169427227Y-148539607D01*
X169427228Y-148539611D01*
X169526223Y-148751907D01*
X169660579Y-148943787D01*
X169826213Y-149109421D01*
X170018093Y-149243777D01*
X170018094Y-149243777D01*
X170022528Y-149246882D01*
X170021521Y-149248319D01*
X170064297Y-149293190D01*
X170077513Y-149361798D01*
X170051540Y-149426660D01*
X170021953Y-149452297D01*
X170022528Y-149453118D01*
X170018094Y-149456222D01*
X170018093Y-149456223D01*
X169826213Y-149590579D01*
X169826211Y-149590580D01*
X169826208Y-149590583D01*
X169660583Y-149756208D01*
X169526223Y-149948093D01*
X169427229Y-150160387D01*
X169427225Y-150160396D01*
X169366603Y-150386643D01*
X169366601Y-150386653D01*
X169346186Y-150619999D01*
X169346186Y-150620000D01*
X169366601Y-150853346D01*
X169366603Y-150853356D01*
X169427225Y-151079603D01*
X169427227Y-151079607D01*
X169427228Y-151079611D01*
X169526223Y-151291907D01*
X169660579Y-151483787D01*
X169826213Y-151649421D01*
X170018093Y-151783777D01*
X170230389Y-151882772D01*
X170456649Y-151943398D01*
X170643329Y-151959730D01*
X170689999Y-151963814D01*
X170690000Y-151963814D01*
X170690001Y-151963814D01*
X170728891Y-151960411D01*
X170923351Y-151943398D01*
X171149611Y-151882772D01*
X171361907Y-151783777D01*
X171553787Y-151649421D01*
X171719421Y-151483787D01*
X171853777Y-151291907D01*
X171952772Y-151079611D01*
X172013398Y-150853351D01*
X172033814Y-150620000D01*
X172013398Y-150386649D01*
X171952772Y-150160389D01*
X171853777Y-149948093D01*
X171719421Y-149756213D01*
X171553787Y-149590579D01*
X171361907Y-149456223D01*
X171361905Y-149456222D01*
X171357472Y-149453118D01*
X171358481Y-149451676D01*
X171315712Y-149406828D01*
X171302484Y-149338222D01*
X171328447Y-149273355D01*
X171358048Y-149247705D01*
X171357472Y-149246882D01*
X171361905Y-149243777D01*
X171361907Y-149243777D01*
X171553787Y-149109421D01*
X171719421Y-148943787D01*
X171853777Y-148751907D01*
X171952772Y-148539611D01*
X172013398Y-148313351D01*
X172033814Y-148080000D01*
X172013398Y-147846649D01*
X171952772Y-147620389D01*
X171853777Y-147408093D01*
X171719421Y-147216213D01*
X171553787Y-147050579D01*
X171361907Y-146916223D01*
X171361905Y-146916222D01*
X171357472Y-146913118D01*
X171358481Y-146911676D01*
X171315712Y-146866828D01*
X171302484Y-146798222D01*
X171328447Y-146733355D01*
X171358048Y-146707705D01*
X171357472Y-146706882D01*
X171361905Y-146703777D01*
X171361907Y-146703777D01*
X171553787Y-146569421D01*
X171719421Y-146403787D01*
X171853777Y-146211907D01*
X171952772Y-145999611D01*
X172013398Y-145773351D01*
X172033814Y-145540000D01*
X172013398Y-145306649D01*
X171952772Y-145080389D01*
X171853777Y-144868093D01*
X171719421Y-144676213D01*
X171553787Y-144510579D01*
X171361907Y-144376223D01*
X171361905Y-144376222D01*
X171357472Y-144373118D01*
X171358384Y-144371814D01*
X171315207Y-144326532D01*
X171301982Y-144257926D01*
X171327949Y-144193060D01*
X171357765Y-144167224D01*
X171357221Y-144166447D01*
X171442900Y-144106453D01*
X170867420Y-143530972D01*
X170905689Y-143520719D01*
X171033111Y-143447151D01*
X171137151Y-143343111D01*
X171210719Y-143215689D01*
X171220973Y-143177420D01*
X171796453Y-143752900D01*
X171853342Y-143671655D01*
X171952298Y-143459441D01*
X171952302Y-143459432D01*
X172012902Y-143233268D01*
X172012904Y-143233258D01*
X172033312Y-143000001D01*
X172033312Y-142999998D01*
X172012904Y-142766741D01*
X172012902Y-142766731D01*
X171952302Y-142540567D01*
X171952298Y-142540558D01*
X171853342Y-142328345D01*
X171853341Y-142328343D01*
X171796453Y-142247099D01*
X171796453Y-142247098D01*
X171220972Y-142822579D01*
X171210719Y-142784311D01*
X171137151Y-142656889D01*
X171033111Y-142552849D01*
X170905689Y-142479281D01*
X170867419Y-142469026D01*
X171442900Y-141893546D01*
X171442899Y-141893545D01*
X171357221Y-141833553D01*
X171358181Y-141832181D01*
X171315207Y-141787115D01*
X171301981Y-141718509D01*
X171327946Y-141653643D01*
X171357985Y-141627615D01*
X171357472Y-141626882D01*
X171361905Y-141623777D01*
X171361907Y-141623777D01*
X171553787Y-141489421D01*
X171719421Y-141323787D01*
X171853777Y-141131907D01*
X171952772Y-140919611D01*
X172013398Y-140693351D01*
X172033814Y-140460000D01*
X172013398Y-140226649D01*
X171981037Y-140105876D01*
X171982700Y-140036027D01*
X172013129Y-139986104D01*
X173584122Y-138415112D01*
X173645441Y-138381630D01*
X173715133Y-138386614D01*
X173759480Y-138415115D01*
X177292896Y-141948531D01*
X177326381Y-142009854D01*
X177321397Y-142079546D01*
X177292902Y-142123888D01*
X177280578Y-142136212D01*
X177146225Y-142328088D01*
X177146223Y-142328092D01*
X177047229Y-142540387D01*
X177047225Y-142540396D01*
X176986603Y-142766643D01*
X176986601Y-142766653D01*
X176966186Y-142999999D01*
X176966186Y-143000000D01*
X176986601Y-143233346D01*
X176986603Y-143233356D01*
X177047225Y-143459603D01*
X177047227Y-143459607D01*
X177047228Y-143459611D01*
X177146223Y-143671907D01*
X177280579Y-143863787D01*
X177446213Y-144029421D01*
X177638093Y-144163777D01*
X177638094Y-144163777D01*
X177642528Y-144166882D01*
X177641521Y-144168319D01*
X177684297Y-144213190D01*
X177697513Y-144281798D01*
X177671540Y-144346660D01*
X177641953Y-144372297D01*
X177642528Y-144373118D01*
X177638094Y-144376222D01*
X177638093Y-144376223D01*
X177446213Y-144510579D01*
X177446211Y-144510580D01*
X177446208Y-144510583D01*
X177280583Y-144676208D01*
X177280580Y-144676211D01*
X177280579Y-144676213D01*
X177216428Y-144767830D01*
X177146223Y-144868093D01*
X177047229Y-145080387D01*
X177047225Y-145080396D01*
X176986603Y-145306643D01*
X176986601Y-145306653D01*
X176966186Y-145539999D01*
X176966186Y-145540000D01*
X176986601Y-145773346D01*
X176986603Y-145773356D01*
X177047225Y-145999603D01*
X177047227Y-145999607D01*
X177047228Y-145999611D01*
X177146223Y-146211907D01*
X177280579Y-146403787D01*
X177446213Y-146569421D01*
X177638093Y-146703777D01*
X177638094Y-146703777D01*
X177642528Y-146706882D01*
X177641521Y-146708319D01*
X177684297Y-146753190D01*
X177697513Y-146821798D01*
X177671540Y-146886660D01*
X177641953Y-146912297D01*
X177642528Y-146913118D01*
X177638094Y-146916222D01*
X177638093Y-146916223D01*
X177446213Y-147050579D01*
X177446211Y-147050580D01*
X177446208Y-147050583D01*
X177280583Y-147216208D01*
X177146223Y-147408093D01*
X177047229Y-147620387D01*
X177047225Y-147620396D01*
X176986603Y-147846643D01*
X176986601Y-147846653D01*
X176966186Y-148079999D01*
X176966186Y-148080000D01*
X176986601Y-148313346D01*
X176986603Y-148313356D01*
X177047225Y-148539603D01*
X177047227Y-148539607D01*
X177047228Y-148539611D01*
X177146223Y-148751907D01*
X177280579Y-148943787D01*
X177446213Y-149109421D01*
X177638093Y-149243777D01*
X177638094Y-149243777D01*
X177642528Y-149246882D01*
X177641521Y-149248319D01*
X177684297Y-149293190D01*
X177697513Y-149361798D01*
X177671540Y-149426660D01*
X177641953Y-149452297D01*
X177642528Y-149453118D01*
X177638094Y-149456222D01*
X177638093Y-149456223D01*
X177446213Y-149590579D01*
X177446211Y-149590580D01*
X177446208Y-149590583D01*
X177280583Y-149756208D01*
X177146223Y-149948093D01*
X177047229Y-150160387D01*
X177047225Y-150160396D01*
X176986603Y-150386643D01*
X176986601Y-150386653D01*
X176966186Y-150619999D01*
X176966186Y-150620000D01*
X176986601Y-150853346D01*
X176986603Y-150853356D01*
X177047225Y-151079603D01*
X177047227Y-151079607D01*
X177047228Y-151079611D01*
X177146223Y-151291907D01*
X177280579Y-151483787D01*
X177446213Y-151649421D01*
X177638093Y-151783777D01*
X177850389Y-151882772D01*
X178076649Y-151943398D01*
X178263329Y-151959730D01*
X178309999Y-151963814D01*
X178310000Y-151963814D01*
X178310001Y-151963814D01*
X178348891Y-151960411D01*
X178543351Y-151943398D01*
X178769611Y-151882772D01*
X178981907Y-151783777D01*
X179173787Y-151649421D01*
X179339421Y-151483787D01*
X179473777Y-151291907D01*
X179572772Y-151079611D01*
X179633398Y-150853351D01*
X179653814Y-150620000D01*
X179633398Y-150386649D01*
X179572772Y-150160389D01*
X179473777Y-149948093D01*
X179339421Y-149756213D01*
X179173787Y-149590579D01*
X178981907Y-149456223D01*
X178981905Y-149456222D01*
X178977472Y-149453118D01*
X178978481Y-149451676D01*
X178935712Y-149406828D01*
X178922484Y-149338222D01*
X178948447Y-149273355D01*
X178978048Y-149247705D01*
X178977472Y-149246882D01*
X178981905Y-149243777D01*
X178981907Y-149243777D01*
X179173787Y-149109421D01*
X179339421Y-148943787D01*
X179473777Y-148751907D01*
X179572772Y-148539611D01*
X179633398Y-148313351D01*
X179653814Y-148080000D01*
X179633398Y-147846649D01*
X179572772Y-147620389D01*
X179473777Y-147408093D01*
X179339421Y-147216213D01*
X179173787Y-147050579D01*
X178981907Y-146916223D01*
X178981905Y-146916222D01*
X178977472Y-146913118D01*
X178978481Y-146911676D01*
X178935712Y-146866828D01*
X178922484Y-146798222D01*
X178948447Y-146733355D01*
X178978048Y-146707705D01*
X178977472Y-146706882D01*
X178981905Y-146703777D01*
X178981907Y-146703777D01*
X179173787Y-146569421D01*
X179339421Y-146403787D01*
X179473777Y-146211907D01*
X179572772Y-145999611D01*
X179633398Y-145773351D01*
X179653814Y-145540000D01*
X179633398Y-145306649D01*
X179572772Y-145080389D01*
X179473777Y-144868093D01*
X179339421Y-144676213D01*
X179173787Y-144510579D01*
X178981907Y-144376223D01*
X178981905Y-144376222D01*
X178977472Y-144373118D01*
X178978481Y-144371676D01*
X178935712Y-144326828D01*
X178922484Y-144258222D01*
X178948447Y-144193355D01*
X178978048Y-144167705D01*
X178977472Y-144166882D01*
X178981905Y-144163777D01*
X178981907Y-144163777D01*
X179173787Y-144029421D01*
X179339421Y-143863787D01*
X179473777Y-143671907D01*
X179572772Y-143459611D01*
X179633398Y-143233351D01*
X179653814Y-143000000D01*
X179651496Y-142973511D01*
X179640148Y-142843797D01*
X179633398Y-142766649D01*
X179572772Y-142540389D01*
X179557157Y-142506904D01*
X179546666Y-142437827D01*
X179575186Y-142374043D01*
X179633662Y-142335804D01*
X179669540Y-142330500D01*
X179908203Y-142330500D01*
X179975242Y-142350185D01*
X179995884Y-142366819D01*
X181413439Y-143784374D01*
X181413449Y-143784385D01*
X181417779Y-143788715D01*
X181417780Y-143788716D01*
X181529584Y-143900520D01*
X181595782Y-143938739D01*
X181666515Y-143979577D01*
X181793330Y-144013557D01*
X181852989Y-144049921D01*
X181868619Y-144071326D01*
X181869430Y-144072730D01*
X181869432Y-144072734D01*
X181936361Y-144168319D01*
X181999954Y-144259141D01*
X182160858Y-144420045D01*
X182160861Y-144420047D01*
X182347266Y-144550568D01*
X182553504Y-144646739D01*
X182773308Y-144705635D01*
X182935230Y-144719801D01*
X182999998Y-144725468D01*
X183000000Y-144725468D01*
X183000002Y-144725468D01*
X183056673Y-144720509D01*
X183226692Y-144705635D01*
X183446496Y-144646739D01*
X183652734Y-144550568D01*
X183839139Y-144420047D01*
X184000047Y-144259139D01*
X184130568Y-144072734D01*
X184226739Y-143866496D01*
X184285635Y-143646692D01*
X184305468Y-143420000D01*
X184303690Y-143399682D01*
X184298417Y-143339411D01*
X184285635Y-143193308D01*
X184226739Y-142973504D01*
X184130568Y-142767266D01*
X184004073Y-142586611D01*
X184000045Y-142580858D01*
X183839141Y-142419954D01*
X183652734Y-142289432D01*
X183652732Y-142289431D01*
X183446497Y-142193261D01*
X183446488Y-142193258D01*
X183226697Y-142134366D01*
X183226693Y-142134365D01*
X183226692Y-142134365D01*
X183226691Y-142134364D01*
X183226686Y-142134364D01*
X183102825Y-142123528D01*
X183037756Y-142098076D01*
X182998367Y-142043682D01*
X182972646Y-142089061D01*
X182910799Y-142121569D01*
X182897175Y-142123528D01*
X182773312Y-142134364D01*
X182773302Y-142134366D01*
X182553511Y-142193258D01*
X182553502Y-142193261D01*
X182347267Y-142289431D01*
X182347265Y-142289432D01*
X182160858Y-142419954D01*
X182041855Y-142538958D01*
X181980532Y-142572443D01*
X181910840Y-142567459D01*
X181866493Y-142538958D01*
X180695890Y-141368355D01*
X180695888Y-141368352D01*
X180577017Y-141249481D01*
X180577016Y-141249480D01*
X180490204Y-141199360D01*
X180490204Y-141199359D01*
X180490200Y-141199358D01*
X180440085Y-141170423D01*
X180287357Y-141129499D01*
X180129243Y-141129499D01*
X180121647Y-141129499D01*
X180121631Y-141129500D01*
X179669540Y-141129500D01*
X179602501Y-141109815D01*
X179556746Y-141057011D01*
X179546802Y-140987853D01*
X179557158Y-140953095D01*
X179572772Y-140919611D01*
X179633398Y-140693351D01*
X179643315Y-140579998D01*
X181694532Y-140579998D01*
X181694532Y-140580001D01*
X181714364Y-140806686D01*
X181714366Y-140806697D01*
X181773258Y-141026488D01*
X181773261Y-141026497D01*
X181869431Y-141232732D01*
X181869432Y-141232734D01*
X181999954Y-141419141D01*
X182160858Y-141580045D01*
X182160861Y-141580047D01*
X182347266Y-141710568D01*
X182553504Y-141806739D01*
X182773308Y-141865635D01*
X182887141Y-141875594D01*
X182897175Y-141876472D01*
X182962243Y-141901925D01*
X183001631Y-141956317D01*
X183027353Y-141910939D01*
X183089200Y-141878431D01*
X183102825Y-141876472D01*
X183109699Y-141875870D01*
X183226692Y-141865635D01*
X183446496Y-141806739D01*
X183652734Y-141710568D01*
X183839139Y-141580047D01*
X184000047Y-141419139D01*
X184130568Y-141232734D01*
X184226739Y-141026496D01*
X184285635Y-140806692D01*
X184305468Y-140580000D01*
X184285635Y-140353308D01*
X184240279Y-140184035D01*
X184226741Y-140133511D01*
X184226738Y-140133502D01*
X184181284Y-140036027D01*
X184130568Y-139927266D01*
X184000047Y-139740861D01*
X184000045Y-139740858D01*
X183839141Y-139579954D01*
X183652734Y-139449432D01*
X183652732Y-139449431D01*
X183446497Y-139353261D01*
X183446488Y-139353258D01*
X183226697Y-139294366D01*
X183226693Y-139294365D01*
X183226692Y-139294365D01*
X183226691Y-139294364D01*
X183226686Y-139294364D01*
X183000002Y-139274532D01*
X182999998Y-139274532D01*
X182773313Y-139294364D01*
X182773302Y-139294366D01*
X182553511Y-139353258D01*
X182553502Y-139353261D01*
X182347267Y-139449431D01*
X182347265Y-139449432D01*
X182160858Y-139579954D01*
X181999954Y-139740858D01*
X181869432Y-139927265D01*
X181869431Y-139927267D01*
X181773261Y-140133502D01*
X181773258Y-140133511D01*
X181714366Y-140353302D01*
X181714364Y-140353313D01*
X181694532Y-140579998D01*
X179643315Y-140579998D01*
X179653814Y-140460000D01*
X179633398Y-140226649D01*
X179572772Y-140000389D01*
X179473777Y-139788093D01*
X179339421Y-139596213D01*
X179173787Y-139430579D01*
X178981907Y-139296223D01*
X178981905Y-139296222D01*
X178977472Y-139293118D01*
X178978481Y-139291676D01*
X178935712Y-139246828D01*
X178922484Y-139178222D01*
X178948447Y-139113355D01*
X178978048Y-139087705D01*
X178977472Y-139086882D01*
X178981905Y-139083777D01*
X178981907Y-139083777D01*
X179173787Y-138949421D01*
X179339421Y-138783787D01*
X179473777Y-138591907D01*
X179572772Y-138379611D01*
X179633398Y-138153351D01*
X179653814Y-137920000D01*
X179633398Y-137686649D01*
X179584607Y-137504558D01*
X179572774Y-137460396D01*
X179572773Y-137460395D01*
X179572772Y-137460389D01*
X179473777Y-137248093D01*
X179339421Y-137056213D01*
X179173787Y-136890579D01*
X178981907Y-136756223D01*
X178981905Y-136756222D01*
X178977472Y-136753118D01*
X178978481Y-136751676D01*
X178935712Y-136706828D01*
X178922484Y-136638222D01*
X178948447Y-136573355D01*
X178978048Y-136547705D01*
X178977472Y-136546882D01*
X178981905Y-136543777D01*
X178981907Y-136543777D01*
X179173787Y-136409421D01*
X179339421Y-136243787D01*
X179473777Y-136051907D01*
X179572772Y-135839611D01*
X179633398Y-135613351D01*
X179653814Y-135380000D01*
X179633398Y-135146649D01*
X179585661Y-134968493D01*
X179572774Y-134920396D01*
X179572773Y-134920395D01*
X179572772Y-134920389D01*
X179473777Y-134708093D01*
X179339421Y-134516213D01*
X179173787Y-134350579D01*
X178981907Y-134216223D01*
X178769611Y-134117228D01*
X178769607Y-134117227D01*
X178769603Y-134117225D01*
X178543356Y-134056603D01*
X178543346Y-134056601D01*
X178310001Y-134036186D01*
X178309999Y-134036186D01*
X178076653Y-134056601D01*
X178076643Y-134056603D01*
X177850396Y-134117225D01*
X177850389Y-134117227D01*
X177850389Y-134117228D01*
X177638093Y-134216223D01*
X177446213Y-134350579D01*
X177446211Y-134350580D01*
X177446208Y-134350583D01*
X177312181Y-134484611D01*
X177250858Y-134518096D01*
X177181166Y-134513112D01*
X177125233Y-134471240D01*
X177100816Y-134405776D01*
X177100500Y-134396930D01*
X177100500Y-130419998D01*
X181694532Y-130419998D01*
X181694532Y-130420001D01*
X181714364Y-130646686D01*
X181714366Y-130646697D01*
X181773258Y-130866488D01*
X181773261Y-130866497D01*
X181869431Y-131072732D01*
X181869432Y-131072734D01*
X181999954Y-131259141D01*
X182160858Y-131420045D01*
X182160861Y-131420047D01*
X182347266Y-131550568D01*
X182553504Y-131646739D01*
X182773308Y-131705635D01*
X182935230Y-131719801D01*
X182999998Y-131725468D01*
X183000000Y-131725468D01*
X183000002Y-131725468D01*
X183056673Y-131720509D01*
X183226692Y-131705635D01*
X183446496Y-131646739D01*
X183652734Y-131550568D01*
X183839139Y-131420047D01*
X184000047Y-131259139D01*
X184130568Y-131072734D01*
X184226739Y-130866496D01*
X184285635Y-130646692D01*
X184305468Y-130420000D01*
X184285635Y-130193308D01*
X184226739Y-129973504D01*
X184130568Y-129767266D01*
X184000047Y-129580861D01*
X184000045Y-129580858D01*
X183839141Y-129419954D01*
X183652734Y-129289432D01*
X183652732Y-129289431D01*
X183446497Y-129193261D01*
X183446488Y-129193258D01*
X183226697Y-129134366D01*
X183226693Y-129134365D01*
X183226692Y-129134365D01*
X183226691Y-129134364D01*
X183226686Y-129134364D01*
X183000002Y-129114532D01*
X182999998Y-129114532D01*
X182773313Y-129134364D01*
X182773302Y-129134366D01*
X182553511Y-129193258D01*
X182553502Y-129193261D01*
X182347267Y-129289431D01*
X182347265Y-129289432D01*
X182160858Y-129419954D01*
X181999954Y-129580858D01*
X181869432Y-129767265D01*
X181869431Y-129767267D01*
X181773261Y-129973502D01*
X181773258Y-129973511D01*
X181714366Y-130193302D01*
X181714364Y-130193313D01*
X181694532Y-130419998D01*
X177100500Y-130419998D01*
X177100500Y-126391692D01*
X177120185Y-126324653D01*
X177153374Y-126290119D01*
X177339139Y-126160047D01*
X177500047Y-125999139D01*
X177630568Y-125812734D01*
X177726739Y-125606496D01*
X177785635Y-125386692D01*
X177802529Y-125193598D01*
X181667432Y-125193598D01*
X181667432Y-125193601D01*
X181687264Y-125420286D01*
X181687266Y-125420297D01*
X181746158Y-125640088D01*
X181746161Y-125640097D01*
X181842331Y-125846332D01*
X181842332Y-125846334D01*
X181972854Y-126032741D01*
X182133758Y-126193645D01*
X182133761Y-126193647D01*
X182320166Y-126324168D01*
X182526404Y-126420339D01*
X182746208Y-126479235D01*
X182908130Y-126493401D01*
X182972898Y-126499068D01*
X182972900Y-126499068D01*
X182972902Y-126499068D01*
X183029573Y-126494109D01*
X183199592Y-126479235D01*
X183419396Y-126420339D01*
X183625634Y-126324168D01*
X183812039Y-126193647D01*
X183972947Y-126032739D01*
X184103468Y-125846334D01*
X184199639Y-125640096D01*
X184258535Y-125420292D01*
X184278368Y-125193600D01*
X184275428Y-125160001D01*
X184272354Y-125124855D01*
X184258535Y-124966908D01*
X184199639Y-124747104D01*
X184103468Y-124540866D01*
X183972947Y-124354461D01*
X183972945Y-124354458D01*
X183812041Y-124193554D01*
X183625634Y-124063032D01*
X183625632Y-124063031D01*
X183419397Y-123966861D01*
X183419388Y-123966858D01*
X183199597Y-123907966D01*
X183199593Y-123907965D01*
X183199592Y-123907965D01*
X183199591Y-123907964D01*
X183199586Y-123907964D01*
X182972902Y-123888132D01*
X182972898Y-123888132D01*
X182746213Y-123907964D01*
X182746202Y-123907966D01*
X182526411Y-123966858D01*
X182526402Y-123966861D01*
X182320167Y-124063031D01*
X182320165Y-124063032D01*
X182133758Y-124193554D01*
X181972854Y-124354458D01*
X181842332Y-124540865D01*
X181842331Y-124540867D01*
X181746161Y-124747102D01*
X181746158Y-124747111D01*
X181687266Y-124966902D01*
X181687264Y-124966913D01*
X181667432Y-125193598D01*
X177802529Y-125193598D01*
X177805468Y-125160000D01*
X177785635Y-124933308D01*
X177726739Y-124713504D01*
X177630568Y-124507266D01*
X177500047Y-124320861D01*
X177500045Y-124320858D01*
X177339141Y-124159954D01*
X177152734Y-124029432D01*
X177152732Y-124029431D01*
X176946497Y-123933261D01*
X176946488Y-123933258D01*
X176726697Y-123874366D01*
X176726693Y-123874365D01*
X176726692Y-123874365D01*
X176726691Y-123874364D01*
X176726686Y-123874364D01*
X176500002Y-123854532D01*
X176499998Y-123854532D01*
X176273313Y-123874364D01*
X176273302Y-123874366D01*
X176053511Y-123933258D01*
X176053502Y-123933261D01*
X175847267Y-124029431D01*
X175847265Y-124029432D01*
X175660858Y-124159954D01*
X175499954Y-124320858D01*
X175369432Y-124507265D01*
X175369431Y-124507267D01*
X175273261Y-124713502D01*
X175273258Y-124713511D01*
X175214366Y-124933302D01*
X175214364Y-124933313D01*
X175194532Y-125159998D01*
X175194532Y-125160001D01*
X175214364Y-125386686D01*
X175214366Y-125386697D01*
X175273258Y-125606488D01*
X175273261Y-125606497D01*
X175369431Y-125812732D01*
X175369432Y-125812734D01*
X175499954Y-125999141D01*
X175660858Y-126160045D01*
X175660861Y-126160047D01*
X175846624Y-126290118D01*
X175890248Y-126344693D01*
X175899500Y-126391692D01*
X175899500Y-134349902D01*
X175879815Y-134416941D01*
X175863181Y-134437583D01*
X173303084Y-136997681D01*
X172241451Y-138059312D01*
X172180128Y-138092797D01*
X172110436Y-138087813D01*
X172054503Y-138045941D01*
X172030086Y-137980477D01*
X172030242Y-137960822D01*
X172033814Y-137919999D01*
X172029730Y-137873329D01*
X172013398Y-137686649D01*
X171964607Y-137504558D01*
X171952774Y-137460396D01*
X171952773Y-137460395D01*
X171952772Y-137460389D01*
X171853777Y-137248093D01*
X171719421Y-137056213D01*
X171582454Y-136919246D01*
X171548969Y-136857923D01*
X171553953Y-136788231D01*
X171595825Y-136732298D01*
X171629069Y-136716757D01*
X171628415Y-136715002D01*
X171770528Y-136661997D01*
X171770527Y-136661997D01*
X171770531Y-136661996D01*
X171885746Y-136575746D01*
X171971996Y-136460531D01*
X172022291Y-136325683D01*
X172028700Y-136266073D01*
X172028699Y-134493928D01*
X172022291Y-134434317D01*
X172015810Y-134416941D01*
X171971997Y-134299471D01*
X171971993Y-134299464D01*
X171885747Y-134184255D01*
X171885744Y-134184252D01*
X171770535Y-134098006D01*
X171770528Y-134098002D01*
X171635682Y-134047708D01*
X171635683Y-134047708D01*
X171576083Y-134041301D01*
X171576081Y-134041300D01*
X171576073Y-134041300D01*
X171576064Y-134041300D01*
X169803929Y-134041300D01*
X169803923Y-134041301D01*
X169744316Y-134047708D01*
X169609471Y-134098002D01*
X169609464Y-134098006D01*
X169494255Y-134184252D01*
X169494252Y-134184255D01*
X169408006Y-134299464D01*
X169408002Y-134299471D01*
X169357708Y-134434317D01*
X169351301Y-134493916D01*
X169351301Y-134493923D01*
X169351300Y-134493935D01*
X169351300Y-136266070D01*
X169351301Y-136266076D01*
X169357708Y-136325683D01*
X169408002Y-136460528D01*
X169408006Y-136460535D01*
X169494252Y-136575744D01*
X169494255Y-136575747D01*
X169609464Y-136661993D01*
X169609471Y-136661997D01*
X169751585Y-136715002D01*
X169750537Y-136717810D01*
X169799100Y-136745467D01*
X169831482Y-136807379D01*
X169825252Y-136876970D01*
X169797546Y-136919246D01*
X169660579Y-137056213D01*
X169596428Y-137147830D01*
X169526223Y-137248093D01*
X169427229Y-137460387D01*
X169427225Y-137460396D01*
X169366603Y-137686643D01*
X169366601Y-137686653D01*
X169346186Y-137919999D01*
X163562843Y-137919999D01*
X163450842Y-137841575D01*
X163407217Y-137786998D01*
X163400023Y-137717500D01*
X163431546Y-137655145D01*
X163450842Y-137638425D01*
X163554445Y-137565881D01*
X163636401Y-137508495D01*
X163803495Y-137341401D01*
X163939035Y-137147830D01*
X164038903Y-136933663D01*
X164100063Y-136705408D01*
X164120659Y-136470000D01*
X164100063Y-136234592D01*
X164038903Y-136006337D01*
X163939035Y-135792171D01*
X163914897Y-135757697D01*
X163803494Y-135598597D01*
X163636402Y-135431506D01*
X163636396Y-135431501D01*
X163450842Y-135301575D01*
X163407217Y-135246998D01*
X163400023Y-135177500D01*
X163431546Y-135115145D01*
X163450842Y-135098425D01*
X163564678Y-135018716D01*
X163636401Y-134968495D01*
X163803495Y-134801401D01*
X163939035Y-134607830D01*
X164038903Y-134393663D01*
X164100063Y-134165408D01*
X164120659Y-133930000D01*
X164100063Y-133694592D01*
X164038903Y-133466337D01*
X163939035Y-133252171D01*
X163803495Y-133058599D01*
X163803494Y-133058597D01*
X163636402Y-132891506D01*
X163636396Y-132891501D01*
X163450842Y-132761575D01*
X163407217Y-132706998D01*
X163400023Y-132637500D01*
X163431546Y-132575145D01*
X163450842Y-132558425D01*
X163620097Y-132439911D01*
X163636401Y-132428495D01*
X163803495Y-132261401D01*
X163939035Y-132067830D01*
X164038903Y-131853663D01*
X164100063Y-131625408D01*
X164120659Y-131390000D01*
X164120111Y-131383742D01*
X164100063Y-131154596D01*
X164100063Y-131154592D01*
X164038903Y-130926337D01*
X163939035Y-130712171D01*
X163923621Y-130690158D01*
X163803496Y-130518600D01*
X163784896Y-130500000D01*
X163681567Y-130396671D01*
X163648084Y-130335351D01*
X163653068Y-130265659D01*
X163694939Y-130209725D01*
X163725915Y-130192810D01*
X163857331Y-130143796D01*
X163972546Y-130057546D01*
X164058796Y-129942331D01*
X164109091Y-129807483D01*
X164115500Y-129747873D01*
X164115499Y-127952128D01*
X164109091Y-127892517D01*
X164058806Y-127757697D01*
X164058797Y-127757671D01*
X164058793Y-127757664D01*
X163972547Y-127642455D01*
X163972544Y-127642452D01*
X163857335Y-127556206D01*
X163857328Y-127556202D01*
X163725917Y-127507189D01*
X163669983Y-127465318D01*
X163645566Y-127399853D01*
X163660418Y-127331580D01*
X163681563Y-127303332D01*
X163803495Y-127181401D01*
X163939035Y-126987830D01*
X164038903Y-126773663D01*
X164100063Y-126545408D01*
X164120659Y-126310000D01*
X164100063Y-126074592D01*
X164038903Y-125846337D01*
X163939035Y-125632171D01*
X163921058Y-125606496D01*
X163803494Y-125438597D01*
X163636402Y-125271506D01*
X163636396Y-125271501D01*
X163450842Y-125141575D01*
X163407217Y-125086998D01*
X163400023Y-125017500D01*
X163431546Y-124955145D01*
X163450842Y-124938425D01*
X163586250Y-124843611D01*
X163636401Y-124808495D01*
X163803495Y-124641401D01*
X163939035Y-124447830D01*
X164038903Y-124233663D01*
X164100063Y-124005408D01*
X164120659Y-123770000D01*
X164100063Y-123534592D01*
X164038903Y-123306337D01*
X163939035Y-123092171D01*
X163803495Y-122898599D01*
X163803494Y-122898597D01*
X163636402Y-122731506D01*
X163636401Y-122731505D01*
X163450405Y-122601269D01*
X163406781Y-122546692D01*
X163399588Y-122477193D01*
X163431110Y-122414839D01*
X163450405Y-122398119D01*
X163636082Y-122268105D01*
X163803105Y-122101082D01*
X163938600Y-121907578D01*
X164038429Y-121693492D01*
X164038432Y-121693486D01*
X164095636Y-121480000D01*
X163209560Y-121480000D01*
X163240245Y-121426853D01*
X163275000Y-121297143D01*
X163275000Y-121162857D01*
X163240245Y-121033147D01*
X163209560Y-120980000D01*
X164095636Y-120980000D01*
X164095635Y-120979999D01*
X164038432Y-120766513D01*
X164038429Y-120766507D01*
X163938600Y-120552422D01*
X163938599Y-120552420D01*
X163803113Y-120358926D01*
X163803108Y-120358920D01*
X163636078Y-120191890D01*
X163450405Y-120061879D01*
X163406780Y-120007302D01*
X163399588Y-119937804D01*
X163431110Y-119875449D01*
X163450406Y-119858730D01*
X163606244Y-119749611D01*
X163636401Y-119728495D01*
X163803495Y-119561401D01*
X163939035Y-119367830D01*
X164038903Y-119153663D01*
X164100063Y-118925408D01*
X164120659Y-118690000D01*
X164100063Y-118454592D01*
X164038903Y-118226337D01*
X163939035Y-118012171D01*
X163803495Y-117818599D01*
X163681567Y-117696671D01*
X163648084Y-117635351D01*
X163653068Y-117565659D01*
X163694939Y-117509725D01*
X163725915Y-117492810D01*
X163857331Y-117443796D01*
X163972546Y-117357546D01*
X164058796Y-117242331D01*
X164109091Y-117107483D01*
X164115500Y-117047873D01*
X164115499Y-115252128D01*
X164109091Y-115192517D01*
X164108748Y-115191598D01*
X164058797Y-115057671D01*
X164058793Y-115057664D01*
X163972547Y-114942455D01*
X163972544Y-114942452D01*
X163857335Y-114856206D01*
X163857328Y-114856202D01*
X163725917Y-114807189D01*
X163669983Y-114765318D01*
X163645566Y-114699853D01*
X163660418Y-114631580D01*
X163681563Y-114603332D01*
X163803495Y-114481401D01*
X163939035Y-114287830D01*
X164038903Y-114073663D01*
X164100063Y-113845408D01*
X164120659Y-113610000D01*
X164100063Y-113374592D01*
X164038903Y-113146337D01*
X163939035Y-112932171D01*
X163803495Y-112738599D01*
X163803494Y-112738597D01*
X163636402Y-112571506D01*
X163636396Y-112571501D01*
X163450842Y-112441575D01*
X163407217Y-112386998D01*
X163400023Y-112317500D01*
X163431546Y-112255145D01*
X163450842Y-112238425D01*
X163473026Y-112222891D01*
X163636401Y-112108495D01*
X163803495Y-111941401D01*
X163939035Y-111747830D01*
X164038903Y-111533663D01*
X164100063Y-111305408D01*
X164120659Y-111070000D01*
X164100063Y-110834592D01*
X164038903Y-110606337D01*
X163939035Y-110392171D01*
X163913187Y-110355255D01*
X163803494Y-110198597D01*
X163636402Y-110031506D01*
X163636395Y-110031501D01*
X163625018Y-110023535D01*
X163597521Y-110004281D01*
X163442834Y-109895967D01*
X163442830Y-109895965D01*
X163442828Y-109895964D01*
X163290673Y-109825013D01*
X172400000Y-109825013D01*
X172400000Y-110250000D01*
X173219670Y-110250000D01*
X173199925Y-110269745D01*
X173150556Y-110355255D01*
X173125000Y-110450630D01*
X173125000Y-110549370D01*
X173150556Y-110644745D01*
X173199925Y-110730255D01*
X173219670Y-110750000D01*
X172400001Y-110750000D01*
X172400001Y-111174986D01*
X172410494Y-111277697D01*
X172465641Y-111444119D01*
X172465643Y-111444124D01*
X172557684Y-111593345D01*
X172681654Y-111717315D01*
X172830875Y-111809356D01*
X172830880Y-111809358D01*
X172997302Y-111864505D01*
X172997309Y-111864506D01*
X173100019Y-111874999D01*
X173249999Y-111874999D01*
X173250000Y-111874998D01*
X173250000Y-110780330D01*
X173269745Y-110800075D01*
X173355255Y-110849444D01*
X173450630Y-110875000D01*
X173549370Y-110875000D01*
X173644745Y-110849444D01*
X173730255Y-110800075D01*
X173750000Y-110780330D01*
X173750000Y-111874999D01*
X173899972Y-111874999D01*
X173899986Y-111874998D01*
X174002697Y-111864505D01*
X174169119Y-111809358D01*
X174169124Y-111809356D01*
X174318345Y-111717315D01*
X174442315Y-111593345D01*
X174481945Y-111529094D01*
X174533893Y-111482368D01*
X174602855Y-111471145D01*
X174666937Y-111498988D01*
X174675166Y-111506508D01*
X174783072Y-111614414D01*
X174923212Y-111716232D01*
X175077555Y-111794873D01*
X175242299Y-111848402D01*
X175413389Y-111875500D01*
X175413390Y-111875500D01*
X175586610Y-111875500D01*
X175586611Y-111875500D01*
X175657803Y-111864224D01*
X175727095Y-111873178D01*
X175780547Y-111918174D01*
X175801187Y-111984926D01*
X175801200Y-111986697D01*
X175801200Y-113837136D01*
X175781515Y-113904175D01*
X175748323Y-113938711D01*
X175660859Y-113999953D01*
X175499954Y-114160858D01*
X175369432Y-114347265D01*
X175369431Y-114347267D01*
X175273261Y-114553502D01*
X175273258Y-114553511D01*
X175214366Y-114773302D01*
X175214364Y-114773313D01*
X175194532Y-114999998D01*
X175194532Y-115000001D01*
X175214364Y-115226686D01*
X175214366Y-115226697D01*
X175273258Y-115446488D01*
X175273261Y-115446497D01*
X175369431Y-115652732D01*
X175369432Y-115652734D01*
X175499954Y-115839141D01*
X175660858Y-116000045D01*
X175660861Y-116000047D01*
X175847266Y-116130568D01*
X176053504Y-116226739D01*
X176273308Y-116285635D01*
X176435230Y-116299801D01*
X176499998Y-116305468D01*
X176500000Y-116305468D01*
X176500002Y-116305468D01*
X176556673Y-116300509D01*
X176726692Y-116285635D01*
X176946496Y-116226739D01*
X177152734Y-116130568D01*
X177339139Y-116000047D01*
X177500047Y-115839139D01*
X177630568Y-115652734D01*
X177726739Y-115446496D01*
X177785635Y-115226692D01*
X177805468Y-115000000D01*
X177785635Y-114773308D01*
X177726739Y-114553504D01*
X177630568Y-114347266D01*
X177500047Y-114160861D01*
X177500045Y-114160858D01*
X177339141Y-113999954D01*
X177152733Y-113869431D01*
X177073794Y-113832621D01*
X177021355Y-113786448D01*
X177002200Y-113720239D01*
X177002200Y-111941059D01*
X177021885Y-111874020D01*
X177074689Y-111828265D01*
X177143847Y-111818321D01*
X177164502Y-111823124D01*
X177242299Y-111848402D01*
X177413389Y-111875500D01*
X177413390Y-111875500D01*
X177586610Y-111875500D01*
X177586611Y-111875500D01*
X177757701Y-111848402D01*
X177922445Y-111794873D01*
X178076788Y-111716232D01*
X178216928Y-111614414D01*
X178339414Y-111491928D01*
X178399682Y-111408975D01*
X178455012Y-111366311D01*
X178524626Y-111360332D01*
X178586421Y-111392938D01*
X178600315Y-111408973D01*
X178660586Y-111491928D01*
X178783072Y-111614414D01*
X178923212Y-111716232D01*
X179077555Y-111794873D01*
X179242299Y-111848402D01*
X179413389Y-111875500D01*
X179413390Y-111875500D01*
X179586610Y-111875500D01*
X179586611Y-111875500D01*
X179757701Y-111848402D01*
X179898630Y-111802610D01*
X179968466Y-111800616D01*
X180024625Y-111832861D01*
X180040049Y-111848285D01*
X180040055Y-111848290D01*
X182091858Y-113900093D01*
X182125343Y-113961416D01*
X182120359Y-114031108D01*
X182091858Y-114075455D01*
X181972854Y-114194458D01*
X181842332Y-114380865D01*
X181842331Y-114380867D01*
X181746161Y-114587102D01*
X181746158Y-114587111D01*
X181687266Y-114806902D01*
X181687264Y-114806913D01*
X181667432Y-115033598D01*
X181667432Y-115033601D01*
X181687264Y-115260286D01*
X181687266Y-115260297D01*
X181746158Y-115480088D01*
X181746161Y-115480097D01*
X181842331Y-115686332D01*
X181842332Y-115686334D01*
X181972854Y-115872741D01*
X182133758Y-116033645D01*
X182133761Y-116033647D01*
X182320166Y-116164168D01*
X182526404Y-116260339D01*
X182746208Y-116319235D01*
X182908130Y-116333401D01*
X182972898Y-116339068D01*
X182972900Y-116339068D01*
X182972902Y-116339068D01*
X183029573Y-116334109D01*
X183199592Y-116319235D01*
X183419396Y-116260339D01*
X183625634Y-116164168D01*
X183812039Y-116033647D01*
X183972947Y-115872739D01*
X184103468Y-115686334D01*
X184199639Y-115480096D01*
X184258535Y-115260292D01*
X184278368Y-115033600D01*
X184275428Y-115000001D01*
X184262848Y-114856204D01*
X184258535Y-114806908D01*
X184199639Y-114587104D01*
X184103468Y-114380866D01*
X183972947Y-114194461D01*
X183972945Y-114194458D01*
X183812041Y-114033554D01*
X183749904Y-113990046D01*
X183625634Y-113903032D01*
X183625630Y-113903030D01*
X183624226Y-113902219D01*
X183623731Y-113901700D01*
X183621199Y-113899927D01*
X183621555Y-113899417D01*
X183576013Y-113851650D01*
X183566459Y-113826936D01*
X183532477Y-113700115D01*
X183476039Y-113602362D01*
X183453420Y-113563184D01*
X183341616Y-113451380D01*
X183341615Y-113451379D01*
X183337285Y-113447049D01*
X183337274Y-113447039D01*
X181783948Y-111893713D01*
X185649500Y-111893713D01*
X185649500Y-112106287D01*
X185682754Y-112316243D01*
X185738216Y-112486938D01*
X185748444Y-112518414D01*
X185844951Y-112707820D01*
X185969890Y-112879786D01*
X186120213Y-113030109D01*
X186292179Y-113155048D01*
X186292181Y-113155049D01*
X186292184Y-113155051D01*
X186481588Y-113251557D01*
X186683757Y-113317246D01*
X186893713Y-113350500D01*
X186893714Y-113350500D01*
X187106286Y-113350500D01*
X187106287Y-113350500D01*
X187316243Y-113317246D01*
X187518412Y-113251557D01*
X187707816Y-113155051D01*
X187729789Y-113139086D01*
X187879786Y-113030109D01*
X187879788Y-113030106D01*
X187879792Y-113030104D01*
X188030104Y-112879792D01*
X188030106Y-112879788D01*
X188030109Y-112879786D01*
X188155048Y-112707820D01*
X188155047Y-112707820D01*
X188155051Y-112707816D01*
X188251557Y-112518412D01*
X188317246Y-112316243D01*
X188350500Y-112106287D01*
X188350500Y-111893713D01*
X188317246Y-111683757D01*
X188251557Y-111481588D01*
X188155051Y-111292184D01*
X188155049Y-111292181D01*
X188155048Y-111292179D01*
X188030109Y-111120213D01*
X187879786Y-110969890D01*
X187707820Y-110844951D01*
X187518414Y-110748444D01*
X187518413Y-110748443D01*
X187518412Y-110748443D01*
X187316243Y-110682754D01*
X187316241Y-110682753D01*
X187316240Y-110682753D01*
X187154957Y-110657208D01*
X187106287Y-110649500D01*
X186893713Y-110649500D01*
X186845042Y-110657208D01*
X186683760Y-110682753D01*
X186683757Y-110682754D01*
X186496189Y-110743699D01*
X186481585Y-110748444D01*
X186292179Y-110844951D01*
X186120213Y-110969890D01*
X185969890Y-111120213D01*
X185844951Y-111292179D01*
X185748444Y-111481585D01*
X185682753Y-111683760D01*
X185654171Y-111864224D01*
X185649500Y-111893713D01*
X181783948Y-111893713D01*
X181038519Y-111148284D01*
X181005034Y-111086961D01*
X181002200Y-111060603D01*
X181002200Y-110420945D01*
X181002200Y-110420943D01*
X180961277Y-110268216D01*
X180921083Y-110198597D01*
X180882224Y-110131290D01*
X180882218Y-110131282D01*
X180770417Y-110019481D01*
X180770409Y-110019475D01*
X180633490Y-109940426D01*
X180633486Y-109940424D01*
X180633484Y-109940423D01*
X180633482Y-109940422D01*
X180633481Y-109940422D01*
X180623136Y-109937650D01*
X180563476Y-109901284D01*
X180537301Y-109856193D01*
X180519874Y-109802559D01*
X180519873Y-109802555D01*
X180441233Y-109648213D01*
X180411334Y-109607061D01*
X180339414Y-109508072D01*
X180216928Y-109385586D01*
X180076788Y-109283768D01*
X179922445Y-109205127D01*
X179757701Y-109151598D01*
X179757699Y-109151597D01*
X179757698Y-109151597D01*
X179626271Y-109130781D01*
X179586611Y-109124500D01*
X179413389Y-109124500D01*
X179373728Y-109130781D01*
X179242302Y-109151597D01*
X179077552Y-109205128D01*
X178923211Y-109283768D01*
X178843256Y-109341859D01*
X178783072Y-109385586D01*
X178783070Y-109385588D01*
X178783069Y-109385588D01*
X178660588Y-109508069D01*
X178660581Y-109508078D01*
X178600317Y-109591023D01*
X178544987Y-109633689D01*
X178475374Y-109639667D01*
X178413579Y-109607061D01*
X178399683Y-109591023D01*
X178351899Y-109525257D01*
X178339414Y-109508072D01*
X178216928Y-109385586D01*
X178076788Y-109283768D01*
X177922445Y-109205127D01*
X177757701Y-109151598D01*
X177757699Y-109151597D01*
X177757698Y-109151597D01*
X177626271Y-109130781D01*
X177586611Y-109124500D01*
X177413389Y-109124500D01*
X177373728Y-109130781D01*
X177242302Y-109151597D01*
X177077552Y-109205128D01*
X176923211Y-109283768D01*
X176843256Y-109341859D01*
X176783072Y-109385586D01*
X176783070Y-109385588D01*
X176783069Y-109385588D01*
X176660588Y-109508069D01*
X176660581Y-109508078D01*
X176600317Y-109591023D01*
X176544987Y-109633689D01*
X176475374Y-109639667D01*
X176413579Y-109607061D01*
X176399683Y-109591023D01*
X176351899Y-109525257D01*
X176339414Y-109508072D01*
X176216928Y-109385586D01*
X176076788Y-109283768D01*
X175922445Y-109205127D01*
X175757701Y-109151598D01*
X175757699Y-109151597D01*
X175757698Y-109151597D01*
X175626271Y-109130781D01*
X175586611Y-109124500D01*
X175413389Y-109124500D01*
X175373728Y-109130781D01*
X175242302Y-109151597D01*
X175077552Y-109205128D01*
X174923211Y-109283768D01*
X174783073Y-109385585D01*
X174675166Y-109493492D01*
X174613843Y-109526976D01*
X174544151Y-109521992D01*
X174488218Y-109480120D01*
X174481946Y-109470906D01*
X174442317Y-109406656D01*
X174318345Y-109282684D01*
X174169124Y-109190643D01*
X174169119Y-109190641D01*
X174002697Y-109135494D01*
X174002690Y-109135493D01*
X173899986Y-109125000D01*
X173750000Y-109125000D01*
X173750000Y-110219670D01*
X173730255Y-110199925D01*
X173644745Y-110150556D01*
X173549370Y-110125000D01*
X173450630Y-110125000D01*
X173355255Y-110150556D01*
X173269745Y-110199925D01*
X173250000Y-110219670D01*
X173250000Y-109125000D01*
X173100027Y-109125000D01*
X173100012Y-109125001D01*
X172997302Y-109135494D01*
X172830880Y-109190641D01*
X172830875Y-109190643D01*
X172681654Y-109282684D01*
X172557684Y-109406654D01*
X172465643Y-109555875D01*
X172465641Y-109555880D01*
X172410494Y-109722302D01*
X172410493Y-109722309D01*
X172400000Y-109825013D01*
X163290673Y-109825013D01*
X163228663Y-109796097D01*
X163228659Y-109796096D01*
X163228655Y-109796094D01*
X163000413Y-109734938D01*
X163000403Y-109734936D01*
X162765001Y-109714341D01*
X162764999Y-109714341D01*
X162529596Y-109734936D01*
X162529586Y-109734938D01*
X162301344Y-109796094D01*
X162301335Y-109796098D01*
X162087171Y-109895964D01*
X162087169Y-109895965D01*
X161893597Y-110031505D01*
X161726505Y-110198597D01*
X161590965Y-110392169D01*
X161590964Y-110392171D01*
X161491098Y-110606335D01*
X161491094Y-110606344D01*
X161429938Y-110834586D01*
X161429936Y-110834596D01*
X161409341Y-111069999D01*
X157994529Y-111069999D01*
X157986135Y-110968702D01*
X157986133Y-110968691D01*
X157929157Y-110743699D01*
X157835924Y-110531151D01*
X157708983Y-110336852D01*
X157708980Y-110336849D01*
X157708979Y-110336847D01*
X157551784Y-110166087D01*
X157551779Y-110166083D01*
X157551777Y-110166081D01*
X157368634Y-110023535D01*
X157368628Y-110023531D01*
X157164504Y-109913064D01*
X157164495Y-109913061D01*
X156944984Y-109837702D01*
X156773282Y-109809050D01*
X156716049Y-109799500D01*
X156483951Y-109799500D01*
X156438164Y-109807140D01*
X156255015Y-109837702D01*
X156035504Y-109913061D01*
X156035495Y-109913064D01*
X155831371Y-110023531D01*
X155831365Y-110023535D01*
X155648222Y-110166081D01*
X155648219Y-110166084D01*
X155491016Y-110336852D01*
X155364075Y-110531151D01*
X155270842Y-110743699D01*
X155213866Y-110968691D01*
X155213864Y-110968702D01*
X155194700Y-111199993D01*
X152555300Y-111199993D01*
X152536135Y-110968702D01*
X152536133Y-110968691D01*
X152479157Y-110743699D01*
X152385924Y-110531151D01*
X152258983Y-110336852D01*
X152258980Y-110336849D01*
X152258979Y-110336847D01*
X152101784Y-110166087D01*
X152101779Y-110166083D01*
X152101777Y-110166081D01*
X151918634Y-110023535D01*
X151918628Y-110023531D01*
X151714504Y-109913064D01*
X151714495Y-109913061D01*
X151494984Y-109837702D01*
X151323282Y-109809050D01*
X151266049Y-109799500D01*
X151033951Y-109799500D01*
X150988164Y-109807140D01*
X150805015Y-109837702D01*
X150585504Y-109913061D01*
X150585495Y-109913064D01*
X150381371Y-110023531D01*
X150381365Y-110023535D01*
X150198222Y-110166081D01*
X150198219Y-110166084D01*
X150041016Y-110336852D01*
X149914075Y-110531151D01*
X149820842Y-110743699D01*
X149763866Y-110968691D01*
X149763864Y-110968702D01*
X149744700Y-111199993D01*
X146329286Y-111199993D01*
X146340659Y-111070000D01*
X146320063Y-110834592D01*
X146258903Y-110606337D01*
X146159035Y-110392171D01*
X146133187Y-110355255D01*
X146023494Y-110198597D01*
X145856402Y-110031506D01*
X145856395Y-110031501D01*
X145845018Y-110023535D01*
X145817521Y-110004281D01*
X145662834Y-109895967D01*
X145662830Y-109895965D01*
X145662828Y-109895964D01*
X145448663Y-109796097D01*
X145448659Y-109796096D01*
X145448655Y-109796094D01*
X145220413Y-109734938D01*
X145220403Y-109734936D01*
X144985001Y-109714341D01*
X144984999Y-109714341D01*
X144749596Y-109734936D01*
X144749586Y-109734938D01*
X144521344Y-109796094D01*
X144521335Y-109796098D01*
X144307171Y-109895964D01*
X144307169Y-109895965D01*
X144113597Y-110031505D01*
X143946505Y-110198597D01*
X143810965Y-110392169D01*
X143810964Y-110392171D01*
X143711098Y-110606335D01*
X143711094Y-110606344D01*
X143649938Y-110834586D01*
X143649936Y-110834596D01*
X143629341Y-111069999D01*
X143629341Y-111070000D01*
X143649936Y-111305403D01*
X143649938Y-111305413D01*
X143711094Y-111533655D01*
X143711096Y-111533659D01*
X143711097Y-111533663D01*
X143748751Y-111614411D01*
X143810965Y-111747830D01*
X143810967Y-111747834D01*
X143946501Y-111941395D01*
X143946506Y-111941402D01*
X144113597Y-112108493D01*
X144113603Y-112108498D01*
X144299158Y-112238425D01*
X144342783Y-112293002D01*
X144349977Y-112362500D01*
X144318454Y-112424855D01*
X144299158Y-112441575D01*
X144113597Y-112571505D01*
X143946505Y-112738597D01*
X143810965Y-112932169D01*
X143810964Y-112932171D01*
X143711098Y-113146335D01*
X143711094Y-113146344D01*
X143649938Y-113374586D01*
X143649936Y-113374596D01*
X143629341Y-113609999D01*
X143629341Y-113610000D01*
X143649936Y-113845403D01*
X143649938Y-113845413D01*
X143711094Y-114073655D01*
X143711096Y-114073659D01*
X143711097Y-114073663D01*
X143767425Y-114194458D01*
X143810965Y-114287830D01*
X143810967Y-114287834D01*
X143876110Y-114380867D01*
X143946501Y-114481396D01*
X143946506Y-114481402D01*
X144068430Y-114603326D01*
X144101915Y-114664649D01*
X144096931Y-114734341D01*
X144055059Y-114790274D01*
X144024083Y-114807189D01*
X143892669Y-114856203D01*
X143892664Y-114856206D01*
X143777455Y-114942452D01*
X143777452Y-114942455D01*
X143691206Y-115057664D01*
X143691202Y-115057671D01*
X143640908Y-115192517D01*
X143637234Y-115226697D01*
X143634501Y-115252123D01*
X143634500Y-115252135D01*
X143634500Y-117047870D01*
X143634501Y-117047876D01*
X143640908Y-117107483D01*
X143691202Y-117242328D01*
X143691206Y-117242335D01*
X143777452Y-117357544D01*
X143777455Y-117357547D01*
X143892664Y-117443793D01*
X143892671Y-117443797D01*
X144024081Y-117492810D01*
X144080015Y-117534681D01*
X144104432Y-117600145D01*
X144089580Y-117668418D01*
X144068430Y-117696673D01*
X143946503Y-117818600D01*
X143810965Y-118012169D01*
X143810964Y-118012171D01*
X143711098Y-118226335D01*
X143711094Y-118226344D01*
X143649938Y-118454586D01*
X143649936Y-118454596D01*
X143629341Y-118689999D01*
X143629341Y-118690000D01*
X143649936Y-118925403D01*
X143649938Y-118925413D01*
X143711094Y-119153655D01*
X143711096Y-119153659D01*
X143711097Y-119153663D01*
X143810965Y-119367829D01*
X143810965Y-119367830D01*
X143810967Y-119367834D01*
X143946501Y-119561395D01*
X143946506Y-119561402D01*
X144113597Y-119728493D01*
X144113603Y-119728498D01*
X144299158Y-119858425D01*
X144342783Y-119913002D01*
X144349977Y-119982500D01*
X144318454Y-120044855D01*
X144299158Y-120061575D01*
X144113597Y-120191505D01*
X143946505Y-120358597D01*
X143810965Y-120552169D01*
X143810964Y-120552171D01*
X143711098Y-120766335D01*
X143711094Y-120766344D01*
X143649938Y-120994586D01*
X143649936Y-120994596D01*
X143629341Y-121229999D01*
X143629341Y-121230000D01*
X143649936Y-121465403D01*
X143649938Y-121465413D01*
X143711094Y-121693655D01*
X143711096Y-121693659D01*
X143711097Y-121693663D01*
X143810847Y-121907578D01*
X143810965Y-121907830D01*
X143810967Y-121907834D01*
X143946501Y-122101395D01*
X143946506Y-122101402D01*
X143949653Y-122104549D01*
X143983138Y-122165872D01*
X143978154Y-122235564D01*
X143949653Y-122279911D01*
X137356816Y-128872747D01*
X137295493Y-128906232D01*
X137225801Y-128901248D01*
X137169868Y-128859376D01*
X137168860Y-128858011D01*
X137114414Y-128783072D01*
X136991928Y-128660586D01*
X136908975Y-128600317D01*
X136866311Y-128544988D01*
X136860332Y-128475374D01*
X136892938Y-128413579D01*
X136908976Y-128399682D01*
X136991928Y-128339414D01*
X137114414Y-128216928D01*
X137216232Y-128076788D01*
X137294873Y-127922445D01*
X137348402Y-127757701D01*
X137375500Y-127586611D01*
X137375500Y-127413389D01*
X137348402Y-127242299D01*
X137294873Y-127077555D01*
X137216232Y-126923212D01*
X137114414Y-126783072D01*
X136991928Y-126660586D01*
X136908975Y-126600317D01*
X136866311Y-126544988D01*
X136860332Y-126475374D01*
X136892938Y-126413579D01*
X136908976Y-126399682D01*
X136991928Y-126339414D01*
X137114414Y-126216928D01*
X137216232Y-126076788D01*
X137294873Y-125922445D01*
X137348402Y-125757701D01*
X137375500Y-125586611D01*
X137375500Y-125413389D01*
X137348402Y-125242299D01*
X137294873Y-125077555D01*
X137216232Y-124923212D01*
X137114414Y-124783072D01*
X136991928Y-124660586D01*
X136851788Y-124558768D01*
X136697445Y-124480127D01*
X136532701Y-124426598D01*
X136532699Y-124426597D01*
X136532698Y-124426597D01*
X136401271Y-124405781D01*
X136361611Y-124399500D01*
X135638389Y-124399500D01*
X135598728Y-124405781D01*
X135467302Y-124426597D01*
X135302552Y-124480128D01*
X135148211Y-124558768D01*
X135068256Y-124616859D01*
X135008072Y-124660586D01*
X135008070Y-124660588D01*
X135008069Y-124660588D01*
X134885588Y-124783069D01*
X134885588Y-124783070D01*
X134885586Y-124783072D01*
X134873822Y-124799264D01*
X134783768Y-124923211D01*
X134705128Y-125077552D01*
X134651597Y-125242302D01*
X134634163Y-125352378D01*
X134624500Y-125413389D01*
X134624500Y-125586611D01*
X134651598Y-125757701D01*
X134705127Y-125922445D01*
X134783768Y-126076788D01*
X134807955Y-126110079D01*
X134831435Y-126175884D01*
X134815610Y-126243938D01*
X134795318Y-126270645D01*
X134440886Y-126625078D01*
X134329081Y-126736882D01*
X134329079Y-126736884D01*
X134314154Y-126762735D01*
X134307846Y-126773663D01*
X134302415Y-126783070D01*
X134250024Y-126873812D01*
X134250023Y-126873814D01*
X134250023Y-126873815D01*
X134244273Y-126895270D01*
X134207909Y-126954929D01*
X134145062Y-126985457D01*
X134075686Y-126977162D01*
X134021809Y-126932676D01*
X134000535Y-126866124D01*
X134000500Y-126863174D01*
X134000500Y-111893713D01*
X135149500Y-111893713D01*
X135149500Y-112106287D01*
X135182754Y-112316243D01*
X135238216Y-112486938D01*
X135248444Y-112518414D01*
X135344951Y-112707820D01*
X135469890Y-112879786D01*
X135620213Y-113030109D01*
X135792179Y-113155048D01*
X135792181Y-113155049D01*
X135792184Y-113155051D01*
X135981588Y-113251557D01*
X136183757Y-113317246D01*
X136393713Y-113350500D01*
X136393714Y-113350500D01*
X136606286Y-113350500D01*
X136606287Y-113350500D01*
X136816243Y-113317246D01*
X137018412Y-113251557D01*
X137207816Y-113155051D01*
X137229789Y-113139086D01*
X137379786Y-113030109D01*
X137379788Y-113030106D01*
X137379792Y-113030104D01*
X137530104Y-112879792D01*
X137530106Y-112879788D01*
X137530109Y-112879786D01*
X137655048Y-112707820D01*
X137655047Y-112707820D01*
X137655051Y-112707816D01*
X137751557Y-112518412D01*
X137817246Y-112316243D01*
X137850500Y-112106287D01*
X137850500Y-111893713D01*
X137817246Y-111683757D01*
X137751557Y-111481588D01*
X137655051Y-111292184D01*
X137655049Y-111292181D01*
X137655048Y-111292179D01*
X137530109Y-111120213D01*
X137379786Y-110969890D01*
X137207820Y-110844951D01*
X137018414Y-110748444D01*
X137018413Y-110748443D01*
X137018412Y-110748443D01*
X136816243Y-110682754D01*
X136816241Y-110682753D01*
X136816240Y-110682753D01*
X136654957Y-110657208D01*
X136606287Y-110649500D01*
X136393713Y-110649500D01*
X136345042Y-110657208D01*
X136183760Y-110682753D01*
X136183757Y-110682754D01*
X135996189Y-110743699D01*
X135981585Y-110748444D01*
X135792179Y-110844951D01*
X135620213Y-110969890D01*
X135469890Y-111120213D01*
X135344951Y-111292179D01*
X135248444Y-111481585D01*
X135182753Y-111683760D01*
X135154171Y-111864224D01*
X135149500Y-111893713D01*
X134000500Y-111893713D01*
X134000500Y-108124500D01*
X134020185Y-108057461D01*
X134072989Y-108011706D01*
X134124500Y-108000500D01*
X189375500Y-108000500D01*
X189442539Y-108020185D01*
G37*
%TD.AperFunction*%
%TD*%
M02*
