M48
; DRILL file {KiCad 8.0.5} date 2024-10-22T13:34:13-0400
; FORMAT={-:-/ absolute / inch / decimal}
; #@! TF.CreationDate,2024-10-22T13:34:13-04:00
; #@! TF.GenerationSoftware,Kicad,Pcbnew,8.0.5
; #@! TF.FileFunction,Plated,1,2,PTH
FMAT,2
INCH
; #@! TA.AperFunction,Plated,PTH,ComponentDrill
T1C0.0295
; #@! TA.AperFunction,Plated,PTH,ComponentDrill
T2C0.0315
; #@! TA.AperFunction,Plated,PTH,ComponentDrill
T3C0.0402
; #@! TA.AperFunction,Plated,PTH,ComponentDrill
T4C0.0440
%
G90
G05
T1
X5.3543Y-4.9409
X5.3543Y-5.0197
X5.3543Y-5.0984
X5.3543Y-5.1772
X5.3543Y-5.2559
X5.3543Y-5.3346
X5.3543Y-5.4134
X5.3543Y-5.6102
X5.3543Y-5.689
X5.3543Y-5.7677
X6.8307Y-4.3504
X6.9094Y-4.3504
X6.9882Y-4.3504
X7.0669Y-4.3504
T2
X6.9488Y-4.5276
X6.9488Y-4.9276
X7.2037Y-4.5289
X7.2037Y-4.9289
X7.2047Y-5.1346
X7.2047Y-5.5346
X7.2047Y-5.6465
X7.2047Y-6.0465
T3
X5.7081Y-4.3728
X5.7081Y-4.4728
X5.7081Y-4.5728
X5.7081Y-4.6728
X5.7081Y-4.7728
X5.7081Y-4.8728
X5.7081Y-4.9728
X5.7081Y-5.0728
X5.7081Y-5.1728
X5.7081Y-5.2728
X5.7081Y-5.3728
X5.7081Y-5.4728
X5.7081Y-5.5728
X5.7081Y-5.6728
X5.7081Y-5.7728
X5.7081Y-5.8728
X5.7081Y-5.9728
X5.7081Y-6.0728
X5.7081Y-6.1728
X5.7081Y-6.2728
X5.9581Y-6.2638
X6.0581Y-6.2638
X6.1581Y-6.2638
X6.4081Y-4.3728
X6.4081Y-4.4728
X6.4081Y-4.5728
X6.4081Y-4.6728
X6.4081Y-4.7728
X6.4081Y-4.8728
X6.4081Y-4.9728
X6.4081Y-5.0728
X6.4081Y-5.1728
X6.4081Y-5.2728
X6.4081Y-5.3728
X6.4081Y-5.4728
X6.4081Y-5.5728
X6.4081Y-5.6728
X6.4081Y-5.7728
X6.4081Y-5.8728
X6.4081Y-5.9728
X6.4081Y-6.0728
X6.4081Y-6.1728
X6.4081Y-6.2728
T4
X6.7201Y-5.3299
X6.7201Y-5.4299
X6.7201Y-5.5299
X6.7201Y-5.6299
X6.7201Y-5.7299
X6.7201Y-5.8299
X6.7201Y-5.9299
X7.0201Y-5.3299
X7.0201Y-5.4299
X7.0201Y-5.5299
X7.0201Y-5.6299
X7.0201Y-5.7299
X7.0201Y-5.8299
X7.0201Y-5.9299
M30
