%TF.GenerationSoftware,KiCad,Pcbnew,8.0.5*%
%TF.CreationDate,2024-10-21T18:00:16-04:00*%
%TF.ProjectId,Sensing_PCB,53656e73-696e-4675-9f50-43422e6b6963,rev?*%
%TF.SameCoordinates,Original*%
%TF.FileFunction,Legend,Top*%
%TF.FilePolarity,Positive*%
%FSLAX46Y46*%
G04 Gerber Fmt 4.6, Leading zero omitted, Abs format (unit mm)*
G04 Created by KiCad (PCBNEW 8.0.5) date 2024-10-21 18:00:16*
%MOMM*%
%LPD*%
G01*
G04 APERTURE LIST*
%ADD10C,0.100000*%
%ADD11C,0.150000*%
%ADD12C,0.120000*%
%ADD13C,0.152400*%
G04 APERTURE END LIST*
D10*
X174071428Y-158152531D02*
X173595238Y-158152531D01*
X173595238Y-158152531D02*
X173595238Y-157152531D01*
X174547619Y-158152531D02*
X174452381Y-158104912D01*
X174452381Y-158104912D02*
X174404762Y-158057292D01*
X174404762Y-158057292D02*
X174357143Y-157962054D01*
X174357143Y-157962054D02*
X174357143Y-157676340D01*
X174357143Y-157676340D02*
X174404762Y-157581102D01*
X174404762Y-157581102D02*
X174452381Y-157533483D01*
X174452381Y-157533483D02*
X174547619Y-157485864D01*
X174547619Y-157485864D02*
X174690476Y-157485864D01*
X174690476Y-157485864D02*
X174785714Y-157533483D01*
X174785714Y-157533483D02*
X174833333Y-157581102D01*
X174833333Y-157581102D02*
X174880952Y-157676340D01*
X174880952Y-157676340D02*
X174880952Y-157962054D01*
X174880952Y-157962054D02*
X174833333Y-158057292D01*
X174833333Y-158057292D02*
X174785714Y-158104912D01*
X174785714Y-158104912D02*
X174690476Y-158152531D01*
X174690476Y-158152531D02*
X174547619Y-158152531D01*
X175214286Y-157485864D02*
X175404762Y-158152531D01*
X175404762Y-158152531D02*
X175595238Y-157676340D01*
X175595238Y-157676340D02*
X175785714Y-158152531D01*
X175785714Y-158152531D02*
X175976190Y-157485864D01*
X176357143Y-157771578D02*
X177119048Y-157771578D01*
X178166666Y-158057292D02*
X178119047Y-158104912D01*
X178119047Y-158104912D02*
X177976190Y-158152531D01*
X177976190Y-158152531D02*
X177880952Y-158152531D01*
X177880952Y-158152531D02*
X177738095Y-158104912D01*
X177738095Y-158104912D02*
X177642857Y-158009673D01*
X177642857Y-158009673D02*
X177595238Y-157914435D01*
X177595238Y-157914435D02*
X177547619Y-157723959D01*
X177547619Y-157723959D02*
X177547619Y-157581102D01*
X177547619Y-157581102D02*
X177595238Y-157390626D01*
X177595238Y-157390626D02*
X177642857Y-157295388D01*
X177642857Y-157295388D02*
X177738095Y-157200150D01*
X177738095Y-157200150D02*
X177880952Y-157152531D01*
X177880952Y-157152531D02*
X177976190Y-157152531D01*
X177976190Y-157152531D02*
X178119047Y-157200150D01*
X178119047Y-157200150D02*
X178166666Y-157247769D01*
X178738095Y-158152531D02*
X178642857Y-158104912D01*
X178642857Y-158104912D02*
X178595238Y-158057292D01*
X178595238Y-158057292D02*
X178547619Y-157962054D01*
X178547619Y-157962054D02*
X178547619Y-157676340D01*
X178547619Y-157676340D02*
X178595238Y-157581102D01*
X178595238Y-157581102D02*
X178642857Y-157533483D01*
X178642857Y-157533483D02*
X178738095Y-157485864D01*
X178738095Y-157485864D02*
X178880952Y-157485864D01*
X178880952Y-157485864D02*
X178976190Y-157533483D01*
X178976190Y-157533483D02*
X179023809Y-157581102D01*
X179023809Y-157581102D02*
X179071428Y-157676340D01*
X179071428Y-157676340D02*
X179071428Y-157962054D01*
X179071428Y-157962054D02*
X179023809Y-158057292D01*
X179023809Y-158057292D02*
X178976190Y-158104912D01*
X178976190Y-158104912D02*
X178880952Y-158152531D01*
X178880952Y-158152531D02*
X178738095Y-158152531D01*
X179452381Y-158104912D02*
X179547619Y-158152531D01*
X179547619Y-158152531D02*
X179738095Y-158152531D01*
X179738095Y-158152531D02*
X179833333Y-158104912D01*
X179833333Y-158104912D02*
X179880952Y-158009673D01*
X179880952Y-158009673D02*
X179880952Y-157962054D01*
X179880952Y-157962054D02*
X179833333Y-157866816D01*
X179833333Y-157866816D02*
X179738095Y-157819197D01*
X179738095Y-157819197D02*
X179595238Y-157819197D01*
X179595238Y-157819197D02*
X179500000Y-157771578D01*
X179500000Y-157771578D02*
X179452381Y-157676340D01*
X179452381Y-157676340D02*
X179452381Y-157628721D01*
X179452381Y-157628721D02*
X179500000Y-157533483D01*
X179500000Y-157533483D02*
X179595238Y-157485864D01*
X179595238Y-157485864D02*
X179738095Y-157485864D01*
X179738095Y-157485864D02*
X179833333Y-157533483D01*
X180166667Y-157485864D02*
X180547619Y-157485864D01*
X180309524Y-157152531D02*
X180309524Y-158009673D01*
X180309524Y-158009673D02*
X180357143Y-158104912D01*
X180357143Y-158104912D02*
X180452381Y-158152531D01*
X180452381Y-158152531D02*
X180547619Y-158152531D01*
X172309523Y-158762475D02*
X172880951Y-158762475D01*
X172595237Y-159762475D02*
X172595237Y-158762475D01*
X173214285Y-159762475D02*
X173214285Y-158762475D01*
X173642856Y-159762475D02*
X173642856Y-159238665D01*
X173642856Y-159238665D02*
X173595237Y-159143427D01*
X173595237Y-159143427D02*
X173499999Y-159095808D01*
X173499999Y-159095808D02*
X173357142Y-159095808D01*
X173357142Y-159095808D02*
X173261904Y-159143427D01*
X173261904Y-159143427D02*
X173214285Y-159191046D01*
X174119047Y-159762475D02*
X174119047Y-159095808D01*
X174119047Y-159286284D02*
X174166666Y-159191046D01*
X174166666Y-159191046D02*
X174214285Y-159143427D01*
X174214285Y-159143427D02*
X174309523Y-159095808D01*
X174309523Y-159095808D02*
X174404761Y-159095808D01*
X175166666Y-159095808D02*
X175166666Y-159762475D01*
X174738095Y-159095808D02*
X174738095Y-159619617D01*
X174738095Y-159619617D02*
X174785714Y-159714856D01*
X174785714Y-159714856D02*
X174880952Y-159762475D01*
X174880952Y-159762475D02*
X175023809Y-159762475D01*
X175023809Y-159762475D02*
X175119047Y-159714856D01*
X175119047Y-159714856D02*
X175166666Y-159667236D01*
X175595238Y-159714856D02*
X175690476Y-159762475D01*
X175690476Y-159762475D02*
X175880952Y-159762475D01*
X175880952Y-159762475D02*
X175976190Y-159714856D01*
X175976190Y-159714856D02*
X176023809Y-159619617D01*
X176023809Y-159619617D02*
X176023809Y-159571998D01*
X176023809Y-159571998D02*
X175976190Y-159476760D01*
X175976190Y-159476760D02*
X175880952Y-159429141D01*
X175880952Y-159429141D02*
X175738095Y-159429141D01*
X175738095Y-159429141D02*
X175642857Y-159381522D01*
X175642857Y-159381522D02*
X175595238Y-159286284D01*
X175595238Y-159286284D02*
X175595238Y-159238665D01*
X175595238Y-159238665D02*
X175642857Y-159143427D01*
X175642857Y-159143427D02*
X175738095Y-159095808D01*
X175738095Y-159095808D02*
X175880952Y-159095808D01*
X175880952Y-159095808D02*
X175976190Y-159143427D01*
X176309524Y-159095808D02*
X176690476Y-159095808D01*
X176452381Y-158762475D02*
X176452381Y-159619617D01*
X176452381Y-159619617D02*
X176500000Y-159714856D01*
X176500000Y-159714856D02*
X176595238Y-159762475D01*
X176595238Y-159762475D02*
X176690476Y-159762475D01*
X177738096Y-159714856D02*
X177880953Y-159762475D01*
X177880953Y-159762475D02*
X178119048Y-159762475D01*
X178119048Y-159762475D02*
X178214286Y-159714856D01*
X178214286Y-159714856D02*
X178261905Y-159667236D01*
X178261905Y-159667236D02*
X178309524Y-159571998D01*
X178309524Y-159571998D02*
X178309524Y-159476760D01*
X178309524Y-159476760D02*
X178261905Y-159381522D01*
X178261905Y-159381522D02*
X178214286Y-159333903D01*
X178214286Y-159333903D02*
X178119048Y-159286284D01*
X178119048Y-159286284D02*
X177928572Y-159238665D01*
X177928572Y-159238665D02*
X177833334Y-159191046D01*
X177833334Y-159191046D02*
X177785715Y-159143427D01*
X177785715Y-159143427D02*
X177738096Y-159048189D01*
X177738096Y-159048189D02*
X177738096Y-158952951D01*
X177738096Y-158952951D02*
X177785715Y-158857713D01*
X177785715Y-158857713D02*
X177833334Y-158810094D01*
X177833334Y-158810094D02*
X177928572Y-158762475D01*
X177928572Y-158762475D02*
X178166667Y-158762475D01*
X178166667Y-158762475D02*
X178309524Y-158810094D01*
X178595239Y-159095808D02*
X178976191Y-159095808D01*
X178738096Y-158762475D02*
X178738096Y-159619617D01*
X178738096Y-159619617D02*
X178785715Y-159714856D01*
X178785715Y-159714856D02*
X178880953Y-159762475D01*
X178880953Y-159762475D02*
X178976191Y-159762475D01*
X179738096Y-159762475D02*
X179738096Y-159238665D01*
X179738096Y-159238665D02*
X179690477Y-159143427D01*
X179690477Y-159143427D02*
X179595239Y-159095808D01*
X179595239Y-159095808D02*
X179404763Y-159095808D01*
X179404763Y-159095808D02*
X179309525Y-159143427D01*
X179738096Y-159714856D02*
X179642858Y-159762475D01*
X179642858Y-159762475D02*
X179404763Y-159762475D01*
X179404763Y-159762475D02*
X179309525Y-159714856D01*
X179309525Y-159714856D02*
X179261906Y-159619617D01*
X179261906Y-159619617D02*
X179261906Y-159524379D01*
X179261906Y-159524379D02*
X179309525Y-159429141D01*
X179309525Y-159429141D02*
X179404763Y-159381522D01*
X179404763Y-159381522D02*
X179642858Y-159381522D01*
X179642858Y-159381522D02*
X179738096Y-159333903D01*
X180214287Y-159095808D02*
X180214287Y-159762475D01*
X180214287Y-159191046D02*
X180261906Y-159143427D01*
X180261906Y-159143427D02*
X180357144Y-159095808D01*
X180357144Y-159095808D02*
X180500001Y-159095808D01*
X180500001Y-159095808D02*
X180595239Y-159143427D01*
X180595239Y-159143427D02*
X180642858Y-159238665D01*
X180642858Y-159238665D02*
X180642858Y-159762475D01*
X181547620Y-159762475D02*
X181547620Y-158762475D01*
X181547620Y-159714856D02*
X181452382Y-159762475D01*
X181452382Y-159762475D02*
X181261906Y-159762475D01*
X181261906Y-159762475D02*
X181166668Y-159714856D01*
X181166668Y-159714856D02*
X181119049Y-159667236D01*
X181119049Y-159667236D02*
X181071430Y-159571998D01*
X181071430Y-159571998D02*
X181071430Y-159286284D01*
X181071430Y-159286284D02*
X181119049Y-159191046D01*
X181119049Y-159191046D02*
X181166668Y-159143427D01*
X181166668Y-159143427D02*
X181261906Y-159095808D01*
X181261906Y-159095808D02*
X181452382Y-159095808D01*
X181452382Y-159095808D02*
X181547620Y-159143427D01*
X171357142Y-161324800D02*
X171499999Y-161372419D01*
X171499999Y-161372419D02*
X171738094Y-161372419D01*
X171738094Y-161372419D02*
X171833332Y-161324800D01*
X171833332Y-161324800D02*
X171880951Y-161277180D01*
X171880951Y-161277180D02*
X171928570Y-161181942D01*
X171928570Y-161181942D02*
X171928570Y-161086704D01*
X171928570Y-161086704D02*
X171880951Y-160991466D01*
X171880951Y-160991466D02*
X171833332Y-160943847D01*
X171833332Y-160943847D02*
X171738094Y-160896228D01*
X171738094Y-160896228D02*
X171547618Y-160848609D01*
X171547618Y-160848609D02*
X171452380Y-160800990D01*
X171452380Y-160800990D02*
X171404761Y-160753371D01*
X171404761Y-160753371D02*
X171357142Y-160658133D01*
X171357142Y-160658133D02*
X171357142Y-160562895D01*
X171357142Y-160562895D02*
X171404761Y-160467657D01*
X171404761Y-160467657D02*
X171452380Y-160420038D01*
X171452380Y-160420038D02*
X171547618Y-160372419D01*
X171547618Y-160372419D02*
X171785713Y-160372419D01*
X171785713Y-160372419D02*
X171928570Y-160420038D01*
X172738094Y-161324800D02*
X172642856Y-161372419D01*
X172642856Y-161372419D02*
X172452380Y-161372419D01*
X172452380Y-161372419D02*
X172357142Y-161324800D01*
X172357142Y-161324800D02*
X172309523Y-161229561D01*
X172309523Y-161229561D02*
X172309523Y-160848609D01*
X172309523Y-160848609D02*
X172357142Y-160753371D01*
X172357142Y-160753371D02*
X172452380Y-160705752D01*
X172452380Y-160705752D02*
X172642856Y-160705752D01*
X172642856Y-160705752D02*
X172738094Y-160753371D01*
X172738094Y-160753371D02*
X172785713Y-160848609D01*
X172785713Y-160848609D02*
X172785713Y-160943847D01*
X172785713Y-160943847D02*
X172309523Y-161039085D01*
X173214285Y-160705752D02*
X173214285Y-161372419D01*
X173214285Y-160800990D02*
X173261904Y-160753371D01*
X173261904Y-160753371D02*
X173357142Y-160705752D01*
X173357142Y-160705752D02*
X173499999Y-160705752D01*
X173499999Y-160705752D02*
X173595237Y-160753371D01*
X173595237Y-160753371D02*
X173642856Y-160848609D01*
X173642856Y-160848609D02*
X173642856Y-161372419D01*
X174071428Y-161324800D02*
X174166666Y-161372419D01*
X174166666Y-161372419D02*
X174357142Y-161372419D01*
X174357142Y-161372419D02*
X174452380Y-161324800D01*
X174452380Y-161324800D02*
X174499999Y-161229561D01*
X174499999Y-161229561D02*
X174499999Y-161181942D01*
X174499999Y-161181942D02*
X174452380Y-161086704D01*
X174452380Y-161086704D02*
X174357142Y-161039085D01*
X174357142Y-161039085D02*
X174214285Y-161039085D01*
X174214285Y-161039085D02*
X174119047Y-160991466D01*
X174119047Y-160991466D02*
X174071428Y-160896228D01*
X174071428Y-160896228D02*
X174071428Y-160848609D01*
X174071428Y-160848609D02*
X174119047Y-160753371D01*
X174119047Y-160753371D02*
X174214285Y-160705752D01*
X174214285Y-160705752D02*
X174357142Y-160705752D01*
X174357142Y-160705752D02*
X174452380Y-160753371D01*
X174928571Y-161372419D02*
X174928571Y-160705752D01*
X174928571Y-160372419D02*
X174880952Y-160420038D01*
X174880952Y-160420038D02*
X174928571Y-160467657D01*
X174928571Y-160467657D02*
X174976190Y-160420038D01*
X174976190Y-160420038D02*
X174928571Y-160372419D01*
X174928571Y-160372419D02*
X174928571Y-160467657D01*
X175404761Y-160705752D02*
X175404761Y-161372419D01*
X175404761Y-160800990D02*
X175452380Y-160753371D01*
X175452380Y-160753371D02*
X175547618Y-160705752D01*
X175547618Y-160705752D02*
X175690475Y-160705752D01*
X175690475Y-160705752D02*
X175785713Y-160753371D01*
X175785713Y-160753371D02*
X175833332Y-160848609D01*
X175833332Y-160848609D02*
X175833332Y-161372419D01*
X176738094Y-160705752D02*
X176738094Y-161515276D01*
X176738094Y-161515276D02*
X176690475Y-161610514D01*
X176690475Y-161610514D02*
X176642856Y-161658133D01*
X176642856Y-161658133D02*
X176547618Y-161705752D01*
X176547618Y-161705752D02*
X176404761Y-161705752D01*
X176404761Y-161705752D02*
X176309523Y-161658133D01*
X176738094Y-161324800D02*
X176642856Y-161372419D01*
X176642856Y-161372419D02*
X176452380Y-161372419D01*
X176452380Y-161372419D02*
X176357142Y-161324800D01*
X176357142Y-161324800D02*
X176309523Y-161277180D01*
X176309523Y-161277180D02*
X176261904Y-161181942D01*
X176261904Y-161181942D02*
X176261904Y-160896228D01*
X176261904Y-160896228D02*
X176309523Y-160800990D01*
X176309523Y-160800990D02*
X176357142Y-160753371D01*
X176357142Y-160753371D02*
X176452380Y-160705752D01*
X176452380Y-160705752D02*
X176642856Y-160705752D01*
X176642856Y-160705752D02*
X176738094Y-160753371D01*
X177928571Y-161324800D02*
X178071428Y-161372419D01*
X178071428Y-161372419D02*
X178309523Y-161372419D01*
X178309523Y-161372419D02*
X178404761Y-161324800D01*
X178404761Y-161324800D02*
X178452380Y-161277180D01*
X178452380Y-161277180D02*
X178499999Y-161181942D01*
X178499999Y-161181942D02*
X178499999Y-161086704D01*
X178499999Y-161086704D02*
X178452380Y-160991466D01*
X178452380Y-160991466D02*
X178404761Y-160943847D01*
X178404761Y-160943847D02*
X178309523Y-160896228D01*
X178309523Y-160896228D02*
X178119047Y-160848609D01*
X178119047Y-160848609D02*
X178023809Y-160800990D01*
X178023809Y-160800990D02*
X177976190Y-160753371D01*
X177976190Y-160753371D02*
X177928571Y-160658133D01*
X177928571Y-160658133D02*
X177928571Y-160562895D01*
X177928571Y-160562895D02*
X177976190Y-160467657D01*
X177976190Y-160467657D02*
X178023809Y-160420038D01*
X178023809Y-160420038D02*
X178119047Y-160372419D01*
X178119047Y-160372419D02*
X178357142Y-160372419D01*
X178357142Y-160372419D02*
X178499999Y-160420038D01*
X179309523Y-161324800D02*
X179214285Y-161372419D01*
X179214285Y-161372419D02*
X179023809Y-161372419D01*
X179023809Y-161372419D02*
X178928571Y-161324800D01*
X178928571Y-161324800D02*
X178880952Y-161229561D01*
X178880952Y-161229561D02*
X178880952Y-160848609D01*
X178880952Y-160848609D02*
X178928571Y-160753371D01*
X178928571Y-160753371D02*
X179023809Y-160705752D01*
X179023809Y-160705752D02*
X179214285Y-160705752D01*
X179214285Y-160705752D02*
X179309523Y-160753371D01*
X179309523Y-160753371D02*
X179357142Y-160848609D01*
X179357142Y-160848609D02*
X179357142Y-160943847D01*
X179357142Y-160943847D02*
X178880952Y-161039085D01*
X179785714Y-160705752D02*
X179785714Y-161372419D01*
X179785714Y-160800990D02*
X179833333Y-160753371D01*
X179833333Y-160753371D02*
X179928571Y-160705752D01*
X179928571Y-160705752D02*
X180071428Y-160705752D01*
X180071428Y-160705752D02*
X180166666Y-160753371D01*
X180166666Y-160753371D02*
X180214285Y-160848609D01*
X180214285Y-160848609D02*
X180214285Y-161372419D01*
X181119047Y-161372419D02*
X181119047Y-160372419D01*
X181119047Y-161324800D02*
X181023809Y-161372419D01*
X181023809Y-161372419D02*
X180833333Y-161372419D01*
X180833333Y-161372419D02*
X180738095Y-161324800D01*
X180738095Y-161324800D02*
X180690476Y-161277180D01*
X180690476Y-161277180D02*
X180642857Y-161181942D01*
X180642857Y-161181942D02*
X180642857Y-160896228D01*
X180642857Y-160896228D02*
X180690476Y-160800990D01*
X180690476Y-160800990D02*
X180738095Y-160753371D01*
X180738095Y-160753371D02*
X180833333Y-160705752D01*
X180833333Y-160705752D02*
X181023809Y-160705752D01*
X181023809Y-160705752D02*
X181119047Y-160753371D01*
X181976190Y-161324800D02*
X181880952Y-161372419D01*
X181880952Y-161372419D02*
X181690476Y-161372419D01*
X181690476Y-161372419D02*
X181595238Y-161324800D01*
X181595238Y-161324800D02*
X181547619Y-161229561D01*
X181547619Y-161229561D02*
X181547619Y-160848609D01*
X181547619Y-160848609D02*
X181595238Y-160753371D01*
X181595238Y-160753371D02*
X181690476Y-160705752D01*
X181690476Y-160705752D02*
X181880952Y-160705752D01*
X181880952Y-160705752D02*
X181976190Y-160753371D01*
X181976190Y-160753371D02*
X182023809Y-160848609D01*
X182023809Y-160848609D02*
X182023809Y-160943847D01*
X182023809Y-160943847D02*
X181547619Y-161039085D01*
X182452381Y-161372419D02*
X182452381Y-160705752D01*
X182452381Y-160896228D02*
X182500000Y-160800990D01*
X182500000Y-160800990D02*
X182547619Y-160753371D01*
X182547619Y-160753371D02*
X182642857Y-160705752D01*
X182642857Y-160705752D02*
X182738095Y-160705752D01*
D11*
X139718998Y-147020868D02*
X139638185Y-147047805D01*
X139638185Y-147047805D02*
X139557373Y-147128618D01*
X139557373Y-147128618D02*
X139503498Y-147236367D01*
X139503498Y-147236367D02*
X139503498Y-147344117D01*
X139503498Y-147344117D02*
X139530436Y-147424929D01*
X139530436Y-147424929D02*
X139611248Y-147559616D01*
X139611248Y-147559616D02*
X139692060Y-147640428D01*
X139692060Y-147640428D02*
X139826747Y-147721241D01*
X139826747Y-147721241D02*
X139907560Y-147748178D01*
X139907560Y-147748178D02*
X140015309Y-147748178D01*
X140015309Y-147748178D02*
X140123059Y-147694303D01*
X140123059Y-147694303D02*
X140176934Y-147640428D01*
X140176934Y-147640428D02*
X140230808Y-147532679D01*
X140230808Y-147532679D02*
X140230808Y-147478804D01*
X140230808Y-147478804D02*
X140042247Y-147290242D01*
X140042247Y-147290242D02*
X139934497Y-147397992D01*
X140527120Y-147290242D02*
X139961434Y-146724557D01*
X139961434Y-146724557D02*
X140176934Y-146509057D01*
X140176934Y-146509057D02*
X140257746Y-146482120D01*
X140257746Y-146482120D02*
X140311621Y-146482120D01*
X140311621Y-146482120D02*
X140392433Y-146509057D01*
X140392433Y-146509057D02*
X140473245Y-146589870D01*
X140473245Y-146589870D02*
X140500182Y-146670682D01*
X140500182Y-146670682D02*
X140500182Y-146724557D01*
X140500182Y-146724557D02*
X140473245Y-146805369D01*
X140473245Y-146805369D02*
X140257746Y-147020868D01*
X141389117Y-146428245D02*
X141065868Y-146751494D01*
X141227492Y-146589870D02*
X140661807Y-146024184D01*
X140661807Y-146024184D02*
X140688744Y-146158871D01*
X140688744Y-146158871D02*
X140688744Y-146266621D01*
X140688744Y-146266621D02*
X140661807Y-146347433D01*
X141927865Y-145889497D02*
X141604616Y-146212746D01*
X141766240Y-146051121D02*
X141200555Y-145485436D01*
X141200555Y-145485436D02*
X141227492Y-145620123D01*
X141227492Y-145620123D02*
X141227492Y-145727873D01*
X141227492Y-145727873D02*
X141200555Y-145808685D01*
X140388372Y-136591494D02*
X140307560Y-136618431D01*
X140307560Y-136618431D02*
X140226748Y-136699243D01*
X140226748Y-136699243D02*
X140172873Y-136806993D01*
X140172873Y-136806993D02*
X140172873Y-136914742D01*
X140172873Y-136914742D02*
X140199810Y-136995555D01*
X140199810Y-136995555D02*
X140280623Y-137130242D01*
X140280623Y-137130242D02*
X140361435Y-137211054D01*
X140361435Y-137211054D02*
X140496122Y-137291866D01*
X140496122Y-137291866D02*
X140576934Y-137318803D01*
X140576934Y-137318803D02*
X140684684Y-137318803D01*
X140684684Y-137318803D02*
X140792433Y-137264929D01*
X140792433Y-137264929D02*
X140846308Y-137211054D01*
X140846308Y-137211054D02*
X140900183Y-137103304D01*
X140900183Y-137103304D02*
X140900183Y-137049429D01*
X140900183Y-137049429D02*
X140711621Y-136860868D01*
X140711621Y-136860868D02*
X140603871Y-136968617D01*
X141196494Y-136860868D02*
X140630809Y-136295182D01*
X140630809Y-136295182D02*
X140846308Y-136079683D01*
X140846308Y-136079683D02*
X140927120Y-136052746D01*
X140927120Y-136052746D02*
X140980995Y-136052746D01*
X140980995Y-136052746D02*
X141061807Y-136079683D01*
X141061807Y-136079683D02*
X141142619Y-136160495D01*
X141142619Y-136160495D02*
X141169557Y-136241307D01*
X141169557Y-136241307D02*
X141169557Y-136295182D01*
X141169557Y-136295182D02*
X141142619Y-136375994D01*
X141142619Y-136375994D02*
X140927120Y-136591494D01*
X141519743Y-135891121D02*
X141438931Y-135918059D01*
X141438931Y-135918059D02*
X141385056Y-135918059D01*
X141385056Y-135918059D02*
X141304244Y-135891121D01*
X141304244Y-135891121D02*
X141277306Y-135864184D01*
X141277306Y-135864184D02*
X141250369Y-135783372D01*
X141250369Y-135783372D02*
X141250369Y-135729497D01*
X141250369Y-135729497D02*
X141277306Y-135648685D01*
X141277306Y-135648685D02*
X141385056Y-135540935D01*
X141385056Y-135540935D02*
X141465868Y-135513998D01*
X141465868Y-135513998D02*
X141519743Y-135513998D01*
X141519743Y-135513998D02*
X141600555Y-135540935D01*
X141600555Y-135540935D02*
X141627493Y-135567872D01*
X141627493Y-135567872D02*
X141654430Y-135648685D01*
X141654430Y-135648685D02*
X141654430Y-135702559D01*
X141654430Y-135702559D02*
X141627493Y-135783372D01*
X141627493Y-135783372D02*
X141519743Y-135891121D01*
X141519743Y-135891121D02*
X141492806Y-135971933D01*
X141492806Y-135971933D02*
X141492806Y-136025808D01*
X141492806Y-136025808D02*
X141519743Y-136106620D01*
X141519743Y-136106620D02*
X141627493Y-136214370D01*
X141627493Y-136214370D02*
X141708305Y-136241307D01*
X141708305Y-136241307D02*
X141762180Y-136241307D01*
X141762180Y-136241307D02*
X141842992Y-136214370D01*
X141842992Y-136214370D02*
X141950741Y-136106620D01*
X141950741Y-136106620D02*
X141977679Y-136025808D01*
X141977679Y-136025808D02*
X141977679Y-135971933D01*
X141977679Y-135971933D02*
X141950741Y-135891121D01*
X141950741Y-135891121D02*
X141842992Y-135783372D01*
X141842992Y-135783372D02*
X141762180Y-135756434D01*
X141762180Y-135756434D02*
X141708305Y-135756434D01*
X141708305Y-135756434D02*
X141627493Y-135783372D01*
X139818998Y-157180868D02*
X139738185Y-157207805D01*
X139738185Y-157207805D02*
X139657373Y-157288618D01*
X139657373Y-157288618D02*
X139603498Y-157396367D01*
X139603498Y-157396367D02*
X139603498Y-157504117D01*
X139603498Y-157504117D02*
X139630436Y-157584929D01*
X139630436Y-157584929D02*
X139711248Y-157719616D01*
X139711248Y-157719616D02*
X139792060Y-157800428D01*
X139792060Y-157800428D02*
X139926747Y-157881241D01*
X139926747Y-157881241D02*
X140007560Y-157908178D01*
X140007560Y-157908178D02*
X140115309Y-157908178D01*
X140115309Y-157908178D02*
X140223059Y-157854303D01*
X140223059Y-157854303D02*
X140276934Y-157800428D01*
X140276934Y-157800428D02*
X140330808Y-157692679D01*
X140330808Y-157692679D02*
X140330808Y-157638804D01*
X140330808Y-157638804D02*
X140142247Y-157450242D01*
X140142247Y-157450242D02*
X140034497Y-157557992D01*
X140627120Y-157450242D02*
X140061434Y-156884557D01*
X140061434Y-156884557D02*
X140276934Y-156669057D01*
X140276934Y-156669057D02*
X140357746Y-156642120D01*
X140357746Y-156642120D02*
X140411621Y-156642120D01*
X140411621Y-156642120D02*
X140492433Y-156669057D01*
X140492433Y-156669057D02*
X140573245Y-156749870D01*
X140573245Y-156749870D02*
X140600182Y-156830682D01*
X140600182Y-156830682D02*
X140600182Y-156884557D01*
X140600182Y-156884557D02*
X140573245Y-156965369D01*
X140573245Y-156965369D02*
X140357746Y-157180868D01*
X141489117Y-156588245D02*
X141165868Y-156911494D01*
X141327492Y-156749870D02*
X140761807Y-156184184D01*
X140761807Y-156184184D02*
X140788744Y-156318871D01*
X140788744Y-156318871D02*
X140788744Y-156426621D01*
X140788744Y-156426621D02*
X140761807Y-156507433D01*
X141596866Y-155726248D02*
X141973990Y-156103372D01*
X141246680Y-155645436D02*
X141516054Y-156184184D01*
X141516054Y-156184184D02*
X141866240Y-155833998D01*
X140361435Y-154398431D02*
X140280623Y-154425368D01*
X140280623Y-154425368D02*
X140199811Y-154506180D01*
X140199811Y-154506180D02*
X140145936Y-154613930D01*
X140145936Y-154613930D02*
X140145936Y-154721680D01*
X140145936Y-154721680D02*
X140172873Y-154802492D01*
X140172873Y-154802492D02*
X140253685Y-154937179D01*
X140253685Y-154937179D02*
X140334498Y-155017991D01*
X140334498Y-155017991D02*
X140469185Y-155098803D01*
X140469185Y-155098803D02*
X140549997Y-155125741D01*
X140549997Y-155125741D02*
X140657746Y-155125741D01*
X140657746Y-155125741D02*
X140765496Y-155071866D01*
X140765496Y-155071866D02*
X140819371Y-155017991D01*
X140819371Y-155017991D02*
X140873246Y-154910241D01*
X140873246Y-154910241D02*
X140873246Y-154856367D01*
X140873246Y-154856367D02*
X140684684Y-154667805D01*
X140684684Y-154667805D02*
X140576934Y-154775554D01*
X141169557Y-154667805D02*
X140603872Y-154102119D01*
X140603872Y-154102119D02*
X141492806Y-154344556D01*
X141492806Y-154344556D02*
X140927120Y-153778871D01*
X141762180Y-154075182D02*
X141196494Y-153509497D01*
X141196494Y-153509497D02*
X141331181Y-153374810D01*
X141331181Y-153374810D02*
X141438931Y-153320935D01*
X141438931Y-153320935D02*
X141546680Y-153320935D01*
X141546680Y-153320935D02*
X141627493Y-153347872D01*
X141627493Y-153347872D02*
X141762180Y-153428685D01*
X141762180Y-153428685D02*
X141842992Y-153509497D01*
X141842992Y-153509497D02*
X141923804Y-153644184D01*
X141923804Y-153644184D02*
X141950741Y-153724996D01*
X141950741Y-153724996D02*
X141950741Y-153832746D01*
X141950741Y-153832746D02*
X141896867Y-153940495D01*
X141896867Y-153940495D02*
X141762180Y-154075182D01*
X140488372Y-134021494D02*
X140407560Y-134048431D01*
X140407560Y-134048431D02*
X140326748Y-134129243D01*
X140326748Y-134129243D02*
X140272873Y-134236993D01*
X140272873Y-134236993D02*
X140272873Y-134344742D01*
X140272873Y-134344742D02*
X140299810Y-134425555D01*
X140299810Y-134425555D02*
X140380623Y-134560242D01*
X140380623Y-134560242D02*
X140461435Y-134641054D01*
X140461435Y-134641054D02*
X140596122Y-134721866D01*
X140596122Y-134721866D02*
X140676934Y-134748803D01*
X140676934Y-134748803D02*
X140784684Y-134748803D01*
X140784684Y-134748803D02*
X140892433Y-134694929D01*
X140892433Y-134694929D02*
X140946308Y-134641054D01*
X140946308Y-134641054D02*
X141000183Y-134533304D01*
X141000183Y-134533304D02*
X141000183Y-134479429D01*
X141000183Y-134479429D02*
X140811621Y-134290868D01*
X140811621Y-134290868D02*
X140703871Y-134398617D01*
X141296494Y-134290868D02*
X140730809Y-133725182D01*
X140730809Y-133725182D02*
X140946308Y-133509683D01*
X140946308Y-133509683D02*
X141027120Y-133482746D01*
X141027120Y-133482746D02*
X141080995Y-133482746D01*
X141080995Y-133482746D02*
X141161807Y-133509683D01*
X141161807Y-133509683D02*
X141242619Y-133590495D01*
X141242619Y-133590495D02*
X141269557Y-133671307D01*
X141269557Y-133671307D02*
X141269557Y-133725182D01*
X141269557Y-133725182D02*
X141242619Y-133805994D01*
X141242619Y-133805994D02*
X141027120Y-134021494D01*
X141242619Y-133213372D02*
X141619743Y-132836248D01*
X141619743Y-132836248D02*
X141942992Y-133644370D01*
X165972998Y-126446868D02*
X165892185Y-126473805D01*
X165892185Y-126473805D02*
X165811373Y-126554618D01*
X165811373Y-126554618D02*
X165757498Y-126662367D01*
X165757498Y-126662367D02*
X165757498Y-126770117D01*
X165757498Y-126770117D02*
X165784436Y-126850929D01*
X165784436Y-126850929D02*
X165865248Y-126985616D01*
X165865248Y-126985616D02*
X165946060Y-127066428D01*
X165946060Y-127066428D02*
X166080747Y-127147241D01*
X166080747Y-127147241D02*
X166161560Y-127174178D01*
X166161560Y-127174178D02*
X166269309Y-127174178D01*
X166269309Y-127174178D02*
X166377059Y-127120303D01*
X166377059Y-127120303D02*
X166430934Y-127066428D01*
X166430934Y-127066428D02*
X166484808Y-126958679D01*
X166484808Y-126958679D02*
X166484808Y-126904804D01*
X166484808Y-126904804D02*
X166296247Y-126716242D01*
X166296247Y-126716242D02*
X166188497Y-126823992D01*
X166781120Y-126716242D02*
X166215434Y-126150557D01*
X166215434Y-126150557D02*
X166430934Y-125935057D01*
X166430934Y-125935057D02*
X166511746Y-125908120D01*
X166511746Y-125908120D02*
X166565621Y-125908120D01*
X166565621Y-125908120D02*
X166646433Y-125935057D01*
X166646433Y-125935057D02*
X166727245Y-126015870D01*
X166727245Y-126015870D02*
X166754182Y-126096682D01*
X166754182Y-126096682D02*
X166754182Y-126150557D01*
X166754182Y-126150557D02*
X166727245Y-126231369D01*
X166727245Y-126231369D02*
X166511746Y-126446868D01*
X166808057Y-125665683D02*
X166808057Y-125611809D01*
X166808057Y-125611809D02*
X166834995Y-125530996D01*
X166834995Y-125530996D02*
X166969682Y-125396309D01*
X166969682Y-125396309D02*
X167050494Y-125369372D01*
X167050494Y-125369372D02*
X167104369Y-125369372D01*
X167104369Y-125369372D02*
X167185181Y-125396309D01*
X167185181Y-125396309D02*
X167239056Y-125450184D01*
X167239056Y-125450184D02*
X167292930Y-125557934D01*
X167292930Y-125557934D02*
X167292930Y-126204431D01*
X167292930Y-126204431D02*
X167643117Y-125854245D01*
X167643117Y-125207747D02*
X167562305Y-125234685D01*
X167562305Y-125234685D02*
X167508430Y-125234685D01*
X167508430Y-125234685D02*
X167427618Y-125207747D01*
X167427618Y-125207747D02*
X167400680Y-125180810D01*
X167400680Y-125180810D02*
X167373743Y-125099998D01*
X167373743Y-125099998D02*
X167373743Y-125046123D01*
X167373743Y-125046123D02*
X167400680Y-124965311D01*
X167400680Y-124965311D02*
X167508430Y-124857561D01*
X167508430Y-124857561D02*
X167589242Y-124830624D01*
X167589242Y-124830624D02*
X167643117Y-124830624D01*
X167643117Y-124830624D02*
X167723929Y-124857561D01*
X167723929Y-124857561D02*
X167750866Y-124884499D01*
X167750866Y-124884499D02*
X167777804Y-124965311D01*
X167777804Y-124965311D02*
X167777804Y-125019186D01*
X167777804Y-125019186D02*
X167750866Y-125099998D01*
X167750866Y-125099998D02*
X167643117Y-125207747D01*
X167643117Y-125207747D02*
X167616179Y-125288560D01*
X167616179Y-125288560D02*
X167616179Y-125342434D01*
X167616179Y-125342434D02*
X167643117Y-125423247D01*
X167643117Y-125423247D02*
X167750866Y-125530996D01*
X167750866Y-125530996D02*
X167831679Y-125557934D01*
X167831679Y-125557934D02*
X167885553Y-125557934D01*
X167885553Y-125557934D02*
X167966366Y-125530996D01*
X167966366Y-125530996D02*
X168074115Y-125423247D01*
X168074115Y-125423247D02*
X168101053Y-125342434D01*
X168101053Y-125342434D02*
X168101053Y-125288560D01*
X168101053Y-125288560D02*
X168074115Y-125207747D01*
X168074115Y-125207747D02*
X167966366Y-125099998D01*
X167966366Y-125099998D02*
X167885553Y-125073060D01*
X167885553Y-125073060D02*
X167831679Y-125073060D01*
X167831679Y-125073060D02*
X167750866Y-125099998D01*
X140288372Y-118811494D02*
X140207560Y-118838431D01*
X140207560Y-118838431D02*
X140126748Y-118919243D01*
X140126748Y-118919243D02*
X140072873Y-119026993D01*
X140072873Y-119026993D02*
X140072873Y-119134742D01*
X140072873Y-119134742D02*
X140099810Y-119215555D01*
X140099810Y-119215555D02*
X140180623Y-119350242D01*
X140180623Y-119350242D02*
X140261435Y-119431054D01*
X140261435Y-119431054D02*
X140396122Y-119511866D01*
X140396122Y-119511866D02*
X140476934Y-119538803D01*
X140476934Y-119538803D02*
X140584684Y-119538803D01*
X140584684Y-119538803D02*
X140692433Y-119484929D01*
X140692433Y-119484929D02*
X140746308Y-119431054D01*
X140746308Y-119431054D02*
X140800183Y-119323304D01*
X140800183Y-119323304D02*
X140800183Y-119269429D01*
X140800183Y-119269429D02*
X140611621Y-119080868D01*
X140611621Y-119080868D02*
X140503871Y-119188617D01*
X141096494Y-119080868D02*
X140530809Y-118515182D01*
X140530809Y-118515182D02*
X140746308Y-118299683D01*
X140746308Y-118299683D02*
X140827120Y-118272746D01*
X140827120Y-118272746D02*
X140880995Y-118272746D01*
X140880995Y-118272746D02*
X140961807Y-118299683D01*
X140961807Y-118299683D02*
X141042619Y-118380495D01*
X141042619Y-118380495D02*
X141069557Y-118461307D01*
X141069557Y-118461307D02*
X141069557Y-118515182D01*
X141069557Y-118515182D02*
X141042619Y-118595994D01*
X141042619Y-118595994D02*
X140827120Y-118811494D01*
X141123432Y-118030309D02*
X141123432Y-117976434D01*
X141123432Y-117976434D02*
X141150369Y-117895622D01*
X141150369Y-117895622D02*
X141285056Y-117760935D01*
X141285056Y-117760935D02*
X141365868Y-117733998D01*
X141365868Y-117733998D02*
X141419743Y-117733998D01*
X141419743Y-117733998D02*
X141500555Y-117760935D01*
X141500555Y-117760935D02*
X141554430Y-117814810D01*
X141554430Y-117814810D02*
X141608305Y-117922559D01*
X141608305Y-117922559D02*
X141608305Y-118569057D01*
X141608305Y-118569057D02*
X141958491Y-118218871D01*
X165961435Y-116298431D02*
X165880623Y-116325368D01*
X165880623Y-116325368D02*
X165799811Y-116406180D01*
X165799811Y-116406180D02*
X165745936Y-116513930D01*
X165745936Y-116513930D02*
X165745936Y-116621680D01*
X165745936Y-116621680D02*
X165772873Y-116702492D01*
X165772873Y-116702492D02*
X165853685Y-116837179D01*
X165853685Y-116837179D02*
X165934498Y-116917991D01*
X165934498Y-116917991D02*
X166069185Y-116998803D01*
X166069185Y-116998803D02*
X166149997Y-117025741D01*
X166149997Y-117025741D02*
X166257746Y-117025741D01*
X166257746Y-117025741D02*
X166365496Y-116971866D01*
X166365496Y-116971866D02*
X166419371Y-116917991D01*
X166419371Y-116917991D02*
X166473246Y-116810241D01*
X166473246Y-116810241D02*
X166473246Y-116756367D01*
X166473246Y-116756367D02*
X166284684Y-116567805D01*
X166284684Y-116567805D02*
X166176934Y-116675554D01*
X166769557Y-116567805D02*
X166203872Y-116002119D01*
X166203872Y-116002119D02*
X167092806Y-116244556D01*
X167092806Y-116244556D02*
X166527120Y-115678871D01*
X167362180Y-115975182D02*
X166796494Y-115409497D01*
X166796494Y-115409497D02*
X166931181Y-115274810D01*
X166931181Y-115274810D02*
X167038931Y-115220935D01*
X167038931Y-115220935D02*
X167146680Y-115220935D01*
X167146680Y-115220935D02*
X167227493Y-115247872D01*
X167227493Y-115247872D02*
X167362180Y-115328685D01*
X167362180Y-115328685D02*
X167442992Y-115409497D01*
X167442992Y-115409497D02*
X167523804Y-115544184D01*
X167523804Y-115544184D02*
X167550741Y-115624996D01*
X167550741Y-115624996D02*
X167550741Y-115732746D01*
X167550741Y-115732746D02*
X167496867Y-115840495D01*
X167496867Y-115840495D02*
X167362180Y-115975182D01*
X139864998Y-144480868D02*
X139784185Y-144507805D01*
X139784185Y-144507805D02*
X139703373Y-144588618D01*
X139703373Y-144588618D02*
X139649498Y-144696367D01*
X139649498Y-144696367D02*
X139649498Y-144804117D01*
X139649498Y-144804117D02*
X139676436Y-144884929D01*
X139676436Y-144884929D02*
X139757248Y-145019616D01*
X139757248Y-145019616D02*
X139838060Y-145100428D01*
X139838060Y-145100428D02*
X139972747Y-145181241D01*
X139972747Y-145181241D02*
X140053560Y-145208178D01*
X140053560Y-145208178D02*
X140161309Y-145208178D01*
X140161309Y-145208178D02*
X140269059Y-145154303D01*
X140269059Y-145154303D02*
X140322934Y-145100428D01*
X140322934Y-145100428D02*
X140376808Y-144992679D01*
X140376808Y-144992679D02*
X140376808Y-144938804D01*
X140376808Y-144938804D02*
X140188247Y-144750242D01*
X140188247Y-144750242D02*
X140080497Y-144857992D01*
X140673120Y-144750242D02*
X140107434Y-144184557D01*
X140107434Y-144184557D02*
X140322934Y-143969057D01*
X140322934Y-143969057D02*
X140403746Y-143942120D01*
X140403746Y-143942120D02*
X140457621Y-143942120D01*
X140457621Y-143942120D02*
X140538433Y-143969057D01*
X140538433Y-143969057D02*
X140619245Y-144049870D01*
X140619245Y-144049870D02*
X140646182Y-144130682D01*
X140646182Y-144130682D02*
X140646182Y-144184557D01*
X140646182Y-144184557D02*
X140619245Y-144265369D01*
X140619245Y-144265369D02*
X140403746Y-144480868D01*
X141535117Y-143888245D02*
X141211868Y-144211494D01*
X141373492Y-144049870D02*
X140807807Y-143484184D01*
X140807807Y-143484184D02*
X140834744Y-143618871D01*
X140834744Y-143618871D02*
X140834744Y-143726621D01*
X140834744Y-143726621D02*
X140807807Y-143807433D01*
X141319618Y-142972373D02*
X141373492Y-142918499D01*
X141373492Y-142918499D02*
X141454305Y-142891561D01*
X141454305Y-142891561D02*
X141508179Y-142891561D01*
X141508179Y-142891561D02*
X141588992Y-142918499D01*
X141588992Y-142918499D02*
X141723679Y-142999311D01*
X141723679Y-142999311D02*
X141858366Y-143133998D01*
X141858366Y-143133998D02*
X141939178Y-143268685D01*
X141939178Y-143268685D02*
X141966115Y-143349497D01*
X141966115Y-143349497D02*
X141966115Y-143403372D01*
X141966115Y-143403372D02*
X141939178Y-143484184D01*
X141939178Y-143484184D02*
X141885303Y-143538059D01*
X141885303Y-143538059D02*
X141804491Y-143564996D01*
X141804491Y-143564996D02*
X141750616Y-143564996D01*
X141750616Y-143564996D02*
X141669804Y-143538059D01*
X141669804Y-143538059D02*
X141535117Y-143457247D01*
X141535117Y-143457247D02*
X141400430Y-143322560D01*
X141400430Y-143322560D02*
X141319618Y-143187873D01*
X141319618Y-143187873D02*
X141292680Y-143107060D01*
X141292680Y-143107060D02*
X141292680Y-143053186D01*
X141292680Y-143053186D02*
X141319618Y-142972373D01*
X165797407Y-119158584D02*
X166147593Y-118808398D01*
X166147593Y-118808398D02*
X166174531Y-119212459D01*
X166174531Y-119212459D02*
X166255343Y-119131646D01*
X166255343Y-119131646D02*
X166336155Y-119104709D01*
X166336155Y-119104709D02*
X166390030Y-119104709D01*
X166390030Y-119104709D02*
X166470842Y-119131646D01*
X166470842Y-119131646D02*
X166605529Y-119266333D01*
X166605529Y-119266333D02*
X166632467Y-119347146D01*
X166632467Y-119347146D02*
X166632467Y-119401020D01*
X166632467Y-119401020D02*
X166605529Y-119481833D01*
X166605529Y-119481833D02*
X166443905Y-119643457D01*
X166443905Y-119643457D02*
X166363093Y-119670394D01*
X166363093Y-119670394D02*
X166309218Y-119670394D01*
X166309218Y-118646773D02*
X167063465Y-119023897D01*
X167063465Y-119023897D02*
X166686342Y-118269649D01*
X166821028Y-118134963D02*
X167171215Y-117784776D01*
X167171215Y-117784776D02*
X167198152Y-118188837D01*
X167198152Y-118188837D02*
X167278964Y-118108025D01*
X167278964Y-118108025D02*
X167359776Y-118081088D01*
X167359776Y-118081088D02*
X167413651Y-118081088D01*
X167413651Y-118081088D02*
X167494464Y-118108025D01*
X167494464Y-118108025D02*
X167629151Y-118242712D01*
X167629151Y-118242712D02*
X167656088Y-118323524D01*
X167656088Y-118323524D02*
X167656088Y-118377399D01*
X167656088Y-118377399D02*
X167629151Y-118458211D01*
X167629151Y-118458211D02*
X167467526Y-118619836D01*
X167467526Y-118619836D02*
X167386714Y-118646773D01*
X167386714Y-118646773D02*
X167332839Y-118646773D01*
X167898525Y-118296587D02*
X168329523Y-117865588D01*
X168114024Y-117380715D02*
X168302586Y-117192153D01*
X168679709Y-117407652D02*
X168410335Y-117677026D01*
X168410335Y-117677026D02*
X167844650Y-117111341D01*
X167844650Y-117111341D02*
X168114024Y-116841967D01*
X168922146Y-117165215D02*
X168356461Y-116599530D01*
X168356461Y-116599530D02*
X169245395Y-116841967D01*
X169245395Y-116841967D02*
X168679710Y-116276281D01*
X157779761Y-161724200D02*
X157894047Y-161762295D01*
X157894047Y-161762295D02*
X158084523Y-161762295D01*
X158084523Y-161762295D02*
X158160714Y-161724200D01*
X158160714Y-161724200D02*
X158198809Y-161686104D01*
X158198809Y-161686104D02*
X158236904Y-161609914D01*
X158236904Y-161609914D02*
X158236904Y-161533723D01*
X158236904Y-161533723D02*
X158198809Y-161457533D01*
X158198809Y-161457533D02*
X158160714Y-161419438D01*
X158160714Y-161419438D02*
X158084523Y-161381342D01*
X158084523Y-161381342D02*
X157932142Y-161343247D01*
X157932142Y-161343247D02*
X157855952Y-161305152D01*
X157855952Y-161305152D02*
X157817857Y-161267057D01*
X157817857Y-161267057D02*
X157779761Y-161190866D01*
X157779761Y-161190866D02*
X157779761Y-161114676D01*
X157779761Y-161114676D02*
X157817857Y-161038485D01*
X157817857Y-161038485D02*
X157855952Y-161000390D01*
X157855952Y-161000390D02*
X157932142Y-160962295D01*
X157932142Y-160962295D02*
X158122619Y-160962295D01*
X158122619Y-160962295D02*
X158236904Y-161000390D01*
X158503571Y-160962295D02*
X158694047Y-161762295D01*
X158694047Y-161762295D02*
X158846428Y-161190866D01*
X158846428Y-161190866D02*
X158998809Y-161762295D01*
X158998809Y-161762295D02*
X159189286Y-160962295D01*
X159494048Y-161762295D02*
X159494048Y-160962295D01*
X159494048Y-160962295D02*
X159684524Y-160962295D01*
X159684524Y-160962295D02*
X159798810Y-161000390D01*
X159798810Y-161000390D02*
X159875000Y-161076580D01*
X159875000Y-161076580D02*
X159913095Y-161152771D01*
X159913095Y-161152771D02*
X159951191Y-161305152D01*
X159951191Y-161305152D02*
X159951191Y-161419438D01*
X159951191Y-161419438D02*
X159913095Y-161571819D01*
X159913095Y-161571819D02*
X159875000Y-161648009D01*
X159875000Y-161648009D02*
X159798810Y-161724200D01*
X159798810Y-161724200D02*
X159684524Y-161762295D01*
X159684524Y-161762295D02*
X159494048Y-161762295D01*
X160294048Y-161762295D02*
X160294048Y-160962295D01*
X160827381Y-160962295D02*
X160979762Y-160962295D01*
X160979762Y-160962295D02*
X161055952Y-161000390D01*
X161055952Y-161000390D02*
X161132143Y-161076580D01*
X161132143Y-161076580D02*
X161170238Y-161228961D01*
X161170238Y-161228961D02*
X161170238Y-161495628D01*
X161170238Y-161495628D02*
X161132143Y-161648009D01*
X161132143Y-161648009D02*
X161055952Y-161724200D01*
X161055952Y-161724200D02*
X160979762Y-161762295D01*
X160979762Y-161762295D02*
X160827381Y-161762295D01*
X160827381Y-161762295D02*
X160751190Y-161724200D01*
X160751190Y-161724200D02*
X160675000Y-161648009D01*
X160675000Y-161648009D02*
X160636904Y-161495628D01*
X160636904Y-161495628D02*
X160636904Y-161228961D01*
X160636904Y-161228961D02*
X160675000Y-161076580D01*
X160675000Y-161076580D02*
X160751190Y-161000390D01*
X160751190Y-161000390D02*
X160827381Y-160962295D01*
X165972998Y-147020868D02*
X165892185Y-147047805D01*
X165892185Y-147047805D02*
X165811373Y-147128618D01*
X165811373Y-147128618D02*
X165757498Y-147236367D01*
X165757498Y-147236367D02*
X165757498Y-147344117D01*
X165757498Y-147344117D02*
X165784436Y-147424929D01*
X165784436Y-147424929D02*
X165865248Y-147559616D01*
X165865248Y-147559616D02*
X165946060Y-147640428D01*
X165946060Y-147640428D02*
X166080747Y-147721241D01*
X166080747Y-147721241D02*
X166161560Y-147748178D01*
X166161560Y-147748178D02*
X166269309Y-147748178D01*
X166269309Y-147748178D02*
X166377059Y-147694303D01*
X166377059Y-147694303D02*
X166430934Y-147640428D01*
X166430934Y-147640428D02*
X166484808Y-147532679D01*
X166484808Y-147532679D02*
X166484808Y-147478804D01*
X166484808Y-147478804D02*
X166296247Y-147290242D01*
X166296247Y-147290242D02*
X166188497Y-147397992D01*
X166781120Y-147290242D02*
X166215434Y-146724557D01*
X166215434Y-146724557D02*
X166430934Y-146509057D01*
X166430934Y-146509057D02*
X166511746Y-146482120D01*
X166511746Y-146482120D02*
X166565621Y-146482120D01*
X166565621Y-146482120D02*
X166646433Y-146509057D01*
X166646433Y-146509057D02*
X166727245Y-146589870D01*
X166727245Y-146589870D02*
X166754182Y-146670682D01*
X166754182Y-146670682D02*
X166754182Y-146724557D01*
X166754182Y-146724557D02*
X166727245Y-146805369D01*
X166727245Y-146805369D02*
X166511746Y-147020868D01*
X166808057Y-146239683D02*
X166808057Y-146185809D01*
X166808057Y-146185809D02*
X166834995Y-146104996D01*
X166834995Y-146104996D02*
X166969682Y-145970309D01*
X166969682Y-145970309D02*
X167050494Y-145943372D01*
X167050494Y-145943372D02*
X167104369Y-145943372D01*
X167104369Y-145943372D02*
X167185181Y-145970309D01*
X167185181Y-145970309D02*
X167239056Y-146024184D01*
X167239056Y-146024184D02*
X167292930Y-146131934D01*
X167292930Y-146131934D02*
X167292930Y-146778431D01*
X167292930Y-146778431D02*
X167643117Y-146428245D01*
X167427618Y-145512373D02*
X167481492Y-145458499D01*
X167481492Y-145458499D02*
X167562305Y-145431561D01*
X167562305Y-145431561D02*
X167616179Y-145431561D01*
X167616179Y-145431561D02*
X167696992Y-145458499D01*
X167696992Y-145458499D02*
X167831679Y-145539311D01*
X167831679Y-145539311D02*
X167966366Y-145673998D01*
X167966366Y-145673998D02*
X168047178Y-145808685D01*
X168047178Y-145808685D02*
X168074115Y-145889497D01*
X168074115Y-145889497D02*
X168074115Y-145943372D01*
X168074115Y-145943372D02*
X168047178Y-146024184D01*
X168047178Y-146024184D02*
X167993303Y-146078059D01*
X167993303Y-146078059D02*
X167912491Y-146104996D01*
X167912491Y-146104996D02*
X167858616Y-146104996D01*
X167858616Y-146104996D02*
X167777804Y-146078059D01*
X167777804Y-146078059D02*
X167643117Y-145997247D01*
X167643117Y-145997247D02*
X167508430Y-145862560D01*
X167508430Y-145862560D02*
X167427618Y-145727873D01*
X167427618Y-145727873D02*
X167400680Y-145647060D01*
X167400680Y-145647060D02*
X167400680Y-145593186D01*
X167400680Y-145593186D02*
X167427618Y-145512373D01*
X165972998Y-149560868D02*
X165892185Y-149587805D01*
X165892185Y-149587805D02*
X165811373Y-149668618D01*
X165811373Y-149668618D02*
X165757498Y-149776367D01*
X165757498Y-149776367D02*
X165757498Y-149884117D01*
X165757498Y-149884117D02*
X165784436Y-149964929D01*
X165784436Y-149964929D02*
X165865248Y-150099616D01*
X165865248Y-150099616D02*
X165946060Y-150180428D01*
X165946060Y-150180428D02*
X166080747Y-150261241D01*
X166080747Y-150261241D02*
X166161560Y-150288178D01*
X166161560Y-150288178D02*
X166269309Y-150288178D01*
X166269309Y-150288178D02*
X166377059Y-150234303D01*
X166377059Y-150234303D02*
X166430934Y-150180428D01*
X166430934Y-150180428D02*
X166484808Y-150072679D01*
X166484808Y-150072679D02*
X166484808Y-150018804D01*
X166484808Y-150018804D02*
X166296247Y-149830242D01*
X166296247Y-149830242D02*
X166188497Y-149937992D01*
X166781120Y-149830242D02*
X166215434Y-149264557D01*
X166215434Y-149264557D02*
X166430934Y-149049057D01*
X166430934Y-149049057D02*
X166511746Y-149022120D01*
X166511746Y-149022120D02*
X166565621Y-149022120D01*
X166565621Y-149022120D02*
X166646433Y-149049057D01*
X166646433Y-149049057D02*
X166727245Y-149129870D01*
X166727245Y-149129870D02*
X166754182Y-149210682D01*
X166754182Y-149210682D02*
X166754182Y-149264557D01*
X166754182Y-149264557D02*
X166727245Y-149345369D01*
X166727245Y-149345369D02*
X166511746Y-149560868D01*
X167643117Y-148968245D02*
X167319868Y-149291494D01*
X167481492Y-149129870D02*
X166915807Y-148564184D01*
X166915807Y-148564184D02*
X166942744Y-148698871D01*
X166942744Y-148698871D02*
X166942744Y-148806621D01*
X166942744Y-148806621D02*
X166915807Y-148887433D01*
X167912491Y-148698871D02*
X168020240Y-148591121D01*
X168020240Y-148591121D02*
X168047178Y-148510309D01*
X168047178Y-148510309D02*
X168047178Y-148456434D01*
X168047178Y-148456434D02*
X168020240Y-148321747D01*
X168020240Y-148321747D02*
X167939428Y-148187060D01*
X167939428Y-148187060D02*
X167723929Y-147971561D01*
X167723929Y-147971561D02*
X167643117Y-147944624D01*
X167643117Y-147944624D02*
X167589242Y-147944624D01*
X167589242Y-147944624D02*
X167508430Y-147971561D01*
X167508430Y-147971561D02*
X167400680Y-148079311D01*
X167400680Y-148079311D02*
X167373743Y-148160123D01*
X167373743Y-148160123D02*
X167373743Y-148213998D01*
X167373743Y-148213998D02*
X167400680Y-148294810D01*
X167400680Y-148294810D02*
X167535367Y-148429497D01*
X167535367Y-148429497D02*
X167616179Y-148456434D01*
X167616179Y-148456434D02*
X167670054Y-148456434D01*
X167670054Y-148456434D02*
X167750866Y-148429497D01*
X167750866Y-148429497D02*
X167858616Y-148321747D01*
X167858616Y-148321747D02*
X167885553Y-148240935D01*
X167885553Y-148240935D02*
X167885553Y-148187060D01*
X167885553Y-148187060D02*
X167858616Y-148106248D01*
X146365475Y-161724200D02*
X146479761Y-161762295D01*
X146479761Y-161762295D02*
X146670237Y-161762295D01*
X146670237Y-161762295D02*
X146746428Y-161724200D01*
X146746428Y-161724200D02*
X146784523Y-161686104D01*
X146784523Y-161686104D02*
X146822618Y-161609914D01*
X146822618Y-161609914D02*
X146822618Y-161533723D01*
X146822618Y-161533723D02*
X146784523Y-161457533D01*
X146784523Y-161457533D02*
X146746428Y-161419438D01*
X146746428Y-161419438D02*
X146670237Y-161381342D01*
X146670237Y-161381342D02*
X146517856Y-161343247D01*
X146517856Y-161343247D02*
X146441666Y-161305152D01*
X146441666Y-161305152D02*
X146403571Y-161267057D01*
X146403571Y-161267057D02*
X146365475Y-161190866D01*
X146365475Y-161190866D02*
X146365475Y-161114676D01*
X146365475Y-161114676D02*
X146403571Y-161038485D01*
X146403571Y-161038485D02*
X146441666Y-161000390D01*
X146441666Y-161000390D02*
X146517856Y-160962295D01*
X146517856Y-160962295D02*
X146708333Y-160962295D01*
X146708333Y-160962295D02*
X146822618Y-161000390D01*
X147089285Y-160962295D02*
X147279761Y-161762295D01*
X147279761Y-161762295D02*
X147432142Y-161190866D01*
X147432142Y-161190866D02*
X147584523Y-161762295D01*
X147584523Y-161762295D02*
X147775000Y-160962295D01*
X148536905Y-161686104D02*
X148498809Y-161724200D01*
X148498809Y-161724200D02*
X148384524Y-161762295D01*
X148384524Y-161762295D02*
X148308333Y-161762295D01*
X148308333Y-161762295D02*
X148194047Y-161724200D01*
X148194047Y-161724200D02*
X148117857Y-161648009D01*
X148117857Y-161648009D02*
X148079762Y-161571819D01*
X148079762Y-161571819D02*
X148041666Y-161419438D01*
X148041666Y-161419438D02*
X148041666Y-161305152D01*
X148041666Y-161305152D02*
X148079762Y-161152771D01*
X148079762Y-161152771D02*
X148117857Y-161076580D01*
X148117857Y-161076580D02*
X148194047Y-161000390D01*
X148194047Y-161000390D02*
X148308333Y-160962295D01*
X148308333Y-160962295D02*
X148384524Y-160962295D01*
X148384524Y-160962295D02*
X148498809Y-161000390D01*
X148498809Y-161000390D02*
X148536905Y-161038485D01*
X149260714Y-161762295D02*
X148879762Y-161762295D01*
X148879762Y-161762295D02*
X148879762Y-160962295D01*
X149527381Y-161762295D02*
X149527381Y-160962295D01*
X149984524Y-161762295D02*
X149641666Y-161305152D01*
X149984524Y-160962295D02*
X149527381Y-161419438D01*
X140361435Y-116298431D02*
X140280623Y-116325368D01*
X140280623Y-116325368D02*
X140199811Y-116406180D01*
X140199811Y-116406180D02*
X140145936Y-116513930D01*
X140145936Y-116513930D02*
X140145936Y-116621680D01*
X140145936Y-116621680D02*
X140172873Y-116702492D01*
X140172873Y-116702492D02*
X140253685Y-116837179D01*
X140253685Y-116837179D02*
X140334498Y-116917991D01*
X140334498Y-116917991D02*
X140469185Y-116998803D01*
X140469185Y-116998803D02*
X140549997Y-117025741D01*
X140549997Y-117025741D02*
X140657746Y-117025741D01*
X140657746Y-117025741D02*
X140765496Y-116971866D01*
X140765496Y-116971866D02*
X140819371Y-116917991D01*
X140819371Y-116917991D02*
X140873246Y-116810241D01*
X140873246Y-116810241D02*
X140873246Y-116756367D01*
X140873246Y-116756367D02*
X140684684Y-116567805D01*
X140684684Y-116567805D02*
X140576934Y-116675554D01*
X141169557Y-116567805D02*
X140603872Y-116002119D01*
X140603872Y-116002119D02*
X141492806Y-116244556D01*
X141492806Y-116244556D02*
X140927120Y-115678871D01*
X141762180Y-115975182D02*
X141196494Y-115409497D01*
X141196494Y-115409497D02*
X141331181Y-115274810D01*
X141331181Y-115274810D02*
X141438931Y-115220935D01*
X141438931Y-115220935D02*
X141546680Y-115220935D01*
X141546680Y-115220935D02*
X141627493Y-115247872D01*
X141627493Y-115247872D02*
X141762180Y-115328685D01*
X141762180Y-115328685D02*
X141842992Y-115409497D01*
X141842992Y-115409497D02*
X141923804Y-115544184D01*
X141923804Y-115544184D02*
X141950741Y-115624996D01*
X141950741Y-115624996D02*
X141950741Y-115732746D01*
X141950741Y-115732746D02*
X141896867Y-115840495D01*
X141896867Y-115840495D02*
X141762180Y-115975182D01*
X166338651Y-137673710D02*
X165880716Y-137592898D01*
X166015403Y-137996959D02*
X165449717Y-137431274D01*
X165449717Y-137431274D02*
X165665216Y-137215775D01*
X165665216Y-137215775D02*
X165746029Y-137188837D01*
X165746029Y-137188837D02*
X165799903Y-137188837D01*
X165799903Y-137188837D02*
X165880716Y-137215775D01*
X165880716Y-137215775D02*
X165961528Y-137296587D01*
X165961528Y-137296587D02*
X165988465Y-137377399D01*
X165988465Y-137377399D02*
X165988465Y-137431274D01*
X165988465Y-137431274D02*
X165961528Y-137512086D01*
X165961528Y-137512086D02*
X165746029Y-137727585D01*
X166015403Y-136865588D02*
X166473338Y-137323524D01*
X166473338Y-137323524D02*
X166554151Y-137350462D01*
X166554151Y-137350462D02*
X166608025Y-137350462D01*
X166608025Y-137350462D02*
X166688838Y-137323524D01*
X166688838Y-137323524D02*
X166796587Y-137215775D01*
X166796587Y-137215775D02*
X166823525Y-137134962D01*
X166823525Y-137134962D02*
X166823525Y-137081088D01*
X166823525Y-137081088D02*
X166796587Y-137000275D01*
X166796587Y-137000275D02*
X166338651Y-136542340D01*
X167173711Y-136838651D02*
X166608025Y-136272966D01*
X166608025Y-136272966D02*
X167496959Y-136515402D01*
X167496959Y-136515402D02*
X166931274Y-135949717D01*
X140388372Y-111191494D02*
X140307560Y-111218431D01*
X140307560Y-111218431D02*
X140226748Y-111299243D01*
X140226748Y-111299243D02*
X140172873Y-111406993D01*
X140172873Y-111406993D02*
X140172873Y-111514742D01*
X140172873Y-111514742D02*
X140199810Y-111595555D01*
X140199810Y-111595555D02*
X140280623Y-111730242D01*
X140280623Y-111730242D02*
X140361435Y-111811054D01*
X140361435Y-111811054D02*
X140496122Y-111891866D01*
X140496122Y-111891866D02*
X140576934Y-111918803D01*
X140576934Y-111918803D02*
X140684684Y-111918803D01*
X140684684Y-111918803D02*
X140792433Y-111864929D01*
X140792433Y-111864929D02*
X140846308Y-111811054D01*
X140846308Y-111811054D02*
X140900183Y-111703304D01*
X140900183Y-111703304D02*
X140900183Y-111649429D01*
X140900183Y-111649429D02*
X140711621Y-111460868D01*
X140711621Y-111460868D02*
X140603871Y-111568617D01*
X141196494Y-111460868D02*
X140630809Y-110895182D01*
X140630809Y-110895182D02*
X140846308Y-110679683D01*
X140846308Y-110679683D02*
X140927120Y-110652746D01*
X140927120Y-110652746D02*
X140980995Y-110652746D01*
X140980995Y-110652746D02*
X141061807Y-110679683D01*
X141061807Y-110679683D02*
X141142619Y-110760495D01*
X141142619Y-110760495D02*
X141169557Y-110841307D01*
X141169557Y-110841307D02*
X141169557Y-110895182D01*
X141169557Y-110895182D02*
X141142619Y-110975994D01*
X141142619Y-110975994D02*
X140927120Y-111191494D01*
X141304244Y-110221747D02*
X141358119Y-110167872D01*
X141358119Y-110167872D02*
X141438931Y-110140935D01*
X141438931Y-110140935D02*
X141492806Y-110140935D01*
X141492806Y-110140935D02*
X141573618Y-110167872D01*
X141573618Y-110167872D02*
X141708305Y-110248685D01*
X141708305Y-110248685D02*
X141842992Y-110383372D01*
X141842992Y-110383372D02*
X141923804Y-110518059D01*
X141923804Y-110518059D02*
X141950741Y-110598871D01*
X141950741Y-110598871D02*
X141950741Y-110652746D01*
X141950741Y-110652746D02*
X141923804Y-110733558D01*
X141923804Y-110733558D02*
X141869929Y-110787433D01*
X141869929Y-110787433D02*
X141789117Y-110814370D01*
X141789117Y-110814370D02*
X141735242Y-110814370D01*
X141735242Y-110814370D02*
X141654430Y-110787433D01*
X141654430Y-110787433D02*
X141519743Y-110706620D01*
X141519743Y-110706620D02*
X141385056Y-110571933D01*
X141385056Y-110571933D02*
X141304244Y-110437246D01*
X141304244Y-110437246D02*
X141277306Y-110356434D01*
X141277306Y-110356434D02*
X141277306Y-110302559D01*
X141277306Y-110302559D02*
X141304244Y-110221747D01*
X165972998Y-131790868D02*
X165892185Y-131817805D01*
X165892185Y-131817805D02*
X165811373Y-131898618D01*
X165811373Y-131898618D02*
X165757498Y-132006367D01*
X165757498Y-132006367D02*
X165757498Y-132114117D01*
X165757498Y-132114117D02*
X165784436Y-132194929D01*
X165784436Y-132194929D02*
X165865248Y-132329616D01*
X165865248Y-132329616D02*
X165946060Y-132410428D01*
X165946060Y-132410428D02*
X166080747Y-132491241D01*
X166080747Y-132491241D02*
X166161560Y-132518178D01*
X166161560Y-132518178D02*
X166269309Y-132518178D01*
X166269309Y-132518178D02*
X166377059Y-132464303D01*
X166377059Y-132464303D02*
X166430934Y-132410428D01*
X166430934Y-132410428D02*
X166484808Y-132302679D01*
X166484808Y-132302679D02*
X166484808Y-132248804D01*
X166484808Y-132248804D02*
X166296247Y-132060242D01*
X166296247Y-132060242D02*
X166188497Y-132167992D01*
X166781120Y-132060242D02*
X166215434Y-131494557D01*
X166215434Y-131494557D02*
X166430934Y-131279057D01*
X166430934Y-131279057D02*
X166511746Y-131252120D01*
X166511746Y-131252120D02*
X166565621Y-131252120D01*
X166565621Y-131252120D02*
X166646433Y-131279057D01*
X166646433Y-131279057D02*
X166727245Y-131359870D01*
X166727245Y-131359870D02*
X166754182Y-131440682D01*
X166754182Y-131440682D02*
X166754182Y-131494557D01*
X166754182Y-131494557D02*
X166727245Y-131575369D01*
X166727245Y-131575369D02*
X166511746Y-131790868D01*
X166808057Y-131009683D02*
X166808057Y-130955809D01*
X166808057Y-130955809D02*
X166834995Y-130874996D01*
X166834995Y-130874996D02*
X166969682Y-130740309D01*
X166969682Y-130740309D02*
X167050494Y-130713372D01*
X167050494Y-130713372D02*
X167104369Y-130713372D01*
X167104369Y-130713372D02*
X167185181Y-130740309D01*
X167185181Y-130740309D02*
X167239056Y-130794184D01*
X167239056Y-130794184D02*
X167292930Y-130901934D01*
X167292930Y-130901934D02*
X167292930Y-131548431D01*
X167292930Y-131548431D02*
X167643117Y-131198245D01*
X167265993Y-130443998D02*
X167643117Y-130066874D01*
X167643117Y-130066874D02*
X167966366Y-130874996D01*
X140361435Y-128998431D02*
X140280623Y-129025368D01*
X140280623Y-129025368D02*
X140199811Y-129106180D01*
X140199811Y-129106180D02*
X140145936Y-129213930D01*
X140145936Y-129213930D02*
X140145936Y-129321680D01*
X140145936Y-129321680D02*
X140172873Y-129402492D01*
X140172873Y-129402492D02*
X140253685Y-129537179D01*
X140253685Y-129537179D02*
X140334498Y-129617991D01*
X140334498Y-129617991D02*
X140469185Y-129698803D01*
X140469185Y-129698803D02*
X140549997Y-129725741D01*
X140549997Y-129725741D02*
X140657746Y-129725741D01*
X140657746Y-129725741D02*
X140765496Y-129671866D01*
X140765496Y-129671866D02*
X140819371Y-129617991D01*
X140819371Y-129617991D02*
X140873246Y-129510241D01*
X140873246Y-129510241D02*
X140873246Y-129456367D01*
X140873246Y-129456367D02*
X140684684Y-129267805D01*
X140684684Y-129267805D02*
X140576934Y-129375554D01*
X141169557Y-129267805D02*
X140603872Y-128702119D01*
X140603872Y-128702119D02*
X141492806Y-128944556D01*
X141492806Y-128944556D02*
X140927120Y-128378871D01*
X141762180Y-128675182D02*
X141196494Y-128109497D01*
X141196494Y-128109497D02*
X141331181Y-127974810D01*
X141331181Y-127974810D02*
X141438931Y-127920935D01*
X141438931Y-127920935D02*
X141546680Y-127920935D01*
X141546680Y-127920935D02*
X141627493Y-127947872D01*
X141627493Y-127947872D02*
X141762180Y-128028685D01*
X141762180Y-128028685D02*
X141842992Y-128109497D01*
X141842992Y-128109497D02*
X141923804Y-128244184D01*
X141923804Y-128244184D02*
X141950741Y-128324996D01*
X141950741Y-128324996D02*
X141950741Y-128432746D01*
X141950741Y-128432746D02*
X141896867Y-128540495D01*
X141896867Y-128540495D02*
X141762180Y-128675182D01*
X140361435Y-141698431D02*
X140280623Y-141725368D01*
X140280623Y-141725368D02*
X140199811Y-141806180D01*
X140199811Y-141806180D02*
X140145936Y-141913930D01*
X140145936Y-141913930D02*
X140145936Y-142021680D01*
X140145936Y-142021680D02*
X140172873Y-142102492D01*
X140172873Y-142102492D02*
X140253685Y-142237179D01*
X140253685Y-142237179D02*
X140334498Y-142317991D01*
X140334498Y-142317991D02*
X140469185Y-142398803D01*
X140469185Y-142398803D02*
X140549997Y-142425741D01*
X140549997Y-142425741D02*
X140657746Y-142425741D01*
X140657746Y-142425741D02*
X140765496Y-142371866D01*
X140765496Y-142371866D02*
X140819371Y-142317991D01*
X140819371Y-142317991D02*
X140873246Y-142210241D01*
X140873246Y-142210241D02*
X140873246Y-142156367D01*
X140873246Y-142156367D02*
X140684684Y-141967805D01*
X140684684Y-141967805D02*
X140576934Y-142075554D01*
X141169557Y-141967805D02*
X140603872Y-141402119D01*
X140603872Y-141402119D02*
X141492806Y-141644556D01*
X141492806Y-141644556D02*
X140927120Y-141078871D01*
X141762180Y-141375182D02*
X141196494Y-140809497D01*
X141196494Y-140809497D02*
X141331181Y-140674810D01*
X141331181Y-140674810D02*
X141438931Y-140620935D01*
X141438931Y-140620935D02*
X141546680Y-140620935D01*
X141546680Y-140620935D02*
X141627493Y-140647872D01*
X141627493Y-140647872D02*
X141762180Y-140728685D01*
X141762180Y-140728685D02*
X141842992Y-140809497D01*
X141842992Y-140809497D02*
X141923804Y-140944184D01*
X141923804Y-140944184D02*
X141950741Y-141024996D01*
X141950741Y-141024996D02*
X141950741Y-141132746D01*
X141950741Y-141132746D02*
X141896867Y-141240495D01*
X141896867Y-141240495D02*
X141762180Y-141375182D01*
X165972998Y-144490868D02*
X165892185Y-144517805D01*
X165892185Y-144517805D02*
X165811373Y-144598618D01*
X165811373Y-144598618D02*
X165757498Y-144706367D01*
X165757498Y-144706367D02*
X165757498Y-144814117D01*
X165757498Y-144814117D02*
X165784436Y-144894929D01*
X165784436Y-144894929D02*
X165865248Y-145029616D01*
X165865248Y-145029616D02*
X165946060Y-145110428D01*
X165946060Y-145110428D02*
X166080747Y-145191241D01*
X166080747Y-145191241D02*
X166161560Y-145218178D01*
X166161560Y-145218178D02*
X166269309Y-145218178D01*
X166269309Y-145218178D02*
X166377059Y-145164303D01*
X166377059Y-145164303D02*
X166430934Y-145110428D01*
X166430934Y-145110428D02*
X166484808Y-145002679D01*
X166484808Y-145002679D02*
X166484808Y-144948804D01*
X166484808Y-144948804D02*
X166296247Y-144760242D01*
X166296247Y-144760242D02*
X166188497Y-144867992D01*
X166781120Y-144760242D02*
X166215434Y-144194557D01*
X166215434Y-144194557D02*
X166430934Y-143979057D01*
X166430934Y-143979057D02*
X166511746Y-143952120D01*
X166511746Y-143952120D02*
X166565621Y-143952120D01*
X166565621Y-143952120D02*
X166646433Y-143979057D01*
X166646433Y-143979057D02*
X166727245Y-144059870D01*
X166727245Y-144059870D02*
X166754182Y-144140682D01*
X166754182Y-144140682D02*
X166754182Y-144194557D01*
X166754182Y-144194557D02*
X166727245Y-144275369D01*
X166727245Y-144275369D02*
X166511746Y-144490868D01*
X166808057Y-143709683D02*
X166808057Y-143655809D01*
X166808057Y-143655809D02*
X166834995Y-143574996D01*
X166834995Y-143574996D02*
X166969682Y-143440309D01*
X166969682Y-143440309D02*
X167050494Y-143413372D01*
X167050494Y-143413372D02*
X167104369Y-143413372D01*
X167104369Y-143413372D02*
X167185181Y-143440309D01*
X167185181Y-143440309D02*
X167239056Y-143494184D01*
X167239056Y-143494184D02*
X167292930Y-143601934D01*
X167292930Y-143601934D02*
X167292930Y-144248431D01*
X167292930Y-144248431D02*
X167643117Y-143898245D01*
X168181865Y-143359497D02*
X167858616Y-143682746D01*
X168020240Y-143521121D02*
X167454555Y-142955436D01*
X167454555Y-142955436D02*
X167481492Y-143090123D01*
X167481492Y-143090123D02*
X167481492Y-143197873D01*
X167481492Y-143197873D02*
X167454555Y-143278685D01*
X165961435Y-154398431D02*
X165880623Y-154425368D01*
X165880623Y-154425368D02*
X165799811Y-154506180D01*
X165799811Y-154506180D02*
X165745936Y-154613930D01*
X165745936Y-154613930D02*
X165745936Y-154721680D01*
X165745936Y-154721680D02*
X165772873Y-154802492D01*
X165772873Y-154802492D02*
X165853685Y-154937179D01*
X165853685Y-154937179D02*
X165934498Y-155017991D01*
X165934498Y-155017991D02*
X166069185Y-155098803D01*
X166069185Y-155098803D02*
X166149997Y-155125741D01*
X166149997Y-155125741D02*
X166257746Y-155125741D01*
X166257746Y-155125741D02*
X166365496Y-155071866D01*
X166365496Y-155071866D02*
X166419371Y-155017991D01*
X166419371Y-155017991D02*
X166473246Y-154910241D01*
X166473246Y-154910241D02*
X166473246Y-154856367D01*
X166473246Y-154856367D02*
X166284684Y-154667805D01*
X166284684Y-154667805D02*
X166176934Y-154775554D01*
X166769557Y-154667805D02*
X166203872Y-154102119D01*
X166203872Y-154102119D02*
X167092806Y-154344556D01*
X167092806Y-154344556D02*
X166527120Y-153778871D01*
X167362180Y-154075182D02*
X166796494Y-153509497D01*
X166796494Y-153509497D02*
X166931181Y-153374810D01*
X166931181Y-153374810D02*
X167038931Y-153320935D01*
X167038931Y-153320935D02*
X167146680Y-153320935D01*
X167146680Y-153320935D02*
X167227493Y-153347872D01*
X167227493Y-153347872D02*
X167362180Y-153428685D01*
X167362180Y-153428685D02*
X167442992Y-153509497D01*
X167442992Y-153509497D02*
X167523804Y-153644184D01*
X167523804Y-153644184D02*
X167550741Y-153724996D01*
X167550741Y-153724996D02*
X167550741Y-153832746D01*
X167550741Y-153832746D02*
X167496867Y-153940495D01*
X167496867Y-153940495D02*
X167362180Y-154075182D01*
X140388372Y-123891494D02*
X140307560Y-123918431D01*
X140307560Y-123918431D02*
X140226748Y-123999243D01*
X140226748Y-123999243D02*
X140172873Y-124106993D01*
X140172873Y-124106993D02*
X140172873Y-124214742D01*
X140172873Y-124214742D02*
X140199810Y-124295555D01*
X140199810Y-124295555D02*
X140280623Y-124430242D01*
X140280623Y-124430242D02*
X140361435Y-124511054D01*
X140361435Y-124511054D02*
X140496122Y-124591866D01*
X140496122Y-124591866D02*
X140576934Y-124618803D01*
X140576934Y-124618803D02*
X140684684Y-124618803D01*
X140684684Y-124618803D02*
X140792433Y-124564929D01*
X140792433Y-124564929D02*
X140846308Y-124511054D01*
X140846308Y-124511054D02*
X140900183Y-124403304D01*
X140900183Y-124403304D02*
X140900183Y-124349429D01*
X140900183Y-124349429D02*
X140711621Y-124160868D01*
X140711621Y-124160868D02*
X140603871Y-124268617D01*
X141196494Y-124160868D02*
X140630809Y-123595182D01*
X140630809Y-123595182D02*
X140846308Y-123379683D01*
X140846308Y-123379683D02*
X140927120Y-123352746D01*
X140927120Y-123352746D02*
X140980995Y-123352746D01*
X140980995Y-123352746D02*
X141061807Y-123379683D01*
X141061807Y-123379683D02*
X141142619Y-123460495D01*
X141142619Y-123460495D02*
X141169557Y-123541307D01*
X141169557Y-123541307D02*
X141169557Y-123595182D01*
X141169557Y-123595182D02*
X141142619Y-123675994D01*
X141142619Y-123675994D02*
X140927120Y-123891494D01*
X141627493Y-122975622D02*
X142004616Y-123352746D01*
X141277306Y-122894810D02*
X141546680Y-123433558D01*
X141546680Y-123433558D02*
X141896867Y-123083372D01*
X140388372Y-131511494D02*
X140307560Y-131538431D01*
X140307560Y-131538431D02*
X140226748Y-131619243D01*
X140226748Y-131619243D02*
X140172873Y-131726993D01*
X140172873Y-131726993D02*
X140172873Y-131834742D01*
X140172873Y-131834742D02*
X140199810Y-131915555D01*
X140199810Y-131915555D02*
X140280623Y-132050242D01*
X140280623Y-132050242D02*
X140361435Y-132131054D01*
X140361435Y-132131054D02*
X140496122Y-132211866D01*
X140496122Y-132211866D02*
X140576934Y-132238803D01*
X140576934Y-132238803D02*
X140684684Y-132238803D01*
X140684684Y-132238803D02*
X140792433Y-132184929D01*
X140792433Y-132184929D02*
X140846308Y-132131054D01*
X140846308Y-132131054D02*
X140900183Y-132023304D01*
X140900183Y-132023304D02*
X140900183Y-131969429D01*
X140900183Y-131969429D02*
X140711621Y-131780868D01*
X140711621Y-131780868D02*
X140603871Y-131888617D01*
X141196494Y-131780868D02*
X140630809Y-131215182D01*
X140630809Y-131215182D02*
X140846308Y-130999683D01*
X140846308Y-130999683D02*
X140927120Y-130972746D01*
X140927120Y-130972746D02*
X140980995Y-130972746D01*
X140980995Y-130972746D02*
X141061807Y-130999683D01*
X141061807Y-130999683D02*
X141142619Y-131080495D01*
X141142619Y-131080495D02*
X141169557Y-131161307D01*
X141169557Y-131161307D02*
X141169557Y-131215182D01*
X141169557Y-131215182D02*
X141142619Y-131295994D01*
X141142619Y-131295994D02*
X140927120Y-131511494D01*
X141438931Y-130407060D02*
X141331181Y-130514810D01*
X141331181Y-130514810D02*
X141304244Y-130595622D01*
X141304244Y-130595622D02*
X141304244Y-130649497D01*
X141304244Y-130649497D02*
X141331181Y-130784184D01*
X141331181Y-130784184D02*
X141411993Y-130918871D01*
X141411993Y-130918871D02*
X141627493Y-131134370D01*
X141627493Y-131134370D02*
X141708305Y-131161307D01*
X141708305Y-131161307D02*
X141762180Y-131161307D01*
X141762180Y-131161307D02*
X141842992Y-131134370D01*
X141842992Y-131134370D02*
X141950741Y-131026620D01*
X141950741Y-131026620D02*
X141977679Y-130945808D01*
X141977679Y-130945808D02*
X141977679Y-130891933D01*
X141977679Y-130891933D02*
X141950741Y-130811121D01*
X141950741Y-130811121D02*
X141816054Y-130676434D01*
X141816054Y-130676434D02*
X141735242Y-130649497D01*
X141735242Y-130649497D02*
X141681367Y-130649497D01*
X141681367Y-130649497D02*
X141600555Y-130676434D01*
X141600555Y-130676434D02*
X141492806Y-130784184D01*
X141492806Y-130784184D02*
X141465868Y-130864996D01*
X141465868Y-130864996D02*
X141465868Y-130918871D01*
X141465868Y-130918871D02*
X141492806Y-130999683D01*
X139718998Y-149560868D02*
X139638185Y-149587805D01*
X139638185Y-149587805D02*
X139557373Y-149668618D01*
X139557373Y-149668618D02*
X139503498Y-149776367D01*
X139503498Y-149776367D02*
X139503498Y-149884117D01*
X139503498Y-149884117D02*
X139530436Y-149964929D01*
X139530436Y-149964929D02*
X139611248Y-150099616D01*
X139611248Y-150099616D02*
X139692060Y-150180428D01*
X139692060Y-150180428D02*
X139826747Y-150261241D01*
X139826747Y-150261241D02*
X139907560Y-150288178D01*
X139907560Y-150288178D02*
X140015309Y-150288178D01*
X140015309Y-150288178D02*
X140123059Y-150234303D01*
X140123059Y-150234303D02*
X140176934Y-150180428D01*
X140176934Y-150180428D02*
X140230808Y-150072679D01*
X140230808Y-150072679D02*
X140230808Y-150018804D01*
X140230808Y-150018804D02*
X140042247Y-149830242D01*
X140042247Y-149830242D02*
X139934497Y-149937992D01*
X140527120Y-149830242D02*
X139961434Y-149264557D01*
X139961434Y-149264557D02*
X140176934Y-149049057D01*
X140176934Y-149049057D02*
X140257746Y-149022120D01*
X140257746Y-149022120D02*
X140311621Y-149022120D01*
X140311621Y-149022120D02*
X140392433Y-149049057D01*
X140392433Y-149049057D02*
X140473245Y-149129870D01*
X140473245Y-149129870D02*
X140500182Y-149210682D01*
X140500182Y-149210682D02*
X140500182Y-149264557D01*
X140500182Y-149264557D02*
X140473245Y-149345369D01*
X140473245Y-149345369D02*
X140257746Y-149560868D01*
X141389117Y-148968245D02*
X141065868Y-149291494D01*
X141227492Y-149129870D02*
X140661807Y-148564184D01*
X140661807Y-148564184D02*
X140688744Y-148698871D01*
X140688744Y-148698871D02*
X140688744Y-148806621D01*
X140688744Y-148806621D02*
X140661807Y-148887433D01*
X141092805Y-148240935D02*
X141092805Y-148187060D01*
X141092805Y-148187060D02*
X141119743Y-148106248D01*
X141119743Y-148106248D02*
X141254430Y-147971561D01*
X141254430Y-147971561D02*
X141335242Y-147944624D01*
X141335242Y-147944624D02*
X141389117Y-147944624D01*
X141389117Y-147944624D02*
X141469929Y-147971561D01*
X141469929Y-147971561D02*
X141523804Y-148025436D01*
X141523804Y-148025436D02*
X141577679Y-148133186D01*
X141577679Y-148133186D02*
X141577679Y-148779683D01*
X141577679Y-148779683D02*
X141927865Y-148429497D01*
X139864998Y-159720868D02*
X139784185Y-159747805D01*
X139784185Y-159747805D02*
X139703373Y-159828618D01*
X139703373Y-159828618D02*
X139649498Y-159936367D01*
X139649498Y-159936367D02*
X139649498Y-160044117D01*
X139649498Y-160044117D02*
X139676436Y-160124929D01*
X139676436Y-160124929D02*
X139757248Y-160259616D01*
X139757248Y-160259616D02*
X139838060Y-160340428D01*
X139838060Y-160340428D02*
X139972747Y-160421241D01*
X139972747Y-160421241D02*
X140053560Y-160448178D01*
X140053560Y-160448178D02*
X140161309Y-160448178D01*
X140161309Y-160448178D02*
X140269059Y-160394303D01*
X140269059Y-160394303D02*
X140322934Y-160340428D01*
X140322934Y-160340428D02*
X140376808Y-160232679D01*
X140376808Y-160232679D02*
X140376808Y-160178804D01*
X140376808Y-160178804D02*
X140188247Y-159990242D01*
X140188247Y-159990242D02*
X140080497Y-160097992D01*
X140673120Y-159990242D02*
X140107434Y-159424557D01*
X140107434Y-159424557D02*
X140322934Y-159209057D01*
X140322934Y-159209057D02*
X140403746Y-159182120D01*
X140403746Y-159182120D02*
X140457621Y-159182120D01*
X140457621Y-159182120D02*
X140538433Y-159209057D01*
X140538433Y-159209057D02*
X140619245Y-159289870D01*
X140619245Y-159289870D02*
X140646182Y-159370682D01*
X140646182Y-159370682D02*
X140646182Y-159424557D01*
X140646182Y-159424557D02*
X140619245Y-159505369D01*
X140619245Y-159505369D02*
X140403746Y-159720868D01*
X141535117Y-159128245D02*
X141211868Y-159451494D01*
X141373492Y-159289870D02*
X140807807Y-158724184D01*
X140807807Y-158724184D02*
X140834744Y-158858871D01*
X140834744Y-158858871D02*
X140834744Y-158966621D01*
X140834744Y-158966621D02*
X140807807Y-159047433D01*
X141481242Y-158050749D02*
X141211868Y-158320123D01*
X141211868Y-158320123D02*
X141454305Y-158616434D01*
X141454305Y-158616434D02*
X141454305Y-158562560D01*
X141454305Y-158562560D02*
X141481242Y-158481747D01*
X141481242Y-158481747D02*
X141615929Y-158347060D01*
X141615929Y-158347060D02*
X141696741Y-158320123D01*
X141696741Y-158320123D02*
X141750616Y-158320123D01*
X141750616Y-158320123D02*
X141831428Y-158347060D01*
X141831428Y-158347060D02*
X141966115Y-158481747D01*
X141966115Y-158481747D02*
X141993053Y-158562560D01*
X141993053Y-158562560D02*
X141993053Y-158616434D01*
X141993053Y-158616434D02*
X141966115Y-158697247D01*
X141966115Y-158697247D02*
X141831428Y-158831934D01*
X141831428Y-158831934D02*
X141750616Y-158858871D01*
X141750616Y-158858871D02*
X141696741Y-158858871D01*
X165972998Y-152100868D02*
X165892185Y-152127805D01*
X165892185Y-152127805D02*
X165811373Y-152208618D01*
X165811373Y-152208618D02*
X165757498Y-152316367D01*
X165757498Y-152316367D02*
X165757498Y-152424117D01*
X165757498Y-152424117D02*
X165784436Y-152504929D01*
X165784436Y-152504929D02*
X165865248Y-152639616D01*
X165865248Y-152639616D02*
X165946060Y-152720428D01*
X165946060Y-152720428D02*
X166080747Y-152801241D01*
X166080747Y-152801241D02*
X166161560Y-152828178D01*
X166161560Y-152828178D02*
X166269309Y-152828178D01*
X166269309Y-152828178D02*
X166377059Y-152774303D01*
X166377059Y-152774303D02*
X166430934Y-152720428D01*
X166430934Y-152720428D02*
X166484808Y-152612679D01*
X166484808Y-152612679D02*
X166484808Y-152558804D01*
X166484808Y-152558804D02*
X166296247Y-152370242D01*
X166296247Y-152370242D02*
X166188497Y-152477992D01*
X166781120Y-152370242D02*
X166215434Y-151804557D01*
X166215434Y-151804557D02*
X166430934Y-151589057D01*
X166430934Y-151589057D02*
X166511746Y-151562120D01*
X166511746Y-151562120D02*
X166565621Y-151562120D01*
X166565621Y-151562120D02*
X166646433Y-151589057D01*
X166646433Y-151589057D02*
X166727245Y-151669870D01*
X166727245Y-151669870D02*
X166754182Y-151750682D01*
X166754182Y-151750682D02*
X166754182Y-151804557D01*
X166754182Y-151804557D02*
X166727245Y-151885369D01*
X166727245Y-151885369D02*
X166511746Y-152100868D01*
X167643117Y-151508245D02*
X167319868Y-151831494D01*
X167481492Y-151669870D02*
X166915807Y-151104184D01*
X166915807Y-151104184D02*
X166942744Y-151238871D01*
X166942744Y-151238871D02*
X166942744Y-151346621D01*
X166942744Y-151346621D02*
X166915807Y-151427433D01*
X167643117Y-150861747D02*
X167562305Y-150888685D01*
X167562305Y-150888685D02*
X167508430Y-150888685D01*
X167508430Y-150888685D02*
X167427618Y-150861747D01*
X167427618Y-150861747D02*
X167400680Y-150834810D01*
X167400680Y-150834810D02*
X167373743Y-150753998D01*
X167373743Y-150753998D02*
X167373743Y-150700123D01*
X167373743Y-150700123D02*
X167400680Y-150619311D01*
X167400680Y-150619311D02*
X167508430Y-150511561D01*
X167508430Y-150511561D02*
X167589242Y-150484624D01*
X167589242Y-150484624D02*
X167643117Y-150484624D01*
X167643117Y-150484624D02*
X167723929Y-150511561D01*
X167723929Y-150511561D02*
X167750866Y-150538499D01*
X167750866Y-150538499D02*
X167777804Y-150619311D01*
X167777804Y-150619311D02*
X167777804Y-150673186D01*
X167777804Y-150673186D02*
X167750866Y-150753998D01*
X167750866Y-150753998D02*
X167643117Y-150861747D01*
X167643117Y-150861747D02*
X167616179Y-150942560D01*
X167616179Y-150942560D02*
X167616179Y-150996434D01*
X167616179Y-150996434D02*
X167643117Y-151077247D01*
X167643117Y-151077247D02*
X167750866Y-151184996D01*
X167750866Y-151184996D02*
X167831679Y-151211934D01*
X167831679Y-151211934D02*
X167885553Y-151211934D01*
X167885553Y-151211934D02*
X167966366Y-151184996D01*
X167966366Y-151184996D02*
X168074115Y-151077247D01*
X168074115Y-151077247D02*
X168101053Y-150996434D01*
X168101053Y-150996434D02*
X168101053Y-150942560D01*
X168101053Y-150942560D02*
X168074115Y-150861747D01*
X168074115Y-150861747D02*
X167966366Y-150753998D01*
X167966366Y-150753998D02*
X167885553Y-150727060D01*
X167885553Y-150727060D02*
X167831679Y-150727060D01*
X167831679Y-150727060D02*
X167750866Y-150753998D01*
X165972998Y-159720868D02*
X165892185Y-159747805D01*
X165892185Y-159747805D02*
X165811373Y-159828618D01*
X165811373Y-159828618D02*
X165757498Y-159936367D01*
X165757498Y-159936367D02*
X165757498Y-160044117D01*
X165757498Y-160044117D02*
X165784436Y-160124929D01*
X165784436Y-160124929D02*
X165865248Y-160259616D01*
X165865248Y-160259616D02*
X165946060Y-160340428D01*
X165946060Y-160340428D02*
X166080747Y-160421241D01*
X166080747Y-160421241D02*
X166161560Y-160448178D01*
X166161560Y-160448178D02*
X166269309Y-160448178D01*
X166269309Y-160448178D02*
X166377059Y-160394303D01*
X166377059Y-160394303D02*
X166430934Y-160340428D01*
X166430934Y-160340428D02*
X166484808Y-160232679D01*
X166484808Y-160232679D02*
X166484808Y-160178804D01*
X166484808Y-160178804D02*
X166296247Y-159990242D01*
X166296247Y-159990242D02*
X166188497Y-160097992D01*
X166781120Y-159990242D02*
X166215434Y-159424557D01*
X166215434Y-159424557D02*
X166430934Y-159209057D01*
X166430934Y-159209057D02*
X166511746Y-159182120D01*
X166511746Y-159182120D02*
X166565621Y-159182120D01*
X166565621Y-159182120D02*
X166646433Y-159209057D01*
X166646433Y-159209057D02*
X166727245Y-159289870D01*
X166727245Y-159289870D02*
X166754182Y-159370682D01*
X166754182Y-159370682D02*
X166754182Y-159424557D01*
X166754182Y-159424557D02*
X166727245Y-159505369D01*
X166727245Y-159505369D02*
X166511746Y-159720868D01*
X167643117Y-159128245D02*
X167319868Y-159451494D01*
X167481492Y-159289870D02*
X166915807Y-158724184D01*
X166915807Y-158724184D02*
X166942744Y-158858871D01*
X166942744Y-158858871D02*
X166942744Y-158966621D01*
X166942744Y-158966621D02*
X166915807Y-159047433D01*
X167562305Y-158077686D02*
X167454555Y-158185436D01*
X167454555Y-158185436D02*
X167427618Y-158266248D01*
X167427618Y-158266248D02*
X167427618Y-158320123D01*
X167427618Y-158320123D02*
X167454555Y-158454810D01*
X167454555Y-158454810D02*
X167535367Y-158589497D01*
X167535367Y-158589497D02*
X167750866Y-158804996D01*
X167750866Y-158804996D02*
X167831679Y-158831934D01*
X167831679Y-158831934D02*
X167885553Y-158831934D01*
X167885553Y-158831934D02*
X167966366Y-158804996D01*
X167966366Y-158804996D02*
X168074115Y-158697247D01*
X168074115Y-158697247D02*
X168101053Y-158616434D01*
X168101053Y-158616434D02*
X168101053Y-158562560D01*
X168101053Y-158562560D02*
X168074115Y-158481747D01*
X168074115Y-158481747D02*
X167939428Y-158347060D01*
X167939428Y-158347060D02*
X167858616Y-158320123D01*
X167858616Y-158320123D02*
X167804741Y-158320123D01*
X167804741Y-158320123D02*
X167723929Y-158347060D01*
X167723929Y-158347060D02*
X167616179Y-158454810D01*
X167616179Y-158454810D02*
X167589242Y-158535622D01*
X167589242Y-158535622D02*
X167589242Y-158589497D01*
X167589242Y-158589497D02*
X167616179Y-158670309D01*
X140388372Y-126431494D02*
X140307560Y-126458431D01*
X140307560Y-126458431D02*
X140226748Y-126539243D01*
X140226748Y-126539243D02*
X140172873Y-126646993D01*
X140172873Y-126646993D02*
X140172873Y-126754742D01*
X140172873Y-126754742D02*
X140199810Y-126835555D01*
X140199810Y-126835555D02*
X140280623Y-126970242D01*
X140280623Y-126970242D02*
X140361435Y-127051054D01*
X140361435Y-127051054D02*
X140496122Y-127131866D01*
X140496122Y-127131866D02*
X140576934Y-127158803D01*
X140576934Y-127158803D02*
X140684684Y-127158803D01*
X140684684Y-127158803D02*
X140792433Y-127104929D01*
X140792433Y-127104929D02*
X140846308Y-127051054D01*
X140846308Y-127051054D02*
X140900183Y-126943304D01*
X140900183Y-126943304D02*
X140900183Y-126889429D01*
X140900183Y-126889429D02*
X140711621Y-126700868D01*
X140711621Y-126700868D02*
X140603871Y-126808617D01*
X141196494Y-126700868D02*
X140630809Y-126135182D01*
X140630809Y-126135182D02*
X140846308Y-125919683D01*
X140846308Y-125919683D02*
X140927120Y-125892746D01*
X140927120Y-125892746D02*
X140980995Y-125892746D01*
X140980995Y-125892746D02*
X141061807Y-125919683D01*
X141061807Y-125919683D02*
X141142619Y-126000495D01*
X141142619Y-126000495D02*
X141169557Y-126081307D01*
X141169557Y-126081307D02*
X141169557Y-126135182D01*
X141169557Y-126135182D02*
X141142619Y-126215994D01*
X141142619Y-126215994D02*
X140927120Y-126431494D01*
X141465868Y-125300123D02*
X141196494Y-125569497D01*
X141196494Y-125569497D02*
X141438931Y-125865808D01*
X141438931Y-125865808D02*
X141438931Y-125811933D01*
X141438931Y-125811933D02*
X141465868Y-125731121D01*
X141465868Y-125731121D02*
X141600555Y-125596434D01*
X141600555Y-125596434D02*
X141681367Y-125569497D01*
X141681367Y-125569497D02*
X141735242Y-125569497D01*
X141735242Y-125569497D02*
X141816054Y-125596434D01*
X141816054Y-125596434D02*
X141950741Y-125731121D01*
X141950741Y-125731121D02*
X141977679Y-125811933D01*
X141977679Y-125811933D02*
X141977679Y-125865808D01*
X141977679Y-125865808D02*
X141950741Y-125946620D01*
X141950741Y-125946620D02*
X141816054Y-126081307D01*
X141816054Y-126081307D02*
X141735242Y-126108245D01*
X141735242Y-126108245D02*
X141681367Y-126108245D01*
X139864998Y-152100868D02*
X139784185Y-152127805D01*
X139784185Y-152127805D02*
X139703373Y-152208618D01*
X139703373Y-152208618D02*
X139649498Y-152316367D01*
X139649498Y-152316367D02*
X139649498Y-152424117D01*
X139649498Y-152424117D02*
X139676436Y-152504929D01*
X139676436Y-152504929D02*
X139757248Y-152639616D01*
X139757248Y-152639616D02*
X139838060Y-152720428D01*
X139838060Y-152720428D02*
X139972747Y-152801241D01*
X139972747Y-152801241D02*
X140053560Y-152828178D01*
X140053560Y-152828178D02*
X140161309Y-152828178D01*
X140161309Y-152828178D02*
X140269059Y-152774303D01*
X140269059Y-152774303D02*
X140322934Y-152720428D01*
X140322934Y-152720428D02*
X140376808Y-152612679D01*
X140376808Y-152612679D02*
X140376808Y-152558804D01*
X140376808Y-152558804D02*
X140188247Y-152370242D01*
X140188247Y-152370242D02*
X140080497Y-152477992D01*
X140673120Y-152370242D02*
X140107434Y-151804557D01*
X140107434Y-151804557D02*
X140322934Y-151589057D01*
X140322934Y-151589057D02*
X140403746Y-151562120D01*
X140403746Y-151562120D02*
X140457621Y-151562120D01*
X140457621Y-151562120D02*
X140538433Y-151589057D01*
X140538433Y-151589057D02*
X140619245Y-151669870D01*
X140619245Y-151669870D02*
X140646182Y-151750682D01*
X140646182Y-151750682D02*
X140646182Y-151804557D01*
X140646182Y-151804557D02*
X140619245Y-151885369D01*
X140619245Y-151885369D02*
X140403746Y-152100868D01*
X141535117Y-151508245D02*
X141211868Y-151831494D01*
X141373492Y-151669870D02*
X140807807Y-151104184D01*
X140807807Y-151104184D02*
X140834744Y-151238871D01*
X140834744Y-151238871D02*
X140834744Y-151346621D01*
X140834744Y-151346621D02*
X140807807Y-151427433D01*
X141157993Y-150753998D02*
X141508179Y-150403812D01*
X141508179Y-150403812D02*
X141535117Y-150807873D01*
X141535117Y-150807873D02*
X141615929Y-150727060D01*
X141615929Y-150727060D02*
X141696741Y-150700123D01*
X141696741Y-150700123D02*
X141750616Y-150700123D01*
X141750616Y-150700123D02*
X141831428Y-150727060D01*
X141831428Y-150727060D02*
X141966115Y-150861747D01*
X141966115Y-150861747D02*
X141993053Y-150942560D01*
X141993053Y-150942560D02*
X141993053Y-150996434D01*
X141993053Y-150996434D02*
X141966115Y-151077247D01*
X141966115Y-151077247D02*
X141804491Y-151238871D01*
X141804491Y-151238871D02*
X141723679Y-151265808D01*
X141723679Y-151265808D02*
X141669804Y-151265808D01*
X165961435Y-141698431D02*
X165880623Y-141725368D01*
X165880623Y-141725368D02*
X165799811Y-141806180D01*
X165799811Y-141806180D02*
X165745936Y-141913930D01*
X165745936Y-141913930D02*
X165745936Y-142021680D01*
X165745936Y-142021680D02*
X165772873Y-142102492D01*
X165772873Y-142102492D02*
X165853685Y-142237179D01*
X165853685Y-142237179D02*
X165934498Y-142317991D01*
X165934498Y-142317991D02*
X166069185Y-142398803D01*
X166069185Y-142398803D02*
X166149997Y-142425741D01*
X166149997Y-142425741D02*
X166257746Y-142425741D01*
X166257746Y-142425741D02*
X166365496Y-142371866D01*
X166365496Y-142371866D02*
X166419371Y-142317991D01*
X166419371Y-142317991D02*
X166473246Y-142210241D01*
X166473246Y-142210241D02*
X166473246Y-142156367D01*
X166473246Y-142156367D02*
X166284684Y-141967805D01*
X166284684Y-141967805D02*
X166176934Y-142075554D01*
X166769557Y-141967805D02*
X166203872Y-141402119D01*
X166203872Y-141402119D02*
X167092806Y-141644556D01*
X167092806Y-141644556D02*
X166527120Y-141078871D01*
X167362180Y-141375182D02*
X166796494Y-140809497D01*
X166796494Y-140809497D02*
X166931181Y-140674810D01*
X166931181Y-140674810D02*
X167038931Y-140620935D01*
X167038931Y-140620935D02*
X167146680Y-140620935D01*
X167146680Y-140620935D02*
X167227493Y-140647872D01*
X167227493Y-140647872D02*
X167362180Y-140728685D01*
X167362180Y-140728685D02*
X167442992Y-140809497D01*
X167442992Y-140809497D02*
X167523804Y-140944184D01*
X167523804Y-140944184D02*
X167550741Y-141024996D01*
X167550741Y-141024996D02*
X167550741Y-141132746D01*
X167550741Y-141132746D02*
X167496867Y-141240495D01*
X167496867Y-141240495D02*
X167362180Y-141375182D01*
X166026873Y-129941240D02*
X166296247Y-129671866D01*
X166134623Y-130156739D02*
X165757499Y-129402492D01*
X165757499Y-129402492D02*
X166511746Y-129779615D01*
X166457871Y-128755994D02*
X166377059Y-128782932D01*
X166377059Y-128782932D02*
X166296247Y-128863744D01*
X166296247Y-128863744D02*
X166242372Y-128971494D01*
X166242372Y-128971494D02*
X166242372Y-129079243D01*
X166242372Y-129079243D02*
X166269310Y-129160055D01*
X166269310Y-129160055D02*
X166350122Y-129294742D01*
X166350122Y-129294742D02*
X166430934Y-129375555D01*
X166430934Y-129375555D02*
X166565621Y-129456367D01*
X166565621Y-129456367D02*
X166646433Y-129483304D01*
X166646433Y-129483304D02*
X166754183Y-129483304D01*
X166754183Y-129483304D02*
X166861932Y-129429429D01*
X166861932Y-129429429D02*
X166915807Y-129375555D01*
X166915807Y-129375555D02*
X166969682Y-129267805D01*
X166969682Y-129267805D02*
X166969682Y-129213930D01*
X166969682Y-129213930D02*
X166781120Y-129025368D01*
X166781120Y-129025368D02*
X166673371Y-129133118D01*
X167265993Y-129025368D02*
X166700308Y-128459683D01*
X166700308Y-128459683D02*
X167589242Y-128702120D01*
X167589242Y-128702120D02*
X167023557Y-128136434D01*
X167858616Y-128432746D02*
X167292931Y-127867060D01*
X167292931Y-127867060D02*
X167427618Y-127732373D01*
X167427618Y-127732373D02*
X167535367Y-127678498D01*
X167535367Y-127678498D02*
X167643117Y-127678498D01*
X167643117Y-127678498D02*
X167723929Y-127705436D01*
X167723929Y-127705436D02*
X167858616Y-127786248D01*
X167858616Y-127786248D02*
X167939428Y-127867060D01*
X167939428Y-127867060D02*
X168020241Y-128001747D01*
X168020241Y-128001747D02*
X168047178Y-128082560D01*
X168047178Y-128082560D02*
X168047178Y-128190309D01*
X168047178Y-128190309D02*
X167993303Y-128298059D01*
X167993303Y-128298059D02*
X167858616Y-128432746D01*
X165828406Y-111727585D02*
X166582653Y-112104709D01*
X166582653Y-112104709D02*
X166205529Y-111350462D01*
X166852027Y-111242712D02*
X166959776Y-111188838D01*
X166959776Y-111188838D02*
X167013651Y-111188838D01*
X167013651Y-111188838D02*
X167094463Y-111215775D01*
X167094463Y-111215775D02*
X167175276Y-111296587D01*
X167175276Y-111296587D02*
X167202213Y-111377399D01*
X167202213Y-111377399D02*
X167202213Y-111431274D01*
X167202213Y-111431274D02*
X167175276Y-111512086D01*
X167175276Y-111512086D02*
X166959776Y-111727586D01*
X166959776Y-111727586D02*
X166394091Y-111161900D01*
X166394091Y-111161900D02*
X166582653Y-110973338D01*
X166582653Y-110973338D02*
X166663465Y-110946401D01*
X166663465Y-110946401D02*
X166717340Y-110946401D01*
X166717340Y-110946401D02*
X166798152Y-110973338D01*
X166798152Y-110973338D02*
X166852027Y-111027213D01*
X166852027Y-111027213D02*
X166878964Y-111108025D01*
X166878964Y-111108025D02*
X166878964Y-111161900D01*
X166878964Y-111161900D02*
X166852027Y-111242712D01*
X166852027Y-111242712D02*
X166663465Y-111431274D01*
X166959776Y-110596215D02*
X167417712Y-111054151D01*
X167417712Y-111054151D02*
X167498524Y-111081088D01*
X167498524Y-111081088D02*
X167552399Y-111081088D01*
X167552399Y-111081088D02*
X167633211Y-111054151D01*
X167633211Y-111054151D02*
X167740961Y-110946401D01*
X167740961Y-110946401D02*
X167767898Y-110865589D01*
X167767898Y-110865589D02*
X167767898Y-110811714D01*
X167767898Y-110811714D02*
X167740961Y-110730902D01*
X167740961Y-110730902D02*
X167283025Y-110272966D01*
X168064210Y-110569277D02*
X168171959Y-110515403D01*
X168171959Y-110515403D02*
X168306646Y-110380716D01*
X168306646Y-110380716D02*
X168333584Y-110299903D01*
X168333584Y-110299903D02*
X168333584Y-110246029D01*
X168333584Y-110246029D02*
X168306646Y-110165216D01*
X168306646Y-110165216D02*
X168252771Y-110111342D01*
X168252771Y-110111342D02*
X168171959Y-110084404D01*
X168171959Y-110084404D02*
X168118084Y-110084404D01*
X168118084Y-110084404D02*
X168037272Y-110111342D01*
X168037272Y-110111342D02*
X167902585Y-110192154D01*
X167902585Y-110192154D02*
X167821773Y-110219091D01*
X167821773Y-110219091D02*
X167767898Y-110219091D01*
X167767898Y-110219091D02*
X167687086Y-110192154D01*
X167687086Y-110192154D02*
X167633211Y-110138279D01*
X167633211Y-110138279D02*
X167606274Y-110057467D01*
X167606274Y-110057467D02*
X167606274Y-110003592D01*
X167606274Y-110003592D02*
X167633211Y-109922780D01*
X167633211Y-109922780D02*
X167767898Y-109788093D01*
X167767898Y-109788093D02*
X167875648Y-109734218D01*
X165795749Y-114270242D02*
X166549996Y-114647366D01*
X166549996Y-114647366D02*
X166172873Y-113893118D01*
X166873245Y-114270242D02*
X166980995Y-114216367D01*
X166980995Y-114216367D02*
X167115682Y-114081680D01*
X167115682Y-114081680D02*
X167142619Y-114000868D01*
X167142619Y-114000868D02*
X167142619Y-113946993D01*
X167142619Y-113946993D02*
X167115682Y-113866181D01*
X167115682Y-113866181D02*
X167061807Y-113812306D01*
X167061807Y-113812306D02*
X166980995Y-113785369D01*
X166980995Y-113785369D02*
X166927120Y-113785369D01*
X166927120Y-113785369D02*
X166846308Y-113812306D01*
X166846308Y-113812306D02*
X166711621Y-113893118D01*
X166711621Y-113893118D02*
X166630808Y-113920056D01*
X166630808Y-113920056D02*
X166576934Y-113920056D01*
X166576934Y-113920056D02*
X166496121Y-113893118D01*
X166496121Y-113893118D02*
X166442247Y-113839244D01*
X166442247Y-113839244D02*
X166415309Y-113758431D01*
X166415309Y-113758431D02*
X166415309Y-113704557D01*
X166415309Y-113704557D02*
X166442247Y-113623744D01*
X166442247Y-113623744D02*
X166576934Y-113489057D01*
X166576934Y-113489057D02*
X166684683Y-113435183D01*
X167304244Y-113354370D02*
X167573618Y-113623744D01*
X166819370Y-113246621D02*
X167304244Y-113354370D01*
X167304244Y-113354370D02*
X167196494Y-112869497D01*
X167896866Y-113246621D02*
X168004616Y-113192746D01*
X168004616Y-113192746D02*
X168139303Y-113058059D01*
X168139303Y-113058059D02*
X168166240Y-112977247D01*
X168166240Y-112977247D02*
X168166240Y-112923372D01*
X168166240Y-112923372D02*
X168139303Y-112842560D01*
X168139303Y-112842560D02*
X168085428Y-112788685D01*
X168085428Y-112788685D02*
X168004616Y-112761748D01*
X168004616Y-112761748D02*
X167950741Y-112761748D01*
X167950741Y-112761748D02*
X167869929Y-112788685D01*
X167869929Y-112788685D02*
X167735242Y-112869497D01*
X167735242Y-112869497D02*
X167654430Y-112896435D01*
X167654430Y-112896435D02*
X167600555Y-112896435D01*
X167600555Y-112896435D02*
X167519743Y-112869497D01*
X167519743Y-112869497D02*
X167465868Y-112815622D01*
X167465868Y-112815622D02*
X167438930Y-112734810D01*
X167438930Y-112734810D02*
X167438930Y-112680935D01*
X167438930Y-112680935D02*
X167465868Y-112600123D01*
X167465868Y-112600123D02*
X167600555Y-112465436D01*
X167600555Y-112465436D02*
X167708304Y-112411561D01*
X140388372Y-121351494D02*
X140307560Y-121378431D01*
X140307560Y-121378431D02*
X140226748Y-121459243D01*
X140226748Y-121459243D02*
X140172873Y-121566993D01*
X140172873Y-121566993D02*
X140172873Y-121674742D01*
X140172873Y-121674742D02*
X140199810Y-121755555D01*
X140199810Y-121755555D02*
X140280623Y-121890242D01*
X140280623Y-121890242D02*
X140361435Y-121971054D01*
X140361435Y-121971054D02*
X140496122Y-122051866D01*
X140496122Y-122051866D02*
X140576934Y-122078803D01*
X140576934Y-122078803D02*
X140684684Y-122078803D01*
X140684684Y-122078803D02*
X140792433Y-122024929D01*
X140792433Y-122024929D02*
X140846308Y-121971054D01*
X140846308Y-121971054D02*
X140900183Y-121863304D01*
X140900183Y-121863304D02*
X140900183Y-121809429D01*
X140900183Y-121809429D02*
X140711621Y-121620868D01*
X140711621Y-121620868D02*
X140603871Y-121728617D01*
X141196494Y-121620868D02*
X140630809Y-121055182D01*
X140630809Y-121055182D02*
X140846308Y-120839683D01*
X140846308Y-120839683D02*
X140927120Y-120812746D01*
X140927120Y-120812746D02*
X140980995Y-120812746D01*
X140980995Y-120812746D02*
X141061807Y-120839683D01*
X141061807Y-120839683D02*
X141142619Y-120920495D01*
X141142619Y-120920495D02*
X141169557Y-121001307D01*
X141169557Y-121001307D02*
X141169557Y-121055182D01*
X141169557Y-121055182D02*
X141142619Y-121135994D01*
X141142619Y-121135994D02*
X140927120Y-121351494D01*
X141142619Y-120543372D02*
X141492806Y-120193185D01*
X141492806Y-120193185D02*
X141519743Y-120597246D01*
X141519743Y-120597246D02*
X141600555Y-120516434D01*
X141600555Y-120516434D02*
X141681367Y-120489497D01*
X141681367Y-120489497D02*
X141735242Y-120489497D01*
X141735242Y-120489497D02*
X141816054Y-120516434D01*
X141816054Y-120516434D02*
X141950741Y-120651121D01*
X141950741Y-120651121D02*
X141977679Y-120731933D01*
X141977679Y-120731933D02*
X141977679Y-120785808D01*
X141977679Y-120785808D02*
X141950741Y-120866620D01*
X141950741Y-120866620D02*
X141789117Y-121028245D01*
X141789117Y-121028245D02*
X141708305Y-121055182D01*
X141708305Y-121055182D02*
X141654430Y-121055182D01*
X140288372Y-113721494D02*
X140207560Y-113748431D01*
X140207560Y-113748431D02*
X140126748Y-113829243D01*
X140126748Y-113829243D02*
X140072873Y-113936993D01*
X140072873Y-113936993D02*
X140072873Y-114044742D01*
X140072873Y-114044742D02*
X140099810Y-114125555D01*
X140099810Y-114125555D02*
X140180623Y-114260242D01*
X140180623Y-114260242D02*
X140261435Y-114341054D01*
X140261435Y-114341054D02*
X140396122Y-114421866D01*
X140396122Y-114421866D02*
X140476934Y-114448803D01*
X140476934Y-114448803D02*
X140584684Y-114448803D01*
X140584684Y-114448803D02*
X140692433Y-114394929D01*
X140692433Y-114394929D02*
X140746308Y-114341054D01*
X140746308Y-114341054D02*
X140800183Y-114233304D01*
X140800183Y-114233304D02*
X140800183Y-114179429D01*
X140800183Y-114179429D02*
X140611621Y-113990868D01*
X140611621Y-113990868D02*
X140503871Y-114098617D01*
X141096494Y-113990868D02*
X140530809Y-113425182D01*
X140530809Y-113425182D02*
X140746308Y-113209683D01*
X140746308Y-113209683D02*
X140827120Y-113182746D01*
X140827120Y-113182746D02*
X140880995Y-113182746D01*
X140880995Y-113182746D02*
X140961807Y-113209683D01*
X140961807Y-113209683D02*
X141042619Y-113290495D01*
X141042619Y-113290495D02*
X141069557Y-113371307D01*
X141069557Y-113371307D02*
X141069557Y-113425182D01*
X141069557Y-113425182D02*
X141042619Y-113505994D01*
X141042619Y-113505994D02*
X140827120Y-113721494D01*
X141958491Y-113128871D02*
X141635242Y-113452120D01*
X141796867Y-113290495D02*
X141231181Y-112724810D01*
X141231181Y-112724810D02*
X141258119Y-112859497D01*
X141258119Y-112859497D02*
X141258119Y-112967246D01*
X141258119Y-112967246D02*
X141231181Y-113048059D01*
X165765123Y-121690868D02*
X166115309Y-121340682D01*
X166115309Y-121340682D02*
X166142247Y-121744743D01*
X166142247Y-121744743D02*
X166223059Y-121663931D01*
X166223059Y-121663931D02*
X166303871Y-121636993D01*
X166303871Y-121636993D02*
X166357746Y-121636993D01*
X166357746Y-121636993D02*
X166438558Y-121663931D01*
X166438558Y-121663931D02*
X166573245Y-121798618D01*
X166573245Y-121798618D02*
X166600182Y-121879430D01*
X166600182Y-121879430D02*
X166600182Y-121933305D01*
X166600182Y-121933305D02*
X166573245Y-122014117D01*
X166573245Y-122014117D02*
X166411621Y-122175741D01*
X166411621Y-122175741D02*
X166330808Y-122202679D01*
X166330808Y-122202679D02*
X166276934Y-122202679D01*
X166276934Y-121179057D02*
X167031181Y-121556181D01*
X167031181Y-121556181D02*
X166654057Y-120801934D01*
X166788744Y-120667247D02*
X167138930Y-120317061D01*
X167138930Y-120317061D02*
X167165868Y-120721122D01*
X167165868Y-120721122D02*
X167246680Y-120640309D01*
X167246680Y-120640309D02*
X167327492Y-120613372D01*
X167327492Y-120613372D02*
X167381367Y-120613372D01*
X167381367Y-120613372D02*
X167462179Y-120640309D01*
X167462179Y-120640309D02*
X167596866Y-120774996D01*
X167596866Y-120774996D02*
X167623804Y-120855809D01*
X167623804Y-120855809D02*
X167623804Y-120909683D01*
X167623804Y-120909683D02*
X167596866Y-120990496D01*
X167596866Y-120990496D02*
X167435242Y-121152120D01*
X167435242Y-121152120D02*
X167354430Y-121179057D01*
X167354430Y-121179057D02*
X167300555Y-121179057D01*
X165972998Y-134320868D02*
X165892185Y-134347805D01*
X165892185Y-134347805D02*
X165811373Y-134428618D01*
X165811373Y-134428618D02*
X165757498Y-134536367D01*
X165757498Y-134536367D02*
X165757498Y-134644117D01*
X165757498Y-134644117D02*
X165784436Y-134724929D01*
X165784436Y-134724929D02*
X165865248Y-134859616D01*
X165865248Y-134859616D02*
X165946060Y-134940428D01*
X165946060Y-134940428D02*
X166080747Y-135021241D01*
X166080747Y-135021241D02*
X166161560Y-135048178D01*
X166161560Y-135048178D02*
X166269309Y-135048178D01*
X166269309Y-135048178D02*
X166377059Y-134994303D01*
X166377059Y-134994303D02*
X166430934Y-134940428D01*
X166430934Y-134940428D02*
X166484808Y-134832679D01*
X166484808Y-134832679D02*
X166484808Y-134778804D01*
X166484808Y-134778804D02*
X166296247Y-134590242D01*
X166296247Y-134590242D02*
X166188497Y-134697992D01*
X166781120Y-134590242D02*
X166215434Y-134024557D01*
X166215434Y-134024557D02*
X166430934Y-133809057D01*
X166430934Y-133809057D02*
X166511746Y-133782120D01*
X166511746Y-133782120D02*
X166565621Y-133782120D01*
X166565621Y-133782120D02*
X166646433Y-133809057D01*
X166646433Y-133809057D02*
X166727245Y-133889870D01*
X166727245Y-133889870D02*
X166754182Y-133970682D01*
X166754182Y-133970682D02*
X166754182Y-134024557D01*
X166754182Y-134024557D02*
X166727245Y-134105369D01*
X166727245Y-134105369D02*
X166511746Y-134320868D01*
X166808057Y-133539683D02*
X166808057Y-133485809D01*
X166808057Y-133485809D02*
X166834995Y-133404996D01*
X166834995Y-133404996D02*
X166969682Y-133270309D01*
X166969682Y-133270309D02*
X167050494Y-133243372D01*
X167050494Y-133243372D02*
X167104369Y-133243372D01*
X167104369Y-133243372D02*
X167185181Y-133270309D01*
X167185181Y-133270309D02*
X167239056Y-133324184D01*
X167239056Y-133324184D02*
X167292930Y-133431934D01*
X167292930Y-133431934D02*
X167292930Y-134078431D01*
X167292930Y-134078431D02*
X167643117Y-133728245D01*
X167562305Y-132677686D02*
X167454555Y-132785436D01*
X167454555Y-132785436D02*
X167427618Y-132866248D01*
X167427618Y-132866248D02*
X167427618Y-132920123D01*
X167427618Y-132920123D02*
X167454555Y-133054810D01*
X167454555Y-133054810D02*
X167535367Y-133189497D01*
X167535367Y-133189497D02*
X167750866Y-133404996D01*
X167750866Y-133404996D02*
X167831679Y-133431934D01*
X167831679Y-133431934D02*
X167885553Y-133431934D01*
X167885553Y-133431934D02*
X167966366Y-133404996D01*
X167966366Y-133404996D02*
X168074115Y-133297247D01*
X168074115Y-133297247D02*
X168101053Y-133216434D01*
X168101053Y-133216434D02*
X168101053Y-133162560D01*
X168101053Y-133162560D02*
X168074115Y-133081747D01*
X168074115Y-133081747D02*
X167939428Y-132947060D01*
X167939428Y-132947060D02*
X167858616Y-132920123D01*
X167858616Y-132920123D02*
X167804741Y-132920123D01*
X167804741Y-132920123D02*
X167723929Y-132947060D01*
X167723929Y-132947060D02*
X167616179Y-133054810D01*
X167616179Y-133054810D02*
X167589242Y-133135622D01*
X167589242Y-133135622D02*
X167589242Y-133189497D01*
X167589242Y-133189497D02*
X167616179Y-133270309D01*
X165972998Y-157180868D02*
X165892185Y-157207805D01*
X165892185Y-157207805D02*
X165811373Y-157288618D01*
X165811373Y-157288618D02*
X165757498Y-157396367D01*
X165757498Y-157396367D02*
X165757498Y-157504117D01*
X165757498Y-157504117D02*
X165784436Y-157584929D01*
X165784436Y-157584929D02*
X165865248Y-157719616D01*
X165865248Y-157719616D02*
X165946060Y-157800428D01*
X165946060Y-157800428D02*
X166080747Y-157881241D01*
X166080747Y-157881241D02*
X166161560Y-157908178D01*
X166161560Y-157908178D02*
X166269309Y-157908178D01*
X166269309Y-157908178D02*
X166377059Y-157854303D01*
X166377059Y-157854303D02*
X166430934Y-157800428D01*
X166430934Y-157800428D02*
X166484808Y-157692679D01*
X166484808Y-157692679D02*
X166484808Y-157638804D01*
X166484808Y-157638804D02*
X166296247Y-157450242D01*
X166296247Y-157450242D02*
X166188497Y-157557992D01*
X166781120Y-157450242D02*
X166215434Y-156884557D01*
X166215434Y-156884557D02*
X166430934Y-156669057D01*
X166430934Y-156669057D02*
X166511746Y-156642120D01*
X166511746Y-156642120D02*
X166565621Y-156642120D01*
X166565621Y-156642120D02*
X166646433Y-156669057D01*
X166646433Y-156669057D02*
X166727245Y-156749870D01*
X166727245Y-156749870D02*
X166754182Y-156830682D01*
X166754182Y-156830682D02*
X166754182Y-156884557D01*
X166754182Y-156884557D02*
X166727245Y-156965369D01*
X166727245Y-156965369D02*
X166511746Y-157180868D01*
X167643117Y-156588245D02*
X167319868Y-156911494D01*
X167481492Y-156749870D02*
X166915807Y-156184184D01*
X166915807Y-156184184D02*
X166942744Y-156318871D01*
X166942744Y-156318871D02*
X166942744Y-156426621D01*
X166942744Y-156426621D02*
X166915807Y-156507433D01*
X167265993Y-155833998D02*
X167643117Y-155456874D01*
X167643117Y-155456874D02*
X167966366Y-156264996D01*
X166300064Y-124734049D02*
X166569438Y-124464675D01*
X166407813Y-124949549D02*
X166030690Y-124195301D01*
X166030690Y-124195301D02*
X166784937Y-124572425D01*
X166973499Y-124383863D02*
X166407813Y-123818178D01*
X166407813Y-123818178D02*
X166542500Y-123683491D01*
X166542500Y-123683491D02*
X166650250Y-123629616D01*
X166650250Y-123629616D02*
X166757999Y-123629616D01*
X166757999Y-123629616D02*
X166838812Y-123656553D01*
X166838812Y-123656553D02*
X166973499Y-123737366D01*
X166973499Y-123737366D02*
X167054311Y-123818178D01*
X167054311Y-123818178D02*
X167135123Y-123952865D01*
X167135123Y-123952865D02*
X167162060Y-124033677D01*
X167162060Y-124033677D02*
X167162060Y-124141427D01*
X167162060Y-124141427D02*
X167108186Y-124249176D01*
X167108186Y-124249176D02*
X166973499Y-124383863D01*
X167808558Y-123441054D02*
X167808558Y-123494929D01*
X167808558Y-123494929D02*
X167754683Y-123602679D01*
X167754683Y-123602679D02*
X167700808Y-123656553D01*
X167700808Y-123656553D02*
X167593059Y-123710428D01*
X167593059Y-123710428D02*
X167485309Y-123710428D01*
X167485309Y-123710428D02*
X167404497Y-123683491D01*
X167404497Y-123683491D02*
X167269810Y-123602679D01*
X167269810Y-123602679D02*
X167188998Y-123521866D01*
X167188998Y-123521866D02*
X167108186Y-123387179D01*
X167108186Y-123387179D02*
X167081248Y-123306367D01*
X167081248Y-123306367D02*
X167081248Y-123198618D01*
X167081248Y-123198618D02*
X167135123Y-123090868D01*
X167135123Y-123090868D02*
X167188998Y-123036993D01*
X167188998Y-123036993D02*
X167296747Y-122983118D01*
X167296747Y-122983118D02*
X167350622Y-122983118D01*
X168024057Y-123441054D02*
X168455056Y-123010056D01*
X167889370Y-122336621D02*
X168643618Y-122713744D01*
X168643618Y-122713744D02*
X168266494Y-121959497D01*
X169343990Y-122013372D02*
X168886054Y-121932560D01*
X169020741Y-122336621D02*
X168455056Y-121770935D01*
X168455056Y-121770935D02*
X168670555Y-121555436D01*
X168670555Y-121555436D02*
X168751367Y-121528499D01*
X168751367Y-121528499D02*
X168805242Y-121528499D01*
X168805242Y-121528499D02*
X168886054Y-121555436D01*
X168886054Y-121555436D02*
X168966866Y-121636248D01*
X168966866Y-121636248D02*
X168993804Y-121717061D01*
X168993804Y-121717061D02*
X168993804Y-121770935D01*
X168993804Y-121770935D02*
X168966866Y-121851748D01*
X168966866Y-121851748D02*
X168751367Y-122067247D01*
X169290115Y-121474624D02*
X169478677Y-121286062D01*
X169855800Y-121501561D02*
X169586426Y-121770935D01*
X169586426Y-121770935D02*
X169020741Y-121205250D01*
X169020741Y-121205250D02*
X169290115Y-120935876D01*
X169990488Y-120774251D02*
X169801926Y-120962813D01*
X170098237Y-121259125D02*
X169532552Y-120693439D01*
X169532552Y-120693439D02*
X169801926Y-120424065D01*
X165972998Y-139890868D02*
X165892185Y-139917805D01*
X165892185Y-139917805D02*
X165811373Y-139998618D01*
X165811373Y-139998618D02*
X165757498Y-140106367D01*
X165757498Y-140106367D02*
X165757498Y-140214117D01*
X165757498Y-140214117D02*
X165784436Y-140294929D01*
X165784436Y-140294929D02*
X165865248Y-140429616D01*
X165865248Y-140429616D02*
X165946060Y-140510428D01*
X165946060Y-140510428D02*
X166080747Y-140591241D01*
X166080747Y-140591241D02*
X166161560Y-140618178D01*
X166161560Y-140618178D02*
X166269309Y-140618178D01*
X166269309Y-140618178D02*
X166377059Y-140564303D01*
X166377059Y-140564303D02*
X166430934Y-140510428D01*
X166430934Y-140510428D02*
X166484808Y-140402679D01*
X166484808Y-140402679D02*
X166484808Y-140348804D01*
X166484808Y-140348804D02*
X166296247Y-140160242D01*
X166296247Y-140160242D02*
X166188497Y-140267992D01*
X166781120Y-140160242D02*
X166215434Y-139594557D01*
X166215434Y-139594557D02*
X166430934Y-139379057D01*
X166430934Y-139379057D02*
X166511746Y-139352120D01*
X166511746Y-139352120D02*
X166565621Y-139352120D01*
X166565621Y-139352120D02*
X166646433Y-139379057D01*
X166646433Y-139379057D02*
X166727245Y-139459870D01*
X166727245Y-139459870D02*
X166754182Y-139540682D01*
X166754182Y-139540682D02*
X166754182Y-139594557D01*
X166754182Y-139594557D02*
X166727245Y-139675369D01*
X166727245Y-139675369D02*
X166511746Y-139890868D01*
X166808057Y-139109683D02*
X166808057Y-139055809D01*
X166808057Y-139055809D02*
X166834995Y-138974996D01*
X166834995Y-138974996D02*
X166969682Y-138840309D01*
X166969682Y-138840309D02*
X167050494Y-138813372D01*
X167050494Y-138813372D02*
X167104369Y-138813372D01*
X167104369Y-138813372D02*
X167185181Y-138840309D01*
X167185181Y-138840309D02*
X167239056Y-138894184D01*
X167239056Y-138894184D02*
X167292930Y-139001934D01*
X167292930Y-139001934D02*
X167292930Y-139648431D01*
X167292930Y-139648431D02*
X167643117Y-139298245D01*
X167346805Y-138570935D02*
X167346805Y-138517060D01*
X167346805Y-138517060D02*
X167373743Y-138436248D01*
X167373743Y-138436248D02*
X167508430Y-138301561D01*
X167508430Y-138301561D02*
X167589242Y-138274624D01*
X167589242Y-138274624D02*
X167643117Y-138274624D01*
X167643117Y-138274624D02*
X167723929Y-138301561D01*
X167723929Y-138301561D02*
X167777804Y-138355436D01*
X167777804Y-138355436D02*
X167831679Y-138463186D01*
X167831679Y-138463186D02*
X167831679Y-139109683D01*
X167831679Y-139109683D02*
X168181865Y-138759497D01*
X140388372Y-139131494D02*
X140307560Y-139158431D01*
X140307560Y-139158431D02*
X140226748Y-139239243D01*
X140226748Y-139239243D02*
X140172873Y-139346993D01*
X140172873Y-139346993D02*
X140172873Y-139454742D01*
X140172873Y-139454742D02*
X140199810Y-139535555D01*
X140199810Y-139535555D02*
X140280623Y-139670242D01*
X140280623Y-139670242D02*
X140361435Y-139751054D01*
X140361435Y-139751054D02*
X140496122Y-139831866D01*
X140496122Y-139831866D02*
X140576934Y-139858803D01*
X140576934Y-139858803D02*
X140684684Y-139858803D01*
X140684684Y-139858803D02*
X140792433Y-139804929D01*
X140792433Y-139804929D02*
X140846308Y-139751054D01*
X140846308Y-139751054D02*
X140900183Y-139643304D01*
X140900183Y-139643304D02*
X140900183Y-139589429D01*
X140900183Y-139589429D02*
X140711621Y-139400868D01*
X140711621Y-139400868D02*
X140603871Y-139508617D01*
X141196494Y-139400868D02*
X140630809Y-138835182D01*
X140630809Y-138835182D02*
X140846308Y-138619683D01*
X140846308Y-138619683D02*
X140927120Y-138592746D01*
X140927120Y-138592746D02*
X140980995Y-138592746D01*
X140980995Y-138592746D02*
X141061807Y-138619683D01*
X141061807Y-138619683D02*
X141142619Y-138700495D01*
X141142619Y-138700495D02*
X141169557Y-138781307D01*
X141169557Y-138781307D02*
X141169557Y-138835182D01*
X141169557Y-138835182D02*
X141142619Y-138915994D01*
X141142619Y-138915994D02*
X140927120Y-139131494D01*
X141789117Y-138808245D02*
X141896867Y-138700495D01*
X141896867Y-138700495D02*
X141923804Y-138619683D01*
X141923804Y-138619683D02*
X141923804Y-138565808D01*
X141923804Y-138565808D02*
X141896867Y-138431121D01*
X141896867Y-138431121D02*
X141816054Y-138296434D01*
X141816054Y-138296434D02*
X141600555Y-138080935D01*
X141600555Y-138080935D02*
X141519743Y-138053998D01*
X141519743Y-138053998D02*
X141465868Y-138053998D01*
X141465868Y-138053998D02*
X141385056Y-138080935D01*
X141385056Y-138080935D02*
X141277306Y-138188685D01*
X141277306Y-138188685D02*
X141250369Y-138269497D01*
X141250369Y-138269497D02*
X141250369Y-138323372D01*
X141250369Y-138323372D02*
X141277306Y-138404184D01*
X141277306Y-138404184D02*
X141411993Y-138538871D01*
X141411993Y-138538871D02*
X141492806Y-138565808D01*
X141492806Y-138565808D02*
X141546680Y-138565808D01*
X141546680Y-138565808D02*
X141627493Y-138538871D01*
X141627493Y-138538871D02*
X141735242Y-138431121D01*
X141735242Y-138431121D02*
X141762180Y-138350309D01*
X141762180Y-138350309D02*
X141762180Y-138296434D01*
X141762180Y-138296434D02*
X141735242Y-138215622D01*
D12*
%TO.C,R2*%
X181630000Y-145230000D02*
X181630000Y-151770000D01*
X181630000Y-151770000D02*
X184370000Y-151770000D01*
X183000000Y-144460000D02*
X183000000Y-145230000D01*
X183000000Y-152540000D02*
X183000000Y-151770000D01*
X184370000Y-145230000D02*
X181630000Y-145230000D01*
X184370000Y-151770000D02*
X184370000Y-145230000D01*
D13*
%TO.C,U3*%
X171325000Y-133221000D02*
X171325000Y-134059200D01*
X171325000Y-151763000D02*
X171325000Y-152779000D01*
X171325000Y-152779000D02*
X177675000Y-152779000D01*
X174195200Y-133221000D02*
X171325000Y-133221000D01*
X174804800Y-133221000D02*
X174195200Y-133221000D01*
X177675000Y-133221000D02*
X174804800Y-133221000D01*
X177675000Y-134237000D02*
X177675000Y-133221000D01*
X177675000Y-152779000D02*
X177675000Y-151763000D01*
D10*
X174804800Y-133221000D02*
G75*
G02*
X174195200Y-133221000I-304800J0D01*
G01*
D12*
%TO.C,J1*%
X133890000Y-138610000D02*
X133890000Y-139860000D01*
X133890000Y-139860000D02*
X135140000Y-139860000D01*
X133990000Y-137800000D02*
X133990000Y-138100000D01*
X133990000Y-138100000D02*
X134190000Y-138100000D01*
X134090000Y-137800000D02*
X134090000Y-138100000D01*
X134190000Y-123440000D02*
X134190000Y-139560000D01*
X134190000Y-137000000D02*
X134800000Y-137000000D01*
X134190000Y-137800000D02*
X133990000Y-137800000D01*
X134190000Y-139560000D02*
X138910000Y-139560000D01*
X134800000Y-124050000D02*
X134800000Y-126000000D01*
X134800000Y-126000000D02*
X134190000Y-126000000D01*
X134800000Y-137000000D02*
X134800000Y-138950000D01*
X134800000Y-138950000D02*
X138300000Y-138950000D01*
X135500000Y-123440000D02*
X135500000Y-124050000D01*
X135500000Y-139560000D02*
X135500000Y-138950000D01*
X136800000Y-123440000D02*
X136800000Y-124050000D01*
X136800000Y-139560000D02*
X136800000Y-138950000D01*
X137800000Y-126400000D02*
X138300000Y-126400000D01*
X137800000Y-126600000D02*
X137800000Y-126400000D01*
X137800000Y-128400000D02*
X138300000Y-128400000D01*
X137800000Y-128600000D02*
X137800000Y-128400000D01*
X137800000Y-130400000D02*
X138300000Y-130400000D01*
X137800000Y-130600000D02*
X137800000Y-130400000D01*
X137800000Y-132400000D02*
X138300000Y-132400000D01*
X137800000Y-132600000D02*
X137800000Y-132400000D01*
X137800000Y-134400000D02*
X138300000Y-134400000D01*
X137800000Y-134600000D02*
X137800000Y-134400000D01*
X137800000Y-136400000D02*
X138300000Y-136400000D01*
X137800000Y-136600000D02*
X137800000Y-136400000D01*
X138300000Y-124050000D02*
X134800000Y-124050000D01*
X138300000Y-126500000D02*
X137800000Y-126500000D01*
X138300000Y-126600000D02*
X137800000Y-126600000D01*
X138300000Y-128500000D02*
X137800000Y-128500000D01*
X138300000Y-128600000D02*
X137800000Y-128600000D01*
X138300000Y-130500000D02*
X137800000Y-130500000D01*
X138300000Y-130600000D02*
X137800000Y-130600000D01*
X138300000Y-132500000D02*
X137800000Y-132500000D01*
X138300000Y-132600000D02*
X137800000Y-132600000D01*
X138300000Y-134500000D02*
X137800000Y-134500000D01*
X138300000Y-134600000D02*
X137800000Y-134600000D01*
X138300000Y-136500000D02*
X137800000Y-136500000D01*
X138300000Y-136600000D02*
X137800000Y-136600000D01*
X138300000Y-138950000D02*
X138300000Y-124050000D01*
X138910000Y-123440000D02*
X134190000Y-123440000D01*
X138910000Y-139560000D02*
X138910000Y-123440000D01*
%TO.C,R4*%
X181630000Y-132230000D02*
X181630000Y-138770000D01*
X181630000Y-138770000D02*
X184370000Y-138770000D01*
X183000000Y-131460000D02*
X183000000Y-132230000D01*
X183000000Y-139540000D02*
X183000000Y-138770000D01*
X184370000Y-132230000D02*
X181630000Y-132230000D01*
X184370000Y-138770000D02*
X184370000Y-132230000D01*
%TO.C,J3*%
X133890000Y-147610000D02*
X133890000Y-148860000D01*
X133890000Y-148860000D02*
X135140000Y-148860000D01*
X133990000Y-146800000D02*
X133990000Y-147100000D01*
X133990000Y-147100000D02*
X134190000Y-147100000D01*
X134090000Y-146800000D02*
X134090000Y-147100000D01*
X134190000Y-140440000D02*
X134190000Y-148560000D01*
X134190000Y-146000000D02*
X134800000Y-146000000D01*
X134190000Y-146800000D02*
X133990000Y-146800000D01*
X134190000Y-148560000D02*
X138910000Y-148560000D01*
X134800000Y-141050000D02*
X134800000Y-143000000D01*
X134800000Y-143000000D02*
X134190000Y-143000000D01*
X134800000Y-146000000D02*
X134800000Y-147950000D01*
X134800000Y-147950000D02*
X138300000Y-147950000D01*
X135500000Y-140440000D02*
X135500000Y-141050000D01*
X135500000Y-148560000D02*
X135500000Y-147950000D01*
X136800000Y-140440000D02*
X136800000Y-141050000D01*
X136800000Y-148560000D02*
X136800000Y-147950000D01*
X137800000Y-143400000D02*
X138300000Y-143400000D01*
X137800000Y-143600000D02*
X137800000Y-143400000D01*
X137800000Y-145400000D02*
X138300000Y-145400000D01*
X137800000Y-145600000D02*
X137800000Y-145400000D01*
X138300000Y-141050000D02*
X134800000Y-141050000D01*
X138300000Y-143500000D02*
X137800000Y-143500000D01*
X138300000Y-143600000D02*
X137800000Y-143600000D01*
X138300000Y-145500000D02*
X137800000Y-145500000D01*
X138300000Y-145600000D02*
X137800000Y-145600000D01*
X138300000Y-147950000D02*
X138300000Y-141050000D01*
X138910000Y-140440000D02*
X134190000Y-140440000D01*
X138910000Y-148560000D02*
X138910000Y-140440000D01*
%TO.C,R3*%
X181602900Y-116843600D02*
X181602900Y-123383600D01*
X181602900Y-123383600D02*
X184342900Y-123383600D01*
X182972900Y-116073600D02*
X182972900Y-116843600D01*
X182972900Y-124153600D02*
X182972900Y-123383600D01*
X184342900Y-116843600D02*
X181602900Y-116843600D01*
X184342900Y-123383600D02*
X184342900Y-116843600D01*
%TO.C,U4*%
X143375000Y-109700000D02*
X143375000Y-110000000D01*
X143375000Y-109700000D02*
X164375000Y-109700000D01*
X143375000Y-112100000D02*
X143375000Y-112500000D01*
X143375000Y-112367000D02*
X146382000Y-112367000D01*
X143375000Y-114700000D02*
X143375000Y-115100000D01*
X143375000Y-117200000D02*
X143375000Y-117600000D01*
X143375000Y-119800000D02*
X143375000Y-120200000D01*
X143375000Y-122300000D02*
X143375000Y-122700000D01*
X143375000Y-124800000D02*
X143375000Y-125200000D01*
X143375000Y-127400000D02*
X143375000Y-127800000D01*
X143375000Y-129900000D02*
X143375000Y-130300000D01*
X143375000Y-132500000D02*
X143375000Y-132900000D01*
X143375000Y-135000000D02*
X143375000Y-135400000D01*
X143375000Y-137500000D02*
X143375000Y-137900000D01*
X143375000Y-140100000D02*
X143375000Y-140500000D01*
X143375000Y-142600000D02*
X143375000Y-143000000D01*
X143375000Y-145200000D02*
X143375000Y-145600000D01*
X143375000Y-147700000D02*
X143375000Y-148100000D01*
X143375000Y-150300000D02*
X143375000Y-150700000D01*
X143375000Y-152800000D02*
X143375000Y-153200000D01*
X143375000Y-155300000D02*
X143375000Y-155700000D01*
X143375000Y-157900000D02*
X143375000Y-158300000D01*
X146382000Y-112367000D02*
X146382000Y-109700000D01*
X150175000Y-160700000D02*
X143375000Y-160700000D01*
X152375000Y-160700000D02*
X152775000Y-160700000D01*
X154975000Y-160700000D02*
X155375000Y-160700000D01*
X164375000Y-109700000D02*
X164375000Y-110000000D01*
X164375000Y-112100000D02*
X164375000Y-112500000D01*
X164375000Y-114700000D02*
X164375000Y-115100000D01*
X164375000Y-117200000D02*
X164375000Y-117600000D01*
X164375000Y-119800000D02*
X164375000Y-120200000D01*
X164375000Y-122300000D02*
X164375000Y-122700000D01*
X164375000Y-124800000D02*
X164375000Y-125200000D01*
X164375000Y-127400000D02*
X164375000Y-127800000D01*
X164375000Y-129900000D02*
X164375000Y-130300000D01*
X164375000Y-132500000D02*
X164375000Y-132900000D01*
X164375000Y-135000000D02*
X164375000Y-135400000D01*
X164375000Y-137500000D02*
X164375000Y-137900000D01*
X164375000Y-140100000D02*
X164375000Y-140500000D01*
X164375000Y-142600000D02*
X164375000Y-143000000D01*
X164375000Y-145200000D02*
X164375000Y-145600000D01*
X164375000Y-147700000D02*
X164375000Y-148100000D01*
X164375000Y-150300000D02*
X164375000Y-150700000D01*
X164375000Y-152800000D02*
X164375000Y-153200000D01*
X164375000Y-155300000D02*
X164375000Y-155700000D01*
X164375000Y-157900000D02*
X164375000Y-158300000D01*
X164375000Y-160700000D02*
X157575000Y-160700000D01*
%TO.C,R1*%
X175130000Y-116810000D02*
X175130000Y-123350000D01*
X175130000Y-123350000D02*
X177870000Y-123350000D01*
X176500000Y-116040000D02*
X176500000Y-116810000D01*
X176500000Y-124120000D02*
X176500000Y-123350000D01*
X177870000Y-116810000D02*
X175130000Y-116810000D01*
X177870000Y-123350000D02*
X177870000Y-116810000D01*
%TO.C,J2*%
X171140000Y-108390000D02*
X171140000Y-109640000D01*
X171440000Y-108690000D02*
X171440000Y-113410000D01*
X171440000Y-110000000D02*
X172050000Y-110000000D01*
X171440000Y-111300000D02*
X172050000Y-111300000D01*
X171440000Y-113410000D02*
X181560000Y-113410000D01*
X172050000Y-109300000D02*
X172050000Y-112800000D01*
X172050000Y-112800000D02*
X180950000Y-112800000D01*
X172390000Y-108390000D02*
X171140000Y-108390000D01*
X172900000Y-108490000D02*
X172900000Y-108690000D01*
X173200000Y-108490000D02*
X172900000Y-108490000D01*
X173200000Y-108590000D02*
X172900000Y-108590000D01*
X173200000Y-108690000D02*
X173200000Y-108490000D01*
X174000000Y-108690000D02*
X174000000Y-109300000D01*
X174000000Y-109300000D02*
X172050000Y-109300000D01*
X174400000Y-112300000D02*
X174600000Y-112300000D01*
X174400000Y-112800000D02*
X174400000Y-112300000D01*
X174500000Y-112800000D02*
X174500000Y-112300000D01*
X174600000Y-112300000D02*
X174600000Y-112800000D01*
X176400000Y-112300000D02*
X176600000Y-112300000D01*
X176400000Y-112800000D02*
X176400000Y-112300000D01*
X176500000Y-112800000D02*
X176500000Y-112300000D01*
X176600000Y-112300000D02*
X176600000Y-112800000D01*
X178400000Y-112300000D02*
X178600000Y-112300000D01*
X178400000Y-112800000D02*
X178400000Y-112300000D01*
X178500000Y-112800000D02*
X178500000Y-112300000D01*
X178600000Y-112300000D02*
X178600000Y-112800000D01*
X179000000Y-109300000D02*
X179000000Y-108690000D01*
X180950000Y-109300000D02*
X179000000Y-109300000D01*
X180950000Y-112800000D02*
X180950000Y-109300000D01*
X181560000Y-108690000D02*
X171440000Y-108690000D01*
X181560000Y-110000000D02*
X180950000Y-110000000D01*
X181560000Y-111300000D02*
X180950000Y-111300000D01*
X181560000Y-113410000D02*
X181560000Y-108690000D01*
%TD*%
M02*
